<?xml version="1.0" encoding="UTF-8" standalone="no"?>
<!-- Created with Inkscape (http://www.inkscape.org/) -->

<svg
   xmlns:dc="http://purl.org/dc/elements/1.1/"
   xmlns:cc="http://creativecommons.org/ns#"
   xmlns:rdf="http://www.w3.org/1999/02/22-rdf-syntax-ns#"
   xmlns:svg="http://www.w3.org/2000/svg"
   xmlns="http://www.w3.org/2000/svg"
   xmlns:sodipodi="http://sodipodi.sourceforge.net/DTD/sodipodi-0.dtd"
   xmlns:inkscape="http://www.inkscape.org/namespaces/inkscape"
   width="744.09448819"
   height="1052.3622047"
   id="svg3724"
   version="1.1"
   inkscape:version="0.48.3.1 r9886"
   sodipodi:docname="2.svg">
  <defs
     id="defs3726">
    <clipPath
       clipPathUnits="userSpaceOnUse"
       id="clipPath3547">
      <path
         d="m 37.14,752.54 486,0 0,-3 -486,0 0,3 z"
         clip-rule="evenodd"
         id="path3549" />
    </clipPath>
  </defs>
  <sodipodi:namedview
     id="base"
     pagecolor="#ffffff"
     bordercolor="#666666"
     borderopacity="1.0"
     inkscape:pageopacity="0.0"
     inkscape:pageshadow="2"
     inkscape:zoom="1.4"
     inkscape:cx="496.71191"
     inkscape:cy="746.0338"
     inkscape:document-units="px"
     inkscape:current-layer="g3511"
     showgrid="false"
     inkscape:window-width="1855"
     inkscape:window-height="1176"
     inkscape:window-x="65"
     inkscape:window-y="24"
     inkscape:window-maximized="1" />
  <metadata
     id="metadata3729">
    <rdf:RDF>
      <cc:Work
         rdf:about="">
        <dc:format>image/svg+xml</dc:format>
        <dc:type
           rdf:resource="http://purl.org/dc/dcmitype/StillImage" />
        <dc:title />
      </cc:Work>
    </rdf:RDF>
  </metadata>
  <g
     inkscape:label="Layer 1"
     inkscape:groupmode="layer"
     id="layer1">
    <g
       id="layer1-3"
       inkscape:label="Layer 1"
       transform="translate(66.018977,-5.8939031)">
      <g
         id="g3511"
         inkscape:label="3.1 overview"
         transform="matrix(1.25,0,0,-1.25,-74.765407,1013.1846)">
        <path
           inkscape:connector-curvature="0"
           d="m 205.31143,740.84286 -1.86,-0.06 -1.74,-0.3 -1.74,-0.42 -1.68,-0.6 -1.56,-0.78 -1.5,-0.9 -1.38,-1.02 -1.26,-1.2 -1.14,-1.26 -1.08,-1.38 -0.9,-1.5 -0.72,-1.56 -0.6,-1.68 -0.48,-1.68 -0.24,-1.8 -0.12,-1.86 0,-124.02 0.12,-1.8 0.24,-1.8 0.48,-1.74 0.6,-1.62 0.72,-1.62 0.9,-1.44 1.08,-1.44 1.14,-1.26 1.26,-1.14 1.38,-1.02 1.5,-0.96 1.56,-0.72 1.68,-0.6 1.74,-0.48 1.74,-0.24 1.86,-0.12 227.76,0 1.86,0.12 1.8,0.24 1.68,0.48 1.68,0.6 1.56,0.72 1.5,0.96 1.38,1.02 1.26,1.14 1.2,1.26 1.02,1.44 0.9,1.44 0.78,1.62 0.6,1.62 0.42,1.74 0.3,1.8 0.06,1.8 0,124.02 -0.06,1.86 -0.3,1.8 -0.42,1.68 -0.6,1.68 -0.78,1.56 -0.9,1.5 -1.02,1.38 -1.2,1.26 -1.26,1.2 -1.38,1.02 -1.5,0.9 -1.56,0.78 -1.68,0.6 -1.68,0.42 -1.8,0.3 -1.86,0.06 -227.76,0"
           style="fill:#96ff54;fill-opacity:1;fill-rule:evenodd;stroke:none"
           id="path3647" />
        <path
           inkscape:connector-curvature="0"
           d="m 205.31143,740.60286 -1.86,-0.06 0.06,0 -1.74,-0.3 -1.74,-0.42 0.06,0 -1.68,-0.6 -1.56,-0.78 -1.5,-0.9 0.06,0.06 -1.38,-1.02 -1.26,-1.2 -1.14,-1.26 -1.08,-1.38 0.06,0.06 -0.9,-1.5 -0.72,-1.56 -0.6,-1.68 0,0.06 -0.48,-1.68 -0.24,-1.8 -0.12,-1.86 0,0.06 0,-124.02 0.12,-1.8 0.24,-1.8 0,0.06 0.48,-1.74 0.6,-1.62 0.72,-1.62 0,0.06 0.9,-1.44 -0.06,0 1.08,-1.44 1.14,-1.26 0,0.06 1.26,-1.14 1.38,-1.02 -0.06,0 1.5,-0.96 1.56,-0.72 0,0.06 1.68,-0.6 -0.06,0 1.74,-0.48 1.74,-0.24 1.86,-0.12 -0.06,0 227.76,0 1.86,0.12 1.8,0.24 -0.06,0 1.68,0.48 1.68,0.6 0,-0.06 1.56,0.72 -0.06,0 0.24,-0.42 -1.56,-0.72 -1.68,-0.6 -0.06,0 -1.68,-0.48 -1.8,-0.24 -1.86,-0.12 -227.82,0 -1.86,0.12 -1.74,0.24 -0.06,0 -1.74,0.48 -1.68,0.6 -1.56,0.72 -0.06,0 -1.5,0.96 0,0.06 -1.38,1.02 -1.26,1.14 -0.06,0 -1.14,1.26 -1.08,1.44 0,0.06 -0.9,1.44 -0.72,1.62 -0.06,0 -0.6,1.62 0,0.06 -0.48,1.74 -0.24,1.8 -0.12,1.8 0,124.08 0.12,1.86 0.24,1.8 0,0.06 0.48,1.68 0.6,1.68 0.06,0 0.72,1.56 0,0.06 0.9,1.5 1.08,1.38 1.14,1.26 0,0.06 1.26,1.2 0.06,0 1.38,1.02 1.5,0.9 1.56,0.78 0.06,0.06 1.68,0.6 1.74,0.42 0.06,0 1.74,0.3 1.86,0.06"
           style="fill:#96ff54;fill-opacity:1;fill-rule:nonzero;stroke:none"
           id="path3649" />
        <path
           inkscape:connector-curvature="0"
           d="m 441.53143,583.16286 1.5,0.96 1.38,1.02 1.26,1.14 -0.06,0 1.2,1.26 0,-0.06 1.02,1.44 0.9,1.44 0,-0.06 0.78,1.62 -0.06,0 0.6,1.62 0.42,1.74 0,-0.06 0.3,1.8 0.06,1.8 0,124.02 -0.06,1.86 0,-0.06 -0.3,1.8 -0.42,1.68 0,-0.06 -0.6,1.68 0.06,0 -0.78,1.56 -0.9,1.5 0,-0.06 -1.02,1.38 -1.2,1.26 -1.26,1.2 0.06,0 -1.38,1.02 0,-0.06 -1.5,0.9 -1.56,0.78 0.06,0 -1.68,0.6 -1.68,0.42 0.06,0 -1.8,0.3 -1.86,0.06 -227.76,0 0,0.48 227.76,0 1.86,-0.06 0.06,0 1.8,-0.3 1.68,-0.42 0.06,0 1.68,-0.6 0,-0.06 1.56,-0.78 1.5,-0.9 0.06,0 1.38,-1.02 1.26,-1.2 1.2,-1.26 0,-0.06 1.02,-1.38 0.06,0 0.9,-1.5 0.78,-1.56 0,-0.06 0.6,-1.68 0.42,-1.68 0,-0.06 0.3,-1.8 0.06,-1.86 0,-124.02 -0.06,-1.8 0,-0.06 -0.3,-1.8 -0.42,-1.74 0,-0.06 -0.6,-1.62 -0.78,-1.62 -0.9,-1.44 0,-0.06 -1.02,-1.44 -0.06,0 -1.2,-1.26 -1.26,-1.14 -1.38,-1.02 -0.06,-0.06 -1.5,-0.96"
           style="fill:#96ff54;fill-opacity:1;fill-rule:nonzero;stroke:none"
           id="path3651" />
        <path
           inkscape:connector-curvature="0"
           d="m 205.31143,740.60286 -1.86,-0.06 0.06,0 -1.74,-0.3 -1.74,-0.42 0.06,0 -1.68,-0.6 -1.56,-0.78 -1.5,-0.9 0.06,0.06 -1.38,-1.02 -1.26,-1.2 -1.14,-1.26 -1.08,-1.38 0.06,0.06 -0.9,-1.5 -0.72,-1.56 -0.6,-1.68 0,0.06 -0.48,-1.68 -0.24,-1.8 -0.12,-1.86 0,0.06 0,-124.02 0.12,-1.8 0.24,-1.8 0,0.06 0.48,-1.74 0.6,-1.62 0.72,-1.62 0,0.06 0.9,-1.44 -0.06,0 1.08,-1.44 1.14,-1.26 0,0.06 1.26,-1.14 1.38,-1.02 -0.06,0 1.5,-0.96 1.56,-0.72 0,0.06 1.68,-0.6 -0.06,0 1.74,-0.48 1.74,-0.24 1.86,-0.12 -0.06,0 227.76,0 1.86,0.12 1.8,0.24 -0.06,0 1.68,0.48 1.68,0.6 0,-0.06 1.56,0.72 -0.06,0 0.24,-0.42 -1.56,-0.72 -1.68,-0.6 -0.06,0 -1.68,-0.48 -1.8,-0.24 -1.86,-0.12 -227.82,0 -1.86,0.12 -1.74,0.24 -0.06,0 -1.74,0.48 -1.68,0.6 -1.56,0.72 -0.06,0 -1.5,0.96 0,0.06 -1.38,1.02 -1.26,1.14 -0.06,0 -1.14,1.26 -1.08,1.44 0,0.06 -0.9,1.44 -0.72,1.62 -0.06,0 -0.6,1.62 0,0.06 -0.48,1.74 -0.24,1.8 -0.12,1.8 0,124.08 0.12,1.86 0.24,1.8 0,0.06 0.48,1.68 0.6,1.68 0.06,0 0.72,1.56 0,0.06 0.9,1.5 1.08,1.38 1.14,1.26 0,0.06 1.26,1.2 0.06,0 1.38,1.02 1.5,0.9 1.56,0.78 0.06,0.06 1.68,0.6 1.74,0.42 0.06,0 1.74,0.3 1.86,0.06"
           style="fill:#000000;fill-opacity:1;fill-rule:nonzero;stroke:none"
           id="path3653" />
        <path
           inkscape:connector-curvature="0"
           d="m 441.53143,583.16286 1.5,0.96 1.38,1.02 1.26,1.14 -0.06,0 1.2,1.26 0,-0.06 1.02,1.44 0.9,1.44 0,-0.06 0.78,1.62 -0.06,0 0.6,1.62 0.42,1.74 0,-0.06 0.3,1.8 0.06,1.8 0,124.02 -0.06,1.86 0,-0.06 -0.3,1.8 -0.42,1.68 0,-0.06 -0.6,1.68 0.06,0 -0.78,1.56 -0.9,1.5 0,-0.06 -1.02,1.38 -1.2,1.26 -1.26,1.2 0.06,0 -1.38,1.02 0,-0.06 -1.5,0.9 -1.56,0.78 0.06,0 -1.68,0.6 -1.68,0.42 0.06,0 -1.8,0.3 -1.86,0.06 -227.76,0 0,0.48 227.76,0 1.86,-0.06 0.06,0 1.8,-0.3 1.68,-0.42 0.06,0 1.68,-0.6 0,-0.06 1.56,-0.78 1.5,-0.9 0.06,0 1.38,-1.02 1.26,-1.2 1.2,-1.26 0,-0.06 1.02,-1.38 0.06,0 0.9,-1.5 0.78,-1.56 0,-0.06 0.6,-1.68 0.42,-1.68 0,-0.06 0.3,-1.8 0.06,-1.86 0,-124.02 -0.06,-1.8 0,-0.06 -0.3,-1.8 -0.42,-1.74 0,-0.06 -0.6,-1.62 -0.78,-1.62 -0.9,-1.44 0,-0.06 -1.02,-1.44 -0.06,0 -1.2,-1.26 -1.26,-1.14 -1.38,-1.02 -0.06,-0.06 -1.5,-0.96"
           style="fill:#000000;fill-opacity:1;fill-rule:nonzero;stroke:none"
           id="path3655" />
        <path
           inkscape:connector-curvature="0"
           d="m 199.79143,740.84286 -1.8,-0.06 -1.8,-0.3 -1.74,-0.42 -1.62,-0.6 -1.62,-0.78 -1.44,-0.9 -1.38,-1.02 -1.32,-1.2 -1.14,-1.26 -1.02,-1.38 -0.9,-1.5 -0.78,-1.56 -0.6,-1.68 -0.48,-1.68 -0.24,-1.8 -0.12,-1.86 0,-124.02 0.12,-1.8 0.24,-1.8 0.48,-1.74 0.6,-1.62 0.78,-1.62 0.9,-1.44 1.02,-1.44 1.14,-1.26 1.32,-1.14 1.38,-1.02 1.44,-0.96 1.62,-0.72 1.62,-0.6 1.74,-0.48 1.8,-0.24 1.8,-0.12 144.06,0 1.8,0.12 1.8,0.24 1.74,0.48 1.62,0.6 1.62,0.72 1.44,0.96 1.38,1.02 1.32,1.14 1.14,1.26 1.02,1.44 0.9,1.44 0.78,1.62 0.6,1.62 0.42,1.74 0.3,1.8 0.12,1.8 0,124.02 -0.12,1.86 -0.3,1.8 -0.42,1.68 -0.6,1.68 -0.78,1.56 -0.9,1.5 -1.02,1.38 -1.14,1.26 -1.32,1.2 -1.38,1.02 -1.44,0.9 -1.62,0.78 -1.62,0.6 -1.74,0.42 -1.8,0.3 -1.8,0.06 -144.06,0"
           style="fill:#c9ff5e;fill-opacity:1;fill-rule:evenodd;stroke:none"
           id="path3657" />
        <path
           inkscape:connector-curvature="0"
           d="m 199.79143,740.60286 -1.8,-0.06 0.06,0 -1.8,-0.3 -1.74,-0.42 0.06,0 -1.62,-0.6 -1.62,-0.78 -1.44,-0.9 0.06,0.06 -1.38,-1.02 -1.32,-1.2 -1.14,-1.26 -1.02,-1.38 0.06,0.06 -0.9,-1.5 -0.78,-1.56 -0.6,-1.68 0,0.06 -0.48,-1.68 -0.24,-1.8 -0.12,-1.86 0,0.06 0,-124.02 0.12,-1.8 0.24,-1.8 0,0.06 0.48,-1.74 0.6,-1.62 0.78,-1.62 0,0.06 0.9,-1.44 1.02,-1.44 -0.06,0 1.14,-1.26 0,0.06 1.32,-1.14 1.38,-1.02 -0.06,0 1.44,-0.96 1.62,-0.72 0,0.06 1.62,-0.6 -0.06,0 1.74,-0.48 1.8,-0.24 1.8,-0.12 -0.06,0 144.06,0 1.8,0.12 1.8,0.24 -0.06,0 1.74,0.48 1.62,0.6 0,-0.06 1.62,0.72 -0.06,0 0.24,-0.42 -1.62,-0.72 -1.62,-0.6 -0.06,0 -1.74,-0.48 -1.8,-0.24 -1.8,-0.12 -144.12,0 -1.8,0.12 -1.8,0.24 -0.06,0 -1.74,0.48 -1.62,0.6 -1.62,0.72 -0.06,0 -1.44,0.96 0,0.06 -1.38,1.02 -1.32,1.14 -0.06,0 -1.14,1.26 -1.02,1.44 0,0.06 -0.9,1.44 -0.78,1.62 -0.06,0 -0.6,1.62 0,0.06 -0.48,1.74 -0.24,1.8 -0.12,1.8 0,124.08 0.12,1.86 0.24,1.8 0,0.06 0.48,1.68 0.6,1.68 0.06,0.06 0.78,1.56 0.9,1.5 1.02,1.38 1.14,1.26 0.06,0.06 1.32,1.2 1.38,1.02 1.44,0.9 0.06,0 1.62,0.78 0,0.06 1.62,0.6 1.74,0.42 0.06,0 1.8,0.3 1.8,0.06"
           style="fill:#c9ff5e;fill-opacity:1;fill-rule:nonzero;stroke:none"
           id="path3659" />
        <path
           inkscape:connector-curvature="0"
           d="m 352.31143,583.16286 1.44,0.96 1.38,1.02 1.32,1.14 -0.06,-0.06 1.14,1.26 1.02,1.44 0.9,1.44 0,-0.06 0.78,1.62 -0.06,0 0.6,1.62 0.42,1.74 0,-0.06 0.3,1.8 0.12,1.8 0,124.02 0,-0.06 -0.12,1.86 -0.3,1.8 -0.42,1.68 0,-0.06 -0.6,1.68 0.06,0 -0.78,1.56 -0.9,1.5 0,-0.06 -1.02,1.38 -1.14,1.26 0.06,0 -1.32,1.2 -1.38,1.02 0,-0.06 -1.44,0.9 0.06,0 -1.62,0.78 -1.62,0.6 -1.74,0.42 0.06,0 -1.8,0.3 -1.8,0.06 -144.06,0 0,0.48 144.06,0 1.8,-0.06 0.06,0 1.8,-0.3 1.74,-0.42 0.06,0 1.62,-0.6 0,-0.06 1.62,-0.78 1.44,-0.9 0.06,0 1.38,-1.02 1.32,-1.2 0,-0.06 1.14,-1.26 1.02,-1.38 0.06,0 0.9,-1.5 0.78,-1.56 0,-0.06 0.6,-1.68 0.42,-1.68 0,-0.06 0.3,-1.8 0.12,-1.86 0,-124.08 -0.12,-1.8 -0.3,-1.8 -0.42,-1.74 0,-0.06 -0.6,-1.62 -0.78,-1.62 -0.9,-1.44 0,-0.06 -1.02,-1.44 -0.06,0 -1.14,-1.26 -1.32,-1.14 -1.38,-1.02 -0.06,-0.06 -1.44,-0.96"
           style="fill:#c9ff5e;fill-opacity:1;fill-rule:nonzero;stroke:none"
           id="path3661" />
        <path
           inkscape:connector-curvature="0"
           d="m 199.79143,740.60286 -1.8,-0.06 0.06,0 -1.8,-0.3 -1.74,-0.42 0.06,0 -1.62,-0.6 -1.62,-0.78 -1.44,-0.9 0.06,0.06 -1.38,-1.02 -1.32,-1.2 -1.14,-1.26 -1.02,-1.38 0.06,0.06 -0.9,-1.5 -0.78,-1.56 -0.6,-1.68 0,0.06 -0.48,-1.68 -0.24,-1.8 -0.12,-1.86 0,0.06 0,-124.02 0.12,-1.8 0.24,-1.8 0,0.06 0.48,-1.74 0.6,-1.62 0.78,-1.62 0,0.06 0.9,-1.44 1.02,-1.44 -0.06,0 1.14,-1.26 0,0.06 1.32,-1.14 1.38,-1.02 -0.06,0 1.44,-0.96 1.62,-0.72 0,0.06 1.62,-0.6 -0.06,0 1.74,-0.48 1.8,-0.24 1.8,-0.12 -0.06,0 144.06,0 1.8,0.12 1.8,0.24 -0.06,0 1.74,0.48 1.62,0.6 0,-0.06 1.62,0.72 -0.06,0 0.24,-0.42 -1.62,-0.72 -1.62,-0.6 -0.06,0 -1.74,-0.48 -1.8,-0.24 -1.8,-0.12 -144.12,0 -1.8,0.12 -1.8,0.24 -0.06,0 -1.74,0.48 -1.62,0.6 -1.62,0.72 -0.06,0 -1.44,0.96 0,0.06 -1.38,1.02 -1.32,1.14 -0.06,0 -1.14,1.26 -1.02,1.44 0,0.06 -0.9,1.44 -0.78,1.62 -0.06,0 -0.6,1.62 0,0.06 -0.48,1.74 -0.24,1.8 -0.12,1.8 0,124.08 0.12,1.86 0.24,1.8 0,0.06 0.48,1.68 0.6,1.68 0.06,0.06 0.78,1.56 0.9,1.5 1.02,1.38 1.14,1.26 0.06,0.06 1.32,1.2 1.38,1.02 1.44,0.9 0.06,0 1.62,0.78 0,0.06 1.62,0.6 1.74,0.42 0.06,0 1.8,0.3 1.8,0.06"
           style="fill:#000000;fill-opacity:1;fill-rule:nonzero;stroke:none"
           id="path3663" />
        <path
           inkscape:connector-curvature="0"
           d="m 352.31143,583.16286 1.44,0.96 1.38,1.02 1.32,1.14 -0.06,-0.06 1.14,1.26 1.02,1.44 0.9,1.44 0,-0.06 0.78,1.62 -0.06,0 0.6,1.62 0.42,1.74 0,-0.06 0.3,1.8 0.12,1.8 0,124.02 0,-0.06 -0.12,1.86 -0.3,1.8 -0.42,1.68 0,-0.06 -0.6,1.68 0.06,0 -0.78,1.56 -0.9,1.5 0,-0.06 -1.02,1.38 -1.14,1.26 0.06,0 -1.32,1.2 -1.38,1.02 0,-0.06 -1.44,0.9 0.06,0 -1.62,0.78 -1.62,0.6 -1.74,0.42 0.06,0 -1.8,0.3 -1.8,0.06 -144.06,0 0,0.48 144.06,0 1.8,-0.06 0.06,0 1.8,-0.3 1.74,-0.42 0.06,0 1.62,-0.6 0,-0.06 1.62,-0.78 1.44,-0.9 0.06,0 1.38,-1.02 1.32,-1.2 0,-0.06 1.14,-1.26 1.02,-1.38 0.06,0 0.9,-1.5 0.78,-1.56 0,-0.06 0.6,-1.68 0.42,-1.68 0,-0.06 0.3,-1.8 0.12,-1.86 0,-124.08 -0.12,-1.8 -0.3,-1.8 -0.42,-1.74 0,-0.06 -0.6,-1.62 -0.78,-1.62 -0.9,-1.44 0,-0.06 -1.02,-1.44 -0.06,0 -1.14,-1.26 -1.32,-1.14 -1.38,-1.02 -0.06,-0.06 -1.44,-0.96"
           style="fill:#000000;fill-opacity:1;fill-rule:nonzero;stroke:none"
           id="path3665" />
        <path
           inkscape:connector-curvature="0"
           d="m 191.81143,740.84286 -1.86,-0.06 -1.74,-0.3 -1.74,-0.42 -1.68,-0.6 -1.56,-0.78 -1.5,-0.9 -1.38,-1.02 -1.26,-1.2 -1.14,-1.26 -1.08,-1.38 -0.9,-1.5 -0.72,-1.56 -0.6,-1.68 -0.48,-1.68 -0.24,-1.8 -0.12,-1.86 0,-124.02 0.12,-1.8 0.24,-1.8 0.48,-1.74 0.6,-1.62 0.72,-1.62 0.9,-1.44 1.08,-1.44 1.14,-1.26 1.26,-1.14 1.38,-1.02 1.5,-0.96 1.56,-0.72 1.68,-0.6 1.74,-0.48 1.74,-0.24 1.86,-0.12 60.24,0 1.86,0.12 1.8,0.24 1.68,0.48 1.68,0.6 1.56,0.72 1.5,0.96 1.38,1.02 1.26,1.14 1.2,1.26 1.02,1.44 0.9,1.44 0.78,1.62 0.6,1.62 0.42,1.74 0.3,1.8 0.06,1.8 0,124.02 -0.06,1.86 -0.3,1.8 -0.42,1.68 -0.6,1.68 -0.78,1.56 -0.9,1.5 -1.02,1.38 -1.2,1.26 -1.26,1.2 -1.38,1.02 -1.5,0.9 -1.56,0.78 -1.68,0.6 -1.68,0.42 -1.8,0.3 -1.86,0.06 -60.24,0"
           style="fill:#ffcf38;fill-opacity:1;fill-rule:evenodd;stroke:none"
           id="path3667" />
        <path
           inkscape:connector-curvature="0"
           d="m 191.81143,740.60286 -1.86,-0.06 0.06,0 -1.74,-0.3 -1.74,-0.42 0.06,0 -1.68,-0.6 -1.56,-0.78 -1.5,-0.9 0.06,0.06 -1.38,-1.02 -1.26,-1.2 -1.14,-1.26 -1.08,-1.38 0.06,0.06 -0.9,-1.5 -0.72,-1.56 -0.6,-1.68 0,0.06 -0.48,-1.68 -0.24,-1.8 -0.12,-1.86 0,0.06 0,-124.02 0.12,-1.8 0.24,-1.8 0,0.06 0.48,-1.74 0.6,-1.62 0.72,-1.62 0,0.06 0.9,-1.44 -0.06,0 1.08,-1.44 1.14,-1.26 0,0.06 1.26,-1.14 1.38,-1.02 -0.06,0 1.5,-0.96 1.56,-0.72 0,0.06 1.68,-0.6 -0.06,0 1.74,-0.48 1.74,-0.24 1.86,-0.12 -0.06,0 60.24,0 1.86,0.12 1.8,0.24 -0.06,0 1.68,0.48 1.68,0.6 0,-0.06 1.56,0.72 -0.06,0 0.24,-0.42 -1.56,-0.72 -1.68,-0.6 -0.06,0 -1.68,-0.48 -1.8,-0.24 -1.86,-0.12 -60.3,0 -1.86,0.12 -1.74,0.24 -0.06,0 -1.74,0.48 -1.68,0.6 -1.56,0.72 -0.06,0 -1.5,0.96 0,0.06 -1.38,1.02 -1.26,1.14 -0.06,0 -1.14,1.26 -1.08,1.44 0,0.06 -0.9,1.44 -0.72,1.62 -0.06,0 -0.6,1.62 0,0.06 -0.48,1.74 -0.24,1.8 -0.12,1.8 0,124.08 0.12,1.86 0.24,1.8 0,0.06 0.48,1.68 0.6,1.68 0.06,0 0.72,1.56 0,0.06 0.9,1.5 1.08,1.38 1.14,1.26 0,0.06 1.26,1.2 0.06,0 1.38,1.02 1.5,0.9 1.56,0.78 0.06,0.06 1.68,0.6 1.74,0.42 0.06,0 1.74,0.3 1.86,0.06"
           style="fill:#ffcf38;fill-opacity:1;fill-rule:nonzero;stroke:none"
           id="path3669" />
        <path
           inkscape:connector-curvature="0"
           d="m 260.51143,583.16286 1.5,0.96 1.38,1.02 1.26,1.14 -0.06,0 1.2,1.26 0,-0.06 1.02,1.44 0.9,1.44 0,-0.06 0.78,1.62 -0.06,0 0.6,1.62 0.42,1.74 0,-0.06 0.3,1.8 0.06,1.8 0,124.02 -0.06,1.86 0,-0.06 -0.3,1.8 -0.42,1.68 0,-0.06 -0.6,1.68 0.06,0 -0.78,1.56 -0.9,1.5 0,-0.06 -1.02,1.38 -1.2,1.26 -1.26,1.2 0.06,0 -1.38,1.02 0,-0.06 -1.5,0.9 -1.56,0.78 0.06,0 -1.68,0.6 -1.68,0.42 0.06,0 -1.8,0.3 -1.86,0.06 -60.24,0 0,0.48 60.24,0 1.86,-0.06 0.06,0 1.8,-0.3 1.68,-0.42 0.06,0 1.68,-0.6 0,-0.06 1.56,-0.78 1.5,-0.9 0.06,0 1.38,-1.02 1.26,-1.2 1.2,-1.26 0,-0.06 1.02,-1.38 0.06,0 0.9,-1.5 0.78,-1.56 0,-0.06 0.6,-1.68 0.42,-1.68 0,-0.06 0.3,-1.8 0.06,-1.86 0,-124.02 -0.06,-1.8 0,-0.06 -0.3,-1.8 -0.42,-1.74 0,-0.06 -0.6,-1.62 -0.78,-1.62 -0.9,-1.44 0,-0.06 -1.02,-1.44 -0.06,0 -1.2,-1.26 -1.26,-1.14 -1.38,-1.02 -0.06,-0.06 -1.5,-0.96"
           style="fill:#ffcf38;fill-opacity:1;fill-rule:nonzero;stroke:none"
           id="path3671" />
        <path
           inkscape:connector-curvature="0"
           d="m 191.81143,740.60286 -1.86,-0.06 0.06,0 -1.74,-0.3 -1.74,-0.42 0.06,0 -1.68,-0.6 -1.56,-0.78 -1.5,-0.9 0.06,0.06 -1.38,-1.02 -1.26,-1.2 -1.14,-1.26 -1.08,-1.38 0.06,0.06 -0.9,-1.5 -0.72,-1.56 -0.6,-1.68 0,0.06 -0.48,-1.68 -0.24,-1.8 -0.12,-1.86 0,0.06 0,-124.02 0.12,-1.8 0.24,-1.8 0,0.06 0.48,-1.74 0.6,-1.62 0.72,-1.62 0,0.06 0.9,-1.44 -0.06,0 1.08,-1.44 1.14,-1.26 0,0.06 1.26,-1.14 1.38,-1.02 -0.06,0 1.5,-0.96 1.56,-0.72 0,0.06 1.68,-0.6 -0.06,0 1.74,-0.48 1.74,-0.24 1.86,-0.12 -0.06,0 60.24,0 1.86,0.12 1.8,0.24 -0.06,0 1.68,0.48 1.68,0.6 0,-0.06 1.56,0.72 -0.06,0 0.24,-0.42 -1.56,-0.72 -1.68,-0.6 -0.06,0 -1.68,-0.48 -1.8,-0.24 -1.86,-0.12 -60.3,0 -1.86,0.12 -1.74,0.24 -0.06,0 -1.74,0.48 -1.68,0.6 -1.56,0.72 -0.06,0 -1.5,0.96 0,0.06 -1.38,1.02 -1.26,1.14 -0.06,0 -1.14,1.26 -1.08,1.44 0,0.06 -0.9,1.44 -0.72,1.62 -0.06,0 -0.6,1.62 0,0.06 -0.48,1.74 -0.24,1.8 -0.12,1.8 0,124.08 0.12,1.86 0.24,1.8 0,0.06 0.48,1.68 0.6,1.68 0.06,0 0.72,1.56 0,0.06 0.9,1.5 1.08,1.38 1.14,1.26 0,0.06 1.26,1.2 0.06,0 1.38,1.02 1.5,0.9 1.56,0.78 0.06,0.06 1.68,0.6 1.74,0.42 0.06,0 1.74,0.3 1.86,0.06"
           style="fill:#000000;fill-opacity:1;fill-rule:nonzero;stroke:none"
           id="path3673" />
        <path
           inkscape:connector-curvature="0"
           d="m 260.51143,583.16286 1.5,0.96 1.38,1.02 1.26,1.14 -0.06,0 1.2,1.26 0,-0.06 1.02,1.44 0.9,1.44 0,-0.06 0.78,1.62 -0.06,0 0.6,1.62 0.42,1.74 0,-0.06 0.3,1.8 0.06,1.8 0,124.02 -0.06,1.86 0,-0.06 -0.3,1.8 -0.42,1.68 0,-0.06 -0.6,1.68 0.06,0 -0.78,1.56 -0.9,1.5 0,-0.06 -1.02,1.38 -1.2,1.26 -1.26,1.2 0.06,0 -1.38,1.02 0,-0.06 -1.5,0.9 -1.56,0.78 0.06,0 -1.68,0.6 -1.68,0.42 0.06,0 -1.8,0.3 -1.86,0.06 -60.24,0 0,0.48 60.24,0 1.86,-0.06 0.06,0 1.8,-0.3 1.68,-0.42 0.06,0 1.68,-0.6 0,-0.06 1.56,-0.78 1.5,-0.9 0.06,0 1.38,-1.02 1.26,-1.2 1.2,-1.26 0,-0.06 1.02,-1.38 0.06,0 0.9,-1.5 0.78,-1.56 0,-0.06 0.6,-1.68 0.42,-1.68 0,-0.06 0.3,-1.8 0.06,-1.86 0,-124.02 -0.06,-1.8 0,-0.06 -0.3,-1.8 -0.42,-1.74 0,-0.06 -0.6,-1.62 -0.78,-1.62 -0.9,-1.44 0,-0.06 -1.02,-1.44 -0.06,0 -1.2,-1.26 -1.26,-1.14 -1.38,-1.02 -0.06,-0.06 -1.5,-0.96"
           style="fill:#000000;fill-opacity:1;fill-rule:nonzero;stroke:none"
           id="path3675" />
        <path
           inkscape:connector-curvature="0"
           d="m 191.81143,740.12286 -1.86,-0.12 -1.74,-0.3 -1.74,-0.42 -1.68,-0.6 -1.56,-0.78 -1.5,-0.9 -1.38,-1.02 -1.26,-1.14 -1.14,-1.32 -1.08,-1.38 -0.9,-1.44 -0.72,-1.62 -0.6,-1.62 -0.48,-1.74 -0.24,-1.8 -0.12,-1.8 0,-75.3 0.12,-1.8 0.24,-1.8 0.48,-1.74 0.6,-1.62 0.72,-1.62 0.9,-1.44 1.08,-1.38 1.14,-1.32 1.26,-1.14 1.38,-1.02 1.5,-0.9 1.56,-0.78 1.68,-0.6 1.74,-0.48 1.74,-0.24 1.86,-0.12 60.24,0 1.86,0.12 1.8,0.24 1.68,0.48 1.68,0.6 1.56,0.78 1.5,0.9 1.38,1.02 1.26,1.14 1.2,1.32 1.02,1.38 0.9,1.44 0.78,1.62 0.6,1.62 0.42,1.74 0.3,1.8 0.06,1.8 0,75.3 -0.06,1.8 -0.3,1.8 -0.42,1.74 -0.6,1.62 -0.78,1.62 -0.9,1.44 -1.02,1.38 -1.2,1.32 -1.26,1.14 -1.38,1.02 -1.5,0.9 -1.56,0.78 -1.68,0.6 -1.68,0.42 -1.8,0.3 -1.86,0.12 -60.24,0"
           style="fill:#ffff9a;fill-opacity:1;fill-rule:evenodd;stroke:none"
           id="path3677" />
        <path
           inkscape:connector-curvature="0"
           d="m 191.87143,739.88286 -1.86,-0.12 -1.74,-0.3 -1.74,-0.42 0.06,0 -1.68,-0.6 -1.56,-0.78 -1.5,-0.9 0.06,0.06 -1.38,-1.02 -1.26,-1.14 -1.14,-1.32 -1.08,-1.38 0.06,0.06 -0.9,-1.44 -0.72,-1.62 -0.6,-1.62 0,0.06 -0.48,-1.74 -0.24,-1.8 -0.12,-1.8 0,0.06 0,-75.3 0.12,-1.8 0.24,-1.8 0,0.06 0.48,-1.74 0.6,-1.62 0.72,-1.62 0,0.06 0.9,-1.44 -0.06,0 1.08,-1.38 1.14,-1.32 0,0.06 1.26,-1.14 1.38,-1.02 -0.06,0 1.5,-0.9 1.56,-0.78 0,0.06 1.68,-0.6 -0.06,0 1.74,-0.48 1.74,-0.24 1.86,-0.12 -0.06,0 60.24,0 1.86,0.12 1.8,0.24 -0.06,0 1.68,0.48 1.68,0.6 -0.06,-0.06 1.56,0.78 0.24,-0.42 -1.56,-0.78 -1.68,-0.6 -0.06,0 -1.68,-0.48 -1.8,-0.24 -1.86,-0.12 -60.3,0 -1.86,0.12 -1.74,0.24 -0.06,0 -1.74,0.48 -1.68,0.6 -0.06,0 -1.56,0.78 -1.5,0.9 0,0.06 -1.38,1.02 -1.26,1.14 -0.06,0 -1.14,1.32 -1.08,1.38 0,0.06 -0.9,1.44 -0.72,1.62 -0.06,0 -0.6,1.62 0,0.06 -0.48,1.74 -0.24,1.8 -0.12,1.8 0,75.36 0.12,1.8 0.24,1.8 0,0.06 0.48,1.74 0.6,1.62 0.06,0 0.72,1.62 0,0.06 0.9,1.44 1.08,1.38 1.14,1.32 0.06,0.06 1.26,1.14 1.38,1.02 1.5,0.9 1.56,0.78 0.06,0.06 1.68,0.6 1.74,0.42 0.06,0 1.74,0.3 1.86,0.12"
           style="fill:#ffff9a;fill-opacity:1;fill-rule:nonzero;stroke:none"
           id="path3679" />
        <path
           inkscape:connector-curvature="0"
           d="m 260.51143,631.22286 1.5,0.9 1.38,1.02 1.26,1.14 -0.06,-0.06 1.2,1.32 1.02,1.38 0.9,1.44 0,-0.06 0.78,1.62 -0.06,0 0.6,1.62 0.42,1.74 0,-0.06 0.3,1.8 0.06,1.8 0,75.3 -0.06,1.8 0,-0.06 -0.3,1.8 -0.42,1.74 0,-0.06 -0.6,1.62 0.06,0 -0.78,1.62 -0.9,1.44 0,-0.06 -1.02,1.38 -1.2,1.32 0.06,0 -1.26,1.14 -1.38,1.02 0,-0.06 -1.5,0.9 -1.56,0.78 0.06,0 -1.68,0.6 -1.68,0.42 0.06,0 -1.8,0.3 -1.86,0.12 -60.24,0 0.06,0 -0.06,0.48 60.3,0 1.86,-0.12 1.8,-0.3 1.68,-0.42 0.06,0 1.68,-0.6 0,-0.06 1.56,-0.78 1.5,-0.9 0.06,0 1.38,-1.02 1.26,-1.14 0,-0.06 1.2,-1.32 1.02,-1.38 0.06,0 0.9,-1.44 0,-0.06 0.78,-1.62 0.6,-1.62 0.42,-1.74 0,-0.06 0.3,-1.8 0.06,-1.8 0,-75.3 -0.06,-1.8 0,-0.06 -0.3,-1.8 -0.42,-1.74 0,-0.06 -0.6,-1.62 -0.78,-1.62 -0.9,-1.44 -0.06,-0.06 -1.02,-1.38 -1.2,-1.32 -1.26,-1.14 -1.38,-1.02 -0.06,-0.06 -1.5,-0.9"
           style="fill:#ffff9a;fill-opacity:1;fill-rule:nonzero;stroke:none"
           id="path3681" />
        <path
           inkscape:connector-curvature="0"
           d="m 191.87143,739.88286 -1.86,-0.12 -1.74,-0.3 -1.74,-0.42 0.06,0 -1.68,-0.6 -1.56,-0.78 -1.5,-0.9 0.06,0.06 -1.38,-1.02 -1.26,-1.14 -1.14,-1.32 -1.08,-1.38 0.06,0.06 -0.9,-1.44 -0.72,-1.62 -0.6,-1.62 0,0.06 -0.48,-1.74 -0.24,-1.8 -0.12,-1.8 0,0.06 0,-75.3 0.12,-1.8 0.24,-1.8 0,0.06 0.48,-1.74 0.6,-1.62 0.72,-1.62 0,0.06 0.9,-1.44 -0.06,0 1.08,-1.38 1.14,-1.32 0,0.06 1.26,-1.14 1.38,-1.02 -0.06,0 1.5,-0.9 1.56,-0.78 0,0.06 1.68,-0.6 -0.06,0 1.74,-0.48 1.74,-0.24 1.86,-0.12 -0.06,0 60.24,0 1.86,0.12 1.8,0.24 -0.06,0 1.68,0.48 1.68,0.6 -0.06,-0.06 1.56,0.78 0.24,-0.42 -1.56,-0.78 -1.68,-0.6 -0.06,0 -1.68,-0.48 -1.8,-0.24 -1.86,-0.12 -60.3,0 -1.86,0.12 -1.74,0.24 -0.06,0 -1.74,0.48 -1.68,0.6 -0.06,0 -1.56,0.78 -1.5,0.9 0,0.06 -1.38,1.02 -1.26,1.14 -0.06,0 -1.14,1.32 -1.08,1.38 0,0.06 -0.9,1.44 -0.72,1.62 -0.06,0 -0.6,1.62 0,0.06 -0.48,1.74 -0.24,1.8 -0.12,1.8 0,75.36 0.12,1.8 0.24,1.8 0,0.06 0.48,1.74 0.6,1.62 0.06,0 0.72,1.62 0,0.06 0.9,1.44 1.08,1.38 1.14,1.32 0.06,0.06 1.26,1.14 1.38,1.02 1.5,0.9 1.56,0.78 0.06,0.06 1.68,0.6 1.74,0.42 0.06,0 1.74,0.3 1.86,0.12"
           style="fill:#000000;fill-opacity:1;fill-rule:nonzero;stroke:none"
           id="path3683" />
        <path
           inkscape:connector-curvature="0"
           d="m 260.51143,631.22286 1.5,0.9 1.38,1.02 1.26,1.14 -0.06,-0.06 1.2,1.32 1.02,1.38 0.9,1.44 0,-0.06 0.78,1.62 -0.06,0 0.6,1.62 0.42,1.74 0,-0.06 0.3,1.8 0.06,1.8 0,75.3 -0.06,1.8 0,-0.06 -0.3,1.8 -0.42,1.74 0,-0.06 -0.6,1.62 0.06,0 -0.78,1.62 -0.9,1.44 0,-0.06 -1.02,1.38 -1.2,1.32 0.06,0 -1.26,1.14 -1.38,1.02 0,-0.06 -1.5,0.9 -1.56,0.78 0.06,0 -1.68,0.6 -1.68,0.42 0.06,0 -1.8,0.3 -1.86,0.12 -60.24,0 0.06,0 -0.06,0.48 60.3,0 1.86,-0.12 1.8,-0.3 1.68,-0.42 0.06,0 1.68,-0.6 0,-0.06 1.56,-0.78 1.5,-0.9 0.06,0 1.38,-1.02 1.26,-1.14 0,-0.06 1.2,-1.32 1.02,-1.38 0.06,0 0.9,-1.44 0,-0.06 0.78,-1.62 0.6,-1.62 0.42,-1.74 0,-0.06 0.3,-1.8 0.06,-1.8 0,-75.3 -0.06,-1.8 0,-0.06 -0.3,-1.8 -0.42,-1.74 0,-0.06 -0.6,-1.62 -0.78,-1.62 -0.9,-1.44 -0.06,-0.06 -1.02,-1.38 -1.2,-1.32 -1.26,-1.14 -1.38,-1.02 -0.06,-0.06 -1.5,-0.9"
           style="fill:#000000;fill-opacity:1;fill-rule:nonzero;stroke:none"
           id="path3685" />
        <path
           inkscape:connector-curvature="0"
           d="m 191.99143,740.54286 -1.86,-0.06 0.06,0 -1.8,-0.3 -1.68,-0.42 0.06,0 -0.18,0.48 1.68,0.42 0.06,0 1.8,0.3 1.86,0.06"
           style="fill:#000000;fill-opacity:1;fill-rule:nonzero;stroke:none"
           id="path3703" />
        <path
           inkscape:connector-curvature="0"
           d="m 186.77143,739.76286 -1.68,-0.6 -0.18,0.42 0,0.06 1.68,0.6"
           style="fill:#000000;fill-opacity:1;fill-rule:nonzero;stroke:none"
           id="path3705" />
        <path
           inkscape:connector-curvature="0"
           d="m 185.09143,739.16286 -0.18,0.42 -0.78,-0.36 0.18,-0.42"
           style="fill:#000000;fill-opacity:1;fill-rule:nonzero;stroke:none"
           id="path3707" />
        <path
           inkscape:connector-curvature="0"
           d="m 179.33143,735.32286 -0.06,0 0.18,0.06 -1.2,-1.32 -1.02,-1.38 0.06,0.06 -0.9,-1.5 -0.42,0.24 0.9,1.5 1.02,1.38 1.2,1.32 0.18,0.12 0.06,0"
           style="fill:#000000;fill-opacity:1;fill-rule:nonzero;stroke:none"
           id="path3709" />
        <path
           inkscape:connector-curvature="0"
           d="m 176.39143,731.24286 -0.78,-1.56 0,0.06 -0.48,0.12 0.06,0.06 0.78,1.56"
           style="fill:#000000;fill-opacity:1;fill-rule:nonzero;stroke:none"
           id="path3711" />
        <path
           inkscape:connector-curvature="0"
           d="m 175.61143,729.74286 -0.48,0.12 -0.3,-0.96 0.48,-0.12"
           style="fill:#000000;fill-opacity:1;fill-rule:nonzero;stroke:none"
           id="path3713" />
        <path
           inkscape:connector-curvature="0"
           d="m 173.75143,722.78286 0.48,0 0,0.18 -0.48,0 0,-0.18 z"
           style="fill:#000000;fill-opacity:1;fill-rule:nonzero;stroke:none"
           id="path3715" />
        <path
           inkscape:connector-curvature="0"
           d="m 173.75143,722.78286 0.48,0 0,-7.86 -0.48,0 0,7.86 z"
           style="fill:#000000;fill-opacity:1;fill-rule:nonzero;stroke:none"
           id="path3717" />
        <path
           inkscape:connector-curvature="0"
           d="m 173.75143,708.86286 0.48,0 0,-8.04 -0.48,0 0,8.04 z"
           style="fill:#000000;fill-opacity:1;fill-rule:nonzero;stroke:none"
           id="path3719" />
        <path
           inkscape:connector-curvature="0"
           d="m 173.75143,694.82286 0.48,0 0,-8.04 -0.48,0 0,8.04 z"
           style="fill:#000000;fill-opacity:1;fill-rule:nonzero;stroke:none"
           id="path3721" />
        <path
           inkscape:connector-curvature="0"
           d="m 173.75143,680.72286 0.48,0 0,-8.04 -0.48,0 0,8.04 z"
           style="fill:#000000;fill-opacity:1;fill-rule:nonzero;stroke:none"
           id="path3723" />
        <path
           inkscape:connector-curvature="0"
           d="m 173.75143,666.68286 0.48,0 0,-8.04 -0.48,0 0,8.04 z"
           style="fill:#000000;fill-opacity:1;fill-rule:nonzero;stroke:none"
           id="path3725" />
        <path
           inkscape:connector-curvature="0"
           d="m 173.75143,652.64286 0.48,0 0,-5.52 -0.48,0 0,5.52 z"
           style="fill:#000000;fill-opacity:1;fill-rule:nonzero;stroke:none"
           id="path3727" />
        <path
           inkscape:connector-curvature="0"
           d="m 174.23143,647.12286 0.06,-1.86 -0.48,-0.06 0,0.06 -0.06,1.86"
           style="fill:#000000;fill-opacity:1;fill-rule:nonzero;stroke:none"
           id="path3729" />
        <path
           inkscape:connector-curvature="0"
           d="m 174.29143,645.26286 -0.48,-0.06 0.12,-0.66 0.48,0.06"
           style="fill:#000000;fill-opacity:1;fill-rule:nonzero;stroke:none"
           id="path3731" />
        <path
           inkscape:connector-curvature="0"
           d="m 176.21143,638.96286 1.08,-1.8 -0.06,0 1.02,-1.38 0,0.06 1.2,-1.26 -0.36,-0.36 -1.2,1.26 -1.02,1.38 0,0.06 -1.08,1.8"
           style="fill:#000000;fill-opacity:1;fill-rule:nonzero;stroke:none"
           id="path3733" />
        <path
           inkscape:connector-curvature="0"
           d="m 179.45143,634.58286 1.26,-1.2 -0.3,-0.42 -0.06,0.06 -1.26,1.2"
           style="fill:#000000;fill-opacity:1;fill-rule:nonzero;stroke:none"
           id="path3735" />
        <path
           inkscape:connector-curvature="0"
           d="m 180.71143,633.38286 -0.3,-0.42 0.6,-0.42 0.3,0.42"
           style="fill:#000000;fill-opacity:1;fill-rule:nonzero;stroke:none"
           id="path3737" />
        <path
           inkscape:connector-curvature="0"
           d="m 186.53143,630.20286 0.24,-0.12 -0.06,0.06 1.68,-0.42 1.8,-0.3 -0.06,0 0,-0.48 -1.8,0.3 -0.06,0 -1.68,0.42 -0.06,0 -0.24,0.12"
           style="fill:#000000;fill-opacity:1;fill-rule:nonzero;stroke:none"
           id="path3739" />
        <path
           inkscape:connector-curvature="0"
           d="m 190.13143,629.42286 1.86,-0.06 0,-0.48 -1.86,0.06"
           style="fill:#000000;fill-opacity:1;fill-rule:nonzero;stroke:none"
           id="path3741" />
        <path
           inkscape:connector-curvature="0"
           d="m 191.99143,629.36286 2.4,0 0,-0.48 -2.4,0 0,0.48 z"
           style="fill:#000000;fill-opacity:1;fill-rule:nonzero;stroke:none"
           id="path3743" />
        <path
           inkscape:connector-curvature="0"
           d="m 200.39143,629.36286 8.04,0 0,-0.48 -8.04,0 0,0.48 z"
           style="fill:#000000;fill-opacity:1;fill-rule:nonzero;stroke:none"
           id="path3745" />
        <path
           inkscape:connector-curvature="0"
           d="m 214.49143,629.36286 8.04,0 0,-0.48 -8.04,0 0,0.48 z"
           style="fill:#000000;fill-opacity:1;fill-rule:nonzero;stroke:none"
           id="path3747" />
        <path
           inkscape:connector-curvature="0"
           d="m 228.53143,629.36286 8.04,0 0,-0.48 -8.04,0 0,0.48 z"
           style="fill:#000000;fill-opacity:1;fill-rule:nonzero;stroke:none"
           id="path3749" />
        <path
           inkscape:connector-curvature="0"
           d="m 242.57143,629.36286 8.04,0 0,-0.48 -8.04,0 0,0.48 z"
           style="fill:#000000;fill-opacity:1;fill-rule:nonzero;stroke:none"
           id="path3751" />
        <path
           inkscape:connector-curvature="0"
           d="m 256.67143,629.36286 8.04,0 0,-0.48 -8.04,0 0,0.48 z"
           style="fill:#000000;fill-opacity:1;fill-rule:nonzero;stroke:none"
           id="path3753" />
        <path
           inkscape:connector-curvature="0"
           d="m 270.71143,629.36286 8.04,0 0,-0.48 -8.04,0 0,0.48 z"
           style="fill:#000000;fill-opacity:1;fill-rule:nonzero;stroke:none"
           id="path3755" />
        <path
           inkscape:connector-curvature="0"
           d="m 284.81143,629.36286 8.04,0 0,-0.48 -8.04,0 0,0.48 z"
           style="fill:#000000;fill-opacity:1;fill-rule:nonzero;stroke:none"
           id="path3757" />
        <path
           inkscape:connector-curvature="0"
           d="m 298.85143,629.36286 8.04,0 0,-0.48 -8.04,0 0,0.48 z"
           style="fill:#000000;fill-opacity:1;fill-rule:nonzero;stroke:none"
           id="path3759" />
        <path
           inkscape:connector-curvature="0"
           d="m 312.95143,629.36286 8.04,0 0,-0.48 -8.04,0 0,0.48 z"
           style="fill:#000000;fill-opacity:1;fill-rule:nonzero;stroke:none"
           id="path3761" />
        <path
           inkscape:connector-curvature="0"
           d="m 326.99143,629.36286 8.04,0 0,-0.48 -8.04,0 0,0.48 z"
           style="fill:#000000;fill-opacity:1;fill-rule:nonzero;stroke:none"
           id="path3763" />
        <path
           inkscape:connector-curvature="0"
           d="m 341.03143,629.36286 8.04,0 0,-0.48 -8.04,0 0,0.48 z"
           style="fill:#000000;fill-opacity:1;fill-rule:nonzero;stroke:none"
           id="path3765" />
        <path
           inkscape:connector-curvature="0"
           d="m 355.13143,629.36286 8.04,0 0,-0.48 -8.04,0 0,0.48 z"
           style="fill:#000000;fill-opacity:1;fill-rule:nonzero;stroke:none"
           id="path3767" />
        <path
           inkscape:connector-curvature="0"
           d="m 369.17143,629.36286 8.04,0 0,-0.48 -8.04,0 0,0.48 z"
           style="fill:#000000;fill-opacity:1;fill-rule:nonzero;stroke:none"
           id="path3769" />
        <path
           inkscape:connector-curvature="0"
           d="m 383.27143,629.36286 8.04,0 0,-0.48 -8.04,0 0,0.48 z"
           style="fill:#000000;fill-opacity:1;fill-rule:nonzero;stroke:none"
           id="path3771" />
        <path
           inkscape:connector-curvature="0"
           d="m 397.31143,629.36286 8.04,0 0,-0.48 -8.04,0 0,0.48 z"
           style="fill:#000000;fill-opacity:1;fill-rule:nonzero;stroke:none"
           id="path3773" />
        <path
           inkscape:connector-curvature="0"
           d="m 411.41143,629.36286 8.04,0 0,-0.48 -8.04,0 0,0.48 z"
           style="fill:#000000;fill-opacity:1;fill-rule:nonzero;stroke:none"
           id="path3775" />
        <path
           inkscape:connector-curvature="0"
           d="m 425.45143,628.88286 7.02,0 0,0.48 -7.02,0 0,-0.48 z"
           style="fill:#000000;fill-opacity:1;fill-rule:nonzero;stroke:none"
           id="path3777" />
        <path
           inkscape:connector-curvature="0"
           d="m 432.47143,629.36286 0,-0.48 1.02,0.06 0,0.48"
           style="fill:#000000;fill-opacity:1;fill-rule:nonzero;stroke:none"
           id="path3779" />
        <path
           inkscape:connector-curvature="0"
           d="m 439.25143,630.62286 1.68,0.84 1.5,0.9 1.38,1.02 -0.06,0 0.36,-0.36 -1.38,-1.02 -0.06,-0.06 -1.5,-0.9 -1.56,-0.78 -0.12,-0.06"
           style="fill:#000000;fill-opacity:1;fill-rule:nonzero;stroke:none"
           id="path3781" />
        <path
           inkscape:connector-curvature="0"
           d="m 443.75143,633.38286 1.26,1.2 0.36,-0.36 -1.26,-1.2"
           style="fill:#000000;fill-opacity:1;fill-rule:nonzero;stroke:none"
           id="path3783" />
        <path
           inkscape:connector-curvature="0"
           d="m 445.01143,634.58286 0.36,-0.36 0.66,0.66 -0.36,0.36"
           style="fill:#000000;fill-opacity:1;fill-rule:nonzero;stroke:none"
           id="path3785" />
        <path
           inkscape:connector-curvature="0"
           d="m 448.85143,640.16286 0.6,1.68 0.42,1.68 0,-0.06 0.3,1.8 0.48,0 0,-0.06 -0.3,-1.8 -0.42,-1.68 0,-0.06 -0.6,-1.68"
           style="fill:#000000;fill-opacity:1;fill-rule:nonzero;stroke:none"
           id="path3787" />
        <path
           inkscape:connector-curvature="0"
           d="m 450.17143,645.26286 0.06,1.86 0.48,0 -0.06,-1.86"
           style="fill:#000000;fill-opacity:1;fill-rule:nonzero;stroke:none"
           id="path3789" />
        <path
           inkscape:connector-curvature="0"
           d="m 450.23143,647.96286 0.48,0 0,-0.84 -0.48,0 0,0.84 z"
           style="fill:#000000;fill-opacity:1;fill-rule:nonzero;stroke:none"
           id="path3791" />
        <path
           inkscape:connector-curvature="0"
           d="m 450.23143,662.06286 0.48,0 0,-8.04 -0.48,0 0,8.04 z"
           style="fill:#000000;fill-opacity:1;fill-rule:nonzero;stroke:none"
           id="path3793" />
        <path
           inkscape:connector-curvature="0"
           d="m 450.23143,676.10286 0.48,0 0,-8.04 -0.48,0 0,8.04 z"
           style="fill:#000000;fill-opacity:1;fill-rule:nonzero;stroke:none"
           id="path3795" />
        <path
           inkscape:connector-curvature="0"
           d="m 450.23143,682.16286 0.48,0 0,2.82 -0.48,0 0,-2.82 z"
           style="fill:#000000;fill-opacity:1;fill-rule:nonzero;stroke:none"
           id="path3797" />
        <path
           inkscape:connector-curvature="0"
           d="m 450.23143,690.20286 0.48,0 0,-5.22 -0.48,0 0,5.22 z"
           style="fill:#000000;fill-opacity:1;fill-rule:nonzero;stroke:none"
           id="path3799" />
        <path
           inkscape:connector-curvature="0"
           d="m 450.23143,704.24286 0.48,0 0,-8.04 -0.48,0 0,8.04 z"
           style="fill:#000000;fill-opacity:1;fill-rule:nonzero;stroke:none"
           id="path3801" />
        <path
           inkscape:connector-curvature="0"
           d="m 450.23143,718.28286 0.48,0 0,-8.04 -0.48,0 0,8.04 z"
           style="fill:#000000;fill-opacity:1;fill-rule:nonzero;stroke:none"
           id="path3803" />
        <path
           inkscape:connector-curvature="0"
           d="m 450.17143,724.34286 0,0.3 0,-0.06 -0.3,1.8 -0.42,1.74 0,-0.06 -0.6,1.62 0.06,0 0.42,0.24 0,-0.06 0.6,-1.62 0.42,-1.74 0,-0.06 0.3,-1.8 0,-0.3"
           style="fill:#000000;fill-opacity:1;fill-rule:nonzero;stroke:none"
           id="path3805" />
        <path
           inkscape:connector-curvature="0"
           d="m 448.91143,729.68286 -0.78,1.56 0.42,0.24 0.78,-1.56"
           style="fill:#000000;fill-opacity:1;fill-rule:nonzero;stroke:none"
           id="path3807" />
        <path
           inkscape:connector-curvature="0"
           d="m 448.13143,731.24286 0.42,0.24 -0.3,0.54 -0.42,-0.24"
           style="fill:#000000;fill-opacity:1;fill-rule:nonzero;stroke:none"
           id="path3809" />
        <path
           inkscape:connector-curvature="0"
           d="m 443.93143,736.34286 -0.18,0.18 0.06,0 -1.38,1.02 0,-0.06 -1.5,0.9 -1.56,0.78 0.06,0 0.18,0.48 0,-0.06 1.56,-0.78 1.5,-0.9 0.06,0 1.38,-1.02 0.18,-0.18"
           style="fill:#000000;fill-opacity:1;fill-rule:nonzero;stroke:none"
           id="path3811" />
        <path
           inkscape:connector-curvature="0"
           d="m 439.43143,739.16286 -1.62,0.6 0.12,0.48 0.06,0 1.62,-0.6"
           style="fill:#000000;fill-opacity:1;fill-rule:nonzero;stroke:none"
           id="path3813" />
        <path
           inkscape:connector-curvature="0"
           d="m 437.81143,739.76286 0.12,0.48 -0.78,0.18 -0.12,-0.48"
           style="fill:#000000;fill-opacity:1;fill-rule:nonzero;stroke:none"
           id="path3815" />
        <path
           inkscape:connector-curvature="0"
           d="m 423.05143,741.02286 8.04,0 0,-0.48 -8.04,0 0,0.48 z"
           style="fill:#000000;fill-opacity:1;fill-rule:nonzero;stroke:none"
           id="path3817" />
        <path
           inkscape:connector-curvature="0"
           d="m 409.01143,741.02286 8.04,0 0,-0.48 -8.04,0 0,0.48 z"
           style="fill:#000000;fill-opacity:1;fill-rule:nonzero;stroke:none"
           id="path3819" />
        <path
           inkscape:connector-curvature="0"
           d="m 394.91143,741.02286 8.04,0 0,-0.48 -8.04,0 0,0.48 z"
           style="fill:#000000;fill-opacity:1;fill-rule:nonzero;stroke:none"
           id="path3821" />
        <path
           inkscape:connector-curvature="0"
           d="m 380.87143,741.02286 8.04,0 0,-0.48 -8.04,0 0,0.48 z"
           style="fill:#000000;fill-opacity:1;fill-rule:nonzero;stroke:none"
           id="path3823" />
        <path
           inkscape:connector-curvature="0"
           d="m 366.83143,741.02286 8.04,0 0,-0.48 -8.04,0 0,0.48 z"
           style="fill:#000000;fill-opacity:1;fill-rule:nonzero;stroke:none"
           id="path3825" />
        <path
           inkscape:connector-curvature="0"
           d="m 352.73143,741.02286 8.04,0 0,-0.48 -8.04,0 0,0.48 z"
           style="fill:#000000;fill-opacity:1;fill-rule:nonzero;stroke:none"
           id="path3827" />
        <path
           inkscape:connector-curvature="0"
           d="m 338.69143,741.02286 8.04,0 0,-0.48 -8.04,0 0,0.48 z"
           style="fill:#000000;fill-opacity:1;fill-rule:nonzero;stroke:none"
           id="path3829" />
        <path
           inkscape:connector-curvature="0"
           d="m 324.59143,741.02286 8.04,0 0,-0.48 -8.04,0 0,0.48 z"
           style="fill:#000000;fill-opacity:1;fill-rule:nonzero;stroke:none"
           id="path3831" />
        <path
           inkscape:connector-curvature="0"
           d="m 312.23143,740.54286 6.36,0 0,0.48 -6.36,0 0,-0.48 z"
           style="fill:#000000;fill-opacity:1;fill-rule:nonzero;stroke:none"
           id="path3833" />
        <path
           inkscape:connector-curvature="0"
           d="m 310.55143,741.02286 1.68,0 0,-0.48 -1.68,0 0,0.48 z"
           style="fill:#000000;fill-opacity:1;fill-rule:nonzero;stroke:none"
           id="path3835" />
        <path
           inkscape:connector-curvature="0"
           d="m 296.45143,741.02286 8.04,0 0,-0.48 -8.04,0 0,0.48 z"
           style="fill:#000000;fill-opacity:1;fill-rule:nonzero;stroke:none"
           id="path3837" />
        <path
           inkscape:connector-curvature="0"
           d="m 282.41143,741.02286 8.04,0 0,-0.48 -8.04,0 0,0.48 z"
           style="fill:#000000;fill-opacity:1;fill-rule:nonzero;stroke:none"
           id="path3839" />
        <path
           inkscape:connector-curvature="0"
           d="m 268.37143,741.02286 8.04,0 0,-0.48 -8.04,0 0,0.48 z"
           style="fill:#000000;fill-opacity:1;fill-rule:nonzero;stroke:none"
           id="path3841" />
        <path
           inkscape:connector-curvature="0"
           d="m 254.27143,741.02286 8.04,0 0,-0.48 -8.04,0 0,0.48 z"
           style="fill:#000000;fill-opacity:1;fill-rule:nonzero;stroke:none"
           id="path3843" />
        <path
           inkscape:connector-curvature="0"
           d="m 240.23143,741.02286 8.04,0 0,-0.48 -8.04,0 0,0.48 z"
           style="fill:#000000;fill-opacity:1;fill-rule:nonzero;stroke:none"
           id="path3845" />
        <path
           inkscape:connector-curvature="0"
           d="m 226.13143,741.02286 8.04,0 0,-0.48 -8.04,0 0,0.48 z"
           style="fill:#000000;fill-opacity:1;fill-rule:nonzero;stroke:none"
           id="path3847" />
        <path
           inkscape:connector-curvature="0"
           d="m 212.09143,741.02286 8.04,0 0,-0.48 -8.04,0 0,0.48 z"
           style="fill:#000000;fill-opacity:1;fill-rule:nonzero;stroke:none"
           id="path3849" />
        <path
           inkscape:connector-curvature="0"
           d="m 197.99143,741.02286 8.04,0 0,-0.48 -8.04,0 0,0.48 z"
           style="fill:#000000;fill-opacity:1;fill-rule:nonzero;stroke:none"
           id="path3851" />
        <path
           inkscape:connector-curvature="0"
           d="m 191.87143,740.54286 -1.86,-0.06 0.06,0 -1.8,-0.3 -1.68,-0.42 0.06,0 -0.18,0.48 1.68,0.42 0.06,0 1.8,0.3 1.86,0.06"
           style="fill:#000000;fill-opacity:1;fill-rule:nonzero;stroke:none"
           id="path3853" />
        <path
           inkscape:connector-curvature="0"
           d="m 186.65143,739.76286 -1.68,-0.6 -0.18,0.42 0,0.06 1.68,0.6"
           style="fill:#000000;fill-opacity:1;fill-rule:nonzero;stroke:none"
           id="path3855" />
        <path
           inkscape:connector-curvature="0"
           d="m 184.97143,739.16286 -0.18,0.42 -0.66,-0.3 0.18,-0.42"
           style="fill:#000000;fill-opacity:1;fill-rule:nonzero;stroke:none"
           id="path3857" />
        <path
           inkscape:connector-curvature="0"
           d="m 179.45143,735.44286 -0.18,-0.12 0.06,0.06 -1.2,-1.32 -1.02,-1.38 0.06,0.06 -0.9,-1.5 -0.42,0.24 0.9,1.5 1.02,1.38 1.2,1.32 0.06,0.06 0.18,0.12"
           style="fill:#000000;fill-opacity:1;fill-rule:nonzero;stroke:none"
           id="path3859" />
        <path
           inkscape:connector-curvature="0"
           d="m 176.27143,731.24286 -0.78,-1.56 -0.48,0.18 0.06,0.06 0.78,1.56"
           style="fill:#000000;fill-opacity:1;fill-rule:nonzero;stroke:none"
           id="path3861" />
        <path
           inkscape:connector-curvature="0"
           d="m 175.49143,729.68286 -0.48,0.18 -0.24,-0.66 0.48,-0.18"
           style="fill:#000000;fill-opacity:1;fill-rule:nonzero;stroke:none"
           id="path3863" />
        <path
           inkscape:connector-curvature="0"
           d="m 173.63143,722.78286 0.48,0 0,0.54 -0.48,0 0,-0.54 z"
           style="fill:#000000;fill-opacity:1;fill-rule:nonzero;stroke:none"
           id="path3865" />
        <path
           inkscape:connector-curvature="0"
           d="m 173.63143,722.78286 0.48,0 0,-7.38 -0.48,0 0,7.38 z"
           style="fill:#000000;fill-opacity:1;fill-rule:nonzero;stroke:none"
           id="path3867" />
        <path
           inkscape:connector-curvature="0"
           d="m 173.63143,708.38286 0.48,0 0,1.08 -0.48,0 0,-1.08 z"
           style="fill:#000000;fill-opacity:1;fill-rule:nonzero;stroke:none"
           id="path3869" />
        <path
           inkscape:connector-curvature="0"
           d="m 173.63143,708.38286 0.48,0 0,-6.84 -0.48,0 0,6.84 z"
           style="fill:#000000;fill-opacity:1;fill-rule:nonzero;stroke:none"
           id="path3871" />
        <path
           inkscape:connector-curvature="0"
           d="m 174.11143,695.60286 0,-1.62 0.06,-1.86 0.3,-1.74 0,0.06 -0.48,-0.12 -0.3,1.74 0,0.06 -0.06,1.86 0,1.62"
           style="fill:#000000;fill-opacity:1;fill-rule:nonzero;stroke:none"
           id="path3873" />
        <path
           inkscape:connector-curvature="0"
           d="m 174.47143,690.44286 0.42,-1.74 -0.48,-0.18 0,0.06 -0.42,1.74"
           style="fill:#000000;fill-opacity:1;fill-rule:nonzero;stroke:none"
           id="path3875" />
        <path
           inkscape:connector-curvature="0"
           d="m 174.89143,688.70286 -0.48,-0.18 0.3,-0.84 0.48,0.18"
           style="fill:#000000;fill-opacity:1;fill-rule:nonzero;stroke:none"
           id="path3877" />
        <path
           inkscape:connector-curvature="0"
           d="m 178.13143,682.76286 0.06,-0.12 -0.06,0.06 1.2,-1.26 1.26,-1.14 1.38,-1.08 -0.06,0 -0.24,-0.42 0,0.06 -1.38,1.08 -1.26,1.14 -0.06,0 -1.2,1.26 0,0.06 -0.06,0.12"
           style="fill:#000000;fill-opacity:1;fill-rule:nonzero;stroke:none"
           id="path3879" />
        <path
           inkscape:connector-curvature="0"
           d="m 181.91143,679.22286 1.5,-0.9 -0.18,-0.42 -0.06,0 -1.5,0.9"
           style="fill:#000000;fill-opacity:1;fill-rule:nonzero;stroke:none"
           id="path3881" />
        <path
           inkscape:connector-curvature="0"
           d="m 183.41143,678.32286 -0.18,-0.42 0.78,-0.36 0.18,0.42"
           style="fill:#000000;fill-opacity:1;fill-rule:nonzero;stroke:none"
           id="path3883" />
        <path
           inkscape:connector-curvature="0"
           d="m 189.77143,676.34286 0.3,0 -0.06,-0.48 -0.24,0"
           style="fill:#000000;fill-opacity:1;fill-rule:nonzero;stroke:none"
           id="path3885" />
        <path
           inkscape:connector-curvature="0"
           d="m 190.07143,676.34286 1.86,-0.12 -0.06,0 0,-0.48 -1.86,0.12"
           style="fill:#000000;fill-opacity:1;fill-rule:nonzero;stroke:none"
           id="path3887" />
        <path
           inkscape:connector-curvature="0"
           d="m 191.87143,676.22286 5.82,0 0,-0.48 -5.82,0 0,0.48 z"
           style="fill:#000000;fill-opacity:1;fill-rule:nonzero;stroke:none"
           id="path3889" />
        <path
           inkscape:connector-curvature="0"
           d="m 203.63143,676.22286 7.92,0 0,-0.48 -7.92,0 0,0.48 z"
           style="fill:#000000;fill-opacity:1;fill-rule:nonzero;stroke:none"
           id="path3891" />
        <path
           inkscape:connector-curvature="0"
           d="m 217.49143,676.22286 7.92,0 0,-0.48 -7.92,0 0,0.48 z"
           style="fill:#000000;fill-opacity:1;fill-rule:nonzero;stroke:none"
           id="path3893" />
        <path
           inkscape:connector-curvature="0"
           d="m 231.35143,676.22286 7.92,0 0,-0.48 -7.92,0 0,0.48 z"
           style="fill:#000000;fill-opacity:1;fill-rule:nonzero;stroke:none"
           id="path3895" />
        <path
           inkscape:connector-curvature="0"
           d="m 245.21143,676.22286 7.92,0 0,-0.48 -7.92,0 0,0.48 z"
           style="fill:#000000;fill-opacity:1;fill-rule:nonzero;stroke:none"
           id="path3897" />
        <path
           inkscape:connector-curvature="0"
           d="m 259.07143,676.22286 7.92,0 0,-0.48 -7.92,0 0,0.48 z"
           style="fill:#000000;fill-opacity:1;fill-rule:nonzero;stroke:none"
           id="path3899" />
        <path
           inkscape:connector-curvature="0"
           d="m 272.99143,676.22286 7.92,0 0,-0.48 -7.92,0 0,0.48 z"
           style="fill:#000000;fill-opacity:1;fill-rule:nonzero;stroke:none"
           id="path3901" />
        <path
           inkscape:connector-curvature="0"
           d="m 286.85143,676.22286 7.92,0 0,-0.48 -7.92,0 0,0.48 z"
           style="fill:#000000;fill-opacity:1;fill-rule:nonzero;stroke:none"
           id="path3903" />
        <path
           inkscape:connector-curvature="0"
           d="m 300.71143,676.22286 7.92,0 0,-0.48 -7.92,0 0,0.48 z"
           style="fill:#000000;fill-opacity:1;fill-rule:nonzero;stroke:none"
           id="path3905" />
        <path
           inkscape:connector-curvature="0"
           d="m 314.57143,676.22286 7.92,0 0,-0.48 -7.92,0 0,0.48 z"
           style="fill:#000000;fill-opacity:1;fill-rule:nonzero;stroke:none"
           id="path3907" />
        <path
           inkscape:connector-curvature="0"
           d="m 328.43143,676.22286 7.92,0 0,-0.48 -7.92,0 0,0.48 z"
           style="fill:#000000;fill-opacity:1;fill-rule:nonzero;stroke:none"
           id="path3909" />
        <path
           inkscape:connector-curvature="0"
           d="m 342.35143,676.22286 7.92,0 0,-0.48 -7.92,0 0,0.48 z"
           style="fill:#000000;fill-opacity:1;fill-rule:nonzero;stroke:none"
           id="path3911" />
        <path
           inkscape:connector-curvature="0"
           d="m 356.21143,676.22286 7.92,0 0,-0.48 -7.92,0 0,0.48 z"
           style="fill:#000000;fill-opacity:1;fill-rule:nonzero;stroke:none"
           id="path3913" />
        <path
           inkscape:connector-curvature="0"
           d="m 370.07143,676.22286 7.92,0 0,-0.48 -7.92,0 0,0.48 z"
           style="fill:#000000;fill-opacity:1;fill-rule:nonzero;stroke:none"
           id="path3915" />
        <path
           inkscape:connector-curvature="0"
           d="m 383.93143,676.22286 7.92,0 0,-0.48 -7.92,0 0,0.48 z"
           style="fill:#000000;fill-opacity:1;fill-rule:nonzero;stroke:none"
           id="path3917" />
        <path
           inkscape:connector-curvature="0"
           d="m 397.79143,676.22286 7.92,0 0,-0.48 -7.92,0 0,0.48 z"
           style="fill:#000000;fill-opacity:1;fill-rule:nonzero;stroke:none"
           id="path3919" />
        <path
           inkscape:connector-curvature="0"
           d="m 411.71143,676.22286 7.92,0 0,-0.48 -7.92,0 0,0.48 z"
           style="fill:#000000;fill-opacity:1;fill-rule:nonzero;stroke:none"
           id="path3921" />
        <path
           inkscape:connector-curvature="0"
           d="m 425.57143,675.74286 6.9,0 0,0.48 -6.9,0 0,-0.48 z"
           style="fill:#000000;fill-opacity:1;fill-rule:nonzero;stroke:none"
           id="path3923" />
        <path
           inkscape:connector-curvature="0"
           d="m 432.47143,676.22286 0,-0.48 1.02,0.06 0,0.48"
           style="fill:#000000;fill-opacity:1;fill-rule:nonzero;stroke:none"
           id="path3925" />
        <path
           inkscape:connector-curvature="0"
           d="m 439.13143,677.48286 0.24,0.12 0.06,0 1.56,0.72 -0.06,0 1.5,0.9 1.38,1.08 0.3,-0.36 -1.38,-1.08 -0.06,-0.06 -1.5,-0.9 -1.56,-0.72 -0.24,-0.12"
           style="fill:#000000;fill-opacity:1;fill-rule:nonzero;stroke:none"
           id="path3927" />
        <path
           inkscape:connector-curvature="0"
           d="m 443.81143,680.30286 1.32,1.14 -0.06,-0.06 0.36,-0.3 -1.32,-1.14"
           style="fill:#000000;fill-opacity:1;fill-rule:nonzero;stroke:none"
           id="path3929" />
        <path
           inkscape:connector-curvature="0"
           d="m 445.07143,681.38286 0.36,-0.3 0.48,0.54 -0.36,0.3"
           style="fill:#000000;fill-opacity:1;fill-rule:nonzero;stroke:none"
           id="path3931" />
        <path
           inkscape:connector-curvature="0"
           d="m 448.79143,686.84286 0.12,0.24 -0.06,-0.06 0.6,1.68 0.42,1.74 0,-0.06 0.3,1.74 0.48,0 0,-0.06 -0.3,-1.74 -0.42,-1.74 0,-0.06 -0.6,-1.68 -0.12,-0.24"
           style="fill:#000000;fill-opacity:1;fill-rule:nonzero;stroke:none"
           id="path3933" />
        <path
           inkscape:connector-curvature="0"
           d="m 450.17143,692.12286 0.06,1.86 0.48,0 -0.06,-1.86"
           style="fill:#000000;fill-opacity:1;fill-rule:nonzero;stroke:none"
           id="path3935" />
        <path
           inkscape:connector-curvature="0"
           d="m 450.23143,694.46286 0.48,0 0,-0.48 -0.48,0 0,0.48 z"
           style="fill:#000000;fill-opacity:1;fill-rule:nonzero;stroke:none"
           id="path3937" />
        <path
           inkscape:connector-curvature="0"
           d="m 450.23143,708.32286 0.48,0 0,-7.92 -0.48,0 0,7.92 z"
           style="fill:#000000;fill-opacity:1;fill-rule:nonzero;stroke:none"
           id="path3939" />
        <path
           inkscape:connector-curvature="0"
           d="m 450.23143,722.18286 0.48,0 0,-7.92 -0.48,0 0,7.92 z"
           style="fill:#000000;fill-opacity:1;fill-rule:nonzero;stroke:none"
           id="path3941" />
        <path
           inkscape:connector-curvature="0"
           d="m 449.45143,728.06286 0,0.12 0,-0.12 -0.6,1.62 0.06,0 -0.78,1.56 -0.9,1.5 0,-0.06 0.36,0.3 0.06,0 0.9,-1.5 0.78,-1.56 0,-0.06 0.6,-1.62 0,-0.18"
           style="fill:#000000;fill-opacity:1;fill-rule:nonzero;stroke:none"
           id="path3943" />
        <path
           inkscape:connector-curvature="0"
           d="m 447.23143,732.68286 -1.02,1.38 0.36,0.3 1.02,-1.38"
           style="fill:#000000;fill-opacity:1;fill-rule:nonzero;stroke:none"
           id="path3945" />
        <path
           inkscape:connector-curvature="0"
           d="m 446.21143,734.06286 0.36,0.3 -0.6,0.66 -0.36,-0.3"
           style="fill:#000000;fill-opacity:1;fill-rule:nonzero;stroke:none"
           id="path3947" />
        <path
           inkscape:connector-curvature="0"
           d="m 441.05143,738.32286 -1.68,0.84 0.06,0 -1.62,0.6 -1.74,0.42 0.06,0 0.06,0.48 1.74,-0.42 0.06,0 1.62,-0.6 0,-0.06 1.56,-0.78 0.12,-0.06"
           style="fill:#000000;fill-opacity:1;fill-rule:nonzero;stroke:none"
           id="path3949" />
        <path
           inkscape:connector-curvature="0"
           d="m 436.13143,740.18286 -1.8,0.3 0,0.48 0.06,0 1.8,-0.3"
           style="fill:#000000;fill-opacity:1;fill-rule:nonzero;stroke:none"
           id="path3951" />
        <path
           inkscape:connector-curvature="0"
           d="m 433.61143,740.96286 0.72,0 0,-0.48 -0.72,0 0,0.48 z"
           style="fill:#000000;fill-opacity:1;fill-rule:nonzero;stroke:none"
           id="path3953" />
        <path
           inkscape:connector-curvature="0"
           d="m 419.75143,741.02286 7.92,0 0,-0.48 -7.92,0 0,0.48 z"
           style="fill:#000000;fill-opacity:1;fill-rule:nonzero;stroke:none"
           id="path3955" />
        <path
           inkscape:connector-curvature="0"
           d="m 405.89143,741.02286 7.92,0 0,-0.48 -7.92,0 0,0.48 z"
           style="fill:#000000;fill-opacity:1;fill-rule:nonzero;stroke:none"
           id="path3957" />
        <path
           inkscape:connector-curvature="0"
           d="m 392.03143,741.02286 7.92,0 0,-0.48 -7.92,0 0,0.48 z"
           style="fill:#000000;fill-opacity:1;fill-rule:nonzero;stroke:none"
           id="path3959" />
        <path
           inkscape:connector-curvature="0"
           d="m 378.11143,741.02286 7.98,0 0,-0.48 -7.98,0 0,0.48 z"
           style="fill:#000000;fill-opacity:1;fill-rule:nonzero;stroke:none"
           id="path3961" />
        <path
           inkscape:connector-curvature="0"
           d="m 364.25143,741.02286 7.92,0 0,-0.48 -7.92,0 0,0.48 z"
           style="fill:#000000;fill-opacity:1;fill-rule:nonzero;stroke:none"
           id="path3963" />
        <path
           inkscape:connector-curvature="0"
           d="m 350.39143,741.02286 7.92,0 0,-0.48 -7.92,0 0,0.48 z"
           style="fill:#000000;fill-opacity:1;fill-rule:nonzero;stroke:none"
           id="path3965" />
        <path
           inkscape:connector-curvature="0"
           d="m 336.53143,741.02286 7.92,0 0,-0.48 -7.92,0 0,0.48 z"
           style="fill:#000000;fill-opacity:1;fill-rule:nonzero;stroke:none"
           id="path3967" />
        <path
           inkscape:connector-curvature="0"
           d="m 322.67143,741.02286 7.92,0 0,-0.48 -7.92,0 0,0.48 z"
           style="fill:#000000;fill-opacity:1;fill-rule:nonzero;stroke:none"
           id="path3969" />
        <path
           inkscape:connector-curvature="0"
           d="m 312.17143,740.54286 4.56,0 0,0.48 -4.56,0 0,-0.48 z"
           style="fill:#000000;fill-opacity:1;fill-rule:nonzero;stroke:none"
           id="path3971" />
        <path
           inkscape:connector-curvature="0"
           d="m 308.75143,741.02286 3.42,0 0,-0.48 -3.42,0 0,0.48 z"
           style="fill:#000000;fill-opacity:1;fill-rule:nonzero;stroke:none"
           id="path3973" />
        <path
           inkscape:connector-curvature="0"
           d="m 294.89143,741.02286 7.92,0 0,-0.48 -7.92,0 0,0.48 z"
           style="fill:#000000;fill-opacity:1;fill-rule:nonzero;stroke:none"
           id="path3975" />
        <path
           inkscape:connector-curvature="0"
           d="m 281.03143,741.02286 7.92,0 0,-0.48 -7.92,0 0,0.48 z"
           style="fill:#000000;fill-opacity:1;fill-rule:nonzero;stroke:none"
           id="path3977" />
        <path
           inkscape:connector-curvature="0"
           d="m 267.17143,741.02286 7.92,0 0,-0.48 -7.92,0 0,0.48 z"
           style="fill:#000000;fill-opacity:1;fill-rule:nonzero;stroke:none"
           id="path3979" />
        <path
           inkscape:connector-curvature="0"
           d="m 253.31143,741.02286 7.92,0 0,-0.48 -7.92,0 0,0.48 z"
           style="fill:#000000;fill-opacity:1;fill-rule:nonzero;stroke:none"
           id="path3981" />
        <path
           inkscape:connector-curvature="0"
           d="m 239.45143,741.02286 7.92,0 0,-0.48 -7.92,0 0,0.48 z"
           style="fill:#000000;fill-opacity:1;fill-rule:nonzero;stroke:none"
           id="path3983" />
        <path
           inkscape:connector-curvature="0"
           d="m 225.53143,741.02286 7.92,0 0,-0.48 -7.92,0 0,0.48 z"
           style="fill:#000000;fill-opacity:1;fill-rule:nonzero;stroke:none"
           id="path3985" />
        <path
           inkscape:connector-curvature="0"
           d="m 211.67143,741.02286 7.92,0 0,-0.48 -7.92,0 0,0.48 z"
           style="fill:#000000;fill-opacity:1;fill-rule:nonzero;stroke:none"
           id="path3987" />
        <path
           inkscape:connector-curvature="0"
           d="m 197.81143,741.02286 7.92,0 0,-0.48 -7.92,0 0,0.48 z"
           style="fill:#000000;fill-opacity:1;fill-rule:nonzero;stroke:none"
           id="path3989" />
        <path
           inkscape:connector-curvature="0"
           d="m 191.81143,740.78286 -1.86,-0.06 -1.74,-0.3 -1.74,-0.42 -1.68,-0.6 -1.56,-0.78 -1.5,-0.9 -1.38,-1.02 -1.26,-1.14 -1.14,-1.32 -1.08,-1.38 -0.9,-1.5 -0.72,-1.56 -0.6,-1.62 -0.48,-1.74 -0.24,-1.8 -0.12,-1.86 0,-28.98 0.12,-1.86 0.24,-1.74 0.48,-1.74 0.6,-1.68 0.72,-1.56 0.9,-1.5 1.08,-1.38 1.14,-1.26 1.26,-1.14 1.38,-1.08 1.5,-0.9 1.56,-0.72 1.68,-0.66 1.74,-0.42 1.74,-0.24 1.86,-0.12 60.24,0 1.86,0.12 1.8,0.24 1.68,0.42 1.68,0.66 1.56,0.72 1.5,0.9 1.38,1.08 1.26,1.14 1.2,1.26 1.02,1.38 0.9,1.5 0.78,1.56 0.6,1.68 0.42,1.74 0.3,1.74 0.06,1.86 0,28.98 -0.06,1.86 -0.3,1.8 -0.42,1.74 -0.6,1.62 -0.78,1.56 -0.9,1.5 -1.02,1.38 -1.2,1.32 -1.26,1.14 -1.38,1.02 -1.5,0.9 -1.56,0.78 -1.68,0.6 -1.68,0.42 -1.8,0.3 -1.86,0.06 -60.24,0"
           style="fill:#ffffcc;fill-opacity:1;fill-rule:evenodd;stroke:none"
           id="path3991" />
        <path
           inkscape:connector-curvature="0"
           d="m 191.81143,740.54286 -1.86,-0.06 0.06,0 -1.74,-0.3 -1.74,-0.42 0.06,0 -1.68,-0.6 -1.56,-0.78 -1.5,-0.9 0.06,0.06 -1.38,-1.02 -1.26,-1.14 -1.14,-1.32 -1.08,-1.38 0.06,0.06 -0.9,-1.5 -0.72,-1.56 -0.6,-1.62 0,0.06 -0.48,-1.74 -0.24,-1.8 -0.12,-1.86 0,0.06 0,-28.98 0.12,-1.86 0.24,-1.74 0,0.06 0.48,-1.74 0.6,-1.68 0.72,-1.56 0,0.06 0.9,-1.5 -0.06,0 1.08,-1.38 1.14,-1.26 0,0.06 1.26,-1.14 1.38,-1.08 -0.06,0 1.5,-0.9 1.56,-0.72 1.68,-0.66 -0.06,0.06 1.74,-0.42 1.74,-0.24 1.86,-0.12 -0.06,0 60.24,0 1.86,0.12 1.8,0.24 -0.06,0 1.68,0.42 0,-0.06 1.68,0.66 1.56,0.72 -0.06,0 0.24,-0.42 -1.56,-0.72 -1.68,-0.66 -0.06,0 -1.68,-0.42 -1.8,-0.24 -1.86,-0.12 -60.3,0 -1.86,0.12 -1.74,0.24 -0.06,0 -1.74,0.42 -1.68,0.66 -1.56,0.72 -0.06,0 -1.5,0.9 0,0.06 -1.38,1.08 -1.26,1.14 -0.06,0 -1.14,1.26 -1.08,1.38 0,0.06 -0.9,1.5 -0.72,1.56 -0.06,0 -0.6,1.68 0,0.06 -0.48,1.74 -0.24,1.74 -0.12,1.86 0,29.04 0.12,1.86 0.24,1.8 0,0.06 0.48,1.74 0.6,1.62 0.06,0 0.72,1.56 0,0.06 0.9,1.5 1.08,1.38 1.14,1.32 0.06,0.06 1.26,1.14 1.38,1.02 1.5,0.9 1.56,0.78 0.06,0.06 1.68,0.6 1.74,0.42 0.06,0 1.74,0.3 1.86,0.06"
           style="fill:#ffffcc;fill-opacity:1;fill-rule:nonzero;stroke:none"
           id="path3993" />
        <path
           inkscape:connector-curvature="0"
           d="m 260.51143,678.14286 1.5,0.9 1.38,1.08 1.26,1.14 -0.06,0 1.2,1.26 0,-0.06 1.02,1.38 0.9,1.5 0.78,1.56 -0.06,-0.06 0.6,1.68 0.42,1.74 0,-0.06 0.3,1.74 0.06,1.86 0,28.98 -0.06,1.86 0,-0.06 -0.3,1.8 -0.42,1.74 0,-0.06 -0.6,1.62 0.06,0 -0.78,1.56 -0.9,1.5 0,-0.06 -1.02,1.38 -1.2,1.32 0.06,0 -1.26,1.14 -1.38,1.02 0,-0.06 -1.5,0.9 -1.56,0.78 0.06,0 -1.68,0.6 -1.68,0.42 0.06,0 -1.8,0.3 -1.86,0.06 -60.24,0 0,0.48 60.24,0 1.86,-0.06 0.06,0 1.8,-0.3 1.68,-0.42 0.06,0 1.68,-0.6 0,-0.06 1.56,-0.78 1.5,-0.9 0.06,0 1.38,-1.02 1.26,-1.14 0,-0.06 1.2,-1.32 1.02,-1.38 0.06,0 0.9,-1.5 0.78,-1.56 0,-0.06 0.6,-1.62 0.42,-1.74 0,-0.06 0.3,-1.8 0.06,-1.86 0,-28.98 -0.06,-1.86 0,-0.06 -0.3,-1.74 -0.42,-1.74 0,-0.06 -0.6,-1.68 -0.78,-1.56 -0.9,-1.5 -0.06,-0.06 -1.02,-1.38 -1.2,-1.26 -1.26,-1.14 -1.38,-1.08 -0.06,-0.06 -1.5,-0.9"
           style="fill:#ffffcc;fill-opacity:1;fill-rule:nonzero;stroke:none"
           id="path3995" />
        <path
           inkscape:connector-curvature="0"
           d="m 191.81143,740.54286 -1.86,-0.06 0.06,0 -1.74,-0.3 -1.74,-0.42 0.06,0 -1.68,-0.6 -1.56,-0.78 -1.5,-0.9 0.06,0.06 -1.38,-1.02 -1.26,-1.14 -1.14,-1.32 -1.08,-1.38 0.06,0.06 -0.9,-1.5 -0.72,-1.56 -0.6,-1.62 0,0.06 -0.48,-1.74 -0.24,-1.8 -0.12,-1.86 0,0.06 0,-28.98 0.12,-1.86 0.24,-1.74 0,0.06 0.48,-1.74 0.6,-1.68 0.72,-1.56 0,0.06 0.9,-1.5 -0.06,0 1.08,-1.38 1.14,-1.26 0,0.06 1.26,-1.14 1.38,-1.08 -0.06,0 1.5,-0.9 1.56,-0.72 1.68,-0.66 -0.06,0.06 1.74,-0.42 1.74,-0.24 1.86,-0.12 -0.06,0 60.24,0 1.86,0.12 1.8,0.24 -0.06,0 1.68,0.42 0,-0.06 1.68,0.66 1.56,0.72 -0.06,0 0.24,-0.42 -1.56,-0.72 -1.68,-0.66 -0.06,0 -1.68,-0.42 -1.8,-0.24 -1.86,-0.12 -60.3,0 -1.86,0.12 -1.74,0.24 -0.06,0 -1.74,0.42 -1.68,0.66 -1.56,0.72 -0.06,0 -1.5,0.9 0,0.06 -1.38,1.08 -1.26,1.14 -0.06,0 -1.14,1.26 -1.08,1.38 0,0.06 -0.9,1.5 -0.72,1.56 -0.06,0 -0.6,1.68 0,0.06 -0.48,1.74 -0.24,1.74 -0.12,1.86 0,29.04 0.12,1.86 0.24,1.8 0,0.06 0.48,1.74 0.6,1.62 0.06,0 0.72,1.56 0,0.06 0.9,1.5 1.08,1.38 1.14,1.32 0.06,0.06 1.26,1.14 1.38,1.02 1.5,0.9 1.56,0.78 0.06,0.06 1.68,0.6 1.74,0.42 0.06,0 1.74,0.3 1.86,0.06"
           style="fill:#000000;fill-opacity:1;fill-rule:nonzero;stroke:none"
           id="path3997" />
        <path
           inkscape:connector-curvature="0"
           d="m 260.51143,678.14286 1.5,0.9 1.38,1.08 1.26,1.14 -0.06,0 1.2,1.26 0,-0.06 1.02,1.38 0.9,1.5 0.78,1.56 -0.06,-0.06 0.6,1.68 0.42,1.74 0,-0.06 0.3,1.74 0.06,1.86 0,28.98 -0.06,1.86 0,-0.06 -0.3,1.8 -0.42,1.74 0,-0.06 -0.6,1.62 0.06,0 -0.78,1.56 -0.9,1.5 0,-0.06 -1.02,1.38 -1.2,1.32 0.06,0 -1.26,1.14 -1.38,1.02 0,-0.06 -1.5,0.9 -1.56,0.78 0.06,0 -1.68,0.6 -1.68,0.42 0.06,0 -1.8,0.3 -1.86,0.06 -60.24,0 0,0.48 60.24,0 1.86,-0.06 0.06,0 1.8,-0.3 1.68,-0.42 0.06,0 1.68,-0.6 0,-0.06 1.56,-0.78 1.5,-0.9 0.06,0 1.38,-1.02 1.26,-1.14 0,-0.06 1.2,-1.32 1.02,-1.38 0.06,0 0.9,-1.5 0.78,-1.56 0,-0.06 0.6,-1.62 0.42,-1.74 0,-0.06 0.3,-1.8 0.06,-1.86 0,-28.98 -0.06,-1.86 0,-0.06 -0.3,-1.74 -0.42,-1.74 0,-0.06 -0.6,-1.68 -0.78,-1.56 -0.9,-1.5 -0.06,-0.06 -1.02,-1.38 -1.2,-1.26 -1.26,-1.14 -1.38,-1.08 -0.06,-0.06 -1.5,-0.9"
           style="fill:#000000;fill-opacity:1;fill-rule:nonzero;stroke:none"
           id="path3999" />
        <text
           transform="scale(1,-1)"
           id="text4001"
           x="187.31143"
           y="-730.10315"
           style="-inkscape-font-specification:Arial Bold;font-family:Arial;font-weight:bold;font-style:normal;font-stretch:normal;font-variant:normal">
          <tspan
             style="font-size:9.96000004000000061px;font-variant:normal;font-weight:bold;writing-mode:lr-tb;fill:#000000;fill-opacity:1;fill-rule:nonzero;stroke:none;font-family:Arial;-inkscape-font-specification:Arial Bold;font-style:normal;font-stretch:normal"
             x="187.31143 192.83026 198.40886 203.41177 205.6458 210.64871 213.44049 216.20241 221.76308 227.32373 232.84258 238.40324 241.70299 243.93701"
             y="-730.10315"
             sodipodi:role="line"
             id="tspan4003">basic, generic</tspan>
          <tspan
             style="font-size:9.96000004000000061px;font-variant:normal;font-weight:bold;writing-mode:lr-tb;fill:#000000;fill-opacity:1;fill-rule:nonzero;stroke:none;font-family:Arial;-inkscape-font-specification:Arial Bold;font-style:normal;font-stretch:normal"
             x="187.31143 190.61815 196.19675 201.16678 206.74538 210.05209 215.63069 218.39261 223.97121 226.73311 229.49501 234.53477 240.05362 243.41312"
             y="-720.02264"
             sodipodi:role="line"
             id="tspan4005">record of care</tspan>
        </text>
        <text
           transform="scale(1,-1)"
           id="text4007"
           x="150.35143"
           y="-666.38318"
           style="-inkscape-font-specification:Arial Bold;font-family:Arial;font-weight:bold;font-style:normal;font-stretch:normal;font-variant:normal">
          <tspan
             style="font-size:9px;font-style:normal;font-variant:normal;writing-mode:lr-tb;fill:#0000ff;fill-opacity:1;fill-rule:nonzero;stroke:none;font-family:Arial;-inkscape-font-specification:Arial Bold;font-weight:bold;font-stretch:normal"
             x="150.35143 152.33232 154.31323 158.79613 160.77702 165.76393"
             y="-666.38318"
             sodipodi:role="line"
             id="tspan4009">living</tspan>
        </text>
        <text
           transform="scale(1,-1)"
           id="text4011"
           x="141.35143"
           y="-615.26318"
           style="-inkscape-font-specification:Arial Bold;font-family:Arial;font-weight:bold;font-style:normal;font-stretch:normal;font-variant:normal">
          <tspan
             style="font-size:9px;font-style:normal;font-variant:normal;font-weight:bold;writing-mode:lr-tb;fill:#0000d4;fill-opacity:1;fill-rule:nonzero;stroke:none;font-family:Arial;-inkscape-font-specification:Arial Bold;font-stretch:normal"
             x="141.35143 146.81982 152.34132 160.31172 165.28513"
             y="-615.26318"
             sodipodi:role="line"
             id="tspan4013">human</tspan>
        </text>
        <text
           transform="scale(1,-1)"
           id="text4015"
           x="187.79143"
           y="-614.84283"
           style="-inkscape-font-specification:Arial Bold;font-family:Arial;font-weight:bold;font-style:normal;font-stretch:normal;font-variant:normal">
          <tspan
             style="font-size:9px;font-variant:normal;font-weight:bold;writing-mode:lr-tb;fill:#0000d4;fill-opacity:1;fill-rule:nonzero;stroke:none;font-family:Arial;-inkscape-font-specification:Arial Bold;font-style:normal;font-stretch:normal"
             x="187.79143 193.28954 198.29263 203.51443 208.55263 212.05273 215.04883 223.04893 228.05203 233.55013 236.25012 241.28833 243.74983 246.27164 252.27373 258.27582"
             y="-614.84283"
             sodipodi:role="line"
             id="tspan4017">departmental EPR</tspan>
        </text>
        <text
           transform="scale(1,-1)"
           id="text4019"
           x="188.33144"
           y="-586.52258"
           style="-inkscape-font-specification:Arial Bold;font-family:Arial;font-weight:bold;font-style:normal;font-stretch:normal;font-variant:normal">
          <tspan
             style="font-size:9px;font-variant:normal;font-weight:bold;writing-mode:lr-tb;fill:#0000d4;fill-opacity:1;fill-rule:nonzero;stroke:none;font-family:Arial;-inkscape-font-specification:Arial Bold;font-style:normal;font-stretch:normal"
             x="188.33144 193.18964 198.16843 200.66052 205.65463 208.17642 210.16454 215.15863 220.15273 222.67453 225.66164 230.65573 235.14583 240.13992 243.12703"
             y="-586.52258"
             sodipodi:role="line"
             id="tspan4021">path lab record</tspan>
        </text>
        <text
           transform="scale(1,-1)"
           id="text4023"
           x="181.97113"
           y="-600.86224"
           style="-inkscape-font-specification:Arial Bold;font-family:Arial;font-weight:bold;font-style:normal;font-stretch:normal;font-variant:normal">
          <tspan
             style="font-size:9px;font-variant:normal;font-weight:bold;writing-mode:lr-tb;fill:#0000d4;fill-opacity:1;fill-rule:nonzero;stroke:none;font-family:Arial;-inkscape-font-specification:Arial Bold;font-style:normal;font-stretch:normal"
             x="181.97113 187.45303 192.97453 197.96143 203.48293 205.96783 208.72813 213.71503 216.19994 218.72173 224.70763 230.69353"
             y="-600.86224"
             sodipodi:role="line"
             id="tspan4025">hospital EPR</tspan>
        </text>
        <text
           transform="scale(1,-1)"
           id="text4027"
           x="192.47144"
           y="-647.36255"
           style="-inkscape-font-specification:Arial Bold;font-family:Arial;font-weight:bold;font-style:normal;font-stretch:normal;font-variant:normal">
          <tspan
             style="font-size:9px;font-variant:normal;font-weight:bold;writing-mode:lr-tb;fill:#0000ff;fill-opacity:1;fill-rule:nonzero;stroke:none;font-family:Arial;-inkscape-font-specification:Arial Bold;font-style:normal;font-stretch:normal"
             x="192.47144 196.97144 201.97543 204.47743 206.93893 211.43893 213.43694 215.43492 220.43893 222.43694 226.93694 229.45872 235.46173 241.46474"
             y="-647.36255"
             sodipodi:role="line"
             id="tspan4029">vet clinic EPR</tspan>
          <tspan
             style="font-size:9px;font-variant:normal;font-weight:bold;writing-mode:lr-tb;fill:#0000d4;fill-opacity:1;fill-rule:nonzero;stroke:none;font-family:Arial;-inkscape-font-specification:Arial Bold;font-style:normal;font-stretch:normal"
             x="272.99173 277.49173 282.49573 289.99274 297.43304 302.43704 307.44104 309.43903 311.94104 316.44104 318.90253 323.40253 328.40652 331.40353 336.40753 338.86902 344.87204 351.37003"
             y="-614.36224"
             sodipodi:role="line"
             id="tspan4031">community care EHR</tspan>
        </text>
        <text
           transform="scale(1,-1)"
           id="text4033"
           x="271.31143"
           y="-601.04224"
           style="-inkscape-font-specification:Arial Bold;font-family:Arial;font-weight:bold;font-style:normal;font-stretch:normal;font-variant:normal">
          <tspan
             style="font-size:9px;font-variant:normal;font-weight:bold;writing-mode:lr-tb;fill:#0000d4;fill-opacity:1;fill-rule:nonzero;stroke:none;font-family:Arial;-inkscape-font-specification:Arial Bold;font-style:normal;font-stretch:normal"
             x="271.31143 273.81522 279.27643 282.27524 287.28104 292.78183 296.28464 301.29044 304.28922 309.29504 314.75623 317.27802 323.77783 328.78363 332.28644 337.29224 339.75372 345.75851 352.25833"
             y="-601.04224"
             sodipodi:role="line"
             id="tspan4035">Integrated Care EHR</tspan>
        </text>
        <text
           transform="scale(1,-1)"
           id="text4037"
           x="184.31113"
           y="-703.70258"
           style="-inkscape-font-specification:Arial Bold;font-family:Arial;font-weight:bold;font-style:normal;font-stretch:normal;font-variant:normal">
          <tspan
             style="font-size:9px;font-variant:normal;font-weight:bold;writing-mode:lr-tb;fill:#0000ff;fill-opacity:1;fill-rule:nonzero;stroke:none;font-family:Arial;-inkscape-font-specification:Arial Bold;font-style:normal;font-stretch:normal"
             x="184.31113 189.29713 194.28313 196.32162 198.30164 203.28763 205.26762 210.30583 215.29182 217.81363 222.29562 227.28163 230.26064 234.74263 236.72263 241.20464 246.19063"
             y="-703.70258"
             sodipodi:role="line"
             id="tspan4039">building service</tspan>
          <tspan
             style="font-size:9px;font-variant:normal;font-weight:bold;writing-mode:lr-tb;fill:#0000d4;fill-opacity:1;fill-rule:nonzero;stroke:none;font-family:Arial;-inkscape-font-specification:Arial Bold;font-style:normal;font-stretch:normal"
             x="271.25113 276.23892 281.22675 283.71252 285.69434 290.68213 295.72034 300.69913 302.68094 305.20273 310.19052 317.67133 322.65915 325.63992 330.62775 333.11353 335.63535 338.61612 343.65433"
             y="-586.88257"
             sodipodi:role="line"
             id="tspan4041">national emerg. rec</tspan>
        </text>
        <text
           transform="scale(1,-1)"
           id="text4043"
           x="363.47144"
           y="-591.98285"
           style="-inkscape-font-specification:Arial Bold;font-family:Arial;font-weight:bold;font-style:normal;font-stretch:normal;font-variant:normal">
          <tspan
             style="font-size:9px;font-variant:normal;font-weight:bold;writing-mode:lr-tb;fill:#0000d4;fill-opacity:1;fill-rule:nonzero;stroke:none;font-family:Arial;-inkscape-font-specification:Arial Bold;font-style:normal;font-stretch:normal"
             x="363.47144 368.46552 370.95764 373.44974 378.93884 381.43094 386.42502 391.41913 393.91122 396.43304 399.92413 404.91824 409.95642 414.95053 419.94464 423.43573 428.47482"
             y="-591.98285"
             sodipodi:role="line"
             id="tspan4045">clinical research</tspan>
        </text>
        <text
           transform="scale(1,-1)"
           id="text4047"
           x="362.51114"
           y="-610.34283"
           style="-inkscape-font-specification:Arial Bold;font-family:Arial;font-weight:bold;font-style:normal;font-stretch:normal;font-variant:normal">
          <tspan
             style="font-size:9px;font-variant:normal;font-weight:bold;writing-mode:lr-tb;fill:#0000d4;fill-opacity:1;fill-rule:nonzero;stroke:none;font-family:Arial;-inkscape-font-specification:Arial Bold;font-style:normal;font-stretch:normal"
             x="362.51114 367.54932 372.53622 377.52313 379.56161 382.04654 387.03342 389.55524 391.53613 396.57434 401.05722 406.04413 409.02402 414.01093 418.99783 423.48074 428.46762 430.98944 435.47232 437.45322 442.49142"
             y="-610.34283"
             sodipodi:role="line"
             id="tspan4049">health insurance view</tspan>
          <tspan
             style="font-size:9px;font-variant:normal;font-weight:bold;writing-mode:lr-tb;fill:#0000ff;fill-opacity:1;fill-rule:nonzero;stroke:none;font-family:Arial;-inkscape-font-specification:Arial Bold;font-style:normal;font-stretch:normal"
             x="363.17084 367.62674 372.66492 375.12283 377.64462 380.64432 385.62314 390.12314 395.10193 400.14014 403.13983 407.59573 412.63394 415.09543 419.59543 422.11722 427.07712 432.03702"
             y="-658.64319"
             sodipodi:role="line"
             id="tspan4051">vet research study</tspan>
          <tspan
             style="font-size:9px;font-variant:normal;font-weight:bold;writing-mode:lr-tb;fill:#0000ff;fill-opacity:1;fill-rule:nonzero;stroke:none;font-family:Arial;-inkscape-font-specification:Arial Bold;font-style:normal;font-stretch:normal"
             x="363.17084 368.15323 373.13562 376.11102 378.08743 382.56583 387.54822 389.58673 392.06714 397.10532 400.08072 405.11893 407.09534 409.61713 412.59253 417.57492 422.55734 427.53973 430.51514 432.99551 434.97192 439.95432"
             y="-642.62317"
             sodipodi:role="line"
             id="tspan4053">agricultural reporting</tspan>
        </text>
        <text
           transform="scale(1,-1)"
           id="text4055"
           x="156.29053"
           y="-714.02283"
           style="-inkscape-font-specification:Arial Bold;font-family:Arial;font-weight:bold;font-style:normal;font-stretch:normal;font-variant:normal">
          <tspan
             style="font-size:9px;font-style:normal;font-variant:normal;writing-mode:lr-tb;fill:#0000ff;fill-opacity:1;fill-rule:nonzero;stroke:none;font-family:Arial;-inkscape-font-specification:Arial Bold;font-weight:bold;font-stretch:normal"
             x="156.29053 161.32874 166.30753"
             y="-714.02283"
             sodipodi:role="line"
             id="tspan4057">any</tspan>
        </text>
        <text
           transform="scale(1,-1)"
           id="text4059"
           x="139.37053"
           y="-604.10315"
           style="-inkscape-font-specification:Arial Bold;font-family:Arial;font-weight:bold;font-style:normal;font-stretch:normal;font-variant:normal">
          <tspan
             style="font-size:9px;font-style:normal;font-variant:normal;font-weight:bold;writing-mode:lr-tb;fill:#0000d4;fill-opacity:1;fill-rule:nonzero;stroke:none;font-family:Arial;-inkscape-font-specification:Arial Bold;font-stretch:normal"
             x="139.37053 144.40512 149.86633 155.39594 157.85742 162.89203 167.87083"
             y="-604.10315"
             sodipodi:role="line"
             id="tspan4061">subject</tspan>
        </text>
        <text
           transform="scale(1,-1)"
           id="text4063"
           x="142.31082"
           y="-655.22314"
           style="-inkscape-font-specification:Arial Bold;font-family:Arial;font-weight:bold;font-style:normal;font-stretch:normal;font-variant:normal">
          <tspan
             style="font-size:9px;font-style:normal;font-variant:normal;writing-mode:lr-tb;fill:#0000ff;fill-opacity:1;fill-rule:nonzero;stroke:none;font-family:Arial;-inkscape-font-specification:Arial Bold;font-weight:bold;font-stretch:normal"
             x="142.31082 146.80453 151.80223 156.79993 158.79163 163.78932 168.28304"
             y="-655.22314"
             sodipodi:role="line"
             id="tspan4065">subject</tspan>
          <tspan
             style="font-size:9px;font-style:normal;font-variant:normal;writing-mode:lr-tb;fill:#0000ff;fill-opacity:1;fill-rule:nonzero;stroke:none;font-family:Arial;-inkscape-font-specification:Arial Bold;font-weight:bold;font-stretch:normal"
             x="142.31082 146.80453 151.80223 156.79993 158.79163 163.78932 168.28304"
             y="-702.86285"
             sodipodi:role="line"
             id="tspan4067">subject</tspan>
        </text>
        <text
           transform="scale(1,-1)"
           id="text4069"
           x="82.131432"
           y="-675.08313"
           style="-inkscape-font-specification:Arial Bold;font-family:Arial;font-weight:bold;font-style:normal;font-stretch:normal;font-variant:normal">
          <tspan
             style="font-size:12px;font-variant:normal;font-weight:bold;writing-mode:lr-tb;fill:#000000;fill-opacity:1;fill-rule:nonzero;stroke:none;font-family:Arial;-inkscape-font-specification:Arial Bold;font-style:normal;font-stretch:normal"
             x="82.131432 88.79863 92.129829 99.457031 106.78423 110.14663 117.47383"
             y="-675.08313"
             sodipodi:role="line"
             id="tspan4071">kind of</tspan>
          <tspan
             style="font-size:12px;font-variant:normal;font-weight:bold;writing-mode:lr-tb;fill:#000000;fill-opacity:1;fill-rule:nonzero;stroke:none;font-family:Arial;-inkscape-font-specification:Arial Bold;font-style:normal;font-stretch:normal"
             x="79.491432 86.156227 93.481026 100.80583 104.13463 110.79943 117.46423"
             y="-663.92316"
             sodipodi:role="line"
             id="tspan4073">subject</tspan>
        </text>
        <text
           transform="scale(1,-1)"
           id="text4075"
           x="204.41142"
           y="-756.08313"
           style="-inkscape-font-specification:Arial Bold;font-family:Arial;font-weight:bold;font-style:normal;font-stretch:normal;font-variant:normal">
          <tspan
             style="font-size:9px;font-style:normal;font-variant:normal;writing-mode:lr-tb;fill:#000000;fill-opacity:1;fill-rule:nonzero;stroke:none;font-family:Arial;-inkscape-font-specification:Arial Bold;font-weight:bold;font-stretch:normal"
             x="204.41142 209.39023 211.36842 216.40663 220.84633 225.88454 228.34602 233.38423"
             y="-756.08313"
             sodipodi:role="line"
             id="tspan4077">place of</tspan>
          <tspan
             style="font-size:9px;font-style:normal;font-variant:normal;writing-mode:lr-tb;fill:#000000;fill-opacity:1;fill-rule:nonzero;stroke:none;font-family:Arial;-inkscape-font-specification:Arial Bold;font-weight:bold;font-stretch:normal"
             x="194.69142 199.16983 204.20802 207.18343 212.16583 214.68762 219.67003 224.65244 226.62883 228.66733 233.16733 238.14973 241.12512"
             y="-744.92316"
             sodipodi:role="line"
             id="tspan4079">care delivery</tspan>
          <tspan
             style="font-size:9px;font-style:normal;font-variant:normal;writing-mode:lr-tb;fill:#000000;fill-opacity:1;fill-rule:nonzero;stroke:none;font-family:Arial;-inkscape-font-specification:Arial Bold;font-weight:bold;font-stretch:normal"
             x="285.17111 290.15533 292.67712 297.15732 302.14154 307.12573 309.10391 314.14212 318.64212"
             y="-750.92346"
             sodipodi:role="line"
             id="tspan4081">1 subject</tspan>
        </text>
        <text
           transform="scale(1,-1)"
           id="text4083"
           x="281.51083"
           y="-656.84375"
           style="-inkscape-font-specification:Arial Bold;font-family:Arial;font-weight:bold;font-style:normal;font-stretch:normal;font-variant:normal">
          <tspan
             style="font-size:9px;font-variant:normal;font-weight:bold;writing-mode:lr-tb;fill:#0000ff;fill-opacity:1;fill-rule:nonzero;stroke:none;font-family:Arial;-inkscape-font-specification:Arial Bold;font-style:normal;font-stretch:normal"
             x="281.51083 284.49164 289.52982 294.01364 299.05182 304.03964 309.02744 312.00824 316.49203 321.47983 324.00162 329.98843 336.47021"
             y="-656.84375"
             sodipodi:role="line"
             id="tspan4085">racehorse EHR</tspan>
          <tspan
             style="font-size:9px;font-variant:normal;font-weight:bold;writing-mode:lr-tb;fill:#0000ff;fill-opacity:1;fill-rule:nonzero;stroke:none;font-family:Arial;-inkscape-font-specification:Arial Bold;font-style:normal;font-stretch:normal"
             x="280.97083 285.45642 290.44601 295.43564 297.95743 302.94702 307.98523 309.96884 317.45142 322.44104 324.42462 326.94644 332.93503 339.41864"
             y="-641.30347"
             sodipodi:role="line"
             id="tspan4087">zoo animal EHR</tspan>
        </text>
        <text
           transform="scale(1,-1)"
           id="text4089"
           x="367.85052"
           y="-751.28345"
           style="-inkscape-font-specification:Arial Bold;font-family:Arial;font-weight:bold;font-style:normal;font-stretch:normal;font-variant:normal">
          <tspan
             style="font-size:9px;font-style:normal;font-variant:normal;writing-mode:lr-tb;fill:#000000;fill-opacity:1;fill-rule:nonzero;stroke:none;font-family:Arial;-inkscape-font-specification:Arial Bold;font-weight:bold;font-stretch:normal"
             x="367.85052 375.36102 380.33981 385.35733 389.87082 392.33234 396.84583 401.82462 406.84213 408.82031 413.79913 418.29913 420.70032"
             y="-751.28345"
             sodipodi:role="line"
             id="tspan4091">many subjects</tspan>
        </text>
        <text
           transform="scale(1,-1)"
           id="text4093"
           x="76.730232"
           y="-652.04315"
           style="-inkscape-font-specification:Arial Bold;font-family:Arial;font-weight:bold;font-style:normal;font-stretch:normal;font-variant:normal">
          <tspan
             style="font-size:9px;font-variant:normal;font-weight:bold;writing-mode:lr-tb;fill:#000000;fill-opacity:1;fill-rule:nonzero;stroke:none;font-family:Arial;-inkscape-font-specification:Arial Bold;font-style:normal;font-stretch:normal"
             x="76.730232 79.71553 84.707832 89.700127 92.19043 97.182732 100.16803 107.65333 109.63963 114.63193 119.67013"
             y="-652.04315"
             sodipodi:role="line"
             id="tspan4095">(determined</tspan>
          <tspan
             style="font-size:9px;font-variant:normal;font-weight:bold;writing-mode:lr-tb;fill:#000000;fill-opacity:1;fill-rule:nonzero;stroke:none;font-family:Arial;-inkscape-font-specification:Arial Bold;font-style:normal;font-stretch:normal"
             x="71.210526 76.21093 80.707329 83.229126 88.22953 91.222931 95.71933 100.71973 105.72013 108.21853 112.71493 117.71533 122.71573 127.21213"
             y="-640.88318"
             sodipodi:role="line"
             id="tspan4097">by archetypes)</tspan>
        </text>
        <text
           transform="scale(1,-1)"
           id="text4099"
           x="255.35143"
           y="-783.26318"
           style="-inkscape-font-specification:Arial Bold;font-family:Arial;font-weight:bold;font-style:normal;font-stretch:normal;font-variant:normal">
          <tspan
             style="font-size:12px;font-variant:normal;font-weight:bold;writing-mode:lr-tb;fill:#000000;fill-opacity:1;fill-rule:nonzero;stroke:none;font-family:Arial;-inkscape-font-specification:Arial Bold;font-style:normal;font-stretch:normal"
             x="255.35143 262.02103 268.69064 276.02023 283.34982 290.01944 293.32184 300.65143 304.64502 307.94742 314.61703 321.94662 329.27621 333.26984 339.93942 347.26904"
             y="-783.26318"
             sodipodi:role="line"
             id="tspan4101">scope of content</tspan>
        </text>
        <text
           transform="scale(1,-1)"
           id="text4103"
           x="271.97144"
           y="-708.02313"
           style="-inkscape-font-specification:Arial Bold;font-family:Arial;font-weight:bold;font-style:normal;font-stretch:normal;font-variant:normal">
          <tspan
             style="font-size:9px;font-variant:normal;font-weight:bold;writing-mode:lr-tb;fill:#0000ff;fill-opacity:1;fill-rule:nonzero;stroke:none;font-family:Arial;-inkscape-font-specification:Arial Bold;font-style:normal;font-stretch:normal"
             x="271.97144 276.95654 281.99472 283.97382 285.95294 290.93802 292.97653 297.96164 302.94672 305.46854 312.94662 317.93173 319.91083 324.89594 327.37903 332.36414 337.40234 342.38742 347.37253 351.85364"
             y="-708.02313"
             sodipodi:role="line"
             id="tspan4105">building maintenance</tspan>
          <tspan
             style="font-size:9px;font-variant:normal;font-weight:bold;writing-mode:lr-tb;fill:#0000ff;fill-opacity:1;fill-rule:nonzero;stroke:none;font-family:Arial;-inkscape-font-specification:Arial Bold;font-style:normal;font-stretch:normal"
             x="271.97144 274.94864 279.93283 284.41302 289.39722 292.37442 297.41263 299.89484 302.41574 307.39993 309.92084 314.90503 319.88922 321.92773 323.90594 328.89014 330.86832 335.90652"
             y="-698.00348"
             sodipodi:role="line"
             id="tspan4107">record, 1 building</tspan>
          <tspan
             style="font-size:9px;font-variant:normal;font-weight:bold;writing-mode:lr-tb;fill:#0000ff;fill-opacity:1;fill-rule:nonzero;stroke:none;font-family:Arial;-inkscape-font-specification:Arial Bold;font-style:normal;font-stretch:normal"
             x="184.31143 187.28954 192.27463 196.75574 201.74083 204.71893 209.70403 212.18713 214.70892 219.69403 222.21584 226.69693 231.73512 236.72023 241.70532 243.74384 245.72293 250.70802"
             y="-693.68347"
             sodipodi:role="line"
             id="tspan4109">record, 1 supplier</tspan>
          <tspan
             style="font-size:9px;font-variant:normal;font-weight:bold;writing-mode:lr-tb;fill:#0000ff;fill-opacity:1;fill-rule:nonzero;stroke:none;font-family:Arial;-inkscape-font-specification:Arial Bold;font-style:normal;font-stretch:normal"
             x="368.99142 373.98734 378.98325 381.47714 383.46704 388.50522 393.50113 398.49704 400.48694 403.00873 408.00464 412.49652 414.89774 419.87653 422.37042"
             y="-706.94318"
             sodipodi:role="line"
             id="tspan4111">national estate</tspan>
          <tspan
             style="font-size:9px;font-variant:normal;font-weight:bold;writing-mode:lr-tb;fill:#0000ff;fill-opacity:1;fill-rule:nonzero;stroke:none;font-family:Arial;-inkscape-font-specification:Arial Bold;font-style:normal;font-stretch:normal"
             x="368.99142 373.47882 378.47025 381.45462 385.94202 390.93344"
             y="-696.92346"
             sodipodi:role="line"
             id="tspan4113">survey</tspan>
          <tspan
             style="font-size:9px;font-variant:normal;font-weight:bold;writing-mode:lr-tb;fill:#000000;fill-opacity:1;fill-rule:nonzero;stroke:none;font-family:Arial;-inkscape-font-specification:Arial Bold;font-style:normal;font-stretch:normal"
             x="246.53113 249.50563 254.54382 259.52533 262.00482 266.98633 269.96082 277.43533 279.41083 284.39233 289.37384 294.41202 296.87354 301.91174 306.41174 308.87323 313.85474 318.89294 323.87442 325.84995 330.88812 335.32782 342.80234 347.84055 352.82202 355.30154"
             y="-772.22375"
             sodipodi:role="line"
             id="tspan4115">(determined by deployment)</tspan>
        </text>
      </g>
    </g>
  </g>
</svg>
