<?xml version="1.0" encoding="UTF-8" standalone="no"?>
<!-- Created with Inkscape (http://www.inkscape.org/) -->

<svg
   xmlns:dc="http://purl.org/dc/elements/1.1/"
   xmlns:cc="http://creativecommons.org/ns#"
   xmlns:rdf="http://www.w3.org/1999/02/22-rdf-syntax-ns#"
   xmlns:svg="http://www.w3.org/2000/svg"
   xmlns="http://www.w3.org/2000/svg"
   xmlns:sodipodi="http://sodipodi.sourceforge.net/DTD/sodipodi-0.dtd"
   xmlns:inkscape="http://www.inkscape.org/namespaces/inkscape"
   width="744.09448819"
   height="1052.3622047"
   id="svg3724"
   version="1.1"
   inkscape:version="0.48.3.1 r9886"
   sodipodi:docname="4.svg">
  <defs
     id="defs3726">
    <clipPath
       clipPathUnits="userSpaceOnUse"
       id="clipPath3547">
      <path
         d="m 37.14,752.54 486,0 0,-3 -486,0 0,3 z"
         clip-rule="evenodd"
         id="path3549" />
    </clipPath>
    <clipPath
       clipPathUnits="userSpaceOnUse"
       id="clipPath7138">
      <path
         d="m 37.14,752.54 486,0 0,-3 -486,0 0,3 z"
         clip-rule="evenodd"
         id="path7140" />
    </clipPath>
    <clipPath
       clipPathUnits="userSpaceOnUse"
       id="clipPath6709">
      <path
         d="m 55.62,622.94 104.4,0 0,-46.86 -104.4,0 0,46.86 z"
         clip-rule="evenodd"
         id="path6711" />
    </clipPath>
    <clipPath
       clipPathUnits="userSpaceOnUse"
       id="clipPath6729">
      <path
         d="m 52.74,670.64 107.88,0 0,-31.98 -107.88,0 0,31.98 z"
         clip-rule="evenodd"
         id="path6731" />
    </clipPath>
  </defs>
  <sodipodi:namedview
     id="base"
     pagecolor="#ffffff"
     bordercolor="#666666"
     borderopacity="1.0"
     inkscape:pageopacity="0.0"
     inkscape:pageshadow="2"
     inkscape:zoom="1.4"
     inkscape:cx="488.14048"
     inkscape:cy="724.60523"
     inkscape:document-units="px"
     inkscape:current-layer="g7102"
     showgrid="false"
     inkscape:window-width="1855"
     inkscape:window-height="1176"
     inkscape:window-x="65"
     inkscape:window-y="24"
     inkscape:window-maximized="1" />
  <metadata
     id="metadata3729">
    <rdf:RDF>
      <cc:Work
         rdf:about="">
        <dc:format>image/svg+xml</dc:format>
        <dc:type
           rdf:resource="http://purl.org/dc/dcmitype/StillImage" />
        <dc:title />
      </cc:Work>
    </rdf:RDF>
  </metadata>
  <g
     inkscape:label="Layer 1"
     inkscape:groupmode="layer"
     id="layer1">
    <g
       id="layer1-3"
       inkscape:label="Layer 1"
       transform="translate(66.018977,-5.8939031)">
      <g
         id="g3511"
         inkscape:label="3.1 overview"
         transform="matrix(1.25,0,0,-1.25,-74.765407,1013.1846)">
        <g
           id="layer1-36"
           inkscape:label="Layer 1"
           transform="matrix(0.8,0,0,-0.8,1.655648,865.97626)">
          <g
             id="g4624"
             inkscape:label="3.1 overview"
             transform="matrix(1.25,0,0,-1.25,-36.923127,1051.7561)">
            <g
               id="layer1-2"
               inkscape:label="Layer 1"
               transform="matrix(0.8,0,0,-0.8,52.452198,775.83104)">
              <g
                 id="g7102"
                 inkscape:label="3.1 overview"
                 transform="matrix(1.25,0,0,-1.25,-4.9974012,1021.2229)">
                <path
                   inkscape:connector-curvature="0"
                   d="m 129.76315,785.32891 -1.86,-0.06 -1.8,-0.3 -1.74,-0.42 -1.62,-0.6 -1.56,-0.78 -1.5,-0.9 -1.38,-1.02 -1.32,-1.2 -1.14,-1.26 -1.02,-1.38 -0.9,-1.5 -0.78,-1.56 -0.6,-1.68 -0.42,-1.68 -0.3,-1.8 -0.06,-1.86 0,-145.26 0.06,-1.8 0.3,-1.8 0.42,-1.74 0.6,-1.62 0.78,-1.62 0.9,-1.44 1.02,-1.44 1.14,-1.26 1.32,-1.14 1.38,-1.02 1.5,-0.96 1.56,-0.72 1.62,-0.6 1.74,-0.48 1.8,-0.24 1.86,-0.12 144.12,0 1.8,0.12 1.8,0.24 1.74,0.48 1.62,0.6 1.62,0.72 1.44,0.96 1.44,1.02 1.26,1.14 1.14,1.26 1.02,1.44 0.96,1.44 0.72,1.62 0.6,1.62 0.48,1.74 0.24,1.8 0.12,1.8 0,145.26 -0.12,1.86 -0.24,1.8 -0.48,1.68 -0.6,1.68 -0.72,1.56 -0.96,1.5 -1.02,1.38 -1.14,1.26 -1.26,1.2 -1.44,1.02 -1.44,0.9 -1.62,0.78 -1.62,0.6 -1.74,0.42 -1.8,0.3 -1.8,0.06 -144.12,0"
                   style="fill:#ccffff;fill-opacity:1;fill-rule:evenodd;stroke:none"
                   id="path7254" />
                <path
                   inkscape:connector-curvature="0"
                   d="m 129.76315,785.08891 -1.86,-0.06 0.06,0 -1.8,-0.3 -1.74,-0.42 0.06,0 -1.62,-0.6 -1.56,-0.78 -1.5,-0.9 0.06,0.06 -1.38,-1.02 -1.32,-1.2 -1.14,-1.26 -1.02,-1.38 0.06,0.06 -0.9,-1.5 -0.78,-1.56 -0.6,-1.68 0,0.06 -0.42,-1.68 -0.3,-1.8 0,0.06 -0.06,-1.86 0,-145.26 0.06,-1.8 0.3,-1.8 0,0.06 0.42,-1.74 0.6,-1.62 0.78,-1.62 0,0.06 0.9,-1.44 -0.06,0 1.02,-1.38 1.14,-1.32 0,0.06 1.32,-1.14 1.38,-1.02 -0.06,0 1.5,-0.9 1.56,-0.78 0,0.06 1.62,-0.6 -0.06,0 1.74,-0.42 1.8,-0.3 1.86,-0.12 -0.06,0 144.06,0 1.86,0.12 1.8,0.3 -0.06,0 1.74,0.42 1.62,0.6 0,-0.06 1.62,0.78 -0.06,0 0.24,-0.42 -1.62,-0.78 -1.62,-0.6 -0.06,0 -1.74,-0.42 -1.8,-0.3 -1.86,-0.12 -144.12,0 -1.86,0.12 -1.8,0.3 -0.06,0 -1.74,0.42 -1.62,0.6 -0.06,0 -1.56,0.78 -1.5,0.9 0,0.06 -1.38,1.02 -1.32,1.14 -0.06,0 -1.14,1.32 -1.02,1.38 0,0.06 -0.9,1.44 -0.78,1.62 -0.06,0 -0.6,1.62 0,0.06 -0.42,1.74 -0.3,1.8 0,0.06 -0.06,1.8 0,145.26 0.06,1.86 0.3,1.8 0,0.06 0.42,1.68 0.6,1.68 0.06,0.06 0.78,1.56 0.9,1.5 1.02,1.38 1.14,1.26 0.06,0.06 1.32,1.2 1.38,1.02 1.5,0.9 1.56,0.78 0.06,0.06 1.62,0.6 1.74,0.42 0.06,0 1.8,0.3 1.86,0.06"
                   style="fill:#000000;fill-opacity:1;fill-rule:nonzero;stroke:none"
                   id="path7256" />
                <path
                   inkscape:connector-curvature="0"
                   d="m 282.34315,606.46891 1.44,0.9 1.38,1.02 1.32,1.14 -0.06,-0.06 1.14,1.32 1.02,1.38 0.9,1.44 0,-0.06 0.78,1.62 -0.06,0 0.6,1.62 0.42,1.74 0,-0.06 0.3,1.8 0.12,1.8 0,145.26 0,-0.06 -0.12,1.86 -0.3,1.8 -0.42,1.68 0,-0.06 -0.6,1.68 0.06,0 -0.78,1.56 -0.9,1.5 0,-0.06 -1.02,1.38 -1.14,1.26 0.06,0 -1.32,1.2 -1.38,1.02 0,-0.06 -1.44,0.9 0.06,0 -1.62,0.78 -1.62,0.6 -1.74,0.42 0.06,0 -1.8,0.3 -1.86,0.06 -144.06,0 0,0.48 144.06,0 1.86,-0.06 0.06,0 1.8,-0.3 1.74,-0.42 0.06,0 1.62,-0.6 0,-0.06 1.62,-0.78 1.44,-0.9 0.06,0 1.38,-1.02 1.32,-1.2 0,-0.06 1.14,-1.26 1.02,-1.38 0.06,0 0.9,-1.5 0.78,-1.56 0,-0.06 0.6,-1.68 0.42,-1.68 0,-0.06 0.3,-1.8 0.12,-1.86 0,-145.32 -0.12,-1.8 -0.3,-1.8 -0.42,-1.74 0,-0.06 -0.6,-1.62 -0.78,-1.62 -0.9,-1.44 -0.06,-0.06 -1.02,-1.38 -1.14,-1.32 -1.32,-1.14 -1.38,-1.02 -0.06,-0.06 -1.44,-0.9"
                   style="fill:#000000;fill-opacity:1;fill-rule:nonzero;stroke:none"
                   id="path7258" />
                <path
                   inkscape:connector-curvature="0"
                   d="m 318.16315,784.60891 -1.86,-0.06 -1.8,-0.3 -1.68,-0.42 -1.68,-0.6 -1.56,-0.78 -1.5,-0.9 -1.38,-1.02 -1.26,-1.14 -1.2,-1.32 -1.02,-1.38 -0.9,-1.5 -0.72,-1.56 -0.66,-1.62 -0.42,-1.74 -0.3,-1.8 -0.06,-1.86 0,-143.34 0.06,-1.86 0.3,-1.8 0.42,-1.68 0.66,-1.68 0.72,-1.56 0.9,-1.5 1.02,-1.38 1.2,-1.26 1.26,-1.2 1.38,-1.02 1.5,-0.9 1.56,-0.78 1.68,-0.6 1.68,-0.42 1.8,-0.3 1.86,-0.06 160.86,0 1.86,0.06 1.8,0.3 1.74,0.42 1.62,0.6 1.56,0.78 1.5,0.9 1.38,1.02 1.26,1.2 1.2,1.26 1.02,1.38 0.9,1.5 0.78,1.56 0.6,1.68 0.42,1.68 0.3,1.8 0.06,1.86 0,143.34 -0.06,1.86 -0.3,1.8 -0.42,1.74 -0.6,1.62 -0.78,1.56 -0.9,1.5 -1.02,1.38 -1.2,1.32 -1.26,1.14 -1.38,1.02 -1.5,0.9 -1.56,0.78 -1.62,0.6 -1.74,0.42 -1.8,0.3 -1.86,0.06 -160.86,0"
                   style="fill:#c9ff5e;fill-opacity:1;fill-rule:evenodd;stroke:none"
                   id="path7260" />
                <path
                   inkscape:connector-curvature="0"
                   d="m 318.16315,784.36891 -1.86,-0.06 0.06,0 -1.8,-0.3 -1.68,-0.42 0.06,0 -1.68,-0.6 -1.56,-0.78 -1.5,-0.9 0.06,0.06 -1.38,-1.02 -1.26,-1.14 -1.2,-1.32 -1.02,-1.38 0.06,0.06 -0.9,-1.5 -0.72,-1.56 -0.66,-1.62 0,0.06 -0.42,-1.74 -0.3,-1.8 0,0.06 -0.06,-1.86 0,-143.34 0.06,-1.86 0.3,-1.8 0,0.06 0.42,-1.68 0.66,-1.68 0.72,-1.56 0,0.06 0.9,-1.5 -0.06,0 1.02,-1.38 0,0.06 1.2,-1.26 1.26,-1.2 1.38,-1.02 -0.06,0 1.5,-0.9 1.56,-0.72 1.68,-0.66 -0.06,0.06 1.68,-0.42 1.8,-0.3 -0.06,0 1.86,-0.06 160.86,0 1.86,0.06 1.8,0.3 -0.06,0 1.68,0.42 0,-0.06 1.68,0.66 1.56,0.72 -0.06,0 0.24,-0.42 -1.56,-0.72 -1.68,-0.66 -0.06,0 -1.68,-0.42 -1.8,-0.3 -0.06,0 -1.86,-0.06 -160.86,0 -1.86,0.06 -1.8,0.3 -0.06,0 -1.68,0.42 -1.68,0.66 -1.56,0.72 -0.06,0 -1.5,0.9 0,0.06 -1.38,1.02 -0.06,0 -1.26,1.2 -1.2,1.26 -1.02,1.38 0,0.06 -0.9,1.5 -0.72,1.56 -0.66,1.68 -0.06,0.06 -0.42,1.68 -0.3,1.8 0,0.06 -0.06,1.86 0,143.34 0.06,1.86 0.3,1.8 0,0.06 0.42,1.74 0.06,0 0.66,1.62 0.72,1.56 0,0.06 0.9,1.5 1.02,1.38 1.2,1.32 0.06,0.06 1.26,1.14 1.38,1.02 1.5,0.9 1.56,0.78 0.06,0.06 1.68,0.6 1.68,0.42 0.06,0 1.8,0.3 1.86,0.06"
                   style="fill:#000000;fill-opacity:1;fill-rule:nonzero;stroke:none"
                   id="path7262" />
                <path
                   inkscape:connector-curvature="0"
                   d="m 487.48315,607.60891 1.5,0.9 1.38,1.02 -0.06,0 1.26,1.2 1.2,1.26 0,-0.06 1.02,1.38 0.9,1.5 0.78,1.56 -0.06,-0.06 0.6,1.68 0.42,1.68 0,-0.06 0.3,1.8 0.06,1.86 0,143.34 -0.06,1.86 0,-0.06 -0.3,1.8 -0.42,1.74 0,-0.06 -0.6,1.62 0.06,0 -0.78,1.56 -0.9,1.5 0,-0.06 -1.02,1.38 -1.2,1.32 0.06,0 -1.26,1.14 -1.38,1.02 0,-0.06 -1.5,0.9 -1.56,0.78 0.06,0 -1.68,0.6 -1.68,0.42 0.06,0 -1.8,0.3 -1.86,0.06 -160.86,0 0,0.48 160.86,0 1.86,-0.06 0.06,0 1.8,-0.3 1.68,-0.42 0.06,0 1.68,-0.6 0,-0.06 1.56,-0.78 1.5,-0.9 0.06,0 1.38,-1.02 1.26,-1.14 0,-0.06 1.2,-1.32 1.02,-1.38 0.06,0 0.9,-1.5 0.78,-1.56 0,-0.06 0.6,-1.62 0.42,-1.74 0,-0.06 0.3,-1.8 0.06,-1.86 0,-143.34 -0.06,-1.86 0,-0.06 -0.3,-1.8 -0.42,-1.68 0,-0.06 -0.6,-1.68 -0.78,-1.56 -0.9,-1.5 -0.06,-0.06 -1.02,-1.38 -1.2,-1.26 -1.26,-1.2 -1.38,-1.02 -0.06,-0.06 -1.5,-0.9"
                   style="fill:#000000;fill-opacity:1;fill-rule:nonzero;stroke:none"
                   id="path7264" />
                <text
                   style="font-weight:bold;-inkscape-font-specification:Arial Bold;font-family:Arial;font-style:normal;font-stretch:normal;font-variant:normal"
                   y="-773.62921"
                   x="312.16315"
                   transform="scale(1,-1)"
                   id="text7266">
                  <tspan
                     style="font-size:12px;font-variant:normal;font-weight:bold;writing-mode:lr-tb;fill:#547a7a;fill-opacity:1;fill-rule:nonzero;stroke:none;font-family:Arial;-inkscape-font-specification:Arial Bold;font-style:normal;font-stretch:normal"
                     x="312.16315 318.83154 325.49994 328.83234 335.50073 338.16113 344.82956 351.49796 354.15836 360.82675 366.82315 370.15555 376.82394 380.15634 383.48874 387.48114 394.14954 400.81793 403.47833 406.13873 409.47113"
                     y="-773.62921"
                     sodipodi:role="line"
                     id="tspan7268">ontologies of reality</tspan>
                </text>
                <path
                   inkscape:connector-curvature="0"
                   d="m 326.14315,764.14891 -1.8,-0.12 -1.8,-0.24 -1.74,-0.48 -1.62,-0.6 -1.62,-0.72 -1.44,-0.9 -1.44,-1.08 -1.26,-1.14 -1.14,-1.26 -1.02,-1.38 -0.96,-1.5 -0.72,-1.56 -0.6,-1.68 -0.48,-1.74 -0.24,-1.8 -0.12,-1.8 0,-20.88 0.12,-1.86 0.24,-1.8 0.48,-1.68 0.6,-1.68 0.72,-1.56 0.96,-1.5 1.02,-1.38 1.14,-1.26 1.26,-1.2 1.44,-1.02 1.44,-0.9 1.62,-0.78 1.62,-0.6 1.74,-0.42 1.8,-0.3 1.8,-0.06 50.88,0 1.86,0.06 1.8,0.3 1.68,0.42 1.68,0.6 1.56,0.78 1.5,0.9 1.38,1.02 1.26,1.2 1.2,1.26 1.02,1.38 0.9,1.5 0.78,1.56 0.6,1.68 0.42,1.68 0.3,1.8 0.06,1.86 0,20.88 -0.06,1.8 -0.3,1.8 -0.42,1.74 -0.6,1.68 -0.78,1.56 -0.9,1.5 -1.02,1.38 -1.2,1.26 -1.26,1.14 -1.38,1.08 -1.5,0.9 -1.56,0.72 -1.68,0.6 -1.68,0.48 -1.8,0.24 -1.86,0.12 -50.88,0"
                   style="fill:#96ff54;fill-opacity:1;fill-rule:evenodd;stroke:none"
                   id="path7270" />
                <path
                   inkscape:connector-curvature="0"
                   d="m 326.20315,763.90891 -1.8,-0.12 -1.8,-0.24 -1.74,-0.48 0.06,0 -1.62,-0.6 -1.62,-0.72 -1.44,-0.9 0.06,0.06 -1.44,-1.08 -1.26,-1.14 -1.14,-1.26 -1.02,-1.38 0.06,0.06 -0.96,-1.5 -0.72,-1.56 -0.6,-1.68 0,0.06 -0.48,-1.74 -0.24,-1.8 -0.12,-1.8 0,0.06 0,-20.88 0.12,-1.86 0.24,-1.8 0,0.06 0.48,-1.68 0.6,-1.68 0.72,-1.56 0,0.06 0.96,-1.5 -0.06,0 1.02,-1.38 1.14,-1.26 0,0.06 1.26,-1.2 1.44,-1.02 -0.06,0 1.44,-0.9 1.62,-0.78 0,0.06 1.62,-0.6 -0.06,0 1.74,-0.42 1.8,-0.3 -0.06,0 1.8,-0.06 50.88,0 1.86,0.06 1.8,0.3 -0.06,0 1.68,0.42 1.68,0.6 -0.06,-0.06 1.56,0.78 0.24,-0.42 -1.56,-0.78 -1.68,-0.6 -0.06,0 -1.68,-0.42 -1.8,-0.3 -0.06,0 -1.86,-0.06 -50.88,0 -1.8,0.06 -1.8,0.3 -0.06,0 -1.74,0.42 -1.62,0.6 -1.62,0.78 -0.06,0 -1.44,0.9 -1.44,1.02 -0.06,0.06 -1.26,1.2 -1.14,1.26 -1.02,1.38 0,0.06 -0.96,1.5 -0.72,1.56 -0.06,0 -0.6,1.68 0,0.06 -0.48,1.68 -0.24,1.8 -0.12,1.86 0,20.94 0.12,1.8 0.24,1.8 0,0.06 0.48,1.74 0.6,1.68 0.06,0 0.72,1.56 0,0.06 0.96,1.5 1.02,1.38 1.14,1.26 0.06,0.06 1.26,1.14 1.44,1.08 1.44,0.9 0.06,0 1.62,0.72 0,0.06 1.62,0.6 1.74,0.48 0.06,0 1.8,0.24 1.8,0.12"
                   style="fill:#000000;fill-opacity:1;fill-rule:nonzero;stroke:none"
                   id="path7272" />
                <path
                   inkscape:connector-curvature="0"
                   d="m 385.48315,709.60891 1.5,0.9 1.38,1.02 -0.06,0 1.26,1.2 1.2,1.26 0,-0.06 1.02,1.38 0.9,1.5 0.78,1.56 -0.06,-0.06 0.6,1.68 0.42,1.68 0,-0.06 0.3,1.8 0.06,1.86 0,20.88 -0.06,1.8 0,-0.06 -0.3,1.8 -0.42,1.74 0,-0.06 -0.6,1.68 0.06,0 -0.78,1.56 -0.9,1.5 0,-0.06 -1.02,1.38 -1.2,1.26 0.06,0 -1.26,1.14 -1.38,1.08 0,-0.06 -1.5,0.9 0.06,0 -1.56,0.72 -1.68,0.6 -1.68,0.48 0.06,0 -1.8,0.24 -1.86,0.12 -50.88,0 0.06,0 -0.06,0.48 50.94,0 1.86,-0.12 1.8,-0.24 1.68,-0.48 0.06,0 1.68,-0.6 0,-0.06 1.56,-0.72 1.5,-0.9 0.06,0 1.38,-1.08 1.26,-1.14 1.2,-1.26 0,-0.06 1.02,-1.38 0.06,0 0.9,-1.5 0.78,-1.56 0,-0.06 0.6,-1.68 0.42,-1.74 0,-0.06 0.3,-1.8 0.06,-1.8 0,-20.88 -0.06,-1.86 0,-0.06 -0.3,-1.8 -0.42,-1.68 0,-0.06 -0.6,-1.68 -0.78,-1.56 -0.9,-1.5 -0.06,-0.06 -1.02,-1.38 -1.2,-1.26 -1.26,-1.2 -1.38,-1.02 -0.06,-0.06 -1.5,-0.9"
                   style="fill:#000000;fill-opacity:1;fill-rule:nonzero;stroke:none"
                   id="path7274" />
                <path
                   inkscape:connector-curvature="0"
                   d="m 326.14315,688.42891 -1.8,-0.12 -1.8,-0.24 -1.74,-0.48 -1.62,-0.6 -1.62,-0.72 -1.44,-0.9 -1.44,-1.08 -1.26,-1.14 -1.14,-1.26 -1.02,-1.38 -0.96,-1.5 -0.72,-1.56 -0.6,-1.68 -0.48,-1.74 -0.24,-1.74 -0.12,-1.86 0,-39.66 0.12,-1.8 0.24,-1.8 0.48,-1.74 0.6,-1.62 0.72,-1.62 0.96,-1.44 1.02,-1.38 1.14,-1.32 1.26,-1.14 1.44,-1.02 1.44,-0.9 1.62,-0.78 1.62,-0.6 1.74,-0.42 1.8,-0.3 1.8,-0.12 144.66,0 1.8,0.12 1.8,0.3 1.74,0.42 1.68,0.6 1.56,0.78 1.5,0.9 1.38,1.02 1.26,1.14 1.14,1.32 1.08,1.38 0.9,1.44 0.72,1.62 0.6,1.62 0.48,1.74 0.24,1.8 0.12,1.8 0,39.66 -0.12,1.86 -0.24,1.74 -0.48,1.74 -0.6,1.68 -0.72,1.56 -0.9,1.5 -1.08,1.38 -1.14,1.26 -1.26,1.14 -1.38,1.08 -1.5,0.9 -1.56,0.72 -1.68,0.6 -1.74,0.48 -1.8,0.24 -1.8,0.12 -144.66,0"
                   style="fill:#96ff54;fill-opacity:1;fill-rule:evenodd;stroke:none"
                   id="path7276" />
                <path
                   inkscape:connector-curvature="0"
                   d="m 326.20315,688.18891 -1.8,-0.12 -1.8,-0.24 -1.74,-0.48 0.06,0 -1.62,-0.6 -1.62,-0.72 -1.44,-0.9 0.06,0.06 -1.44,-1.08 -1.26,-1.14 -1.14,-1.26 -1.02,-1.38 0.06,0.06 -0.96,-1.5 -0.72,-1.56 -0.6,-1.68 0,0.06 -0.48,-1.74 -0.24,-1.74 -0.12,-1.86 0,0.06 0,-39.6 0.12,-1.86 0.24,-1.8 0,0.06 0.48,-1.74 0.6,-1.62 0.72,-1.56 0,0.06 0.96,-1.5 -0.06,0 1.02,-1.38 1.14,-1.32 0,0.06 1.26,-1.14 1.44,-1.02 -0.06,0 1.44,-0.9 1.62,-0.78 0,0.06 1.62,-0.6 -0.06,0 1.74,-0.42 1.8,-0.3 -0.06,0 1.8,-0.06 144.66,0 1.8,0.06 1.8,0.3 -0.06,0 1.74,0.42 1.68,0.6 -0.06,-0.06 1.56,0.78 0.24,-0.42 -1.56,-0.78 -1.68,-0.6 -0.06,0 -1.74,-0.42 -1.8,-0.3 -0.06,0 -1.8,-0.06 -144.66,0 -1.8,0.06 -1.8,0.3 -0.06,0 -1.74,0.42 -1.62,0.6 -1.62,0.78 -0.06,0 -1.44,0.9 -1.44,1.02 0,0.06 -1.26,1.14 -0.06,0 -1.14,1.32 -1.02,1.38 0,0.06 -0.96,1.5 -0.72,1.56 -0.06,0 -0.6,1.62 0,0.06 -0.48,1.74 -0.24,1.8 -0.12,1.86 0,39.66 0.12,1.86 0.24,1.74 0,0.06 0.48,1.74 0.6,1.68 0.06,0 0.72,1.56 0,0.06 0.96,1.5 1.02,1.38 1.14,1.26 0.06,0.06 1.26,1.14 1.44,1.08 1.44,0.9 0.06,0 1.62,0.72 0,0.06 1.62,0.6 1.74,0.48 0.06,0 1.8,0.24 1.8,0.12"
                   style="fill:#000000;fill-opacity:1;fill-rule:nonzero;stroke:none"
                   id="path7278" />
                <path
                   inkscape:connector-curvature="0"
                   d="m 479.26315,615.16891 1.44,0.9 1.44,1.02 1.26,1.14 -0.06,-0.06 1.14,1.32 1.08,1.38 0.9,1.5 0,-0.06 0.72,1.56 -0.06,0 0.6,1.62 0.48,1.74 0,-0.06 0.24,1.8 0.12,1.86 0,39.6 0,-0.06 -0.12,1.86 -0.24,1.74 -0.48,1.74 0,-0.06 -0.6,1.68 0.06,0 -0.72,1.56 -0.9,1.5 0,-0.06 -1.08,1.38 -1.14,1.26 0.06,0 -1.26,1.14 -1.44,1.08 0,-0.06 -1.44,0.9 0.06,0 -1.56,0.72 -1.68,0.6 -1.74,0.48 0.06,0 -1.8,0.24 -1.8,0.12 -144.66,0 0.06,0 -0.06,0.48 144.72,0 1.8,-0.12 1.8,-0.24 1.74,-0.48 0.06,0 1.68,-0.6 0,-0.06 1.56,-0.72 1.44,-0.9 0.06,0 1.44,-1.08 1.26,-1.14 0,-0.06 1.14,-1.26 1.08,-1.38 0.06,0 0.9,-1.5 0,-0.06 0.72,-1.56 0.6,-1.68 0.48,-1.74 0,-0.06 0.24,-1.74 0.12,-1.86 0,-39.66 -0.12,-1.86 -0.24,-1.8 -0.48,-1.74 0,-0.06 -0.6,-1.62 -0.72,-1.56 -0.9,-1.5 -0.06,-0.06 -1.08,-1.38 -1.14,-1.32 -1.26,-1.14 0,-0.06 -1.44,-1.02 -0.06,0 -1.44,-0.9"
                   style="fill:#000000;fill-opacity:1;fill-rule:nonzero;stroke:none"
                   id="path7280" />
                <text
                   style="font-weight:bold;-inkscape-font-specification:Arial Bold;font-family:Arial;font-style:normal;font-stretch:normal;font-variant:normal"
                   y="-753.10919"
                   x="314.86316"
                   transform="scale(1,-1)"
                   id="text7282">
                  <tspan
                     style="font-size:12px;font-variant:normal;font-weight:bold;writing-mode:lr-tb;fill:#000000;fill-opacity:1;fill-rule:nonzero;stroke:none;font-family:Arial;-inkscape-font-specification:Arial Bold;font-style:normal;font-stretch:normal"
                     x="314.86316 320.85956 323.51996 330.18835 336.18475 342.18115 344.84155 348.17395 350.83435 356.83075 363.49915 366.83154 369.49194 376.16034 382.82874"
                     y="-753.10919"
                     sodipodi:role="line"
                     id="tspan7284">classifications</tspan>
                  <tspan
                     style="font-size:12px;font-variant:normal;font-weight:bold;writing-mode:lr-tb;fill:#000000;fill-opacity:1;fill-rule:nonzero;stroke:none;font-family:Arial;-inkscape-font-specification:Arial Bold;font-style:normal;font-stretch:normal"
                     x="333.64316 340.30795 346.97275 352.96555 358.95834 362.94714 365.60394 372.26874 375.59753 378.25433 384.24716 390.91196 394.27435 397.60315 404.26794 408.25674 418.24554 420.90234 427.56714 434.23193 436.88873 443.55356 450.27234 452.92914 459.59396"
                     y="-678.64923"
                     sodipodi:role="line"
                     id="tspan7286">descriptive terminologies</tspan>
                </text>
                <text
                   style="font-weight:bold;-inkscape-font-specification:Arial Bold;font-family:Arial;font-style:normal;font-stretch:normal;font-variant:normal"
                   y="-637.4892"
                   x="376.42316"
                   transform="scale(1,-1)"
                   id="text7288">
                  <tspan
                     style="font-size:9.96000004000000061px;font-variant:normal;font-weight:bold;writing-mode:lr-tb;fill:#0000ff;fill-opacity:1;fill-rule:nonzero;stroke:none;font-family:Arial;-inkscape-font-specification:Arial Bold;font-style:normal;font-stretch:normal"
                     x="376.42316 383.09036 390.30539 398.07819 406.39877 413.06598 420.28101 423.62158 430.83661"
                     y="-637.4892"
                     sodipodi:role="line"
                     id="tspan7290">SNOMED-CT</tspan>
                  <tspan
                     style="font-size:9.96000004000000061px;font-variant:normal;font-weight:bold;writing-mode:lr-tb;fill:#0000ff;fill-opacity:1;fill-rule:nonzero;stroke:none;font-family:Arial;-inkscape-font-specification:Arial Bold;font-style:normal;font-stretch:normal"
                     x="316.42313 319.19199 326.45084 333.64197"
                     y="-727.8493"
                     sodipodi:role="line"
                     id="tspan7292">ICDx</tspan>
                  <tspan
                     style="font-size:9.96000004000000061px;font-variant:normal;font-weight:bold;writing-mode:lr-tb;fill:#0000ff;fill-opacity:1;fill-rule:nonzero;stroke:none;font-family:Arial;-inkscape-font-specification:Arial Bold;font-style:normal;font-stretch:normal"
                     x="359.02304 361.80087 369.00095 375.65323"
                     y="-716.68915"
                     sodipodi:role="line"
                     id="tspan7294">ICPC</tspan>
                </text>
                <path
                   inkscape:connector-curvature="0"
                   d="m 135.58315,696.52891 -1.86,-0.06 -1.8,-0.3 -1.68,-0.42 -1.68,-0.6 -1.56,-0.78 -1.5,-0.9 -1.38,-1.02 -1.26,-1.14 -1.2,-1.32 -1.02,-1.38 -0.9,-1.5 -0.78,-1.56 -0.6,-1.62 -0.42,-1.74 -0.3,-1.8 -0.06,-1.86 0,-47.82 0.06,-1.86 0.3,-1.74 0.42,-1.74 0.6,-1.68 0.78,-1.56 0.9,-1.5 1.02,-1.38 1.2,-1.26 1.26,-1.14 1.38,-1.08 1.5,-0.9 1.56,-0.72 1.68,-0.6 1.68,-0.48 1.8,-0.24 1.86,-0.12 80.82,0 1.86,0.12 1.8,0.24 1.68,0.48 1.68,0.6 1.56,0.72 1.5,0.9 1.38,1.08 1.26,1.14 1.2,1.26 1.02,1.38 0.9,1.5 0.78,1.56 0.6,1.68 0.42,1.74 0.3,1.74 0.06,1.86 0,47.82 -0.06,1.86 -0.3,1.8 -0.42,1.74 -0.6,1.62 -0.78,1.56 -0.9,1.5 -1.02,1.38 -1.2,1.32 -1.26,1.14 -1.38,1.02 -1.5,0.9 -1.56,0.78 -1.68,0.6 -1.68,0.42 -1.8,0.3 -1.86,0.06 -80.82,0"
                   style="fill:#00ffff;fill-opacity:1;fill-rule:evenodd;stroke:none"
                   id="path7296" />
                <path
                   inkscape:connector-curvature="0"
                   d="m 135.58315,696.28891 -1.86,-0.06 0.06,0 -1.8,-0.3 -1.68,-0.42 0.06,0 -1.68,-0.6 -1.56,-0.78 -1.5,-0.9 0.06,0.06 -1.38,-1.02 -1.26,-1.14 -1.2,-1.32 -1.02,-1.38 0.06,0.06 -0.9,-1.5 -0.78,-1.56 -0.6,-1.62 0,0.06 -0.42,-1.74 -0.3,-1.8 0,0.06 -0.06,-1.86 0,-47.82 0.06,-1.8 0.3,-1.8 0,0.06 0.42,-1.74 0.6,-1.68 0,0.06 0.78,-1.56 0.9,-1.5 -0.06,0 1.02,-1.38 0,0.06 1.2,-1.26 1.26,-1.14 1.38,-1.08 -0.06,0 1.5,-0.9 1.56,-0.72 0,0.06 1.68,-0.6 -0.06,0 1.68,-0.48 1.8,-0.24 1.86,-0.12 -0.06,0 80.82,0 1.86,0.12 1.74,0.24 -0.06,0 1.74,0.48 1.68,0.6 0,-0.06 1.56,0.72 -0.06,0 0.24,-0.42 -1.56,-0.72 -1.68,-0.6 -0.06,0 -1.74,-0.48 -1.74,-0.24 -1.86,-0.12 -80.88,0 -1.86,0.12 -1.8,0.24 -0.06,0 -1.68,0.48 -1.68,0.6 -1.56,0.72 -0.06,0 -1.5,0.9 0,0.06 -1.38,1.08 -1.26,1.14 -0.06,0 -1.2,1.26 -1.02,1.38 0,0.06 -0.9,1.5 -0.78,1.56 -0.06,0 -0.6,1.68 0,0.06 -0.42,1.74 -0.3,1.8 0,0.06 -0.06,1.8 0,47.82 0.06,1.86 0.3,1.8 0,0.06 0.42,1.74 0.6,1.62 0.06,0.06 0.78,1.56 0.9,1.5 1.02,1.38 1.2,1.32 0.06,0.06 1.26,1.14 1.38,1.02 1.5,0.9 1.56,0.78 0.06,0.06 1.68,0.6 1.68,0.42 0.06,0 1.8,0.3 1.86,0.06"
                   style="fill:#000000;fill-opacity:1;fill-rule:nonzero;stroke:none"
                   id="path7298" />
                <path
                   inkscape:connector-curvature="0"
                   d="m 224.86315,615.04891 1.5,0.9 1.38,1.08 1.26,1.14 -0.06,-0.06 1.14,1.26 1.08,1.38 0.9,1.5 0,-0.06 0.72,1.56 -0.06,0 0.6,1.68 0.48,1.74 0,-0.06 0.24,1.8 0.12,1.8 0,47.82 0,-0.06 -0.12,1.86 -0.24,1.8 -0.48,1.74 0,-0.06 -0.6,1.62 0.06,0 -0.72,1.56 -0.9,1.5 0,-0.06 -1.08,1.38 -1.14,1.32 0.06,0 -1.26,1.14 -1.38,1.02 0,-0.06 -1.5,0.9 -1.56,0.78 0.06,0 -1.68,0.6 -1.74,0.42 0.06,0 -1.74,0.3 -1.86,0.06 -80.82,0 0,0.48 80.82,0 1.86,-0.06 0.06,0 1.74,-0.3 1.74,-0.42 0.06,0 1.68,-0.6 0,-0.06 1.56,-0.78 1.5,-0.9 0.06,0 1.38,-1.02 1.26,-1.14 0,-0.06 1.14,-1.32 1.08,-1.38 0.06,0 0.9,-1.5 0,-0.06 0.72,-1.56 0.6,-1.62 0.48,-1.74 0,-0.06 0.24,-1.8 0.12,-1.86 0,-47.88 -0.12,-1.8 -0.24,-1.8 -0.48,-1.74 0,-0.06 -0.6,-1.68 -0.72,-1.56 -0.9,-1.5 -0.06,-0.06 -1.08,-1.38 -1.14,-1.26 -1.26,-1.14 -1.38,-1.08 -0.06,-0.06 -1.5,-0.9"
                   style="fill:#000000;fill-opacity:1;fill-rule:nonzero;stroke:none"
                   id="path7300" />
                <path
                   inkscape:connector-curvature="0"
                   d="m 136.84315,764.68891 -1.86,-0.06 -1.8,-0.3 -1.74,-0.42 -1.62,-0.6 -1.56,-0.78 -1.5,-0.9 -1.38,-1.02 -1.32,-1.14 -1.14,-1.32 -1.02,-1.38 -0.9,-1.5 -0.78,-1.56 -0.6,-1.62 -0.42,-1.74 -0.3,-1.8 -0.06,-1.86 0,-20.22 0.06,-1.86 0.3,-1.74 0.42,-1.74 0.6,-1.68 0.78,-1.56 0.9,-1.5 1.02,-1.38 1.14,-1.26 1.32,-1.2 1.38,-1.02 1.5,-0.9 1.56,-0.72 1.62,-0.66 1.74,-0.42 1.8,-0.24 1.86,-0.12 103.98,0 1.86,0.12 1.74,0.24 1.74,0.42 1.68,0.66 1.56,0.72 1.5,0.9 1.38,1.02 1.26,1.2 1.2,1.26 1.02,1.38 0.9,1.5 0.72,1.56 0.66,1.68 0.42,1.74 0.24,1.74 0.12,1.86 0,20.22 -0.12,1.86 -0.24,1.8 -0.42,1.74 -0.66,1.62 -0.72,1.56 -0.9,1.5 -1.02,1.38 -1.2,1.32 -1.26,1.14 -1.38,1.02 -1.5,0.9 -1.56,0.78 -1.68,0.6 -1.74,0.42 -1.74,0.3 -1.86,0.06 -103.98,0"
                   style="fill:#9affc9;fill-opacity:1;fill-rule:evenodd;stroke:none"
                   id="path7302" />
                <path
                   inkscape:connector-curvature="0"
                   d="m 136.84315,764.44891 -1.86,-0.06 0.06,0 -1.8,-0.3 -1.74,-0.42 0.06,0 -1.62,-0.6 -1.56,-0.78 -1.5,-0.9 0.06,0.06 -1.38,-1.02 -1.32,-1.14 -1.14,-1.32 -1.02,-1.38 0.06,0.06 -0.9,-1.5 -0.78,-1.56 -0.6,-1.62 0,0.06 -0.42,-1.74 -0.3,-1.8 0,0.06 -0.06,-1.86 0,-20.22 0.06,-1.86 0.3,-1.74 0,0.06 0.42,-1.74 0.6,-1.68 0,0.06 0.78,-1.56 0.9,-1.5 -0.06,0 1.02,-1.38 1.14,-1.26 0,0.06 1.32,-1.14 1.38,-1.08 -0.06,0 1.5,-0.9 1.56,-0.72 0,0.06 1.62,-0.6 -0.06,0 1.74,-0.48 1.8,-0.24 1.86,-0.12 -0.06,0 103.98,0 1.86,0.12 1.74,0.24 -0.06,0 1.74,0.48 1.68,0.6 0,-0.06 1.56,0.72 -0.06,0 0.24,-0.42 -1.56,-0.72 -1.68,-0.6 -0.06,0 -1.74,-0.48 -1.74,-0.24 -1.86,-0.12 -104.04,0 -1.86,0.12 -1.8,0.24 -0.06,0 -1.74,0.48 -1.62,0.6 -1.56,0.72 -0.06,0 -1.5,0.9 0,0.06 -1.38,1.08 -1.32,1.14 -0.06,0 -1.14,1.26 -1.02,1.38 0,0.06 -0.9,1.5 -0.78,1.56 -0.06,0 -0.6,1.68 0,0.06 -0.42,1.74 -0.3,1.74 0,0.06 -0.06,1.86 0,20.22 0.06,1.86 0.3,1.8 0,0.06 0.42,1.74 0.6,1.62 0.06,0.06 0.78,1.56 0.9,1.5 1.02,1.38 1.14,1.32 0.06,0.06 1.32,1.14 1.38,1.02 1.5,0.9 1.56,0.78 0.06,0.06 1.62,0.6 1.74,0.42 0.06,0 1.8,0.3 1.86,0.06"
                   style="fill:#000000;fill-opacity:1;fill-rule:nonzero;stroke:none"
                   id="path7304" />
                <path
                   inkscape:connector-curvature="0"
                   d="m 249.28315,710.80891 1.5,0.9 1.38,1.08 1.26,1.14 -0.06,-0.06 1.14,1.26 1.08,1.38 0.9,1.5 0,-0.06 0.72,1.56 -0.06,0 0.6,1.68 0.48,1.74 0,-0.06 0.24,1.74 0.12,1.86 0,20.22 0,-0.06 -0.12,1.86 -0.24,1.8 -0.48,1.74 0,-0.06 -0.6,1.62 0.06,0 -0.72,1.56 -0.9,1.5 0,-0.06 -1.08,1.38 -1.14,1.32 0.06,0 -1.26,1.14 -1.38,1.02 0,-0.06 -1.5,0.9 -1.56,0.78 0.06,0 -1.68,0.6 -1.74,0.42 0.06,0 -1.74,0.3 -1.86,0.06 -103.98,0 0,0.48 103.98,0 1.86,-0.06 0.06,0 1.74,-0.3 1.74,-0.42 0.06,0 1.68,-0.6 0,-0.06 1.56,-0.78 1.5,-0.9 0.06,0 1.38,-1.02 1.26,-1.14 0,-0.06 1.14,-1.32 1.08,-1.38 0.06,0 0.9,-1.5 0,-0.06 0.72,-1.56 0.6,-1.62 0.48,-1.74 0,-0.06 0.24,-1.8 0.12,-1.86 0,-20.28 -0.12,-1.86 -0.24,-1.74 -0.48,-1.74 0,-0.06 -0.6,-1.68 -0.72,-1.56 -0.9,-1.5 -0.06,-0.06 -1.08,-1.38 -1.14,-1.26 -1.26,-1.14 -1.38,-1.08 -0.06,-0.06 -1.5,-0.9"
                   style="fill:#000000;fill-opacity:1;fill-rule:nonzero;stroke:none"
                   id="path7306" />
                <text
                   style="font-weight:bold;-inkscape-font-specification:Arial Bold;font-family:Arial;font-style:normal;font-stretch:normal;font-variant:normal"
                   y="-753.46924"
                   x="128.26315"
                   transform="scale(1,-1)"
                   id="text7308">
                  <tspan
                     style="font-size:12px;font-variant:normal;font-weight:bold;writing-mode:lr-tb;fill:#000000;fill-opacity:1;fill-rule:nonzero;stroke:none;font-family:Arial;-inkscape-font-specification:Arial Bold;font-style:normal;font-stretch:normal"
                     x="128.26315 134.93155 141.59995 151.59235 158.26074 160.92114 167.58955 170.92195 176.91835 183.58675 190.25514 193.58755 200.25595 206.92435 210.25674 213.58914 223.58154 230.24995 236.91835 243.58675 246.24715"
                     y="-753.46924"
                     sodipodi:role="line"
                     id="tspan7310">domain content models</tspan>
                </text>
                <text
                   style="font-weight:bold;-inkscape-font-specification:Arial Bold;font-family:Arial;font-style:normal;font-stretch:normal;font-variant:normal"
                   y="-655.4892"
                   x="139.06314"
                   transform="scale(1,-1)"
                   id="text7312">
                  <tspan
                     style="font-size:9.96000004000000061px;font-style:normal;font-variant:normal;font-weight:bold;writing-mode:lr-tb;fill:#0000ff;fill-opacity:1;fill-rule:nonzero;stroke:none;font-family:Arial;-inkscape-font-specification:Arial Bold;font-stretch:normal"
                     x="139.06314 145.18655 151.30997 156.88557"
                     y="-655.4892"
                     sodipodi:role="line"
                     id="tspan7314">open</tspan>
                </text>
                <text
                   style="font-weight:bold;-inkscape-font-specification:Arial Bold;font-family:Arial;font-style:normal;font-stretch:normal;font-variant:normal"
                   y="-655.4892"
                   x="162.88348"
                   transform="scale(1,-1)"
                   id="text7316">
                  <tspan
                     style="font-size:9.96000004000000061px;font-variant:normal;font-weight:bold;writing-mode:lr-tb;fill:#0000ff;fill-opacity:1;fill-rule:nonzero;stroke:none;font-family:Arial;-inkscape-font-specification:Arial Bold;font-style:normal;font-stretch:normal"
                     x="162.88348 169.54373 176.80258"
                     y="-655.4892"
                     sodipodi:role="line"
                     id="tspan7318">EHR</tspan>
                  <tspan
                     style="font-size:9.96000004000000061px;font-variant:normal;font-weight:bold;writing-mode:lr-tb;fill:#0000ff;fill-opacity:1;fill-rule:nonzero;stroke:none;font-family:Arial;-inkscape-font-specification:Arial Bold;font-style:normal;font-stretch:normal"
                     x="121.54351 128.76949 134.3421 137.64186 143.22046 147.05904 152.63763 158.75806 164.27689 169.8495 172.61142 180.94296 187.06337 193.18379 198.70264"
                     y="-644.26929"
                     sodipodi:role="line"
                     id="tspan7320">Reference Model</tspan>
                </text>
                <path
                   inkscape:connector-curvature="0"
                   d="m 119.86315,802.06891 -1.8,-0.12 -1.8,-0.24 -1.74,-0.48 0.06,0 -1.68,-0.6 -1.56,-0.72 -1.5,-0.9 0.06,0.06 -1.38,-1.08 -1.26,-1.14 -1.14,-1.26 -1.08,-1.38 0.06,0.06 -0.9,-1.5 -0.72,-1.56 -0.6,-1.68 0,0.06 -0.48,-1.74 -0.24,-1.74 -0.12,-1.86 0,0.06 0,-171.48 0.12,-1.8 0.24,-1.8 0,0.06 0.48,-1.74 0.6,-1.68 0.72,-1.56 0,0.06 0.9,-1.5 -0.06,0 1.08,-1.38 1.14,-1.26 0,0.06 1.26,-1.14 1.38,-1.08 -0.06,0 1.5,-0.9 1.56,-0.72 0,0.06 1.68,-0.6 -0.06,0 1.74,-0.48 1.8,-0.24 1.8,-0.12 -0.06,0 369.66,0 1.86,0.12 1.74,0.24 -0.06,0 1.74,0.48 1.68,0.6 0,-0.06 1.56,0.72 -0.06,0 0.24,-0.42 -1.56,-0.72 -1.68,-0.6 -0.06,0 -1.74,-0.48 -1.74,-0.24 -1.86,-0.12 -369.72,0 -1.8,0.12 -1.8,0.24 -0.06,0 -1.74,0.48 -1.68,0.6 -1.56,0.72 -0.06,0 -1.5,0.9 0,0.06 -1.38,1.08 -1.26,1.14 -0.06,0 -1.14,1.26 -1.08,1.38 0,0.06 -0.9,1.5 -0.72,1.56 -0.06,0 -0.6,1.68 0,0.06 -0.48,1.74 -0.24,1.8 -0.12,1.8 0,171.54 0.12,1.86 0.24,1.74 0,0.06 0.48,1.74 0.6,1.68 0.06,0 0.72,1.56 0,0.06 0.9,1.5 1.08,1.38 1.14,1.26 0.06,0.06 1.26,1.14 1.38,1.08 1.5,0.9 0.06,0 1.56,0.72 0,0.06 1.68,0.6 1.74,0.48 0.06,0 1.8,0.24 1.8,0.12"
                   style="fill:#000000;fill-opacity:1;fill-rule:nonzero;stroke:none"
                   id="path7322" />
                <path
                   inkscape:connector-curvature="0"
                   d="m 497.92315,597.16891 1.5,0.9 1.38,1.08 1.26,1.14 -0.06,-0.06 1.14,1.26 1.08,1.38 0.9,1.5 0,-0.06 0.72,1.56 -0.06,0 0.6,1.68 0.48,1.74 0,-0.06 0.24,1.8 0.12,1.8 0,171.48 0,-0.06 -0.12,1.86 -0.24,1.74 -0.48,1.74 0,-0.06 -0.6,1.68 0.06,0 -0.72,1.56 -0.9,1.5 0,-0.06 -1.08,1.38 -1.14,1.26 0.06,0 -1.26,1.14 -1.38,1.08 0,-0.06 -1.5,0.9 0.06,0 -1.56,0.72 -1.68,0.6 -1.74,0.48 0.06,0 -1.74,0.24 -1.86,0.12 -369.66,0 0.06,0 -0.06,0.48 369.72,0 1.86,-0.12 1.74,-0.24 1.74,-0.48 0.06,0 1.68,-0.6 0,-0.06 1.56,-0.72 1.5,-0.9 0.06,0 1.38,-1.08 1.26,-1.14 0,-0.06 1.14,-1.26 1.08,-1.38 0.06,0 0.9,-1.5 0,-0.06 0.72,-1.56 0.6,-1.68 0.48,-1.74 0,-0.06 0.24,-1.74 0.12,-1.86 0,-171.54 -0.12,-1.8 -0.24,-1.8 -0.48,-1.74 0,-0.06 -0.6,-1.68 -0.72,-1.56 -0.9,-1.5 -0.06,-0.06 -1.08,-1.38 -1.14,-1.26 -1.26,-1.14 -1.38,-1.08 -0.06,-0.06 -1.5,-0.9"
                   style="fill:#000000;fill-opacity:1;fill-rule:nonzero;stroke:none"
                   id="path7324" />
                <text
                   style="font-weight:bold;-inkscape-font-specification:Arial Bold;font-family:Arial;font-style:normal;font-stretch:normal;font-variant:normal"
                   y="-725.14923"
                   x="138.94315"
                   transform="scale(1,-1)"
                   id="text7326">
                  <tspan
                     style="font-size:9.96000004000000061px;font-style:normal;font-variant:normal;font-weight:bold;writing-mode:lr-tb;fill:#0000ff;fill-opacity:1;fill-rule:nonzero;stroke:none;font-family:Arial;-inkscape-font-specification:Arial Bold;font-stretch:normal"
                     x="138.94315 145.06357 151.18399 156.70183"
                     y="-725.14923"
                     sodipodi:role="line"
                     id="tspan7328">open</tspan>
                </text>
                <text
                   style="font-weight:bold;-inkscape-font-specification:Arial Bold;font-family:Arial;font-style:normal;font-stretch:normal;font-variant:normal"
                   y="-725.14923"
                   x="162.82324"
                   transform="scale(1,-1)"
                   id="text7330">
                  <tspan
                     style="font-size:9.96000004000000061px;font-variant:normal;font-weight:bold;writing-mode:lr-tb;fill:#0000ff;fill-opacity:1;fill-rule:nonzero;stroke:none;font-family:Arial;-inkscape-font-specification:Arial Bold;font-style:normal;font-stretch:normal"
                     x="162.82324 169.50043 176.72542 183.95039 186.71231 192.28394 196.19223 201.71107 207.83249 213.40411 216.70386 222.27548 228.33714 233.90877"
                     y="-725.14923"
                     sodipodi:role="line"
                     id="tspan7332">EHR archetypes</tspan>
                  <tspan
                     style="font-size:9.96000004000000061px;font-variant:normal;font-weight:bold;writing-mode:lr-tb;fill:#0000ff;fill-opacity:1;fill-rule:nonzero;stroke:none;font-family:Arial;-inkscape-font-specification:Arial Bold;font-style:normal;font-stretch:normal"
                     x="159.5235 162.2854 169.49046 172.31213 175.64276 181.19446 190.06285 196.16235 198.94518 204.49689 207.8275 213.37921"
                     y="-713.98901"
                     sodipodi:role="line"
                     id="tspan7334">&amp; templates</tspan>
                </text>
                <text
                   style="font-size:11.80496883000000174px;font-weight:bold;-inkscape-font-specification:Arial Bold;font-family:Arial;font-style:normal;font-stretch:normal;font-variant:normal"
                   y="-779.47144"
                   x="120.56261"
                   transform="scale(0.98374738,-1.0165211)"
                   id="text7336">
                  <tspan
                     style="font-size:12.15911769999999947px;font-variant:normal;font-weight:bold;writing-mode:lr-tb;fill:#547a7a;fill-opacity:1;fill-rule:nonzero;stroke:none;font-family:Arial;-inkscape-font-specification:Arial Bold;font-style:normal;font-stretch:normal"
                     x="120.56261 127.33524 134.10786 137.50026 144.27289 146.98436 153.757 160.52962 163.2411 170.01373 176.10545 179.52338 186.29601 189.6884 193.10634 199.87897 205.97069 212.7433 216.80444 222.89616 226.28856 233.06119 235.77267 242.5453"
                     y="-779.47144"
                     sodipodi:role="line"
                     id="tspan7338">ontologies of everything</tspan>
                </text>
                <path
                   inkscape:connector-curvature="0"
                   d="m 282.82315,747.10891 0,8.58 16.8,-17.16 -16.8,-17.1 0,8.52"
                   style="fill:#ffffff;fill-opacity:1;fill-rule:evenodd;stroke:none"
                   id="path7340" />
                <path
                   inkscape:connector-curvature="0"
                   d="m 282.34315,747.10891 1.02,0 0,-0.48 -1.02,0 0,0.48 z"
                   style="fill:#547a7a;fill-opacity:1;fill-rule:nonzero;stroke:none"
                   id="path7342" />
                <path
                   inkscape:connector-curvature="0"
                   d="m 282.34315,747.10891 0,9.78 0.84,-0.84 16.8,-17.16 0.36,-0.36 -0.36,-0.36 -0.72,0 -16.8,17.16 0.72,0.72 0.18,-0.36 0,-8.58"
                   style="fill:#547a7a;fill-opacity:1;fill-rule:nonzero;stroke:none"
                   id="path7344" />
                <path
                   inkscape:connector-curvature="0"
                   d="m 299.98315,738.16891 -16.8,-17.1 -0.84,-0.84 0,1.2 0.12,0.36 16.8,17.1"
                   style="fill:#547a7a;fill-opacity:1;fill-rule:nonzero;stroke:none"
                   id="path7346" />
                <path
                   inkscape:connector-curvature="0"
                   d="m 282.34315,730.42891 1.02,0 0,-9 -1.02,0 0,9 z"
                   style="fill:#547a7a;fill-opacity:1;fill-rule:nonzero;stroke:none"
                   id="path7348" />
                <path
                   inkscape:connector-curvature="0"
                   d="m 258.76315,747.10891 24.06,0 0,-17.16 -24.06,0 0,17.16 z"
                   style="fill:#ffffff;fill-opacity:1;fill-rule:nonzero;stroke:none"
                   id="path7350" />
                <path
                   inkscape:connector-curvature="0"
                   d="m 258.28315,747.58891 25.02,0 0,-1.02 -25.02,0 0,1.02 z"
                   style="fill:#547a7a;fill-opacity:1;fill-rule:nonzero;stroke:none"
                   id="path7352" />
                <path
                   inkscape:connector-curvature="0"
                   d="m 258.28315,747.10891 1.02,0 0,-17.7 -1.02,0 0,17.7 z"
                   style="fill:#547a7a;fill-opacity:1;fill-rule:nonzero;stroke:none"
                   id="path7354" />
                <path
                   inkscape:connector-curvature="0"
                   d="m 258.76315,730.42891 24.54,0 0,-1.02 -24.54,0 0,1.02 z"
                   style="fill:#547a7a;fill-opacity:1;fill-rule:nonzero;stroke:none"
                   id="path7356" />
                <text
                   style="font-weight:bold;-inkscape-font-specification:Arial Bold;font-family:Arial;font-style:normal;font-stretch:normal;font-variant:normal"
                   y="-735.94922"
                   x="260.32315"
                   transform="scale(1,-1)"
                   id="text7358">
                  <tspan
                     style="font-size:9.96000004000000061px;font-variant:normal;font-weight:bold;writing-mode:lr-tb;fill:#000000;fill-opacity:1;fill-rule:nonzero;stroke:none;font-family:Arial;-inkscape-font-specification:Arial Bold;font-style:normal;font-stretch:normal"
                     x="260.32315 269.18753 274.73526 280.83078 283.60962 289.15735 292.48398"
                     y="-735.94922"
                     sodipodi:role="line"
                     id="tspan7360">mediate</tspan>
                </text>
                <path
                   inkscape:connector-curvature="0"
                   d="m 418.72315,764.02891 -1.8,-0.06 -1.8,-0.3 -1.74,-0.42 -1.62,-0.6 -1.62,-0.78 -1.44,-0.9 -1.38,-1.02 -1.32,-1.14 -1.14,-1.32 -1.02,-1.38 -0.9,-1.5 -0.78,-1.56 -0.6,-1.62 -0.48,-1.74 -0.24,-1.8 -0.12,-1.86 0,-20.88 0.12,-1.8 0.24,-1.8 0.48,-1.74 0.6,-1.62 0.78,-1.62 0.9,-1.44 1.02,-1.38 1.14,-1.32 1.32,-1.14 1.38,-1.02 1.44,-0.9 1.62,-0.78 1.62,-0.6 1.74,-0.42 1.8,-0.3 1.8,-0.12 50.88,0 1.86,0.12 1.8,0.3 1.74,0.42 1.62,0.6 1.56,0.78 1.5,0.9 1.38,1.02 1.26,1.14 1.2,1.32 1.02,1.38 0.9,1.44 0.78,1.62 0.6,1.62 0.42,1.74 0.3,1.8 0.06,1.8 0,20.88 -0.06,1.86 -0.3,1.8 -0.42,1.74 -0.6,1.62 -0.78,1.56 -0.9,1.5 -1.02,1.38 -1.2,1.32 -1.26,1.14 -1.38,1.02 -1.5,0.9 -1.56,0.78 -1.62,0.6 -1.74,0.42 -1.8,0.3 -1.86,0.06 -50.88,0"
                   style="fill:#96ff54;fill-opacity:1;fill-rule:evenodd;stroke:none"
                   id="path7362" />
                <path
                   inkscape:connector-curvature="0"
                   d="m 418.72315,763.78891 -1.8,-0.06 0.06,0 -1.8,-0.3 -1.74,-0.42 0.06,0 -1.62,-0.6 -1.62,-0.78 -1.44,-0.9 0.06,0.06 -1.38,-1.02 -1.32,-1.14 -1.14,-1.32 -1.02,-1.38 0.06,0.06 -0.9,-1.5 -0.78,-1.56 -0.6,-1.62 0,0.06 -0.48,-1.74 -0.24,-1.8 -0.12,-1.86 0,0.06 0,-20.88 0.12,-1.8 0.24,-1.8 0,0.06 0.48,-1.74 0.6,-1.62 0.78,-1.62 0,0.06 0.9,-1.44 -0.06,0 1.02,-1.38 1.14,-1.32 0,0.06 1.32,-1.14 1.38,-1.02 -0.06,0 1.44,-0.9 1.62,-0.78 0,0.06 1.62,-0.6 -0.06,0 1.74,-0.42 1.8,-0.3 1.8,-0.12 -0.06,0 50.88,0 1.86,0.12 1.8,0.3 -0.06,0 1.74,0.42 1.62,0.6 -0.06,-0.06 1.56,0.78 0.24,-0.42 -1.56,-0.78 -1.62,-0.6 -0.06,0 -1.74,-0.42 -1.8,-0.3 -1.86,-0.12 -50.94,0 -1.8,0.12 -1.8,0.3 -0.06,0 -1.74,0.42 -1.62,0.6 -1.62,0.78 -0.06,0 -1.44,0.9 0,0.06 -1.38,1.02 -1.32,1.14 -0.06,0 -1.14,1.32 -1.02,1.38 0,0.06 -0.9,1.44 -0.78,1.62 -0.06,0 -0.6,1.62 0,0.06 -0.48,1.74 -0.24,1.8 -0.12,1.8 0,20.94 0.12,1.86 0.24,1.8 0,0.06 0.48,1.74 0.6,1.62 0.06,0.06 0.78,1.56 0.9,1.5 1.02,1.38 1.14,1.32 0.06,0.06 1.32,1.14 1.38,1.02 1.44,0.9 0.06,0 1.62,0.78 0,0.06 1.62,0.6 1.74,0.42 0.06,0 1.8,0.3 1.8,0.06"
                   style="fill:#000000;fill-opacity:1;fill-rule:nonzero;stroke:none"
                   id="path7364" />
                <path
                   inkscape:connector-curvature="0"
                   d="m 478.06315,709.54891 1.5,0.9 1.38,1.02 1.26,1.14 -0.06,-0.06 1.2,1.32 1.02,1.38 0.9,1.44 0,-0.06 0.78,1.62 -0.06,0 0.6,1.62 0.42,1.74 0,-0.06 0.3,1.8 0.06,1.8 0,20.88 -0.06,1.86 0,-0.06 -0.3,1.8 -0.42,1.74 0,-0.06 -0.6,1.62 0.06,0 -0.78,1.56 -0.9,1.5 0,-0.06 -1.02,1.38 -1.2,1.32 0.06,0 -1.26,1.14 -1.38,1.02 0,-0.06 -1.5,0.9 -1.56,0.78 0.06,0 -1.62,0.6 -1.74,0.42 0.06,0 -1.8,0.3 -1.86,0.06 -50.88,0 0,0.48 50.88,0 1.86,-0.06 0.06,0 1.8,-0.3 1.74,-0.42 0.06,0 1.62,-0.6 0,-0.06 1.56,-0.78 1.5,-0.9 0.06,0 1.38,-1.02 1.26,-1.14 0,-0.06 1.2,-1.32 1.02,-1.38 0.06,0 0.9,-1.5 0.78,-1.56 0,-0.06 0.6,-1.62 0.42,-1.74 0,-0.06 0.3,-1.8 0.06,-1.86 0,-20.88 -0.06,-1.8 0,-0.06 -0.3,-1.8 -0.42,-1.74 0,-0.06 -0.6,-1.62 -0.78,-1.62 -0.9,-1.44 -0.06,-0.06 -1.02,-1.38 -1.2,-1.32 -1.26,-1.14 -1.38,-1.02 -0.06,-0.06 -1.5,-0.9"
                   style="fill:#000000;fill-opacity:1;fill-rule:nonzero;stroke:none"
                   id="path7366" />
                <text
                   style="font-weight:bold;-inkscape-font-specification:Arial Bold;font-family:Arial;font-style:normal;font-stretch:normal;font-variant:normal"
                   y="-753.28918"
                   x="424.48315"
                   transform="scale(1,-1)"
                   id="text7368">
                  <tspan
                     style="font-size:12px;font-variant:normal;font-weight:bold;writing-mode:lr-tb;fill:#000000;fill-opacity:1;fill-rule:nonzero;stroke:none;font-family:Arial;-inkscape-font-specification:Arial Bold;font-style:normal;font-stretch:normal"
                     x="424.48315 431.15155 435.14395 441.81235 447.80875 454.47714 460.47354"
                     y="-753.28918"
                     sodipodi:role="line"
                     id="tspan7370">process</tspan>
                  <tspan
                     style="font-size:12px;font-variant:normal;font-weight:bold;writing-mode:lr-tb;fill:#000000;fill-opacity:1;fill-rule:nonzero;stroke:none;font-family:Arial;-inkscape-font-specification:Arial Bold;font-style:normal;font-stretch:normal"
                     x="413.44315 420.11395 426.78476 432.78354 438.78235 442.77716 445.43994 452.11075 455.44556 458.10834 464.77914 471.44995"
                     y="-739.84918"
                     sodipodi:role="line"
                     id="tspan7372">descriptions</tspan>
                </text>
                <text
                   style="font-weight:bold;-inkscape-font-specification:Arial Bold;font-family:Arial;font-style:normal;font-stretch:normal;font-variant:normal"
                   y="-717.40918"
                   x="416.08316"
                   transform="scale(1,-1)"
                   id="text7374">
                  <tspan
                     style="font-size:9.96000004000000061px;font-variant:normal;font-weight:bold;writing-mode:lr-tb;fill:#0000ff;fill-opacity:1;fill-rule:nonzero;stroke:none;font-family:Arial;-inkscape-font-specification:Arial Bold;font-style:normal;font-stretch:normal"
                     x="416.08316 422.1936 428.30408 431.09784 437.20831 442.77097 445.56476 448.35852 454.46899 460.03165"
                     y="-717.40918"
                     sodipodi:role="line"
                     id="tspan7376">guidelines</tspan>
                  <tspan
                     style="font-size:9.96000004000000061px;font-variant:normal;font-weight:bold;writing-mode:lr-tb;fill:#0000ff;fill-opacity:1;fill-rule:nonzero;stroke:none;font-family:Arial;-inkscape-font-specification:Arial Bold;font-style:normal;font-stretch:normal"
                     x="349.6629 355.73251 363.53418 366.28714 373.54498"
                     y="-734.92883"
                     sodipodi:role="line"
                     id="tspan7378">LOINC</tspan>
                </text>
                <text
                   style="font-size:8.91420937000000002px;font-weight:bold;-inkscape-font-specification:Arial Bold;font-family:Arial;font-style:normal;font-stretch:normal;font-variant:normal"
                   y="-470.57318"
                   x="131.14766"
                   transform="scale(0.74285079,-1.3461654)"
                   id="text7380">
                  <tspan
                     style="font-size:68.90683746000000554px;font-variant:normal;font-weight:bold;writing-mode:lr-tb;fill:#ff7200;fill-opacity:1;fill-rule:nonzero;stroke:none;font-family:Arial;-inkscape-font-specification:Arial Bold;font-style:normal;font-stretch:normal"
                     x="131.14766"
                     y="-470.57318"
                     id="tspan7382">{</tspan>
                </text>
                <text
                   style="font-weight:bold;-inkscape-font-specification:Arial Bold;font-family:Arial;font-style:normal;font-stretch:normal;font-variant:normal"
                   y="-679.54919"
                   x="65.623146"
                   transform="scale(1,-1)"
                   id="text7384">
                  <tspan
                     style="font-size:9.96000004000000061px;font-variant:normal;font-weight:bold;writing-mode:lr-tb;fill:#ff7200;fill-opacity:1;fill-rule:nonzero;stroke:none;font-family:Arial;-inkscape-font-specification:Arial Bold;font-style:normal;font-stretch:normal"
                     x="65.623146 68.411949 71.233612 80.107971 82.896774 86.233376 88.995277 95.100761"
                     y="-679.54919"
                     sodipodi:role="line"
                     id="tspan7386">limit of</tspan>
                  <tspan
                     style="font-size:9.96000004000000061px;font-variant:normal;font-weight:bold;writing-mode:lr-tb;fill:#ff7200;fill-opacity:1;fill-rule:nonzero;stroke:none;font-family:Arial;-inkscape-font-specification:Arial Bold;font-style:normal;font-stretch:normal"
                     x="45.643387 51.16222 57.292603 63.422981 66.184891 68.998589 74.517426 80.100006 83.39975 86.213455 92.275108"
                     y="-666.28949"
                     sodipodi:role="line"
                     id="tspan7388">application</tspan>
                </text>
                <text
                   style="font-weight:bold;-inkscape-font-specification:Arial Bold;font-family:Arial;font-style:normal;font-stretch:normal;font-variant:normal"
                   y="-740.08923"
                   x="165.22314"
                   transform="scale(1,-1)"
                   id="text7390">
                  <tspan
                     style="font-size:12px;font-variant:normal;font-weight:bold;writing-mode:lr-tb;fill:#000000;fill-opacity:1;fill-rule:nonzero;stroke:none;font-family:Arial;-inkscape-font-specification:Arial Bold;font-style:normal;font-stretch:normal"
                     x="165.22314 169.22395 175.22874 181.90555 185.90634 188.57515 195.25194 201.92874 204.59755 211.27435"
                     y="-740.08923"
                     sodipodi:role="line"
                     id="tspan7392">(variable)</tspan>
                </text>
                <text
                   style="font-weight:bold;-inkscape-font-specification:Arial Bold;font-family:Arial;font-style:normal;font-stretch:normal;font-variant:normal"
                   y="-652.96924"
                   x="57.583145"
                   transform="scale(1,-1)"
                   id="text7394">
                  <tspan
                     style="font-size:9.96000004000000061px;font-variant:normal;font-weight:bold;writing-mode:lr-tb;fill:#ff7200;fill-opacity:1;fill-rule:nonzero;stroke:none;font-family:Arial;-inkscape-font-specification:Arial Bold;font-style:normal;font-stretch:normal"
                     x="57.583145 63.119911 69.241325 72.301041 75.660545 83.408432 88.987022 92.860474"
                     y="-652.96924"
                     sodipodi:role="line"
                     id="tspan7396">software</tspan>
                  <tspan
                     style="font-size:9.96000004000000061px;font-variant:normal;font-weight:bold;writing-mode:lr-tb;fill:#ff7200;fill-opacity:1;fill-rule:nonzero;stroke:none;font-family:Arial;-inkscape-font-specification:Arial Bold;font-style:normal;font-stretch:normal"
                     x="63.402775 68.96344 75.071907 81.133568 83.955231 91.169266"
                     y="-639.70947"
                     sodipodi:role="line"
                     id="tspan7398">and DB</tspan>
                </text>
                <text
                   style="font-weight:bold;-inkscape-font-specification:Arial Bold;font-family:Arial;font-style:normal;font-stretch:normal;font-variant:normal"
                   y="-773.50922"
                   x="123.64314"
                   transform="scale(1,-1)"
                   id="text7400">
                  <tspan
                     style="font-size:12px;font-variant:normal;font-weight:bold;writing-mode:lr-tb;fill:#547a7a;fill-opacity:1;fill-rule:nonzero;stroke:none;font-family:Arial;-inkscape-font-specification:Arial Bold;font-style:normal;font-stretch:normal"
                     x="123.64314 130.30914 136.97514 140.30515 146.97115 149.62915 156.29515 162.96115 165.61914 172.28514 178.27914 181.64154 188.30754 191.63754 194.99994 197.65794 204.32394 207.65395 214.31995 218.30995 228.29994 234.96594 238.29594 240.95395 247.61995"
                     y="-773.50922"
                     sodipodi:role="line"
                     id="tspan7402">ontologies of information</tspan>
                  <tspan
                     style="font-size:12px;font-variant:normal;font-weight:bold;writing-mode:lr-tb;fill:#000000;fill-opacity:1;fill-rule:nonzero;stroke:none;font-family:Arial;-inkscape-font-specification:Arial Bold;font-style:normal;font-stretch:normal"
                     x="150.82315 153.47995 160.14474 163.47354 170.13835 174.12715 184.11595 190.78075 194.10954 196.76634 203.43115"
                     y="-685.00922"
                     sodipodi:role="line"
                     id="tspan7404">information</tspan>
                  <tspan
                     style="font-size:12px;font-variant:normal;font-weight:bold;writing-mode:lr-tb;fill:#000000;fill-opacity:1;fill-rule:nonzero;stroke:none;font-family:Arial;-inkscape-font-specification:Arial Bold;font-style:normal;font-stretch:normal"
                     x="139.60315 149.59674 156.26634 162.93594 169.60555 172.26715 178.26474 181.56714 185.56075 191.55835 194.68074 201.39835 208.06795 210.72955 217.39914"
                     y="-671.62921"
                     sodipodi:role="line"
                     id="tspan7406">models (stable)</tspan>
                </text>
                <text
                   style="font-weight:bold;-inkscape-font-specification:Arial Bold;font-family:Arial;font-style:normal;font-stretch:normal;font-variant:normal"
                   y="-629.8092"
                   x="168.76315"
                   transform="scale(1,-1)"
                   id="text7408">
                  <tspan
                     style="font-size:9.96000004000000061px;font-style:normal;font-variant:normal;font-weight:bold;writing-mode:lr-tb;fill:#0000ff;fill-opacity:1;fill-rule:nonzero;stroke:none;font-family:Arial;-inkscape-font-specification:Arial Bold;font-stretch:normal"
                     x="168.76315 174.88457 181.00598 186.52481"
                     y="-629.8092"
                     sodipodi:role="line"
                     id="tspan7410">open</tspan>
                </text>
                <text
                   style="font-weight:bold;-inkscape-font-specification:Arial Bold;font-family:Arial;font-style:normal;font-stretch:normal;font-variant:normal"
                   y="-629.8092"
                   x="192.64325"
                   transform="scale(1,-1)"
                   id="text7412">
                  <tspan
                     style="font-size:9.96000004000000061px;font-variant:normal;font-weight:bold;writing-mode:lr-tb;fill:#0000ff;fill-opacity:1;fill-rule:nonzero;stroke:none;font-family:Arial;-inkscape-font-specification:Arial Bold;font-style:normal;font-stretch:normal"
                     x="192.64325 199.3035 206.56235"
                     y="-629.8092"
                     sodipodi:role="line"
                     id="tspan7414">EHR</tspan>
                  <tspan
                     style="font-size:9.96000004000000061px;font-variant:normal;font-weight:bold;writing-mode:lr-tb;fill:#0000ff;fill-opacity:1;fill-rule:nonzero;stroke:none;font-family:Arial;-inkscape-font-specification:Arial Bold;font-style:normal;font-stretch:normal"
                     x="157.66373 164.34091 169.91254 173.75111 179.32971 182.13246 187.70409 193.27571 196.03761 204.36816 210.42981 216.54924 222.12086"
                     y="-618.64905"
                     sodipodi:role="line"
                     id="tspan7416">Service Model</tspan>
                </text>
                <path
                   inkscape:connector-curvature="0"
                   d="m 133.66315,585.82891 -1.8,-0.06 -1.8,-0.3 -1.74,-0.42 -1.62,-0.6 -1.62,-0.78 -1.44,-0.9 -1.38,-1.02 -1.32,-1.2 -1.14,-1.26 -1.02,-1.38 -0.9,-1.5 -0.78,-1.56 -0.6,-1.68 -0.42,-1.68 -0.3,-1.8 -0.12,-1.86 0,-3.48 0.12,-1.8 0.3,-1.8 0.42,-1.74 0.6,-1.62 0.78,-1.62 0.9,-1.44 1.02,-1.38 1.14,-1.32 1.32,-1.14 1.38,-1.02 1.44,-0.9 1.62,-0.78 1.62,-0.6 1.74,-0.42 1.8,-0.3 1.8,-0.12 335.04,0 1.8,0.12 1.8,0.3 1.74,0.42 1.62,0.6 1.62,0.78 1.44,0.9 1.38,1.02 1.32,1.14 1.14,1.32 1.02,1.38 0.9,1.44 0.78,1.62 0.6,1.62 0.42,1.74 0.3,1.8 0.12,1.8 0,3.48 -0.12,1.86 -0.3,1.8 -0.42,1.68 -0.6,1.68 -0.78,1.56 -0.9,1.5 -1.02,1.38 -1.14,1.26 -1.32,1.2 -1.38,1.02 -1.44,0.9 -1.62,0.78 -1.62,0.6 -1.74,0.42 -1.8,0.3 -1.8,0.06 -335.04,0"
                   style="fill:#ccdee3;fill-opacity:1;fill-rule:evenodd;stroke:none"
                   id="path7418" />
                <path
                   inkscape:connector-curvature="0"
                   d="m 133.66315,585.58891 -1.8,-0.06 0.06,0 -1.8,-0.3 -1.74,-0.42 0.06,0 -1.62,-0.6 -1.62,-0.78 -1.44,-0.9 0.06,0.06 -1.38,-1.02 -1.32,-1.2 -1.14,-1.26 -1.02,-1.38 0.06,0.06 -0.9,-1.5 -0.78,-1.56 -0.6,-1.68 0,0.06 -0.42,-1.68 -0.3,-1.8 -0.12,-1.86 0,0.06 0,-3.42 0.12,-1.86 0.3,-1.8 0,0.06 0.42,-1.74 0.6,-1.62 0,0.06 0.78,-1.56 0.9,-1.5 -0.06,0 1.02,-1.38 1.14,-1.32 0,0.06 1.32,-1.14 1.38,-1.02 -0.06,0 1.44,-0.9 1.62,-0.78 0,0.06 1.62,-0.6 -0.06,0 1.74,-0.42 1.8,-0.3 -0.06,0 1.8,-0.06 334.98,0 1.8,0.06 1.8,0.3 -0.06,0 1.74,0.42 1.62,0.6 0,-0.06 1.62,0.78 -0.06,0 0.24,-0.42 -1.62,-0.78 -1.62,-0.6 -0.06,0 -1.74,-0.42 -1.8,-0.3 -0.06,0 -1.8,-0.06 -334.98,0 -1.8,0.06 -1.8,0.3 -0.06,0 -1.74,0.42 -1.62,0.6 -1.62,0.78 -0.06,0 -1.44,0.9 0,0.06 -1.38,1.02 -1.32,1.14 -0.06,0 -1.14,1.32 -1.02,1.38 0,0.06 -0.9,1.5 -0.78,1.56 -0.06,0 -0.6,1.62 0,0.06 -0.42,1.74 -0.3,1.8 -0.12,1.86 0,3.48 0.12,1.86 0.3,1.8 0,0.06 0.42,1.68 0.6,1.68 0.06,0.06 0.78,1.56 0.9,1.5 1.02,1.38 1.14,1.26 0.06,0.06 1.32,1.2 1.38,1.02 1.44,0.9 0.06,0 1.62,0.78 0,0.06 1.62,0.6 1.74,0.42 0.06,0 1.8,0.3 1.8,0.06"
                   style="fill:#000000;fill-opacity:1;fill-rule:nonzero;stroke:none"
                   id="path7420" />
                <path
                   inkscape:connector-curvature="0"
                   d="m 477.10315,548.74891 1.44,0.9 1.38,1.02 1.32,1.14 -0.06,-0.06 1.14,1.32 1.02,1.38 0.9,1.5 0.78,1.56 -0.06,-0.06 0.6,1.62 0.48,1.74 0,-0.06 0.24,1.8 0.12,1.86 0,3.42 0,-0.06 -0.12,1.86 -0.24,1.8 -0.48,1.68 0,-0.06 -0.6,1.68 0.06,0 -0.78,1.56 -0.9,1.5 0,-0.06 -1.02,1.38 -1.14,1.26 0.06,0 -1.32,1.2 -1.38,1.02 0,-0.06 -1.44,0.9 0.06,0 -1.62,0.78 -1.62,0.6 -1.74,0.42 0.06,0 -1.8,0.3 -1.8,0.06 -334.98,0 0,0.48 334.98,0 1.8,-0.06 0.06,0 1.8,-0.3 1.74,-0.42 0.06,0 1.62,-0.6 0,-0.06 1.62,-0.78 1.44,-0.9 0.06,0 1.38,-1.02 1.32,-1.2 0,-0.06 1.14,-1.26 1.02,-1.38 0.06,0 0.9,-1.5 0.78,-1.56 0,-0.06 0.6,-1.68 0.48,-1.68 0,-0.06 0.24,-1.8 0.12,-1.86 0,-3.48 -0.12,-1.86 -0.24,-1.8 -0.48,-1.74 0,-0.06 -0.6,-1.62 -0.78,-1.56 -0.9,-1.5 -0.06,-0.06 -1.02,-1.38 -1.14,-1.32 -1.32,-1.14 -1.38,-1.02 -0.06,-0.06 -1.44,-0.9"
                   style="fill:#000000;fill-opacity:1;fill-rule:nonzero;stroke:none"
                   id="path7422" />
                <text
                   style="font-weight:bold;-inkscape-font-specification:Arial Bold;font-family:Arial;font-style:normal;font-stretch:normal;font-variant:normal"
                   y="-575.26923"
                   x="223.48314"
                   transform="scale(1,-1)"
                   id="text7424">
                  <tspan
                     style="font-size:12px;font-variant:normal;font-weight:bold;writing-mode:lr-tb;fill:#547a7a;fill-opacity:1;fill-rule:nonzero;stroke:none;font-family:Arial;-inkscape-font-specification:Arial Bold;font-style:normal;font-stretch:normal"
                     x="223.48314 226.14235 232.80954 239.47675 246.14395 252.81114 259.47833 266.14554 272.81274 278.80795 282.17035 288.83755 292.16873 295.53113 299.52234 306.18954 312.85675 316.84793 323.51514 329.51035 336.17755 342.84476 346.02713 352.69434 356.02554 358.68475 365.35196"
                     y="-575.26923"
                     sodipodi:role="line"
                     id="tspan7426">languages of representation</tspan>
                </text>
                <text
                   style="font-weight:bold;-inkscape-font-specification:Arial Bold;font-family:Arial;font-style:normal;font-stretch:normal;font-variant:normal"
                   y="-557.8092"
                   x="204.64314"
                   transform="scale(1,-1)"
                   id="text7428">
                  <tspan
                     style="font-size:9.96000004000000061px;font-variant:normal;font-weight:bold;writing-mode:lr-tb;fill:#0000ff;fill-opacity:1;fill-rule:nonzero;stroke:none;font-family:Arial;-inkscape-font-specification:Arial Bold;font-style:normal;font-stretch:normal"
                     x="204.64314 211.90199 220.18175"
                     y="-557.8092"
                     sodipodi:role="line"
                     id="tspan7430">UML</tspan>
                  <tspan
                     style="font-size:9.96000004000000061px;font-variant:normal;font-weight:bold;writing-mode:lr-tb;fill:#0000ff;fill-opacity:1;fill-rule:nonzero;stroke:none;font-family:Arial;-inkscape-font-specification:Arial Bold;font-style:normal;font-stretch:normal"
                     x="123.10361 129.21806 133.05664 139.17108 145.28552 149.18886 154.70769 163.6458 172.52911 175.32689 181.44133"
                     y="-569.14966"
                     sodipodi:role="line"
                     id="tspan7432">programming</tspan>
                </text>
                <text
                   style="font-weight:bold;-inkscape-font-specification:Arial Bold;font-family:Arial;font-style:normal;font-stretch:normal;font-variant:normal"
                   y="-565.90967"
                   x="389.56351"
                   transform="scale(1,-1)"
                   id="text7434">
                  <tspan
                     style="font-size:9.96000004000000061px;font-style:normal;font-variant:normal;font-weight:bold;writing-mode:lr-tb;fill:#0000ff;fill-opacity:1;fill-rule:nonzero;stroke:none;font-family:Arial;-inkscape-font-specification:Arial Bold;font-stretch:normal"
                     x="389.56351 395.62515 401.74658 407.32516"
                     y="-565.90967"
                     sodipodi:role="line"
                     id="tspan7436">open</tspan>
                </text>
                <text
                   style="font-weight:bold;-inkscape-font-specification:Arial Bold;font-family:Arial;font-style:normal;font-stretch:normal;font-variant:normal"
                   y="-565.90967"
                   x="413.44357"
                   transform="scale(1,-1)"
                   id="text7438">
                  <tspan
                     style="font-size:9.96000004000000061px;font-variant:normal;font-weight:bold;writing-mode:lr-tb;fill:#0000ff;fill-opacity:1;fill-rule:nonzero;stroke:none;font-family:Arial;-inkscape-font-specification:Arial Bold;font-style:normal;font-stretch:normal"
                     x="413.44357 420.1636 427.36169"
                     y="-565.90967"
                     sodipodi:role="line"
                     id="tspan7440">EHR</tspan>
                  <tspan
                     style="font-size:9.96000004000000061px;font-variant:normal;font-weight:bold;writing-mode:lr-tb;fill:#0000ff;fill-opacity:1;fill-rule:nonzero;stroke:none;font-family:Arial;-inkscape-font-specification:Arial Bold;font-style:normal;font-stretch:normal"
                     x="371.74405 379.00189 382.84048 388.4191 394.5405 400.05734 403.41684 408.93369 415.05511 420.6337 423.39563 431.73514 437.85654 443.92117 449.49979"
                     y="-554.74951"
                     sodipodi:role="line"
                     id="tspan7442">Archetype Model</tspan>
                  <tspan
                     style="font-size:9.96000004000000061px;font-variant:normal;font-weight:bold;writing-mode:lr-tb;fill:#0000ff;fill-opacity:1;fill-rule:nonzero;stroke:none;font-family:Arial;-inkscape-font-specification:Arial Bold;font-style:normal;font-stretch:normal"
                     x="449.32449 457.10922 466.54733"
                     y="-572.9295"
                     sodipodi:role="line"
                     id="tspan7444">OWL</tspan>
                </text>
                <text
                   style="font-size:10.79992962000000034px;font-weight:bold;-inkscape-font-specification:Arial Bold;font-family:Arial;font-style:normal;font-stretch:normal;font-variant:normal"
                   y="-617.99213"
                   x="89.246254"
                   transform="scale(1.1111183,-0.89999416)"
                   id="text7446">
                  <tspan
                     style="font-size:45.93363190000000174px;font-variant:normal;font-weight:bold;writing-mode:lr-tb;fill:#ff7200;fill-opacity:1;fill-rule:nonzero;stroke:none;font-family:Arial;-inkscape-font-specification:Arial Bold;font-style:normal;font-stretch:normal"
                     x="89.246254"
                     y="-617.99213"
                     id="tspan7448">{</tspan>
                </text>
                <text
                   style="font-weight:bold;-inkscape-font-specification:Arial Bold;font-family:Arial;font-style:normal;font-stretch:normal;font-variant:normal"
                   y="-626.44928"
                   x="55.603146"
                   transform="scale(1,-1)"
                   id="text7450">
                  <tspan
                     style="font-size:9.96000004000000061px;font-variant:normal;font-weight:bold;writing-mode:lr-tb;fill:#ff7200;fill-opacity:1;fill-rule:nonzero;stroke:none;font-family:Arial;-inkscape-font-specification:Arial Bold;font-style:normal;font-stretch:normal"
                     x="55.603146 61.177757 66.696594 72.819008 78.393616 87.284912 92.85952"
                     y="-626.44928"
                     sodipodi:role="line"
                     id="tspan7452">schemas</tspan>
                  <tspan
                     style="font-size:9.96000004000000061px;font-variant:normal;font-weight:bold;writing-mode:lr-tb;fill:#ff7200;fill-opacity:1;fill-rule:nonzero;stroke:none;font-family:Arial;-inkscape-font-specification:Arial Bold;font-style:normal;font-stretch:normal"
                     x="67.602951 73.725365 79.244202 85.366615 90.941231 94.779808 97.601479"
                     y="-577.18915"
                     sodipodi:role="line"
                     id="tspan7454">generic</tspan>
                  <tspan
                     style="font-size:9.96000004000000061px;font-variant:normal;font-weight:bold;writing-mode:lr-tb;fill:#ff7200;fill-opacity:1;fill-rule:nonzero;stroke:none;font-family:Arial;-inkscape-font-specification:Arial Bold;font-style:normal;font-stretch:normal"
                     x="62.323158 67.88781 73.949463 77.009178 80.368683 88.144463 93.709114 97.610443"
                     y="-563.92938"
                     sodipodi:role="line"
                     id="tspan7456">software</tspan>
                  <tspan
                     style="font-size:9.96000004000000061px;font-variant:normal;font-weight:bold;writing-mode:lr-tb;fill:#ff7200;fill-opacity:1;fill-rule:nonzero;stroke:none;font-family:Arial;-inkscape-font-specification:Arial Bold;font-style:normal;font-stretch:normal"
                     x="44.023651 49.542484 55.663902 64.552208 70.671631 76.791054 82.910477 88.429314 94.548737 97.608452"
                     y="-550.60986"
                     sodipodi:role="line"
                     id="tspan7458">components</tspan>
                  <tspan
                     style="font-size:9.96000004000000061px;font-variant:normal;font-weight:bold;writing-mode:lr-tb;fill:#0000ff;fill-opacity:1;fill-rule:nonzero;stroke:none;font-family:Arial;-inkscape-font-specification:Arial Bold;font-style:normal;font-stretch:normal"
                     x="260.38373 267.06091 275.39145 281.51089 284.2728 289.84442 295.36325 301.48267 307.05429 315.9426"
                     y="-561.64954"
                     sodipodi:role="line"
                     id="tspan7460">XML schema</tspan>
                  <tspan
                     style="font-size:9.96000004000000061px;font-variant:normal;font-weight:bold;writing-mode:lr-tb;fill:#0000ff;fill-opacity:1;fill-rule:nonzero;stroke:none;font-family:Arial;-inkscape-font-specification:Arial Bold;font-style:normal;font-stretch:normal"
                     x="266.20337 269.01306 274.53192 280.65829 286.7847 292.84634 298.42496 304.55136 310.12994"
                     y="-550.48938"
                     sodipodi:role="line"
                     id="tspan7462">languages</tspan>
                </text>
                <path
                   inkscape:connector-curvature="0"
                   d="m 259.30315,696.28891 -1.8,-0.12 -1.8,-0.3 -1.74,-0.42 -1.62,-0.6 -1.62,-0.78 -1.44,-0.9 -1.38,-1.02 -1.32,-1.14 -1.14,-1.32 -1.02,-1.38 -0.9,-1.44 -0.78,-1.62 -0.6,-1.62 -0.48,-1.74 -0.24,-1.8 -0.12,-1.86 0,-47.22 0.12,-1.86 0.24,-1.8 0.48,-1.68 0.6,-1.68 0.78,-1.56 0.9,-1.5 1.02,-1.38 1.14,-1.26 1.32,-1.2 1.38,-1.02 1.44,-0.9 1.62,-0.72 1.62,-0.66 1.74,-0.42 1.8,-0.3 1.8,-0.06 11.76,0 1.86,0.06 1.8,0.3 1.68,0.42 1.68,0.66 1.56,0.72 1.5,0.9 1.38,1.02 1.26,1.2 1.2,1.26 1.02,1.38 0.9,1.5 0.78,1.56 0.6,1.68 0.42,1.68 0.3,1.8 0.06,1.86 0,47.22 -0.06,1.86 -0.3,1.8 -0.42,1.74 -0.6,1.62 -0.78,1.62 -0.9,1.44 -1.02,1.38 -1.2,1.32 -1.26,1.14 -1.38,1.02 -1.5,0.9 -1.56,0.78 -1.68,0.6 -1.68,0.42 -1.8,0.3 -1.86,0.12 -11.76,0"
                   style="fill:#9affc9;fill-opacity:1;fill-rule:evenodd;stroke:none"
                   id="path7464" />
                <path
                   inkscape:connector-curvature="0"
                   d="m 259.36315,696.04891 -1.8,-0.12 -1.8,-0.3 -1.74,-0.42 0.06,0 -1.62,-0.6 -1.62,-0.78 -1.44,-0.9 0.06,0.06 -1.38,-1.02 -1.32,-1.14 -1.14,-1.32 -1.02,-1.38 0.06,0.06 -0.9,-1.44 -0.78,-1.62 -0.6,-1.62 0,0.06 -0.48,-1.74 -0.24,-1.8 -0.12,-1.86 0,0.06 0,-47.22 0.12,-1.86 0.24,-1.74 0,0.06 0.48,-1.74 0.6,-1.68 0,0.06 0.78,-1.56 0.9,-1.5 -0.06,0 1.02,-1.38 1.14,-1.26 0,0.06 1.32,-1.14 1.38,-1.08 -0.06,0 1.44,-0.9 1.62,-0.72 0,0.06 1.62,-0.6 -0.06,0 1.74,-0.48 1.8,-0.24 1.8,-0.12 -0.06,0 11.76,0 1.86,0.12 1.8,0.24 -0.06,0 1.68,0.48 1.68,0.6 0,-0.06 1.56,0.72 -0.06,0 0.24,-0.42 -1.56,-0.72 -1.68,-0.6 -0.06,0 -1.68,-0.48 -1.8,-0.24 -1.86,-0.12 -11.82,0 -1.8,0.12 -1.8,0.24 -0.06,0 -1.74,0.48 -1.62,0.6 -1.62,0.72 -0.06,0 -1.44,0.9 0,0.06 -1.38,1.08 -1.32,1.14 -0.06,0 -1.14,1.26 -1.02,1.38 0,0.06 -0.9,1.5 -0.78,1.56 -0.06,0 -0.6,1.68 0,0.06 -0.48,1.74 -0.24,1.74 -0.12,1.86 0,47.28 0.12,1.86 0.24,1.8 0,0.06 0.48,1.74 0.6,1.62 0.06,0 0.78,1.62 0,0.06 0.9,1.44 1.02,1.38 1.14,1.32 0.06,0.06 1.32,1.14 1.38,1.02 1.44,0.9 0.06,0 1.62,0.78 0,0.06 1.62,0.6 1.74,0.42 0.06,0 1.8,0.3 1.8,0.12"
                   style="fill:#000000;fill-opacity:1;fill-rule:nonzero;stroke:none"
                   id="path7466" />
                <path
                   inkscape:connector-curvature="0"
                   d="m 279.52315,615.34891 1.5,0.9 1.38,1.08 1.26,1.14 -0.06,0 1.2,1.26 0,-0.06 1.02,1.38 0.9,1.5 0.78,1.56 -0.06,-0.06 0.6,1.68 0.42,1.74 0,-0.06 0.3,1.74 0.06,1.86 0,47.22 -0.06,1.86 0,-0.06 -0.3,1.8 -0.42,1.74 0,-0.06 -0.6,1.62 0.06,0 -0.78,1.62 -0.9,1.44 0,-0.06 -1.02,1.38 -1.2,1.32 0.06,0 -1.26,1.14 -1.38,1.02 0,-0.06 -1.5,0.9 -1.56,0.78 0.06,0 -1.68,0.6 -1.68,0.42 0.06,0 -1.8,0.3 -1.86,0.12 -11.76,0 0.06,0 -0.06,0.48 11.82,0 1.86,-0.12 1.8,-0.3 1.68,-0.42 0.06,0 1.68,-0.6 0,-0.06 1.56,-0.78 1.5,-0.9 0.06,0 1.38,-1.02 1.26,-1.14 0,-0.06 1.2,-1.32 1.02,-1.38 0.06,0 0.9,-1.44 0,-0.06 0.78,-1.62 0.6,-1.62 0.42,-1.74 0,-0.06 0.3,-1.8 0.06,-1.86 0,-47.22 -0.06,-1.86 0,-0.06 -0.3,-1.74 -0.42,-1.74 0,-0.06 -0.6,-1.68 -0.78,-1.56 -0.9,-1.5 -0.06,-0.06 -1.02,-1.38 -1.2,-1.26 -1.26,-1.14 -1.38,-1.08 -0.06,-0.06 -1.5,-0.9"
                   style="fill:#000000;fill-opacity:1;fill-rule:nonzero;stroke:none"
                   id="path7468" />
                <text
                   style="font-weight:bold;-inkscape-font-specification:Arial Bold;font-family:Arial;font-style:normal;font-stretch:normal;font-variant:normal"
                   y="-685.00922"
                   x="261.04315"
                   transform="scale(1,-1)"
                   id="text7470">
                  <tspan
                     style="font-size:12px;font-variant:normal;font-weight:bold;writing-mode:lr-tb;fill:#000000;fill-opacity:1;fill-rule:nonzero;stroke:none;font-family:Arial;-inkscape-font-specification:Arial Bold;font-style:normal;font-stretch:normal"
                     x="261.04315 264.40555"
                     y="-685.00922"
                     sodipodi:role="line"
                     id="tspan7472">IM</tspan>
                </text>
                <text
                   style="font-weight:bold;-inkscape-font-specification:Arial Bold;font-family:Arial;font-style:normal;font-stretch:normal;font-variant:normal"
                   y="-652.72919"
                   x="243.22314"
                   transform="scale(1,-1)"
                   id="text7474">
                  <tspan
                     style="font-size:9.96000004000000061px;font-style:normal;font-variant:normal;font-weight:bold;writing-mode:lr-tb;fill:#0000ff;fill-opacity:1;fill-rule:nonzero;stroke:none;font-family:Arial;-inkscape-font-specification:Arial Bold;font-stretch:normal"
                     x="243.22314 249.34456 255.46597 260.9848"
                     y="-652.72919"
                     sodipodi:role="line"
                     id="tspan7476">open</tspan>
                </text>
                <text
                   style="font-weight:bold;-inkscape-font-specification:Arial Bold;font-family:Arial;font-style:normal;font-stretch:normal;font-variant:normal"
                   y="-652.72919"
                   x="267.10324"
                   transform="scale(1,-1)"
                   id="text7478">
                  <tspan
                     style="font-size:9.96000004000000061px;font-variant:normal;font-weight:bold;writing-mode:lr-tb;fill:#0000ff;fill-opacity:1;fill-rule:nonzero;stroke:none;font-family:Arial;-inkscape-font-specification:Arial Bold;font-style:normal;font-stretch:normal"
                     x="267.10324 273.78839 281.02136"
                     y="-652.72919"
                     sodipodi:role="line"
                     id="tspan7480">EHR</tspan>
                  <tspan
                     style="font-size:9.96000004000000061px;font-variant:normal;font-weight:bold;writing-mode:lr-tb;fill:#0000ff;fill-opacity:1;fill-rule:nonzero;stroke:none;font-family:Arial;-inkscape-font-specification:Arial Bold;font-style:normal;font-stretch:normal"
                     x="248.80273 252.13934 257.69702 261.59137 270.46573 273.25455 279.36002"
                     y="-641.56903"
                     sodipodi:role="line"
                     id="tspan7482">termin-</tspan>
                </text>
                <text
                   style="font-weight:bold;-inkscape-font-specification:Arial Bold;font-family:Arial;font-style:normal;font-stretch:normal;font-variant:normal"
                   y="-671.62921"
                   x="251.74315"
                   transform="scale(1,-1)"
                   id="text7484">
                  <tspan
                     style="font-size:12px;font-variant:normal;font-weight:bold;writing-mode:lr-tb;fill:#000000;fill-opacity:1;fill-rule:nonzero;stroke:none;font-family:Arial;-inkscape-font-specification:Arial Bold;font-style:normal;font-stretch:normal"
                     x="251.74315 257.73593 264.40076 270.39355 277.05835"
                     y="-671.62921"
                     sodipodi:role="line"
                     id="tspan7486">vocab</tspan>
                </text>
                <text
                   style="font-weight:bold;-inkscape-font-specification:Arial Bold;font-family:Arial;font-style:normal;font-stretch:normal;font-variant:normal"
                   y="-630.4093"
                   x="252.40315"
                   transform="scale(1,-1)"
                   id="text7488">
                  <tspan
                     style="font-size:9.96000004000000061px;font-variant:normal;font-weight:bold;writing-mode:lr-tb;fill:#0000ff;fill-opacity:1;fill-rule:nonzero;stroke:none;font-family:Arial;-inkscape-font-specification:Arial Bold;font-style:normal;font-stretch:normal"
                     x="252.40315 258.51559 261.31137 267.42383 273.53629"
                     y="-630.4093"
                     sodipodi:role="line"
                     id="tspan7490">ology</tspan>
                </text>
                <text
                   style="font-size:10.79992962000000034px;font-weight:bold;-inkscape-font-specification:Arial Bold;font-family:Arial;font-style:normal;font-stretch:normal;font-variant:normal"
                   y="-618.8587"
                   x="430.79404"
                   transform="scale(1.1111183,-0.89999416)"
                   id="text7492">
                  <tspan
                     style="font-size:45.93363190000000174px;font-variant:normal;font-weight:bold;writing-mode:lr-tb;fill:#ff7200;fill-opacity:1;fill-rule:nonzero;stroke:none;font-family:Arial;-inkscape-font-specification:Arial Bold;font-style:normal;font-stretch:normal"
                     x="430.79404"
                     y="-618.8587"
                     id="tspan7494">}</tspan>
                </text>
                <text
                   style="font-size:8.91420937000000002px;font-weight:bold;-inkscape-font-specification:Arial Bold;font-family:Arial;font-style:normal;font-stretch:normal;font-variant:normal"
                   y="-469.45889"
                   x="303.4299"
                   transform="scale(0.74285079,-1.3461654)"
                   id="text7496">
                  <tspan
                     style="font-size:68.90683746000000554px;font-variant:normal;font-weight:bold;writing-mode:lr-tb;fill:#ff7200;fill-opacity:1;fill-rule:nonzero;stroke:none;font-family:Arial;-inkscape-font-specification:Arial Bold;font-style:normal;font-stretch:normal"
                     x="303.4299"
                     y="-469.45889"
                     id="tspan7498">}</tspan>
                </text>
                <text
                   style="font-weight:bold;-inkscape-font-specification:Arial Bold;font-family:Arial;font-style:normal;font-stretch:normal;font-variant:normal"
                   y="-557.9892"
                   x="130.60315"
                   transform="scale(1,-1)"
                   id="text7500">
                  <tspan
                     style="font-size:9.96000004000000061px;font-variant:normal;font-weight:bold;writing-mode:lr-tb;fill:#0000ff;fill-opacity:1;fill-rule:nonzero;stroke:none;font-family:Arial;-inkscape-font-specification:Arial Bold;font-style:normal;font-stretch:normal"
                     x="130.60315 133.40091 138.96756 145.02921 151.14366 157.2581 162.82474 168.8864 174.465"
                     y="-557.9892"
                     sodipodi:role="line"
                     id="tspan7502">languages</tspan>
                </text>
                <flowRoot
                   style="font-size:40px;font-style:normal;font-weight:bold;line-height:125%;letter-spacing:0px;word-spacing:0px;fill:#000000;fill-opacity:1;stroke:none;font-family:Arial;-inkscape-font-specification:Arial Bold;font-stretch:normal;font-variant:normal"
                   id="flowRoot7705"
                   xml:space="preserve"><flowRegion
                     id="flowRegion7707"><rect
                       y="751.33673"
                       x="27.274118"
                       height="78.791901"
                       width="331.33005"
                       id="rect7709"
                       style="-inkscape-font-specification:Arial Bold;font-family:Arial;font-weight:bold;font-style:normal;font-stretch:normal;font-variant:normal" /></flowRegion><flowPara
                     id="flowPara7711" /></flowRoot>              </g>
            </g>
          </g>
        </g>
      </g>
    </g>
  </g>
</svg>
