<?xml version="1.0" encoding="UTF-8" standalone="no"?>
<!-- Created with Inkscape (http://www.inkscape.org/) -->

<svg
   xmlns:dc="http://purl.org/dc/elements/1.1/"
   xmlns:cc="http://creativecommons.org/ns#"
   xmlns:rdf="http://www.w3.org/1999/02/22-rdf-syntax-ns#"
   xmlns:svg="http://www.w3.org/2000/svg"
   xmlns="http://www.w3.org/2000/svg"
   xmlns:sodipodi="http://sodipodi.sourceforge.net/DTD/sodipodi-0.dtd"
   xmlns:inkscape="http://www.inkscape.org/namespaces/inkscape"
   width="744.09448819"
   height="1052.3622047"
   id="svg15588"
   version="1.1"
   inkscape:version="0.48.3.1 r9886"
   sodipodi:docname="8.svg">
  <defs
     id="defs15590">
    <clipPath
       id="clipPath15809"
       clipPathUnits="userSpaceOnUse">
      <path
         id="path15811"
         clip-rule="evenodd"
         d="m 37.14,752.54 486,0 0,-3 -486,0 0,3 z" />
    </clipPath>
  </defs>
  <sodipodi:namedview
     id="base"
     pagecolor="#ffffff"
     bordercolor="#666666"
     borderopacity="1.0"
     inkscape:pageopacity="0.0"
     inkscape:pageshadow="2"
     inkscape:zoom="1.4"
     inkscape:cx="493.70923"
     inkscape:cy="960.46063"
     inkscape:document-units="px"
     inkscape:current-layer="g15773"
     showgrid="false"
     inkscape:window-width="1855"
     inkscape:window-height="1176"
     inkscape:window-x="65"
     inkscape:window-y="24"
     inkscape:window-maximized="1" />
  <metadata
     id="metadata15593">
    <rdf:RDF>
      <cc:Work
         rdf:about="">
        <dc:format>image/svg+xml</dc:format>
        <dc:type
           rdf:resource="http://purl.org/dc/dcmitype/StillImage" />
        <dc:title />
      </cc:Work>
    </rdf:RDF>
  </metadata>
  <g
     inkscape:label="Layer 1"
     inkscape:groupmode="layer"
     id="layer1">
    <g
       transform="matrix(1.25,0,0,-1.25,26.705927,1031.7561)"
       inkscape:label="3.1 overview"
       id="g15773">
      <path
         id="path15933"
         style="fill:#ffffff;fill-opacity:1;fill-rule:nonzero;stroke:none"
         d="m 123.16857,679.25429 82.68,0 0,-47.28 -82.68,0 0,47.28 z"
         inkscape:connector-curvature="0" />
      <path
         id="path15935"
         style="fill:#21c9ff;fill-opacity:1;fill-rule:nonzero;stroke:none"
         d="m 123.16857,679.49429 82.92,0 0,-0.48 -82.92,0 0,0.48 z"
         inkscape:connector-curvature="0" />
      <path
         id="path15937"
         style="fill:#21c9ff;fill-opacity:1;fill-rule:nonzero;stroke:none"
         d="m 205.60857,679.25429 0.48,0 0,-47.52 -0.48,0 0,47.52 z"
         inkscape:connector-curvature="0" />
      <path
         id="path15939"
         style="fill:#21c9ff;fill-opacity:1;fill-rule:nonzero;stroke:none"
         d="m 122.92857,632.21429 82.92,0 0,-0.48 -82.92,0 0,0.48 z"
         inkscape:connector-curvature="0" />
      <path
         id="path15941"
         style="fill:#21c9ff;fill-opacity:1;fill-rule:nonzero;stroke:none"
         d="m 122.92857,679.49429 0.48,0 0,-47.52 -0.48,0 0,47.52 z"
         inkscape:connector-curvature="0" />
      <path
         id="path15943"
         style="fill:#ffffff;fill-opacity:1;fill-rule:nonzero;stroke:none"
         d="m 123.16857,689.57429 24.36,0 0,-10.32 -24.36,0 0,10.32 z"
         inkscape:connector-curvature="0" />
      <path
         id="path15945"
         style="fill:#21c9ff;fill-opacity:1;fill-rule:nonzero;stroke:none"
         d="m 123.16857,689.81429 24.6,0 0,-0.48 -24.6,0 0,0.48 z"
         inkscape:connector-curvature="0" />
      <path
         id="path15947"
         style="fill:#21c9ff;fill-opacity:1;fill-rule:nonzero;stroke:none"
         d="m 147.28857,689.57429 0.48,0 0,-10.56 -0.48,0 0,10.56 z"
         inkscape:connector-curvature="0" />
      <path
         id="path15949"
         style="fill:#21c9ff;fill-opacity:1;fill-rule:nonzero;stroke:none"
         d="m 122.92857,679.49429 24.6,0 0,-0.48 -24.6,0 0,0.48 z"
         inkscape:connector-curvature="0" />
      <path
         id="path15951"
         style="fill:#21c9ff;fill-opacity:1;fill-rule:nonzero;stroke:none"
         d="m 122.92857,689.81429 0.48,0 0,-10.56 -0.48,0 0,10.56 z"
         inkscape:connector-curvature="0" />
      <text
         id="text15953"
         transform="scale(1,-1)"
         x="126.64857"
         y="-669.11456"
         style="-inkscape-font-specification:Arial Bold;font-family:Arial;font-weight:bold;font-style:normal;font-stretch:normal;font-variant:normal">
        <tspan
           id="tspan15955"
           sodipodi:role="line"
           y="-669.11456"
           x="126.64857 131.09001"
           style="font-size:13.97999953999999967px;font-variant:normal;font-weight:bold;writing-mode:lr-tb;fill:#0000ff;fill-opacity:1;fill-rule:nonzero;stroke:none;font-family:Arial;-inkscape-font-specification:Arial Bold;font-style:normal;font-stretch:normal">rm</tspan>
      </text>
      <path
         id="path15957"
         style="fill:#ccdee3;fill-opacity:1;fill-rule:nonzero;stroke:none"
         d="m 97.608571,737.63429 319.979999,0 0,-0.48 -319.979999,0 0,0.48 z"
         inkscape:connector-curvature="0" />
      <path
         id="path15959"
         style="fill:#ccdee3;fill-opacity:1;fill-rule:nonzero;stroke:none"
         d="m 417.10857,737.39429 0.48,0 0,-132.3 -0.48,0 0,132.3 z"
         inkscape:connector-curvature="0" />
      <path
         id="path15961"
         style="fill:#ccdee3;fill-opacity:1;fill-rule:nonzero;stroke:none"
         d="m 97.368571,605.57429 319.979999,0 0,-0.48 -319.979999,0 0,0.48 z"
         inkscape:connector-curvature="0" />
      <path
         id="path15963"
         style="fill:#ccdee3;fill-opacity:1;fill-rule:nonzero;stroke:none"
         d="m 97.368571,737.63429 0.48,0 0,-132.3 -0.48,0 0,132.3 z"
         inkscape:connector-curvature="0" />
      <path
         id="path15965"
         style="fill:#ffffff;fill-opacity:1;fill-rule:nonzero;stroke:none"
         d="m 97.908571,747.53429 24.359999,0 0,-10.32 -24.359999,0 0,10.32 z"
         inkscape:connector-curvature="0" />
      <path
         id="path15967"
         style="fill:#ccdee3;fill-opacity:1;fill-rule:nonzero;stroke:none"
         d="m 97.908571,747.77429 24.599999,0 0,-0.48 -24.599999,0 0,0.48 z"
         inkscape:connector-curvature="0" />
      <path
         id="path15969"
         style="fill:#ccdee3;fill-opacity:1;fill-rule:nonzero;stroke:none"
         d="m 122.02857,747.53429 0.48,0 0,-10.56 -0.48,0 0,10.56 z"
         inkscape:connector-curvature="0" />
      <path
         id="path15971"
         style="fill:#ccdee3;fill-opacity:1;fill-rule:nonzero;stroke:none"
         d="m 97.668571,737.45429 24.599999,0 0,-0.48 -24.599999,0 0,0.48 z"
         inkscape:connector-curvature="0" />
      <path
         id="path15973"
         style="fill:#ccdee3;fill-opacity:1;fill-rule:nonzero;stroke:none"
         d="m 97.668571,747.77429 0.48,0 0,-10.56 -0.48,0 0,10.56 z"
         inkscape:connector-curvature="0" />
      <text
         id="text15975"
         transform="scale(1,-1)"
         x="100.48857"
         y="-726.11456"
         style="-inkscape-font-specification:Arial Bold;font-family:Arial;font-weight:bold;font-style:normal;font-stretch:normal;font-variant:normal">
        <tspan
           id="tspan15977"
           sodipodi:role="line"
           y="-726.11456"
           x="100.48857 107.49115 111.94938"
           style="font-size:13.97999953999999967px;font-variant:normal;font-weight:bold;writing-mode:lr-tb;fill:#96b5b8;fill-opacity:1;fill-rule:nonzero;stroke:none;font-family:Arial;-inkscape-font-specification:Arial Bold;font-style:normal;font-stretch:normal">org</tspan>
      </text>
      <path
         id="path15979"
         style="fill:#ccdee3;fill-opacity:1;fill-rule:nonzero;stroke:none"
         d="m 110.14857,708.47429 292.92,0 0,-0.48 -292.92,0 0,0.48 z"
         inkscape:connector-curvature="0" />
      <path
         id="path15981"
         style="fill:#ccdee3;fill-opacity:1;fill-rule:nonzero;stroke:none"
         d="m 402.58857,708.23429 0.48,0 0,-88.02 -0.48,0 0,88.02 z"
         inkscape:connector-curvature="0" />
      <path
         id="path15983"
         style="fill:#ccdee3;fill-opacity:1;fill-rule:nonzero;stroke:none"
         d="m 109.90857,620.69429 292.92,0 0,-0.48 -292.92,0 0,0.48 z"
         inkscape:connector-curvature="0" />
      <path
         id="path15985"
         style="fill:#ccdee3;fill-opacity:1;fill-rule:nonzero;stroke:none"
         d="m 109.90857,708.47429 0.48,0 0,-88.02 -0.48,0 0,88.02 z"
         inkscape:connector-curvature="0" />
      <path
         id="path15987"
         style="fill:#ffffff;fill-opacity:1;fill-rule:nonzero;stroke:none"
         d="m 110.14857,718.55429 24.36,0 0,-10.32 -24.36,0 0,10.32 z"
         inkscape:connector-curvature="0" />
      <path
         id="path15989"
         style="fill:#ccdee3;fill-opacity:1;fill-rule:nonzero;stroke:none"
         d="m 110.14857,718.79429 24.6,0 0,-0.48 -24.6,0 0,0.48 z"
         inkscape:connector-curvature="0" />
      <path
         id="path15991"
         style="fill:#ccdee3;fill-opacity:1;fill-rule:nonzero;stroke:none"
         d="m 134.26857,718.55429 0.48,0 0,-10.56 -0.48,0 0,10.56 z"
         inkscape:connector-curvature="0" />
      <path
         id="path15993"
         style="fill:#ccdee3;fill-opacity:1;fill-rule:nonzero;stroke:none"
         d="m 109.90857,708.47429 24.6,0 0,-0.48 -24.6,0 0,0.48 z"
         inkscape:connector-curvature="0" />
      <path
         id="path15995"
         style="fill:#ccdee3;fill-opacity:1;fill-rule:nonzero;stroke:none"
         d="m 109.90857,718.79429 0.48,0 0,-10.56 -0.48,0 0,10.56 z"
         inkscape:connector-curvature="0" />
      <text
         id="text15997"
         transform="scale(1,-1)"
         x="114.58857"
         y="-697.13458"
         style="-inkscape-font-specification:Arial Bold;font-family:Arial;font-weight:bold;font-style:normal;font-stretch:normal;font-variant:normal">
        <tspan
           id="tspan15999"
           sodipodi:role="line"
           y="-697.13458"
           x="114.58857 121.59954 128.6105 134.99239 142.00336 148.38522 155.39619"
           style="font-size:13.97999953999999967px;font-variant:normal;font-weight:bold;writing-mode:lr-tb;fill:#96b5b8;fill-opacity:1;fill-rule:nonzero;stroke:none;font-family:Arial;-inkscape-font-specification:Arial Bold;font-style:normal;font-stretch:normal">openehr</tspan>
      </text>
      <path
         id="path16001"
         style="fill:#ffffff;fill-opacity:1;fill-rule:nonzero;stroke:none"
         d="m 216.52857,679.25429 82.68,0 0,-47.28 -82.68,0 0,47.28 z"
         inkscape:connector-curvature="0" />
      <path
         id="path16003"
         style="fill:#21c9ff;fill-opacity:1;fill-rule:nonzero;stroke:none"
         d="m 216.52857,679.49429 82.92,0 0,-0.48 -82.92,0 0,0.48 z"
         inkscape:connector-curvature="0" />
      <path
         id="path16005"
         style="fill:#21c9ff;fill-opacity:1;fill-rule:nonzero;stroke:none"
         d="m 298.96857,679.25429 0.48,0 0,-47.52 -0.48,0 0,47.52 z"
         inkscape:connector-curvature="0" />
      <path
         id="path16007"
         style="fill:#21c9ff;fill-opacity:1;fill-rule:nonzero;stroke:none"
         d="m 216.28857,632.21429 82.92,0 0,-0.48 -82.92,0 0,0.48 z"
         inkscape:connector-curvature="0" />
      <path
         id="path16009"
         style="fill:#21c9ff;fill-opacity:1;fill-rule:nonzero;stroke:none"
         d="m 216.28857,679.49429 0.48,0 0,-47.52 -0.48,0 0,47.52 z"
         inkscape:connector-curvature="0" />
      <path
         id="path16011"
         style="fill:#ffffff;fill-opacity:1;fill-rule:nonzero;stroke:none"
         d="m 216.52857,689.57429 24.42,0 0,-10.32 -24.42,0 0,10.32 z"
         inkscape:connector-curvature="0" />
      <path
         id="path16013"
         style="fill:#21c9ff;fill-opacity:1;fill-rule:nonzero;stroke:none"
         d="m 216.52857,689.81429 24.66,0 0,-0.48 -24.66,0 0,0.48 z"
         inkscape:connector-curvature="0" />
      <path
         id="path16015"
         style="fill:#21c9ff;fill-opacity:1;fill-rule:nonzero;stroke:none"
         d="m 240.70857,689.57429 0.48,0 0,-10.56 -0.48,0 0,10.56 z"
         inkscape:connector-curvature="0" />
      <path
         id="path16017"
         style="fill:#21c9ff;fill-opacity:1;fill-rule:nonzero;stroke:none"
         d="m 216.28857,679.49429 24.66,0 0,-0.48 -24.66,0 0,0.48 z"
         inkscape:connector-curvature="0" />
      <path
         id="path16019"
         style="fill:#21c9ff;fill-opacity:1;fill-rule:nonzero;stroke:none"
         d="m 216.28857,689.81429 0.48,0 0,-10.56 -0.48,0 0,10.56 z"
         inkscape:connector-curvature="0" />
      <text
         id="text16021"
         transform="scale(1,-1)"
         x="219.04857"
         y="-669.11456"
         style="-inkscape-font-specification:Arial Bold;font-family:Arial;font-weight:bold;font-style:normal;font-stretch:normal;font-variant:normal">
        <tspan
           id="tspan16023"
           sodipodi:role="line"
           y="-669.11456"
           x="219.04857 225.46819"
           style="font-size:13.97999953999999967px;font-variant:normal;font-weight:bold;writing-mode:lr-tb;fill:#0000ff;fill-opacity:1;fill-rule:nonzero;stroke:none;font-family:Arial;-inkscape-font-specification:Arial Bold;font-style:normal;font-stretch:normal">sm</tspan>
      </text>
      <path
         id="path16025"
         style="fill:#ffffff;fill-opacity:1;fill-rule:nonzero;stroke:none"
         d="m 309.94857,679.25429 82.68,0 0,-47.28 -82.68,0 0,47.28 z"
         inkscape:connector-curvature="0" />
      <path
         id="path16027"
         style="fill:#21c9ff;fill-opacity:1;fill-rule:nonzero;stroke:none"
         d="m 309.94857,679.49429 82.92,0 0,-0.48 -82.92,0 0,0.48 z"
         inkscape:connector-curvature="0" />
      <path
         id="path16029"
         style="fill:#21c9ff;fill-opacity:1;fill-rule:nonzero;stroke:none"
         d="m 392.38857,679.25429 0.48,0 0,-47.52 -0.48,0 0,47.52 z"
         inkscape:connector-curvature="0" />
      <path
         id="path16031"
         style="fill:#21c9ff;fill-opacity:1;fill-rule:nonzero;stroke:none"
         d="m 309.70857,632.21429 82.92,0 0,-0.48 -82.92,0 0,0.48 z"
         inkscape:connector-curvature="0" />
      <path
         id="path16033"
         style="fill:#21c9ff;fill-opacity:1;fill-rule:nonzero;stroke:none"
         d="m 309.70857,679.49429 0.48,0 0,-47.52 -0.48,0 0,47.52 z"
         inkscape:connector-curvature="0" />
      <path
         id="path16035"
         style="fill:#ffffff;fill-opacity:1;fill-rule:nonzero;stroke:none"
         d="m 309.94857,689.57429 24.36,0 0,-10.32 -24.36,0 0,10.32 z"
         inkscape:connector-curvature="0" />
      <path
         id="path16037"
         style="fill:#21c9ff;fill-opacity:1;fill-rule:nonzero;stroke:none"
         d="m 309.94857,689.81429 24.6,0 0,-0.48 -24.6,0 0,0.48 z"
         inkscape:connector-curvature="0" />
      <path
         id="path16039"
         style="fill:#21c9ff;fill-opacity:1;fill-rule:nonzero;stroke:none"
         d="m 334.06857,689.57429 0.48,0 0,-10.56 -0.48,0 0,10.56 z"
         inkscape:connector-curvature="0" />
      <path
         id="path16041"
         style="fill:#21c9ff;fill-opacity:1;fill-rule:nonzero;stroke:none"
         d="m 309.70857,679.49429 24.6,0 0,-0.48 -24.6,0 0,0.48 z"
         inkscape:connector-curvature="0" />
      <path
         id="path16043"
         style="fill:#21c9ff;fill-opacity:1;fill-rule:nonzero;stroke:none"
         d="m 309.70857,689.81429 0.48,0 0,-10.56 -0.48,0 0,10.56 z"
         inkscape:connector-curvature="0" />
      <text
         id="text16045"
         transform="scale(1,-1)"
         x="312.40857"
         y="-669.11456"
         style="-inkscape-font-specification:Arial Bold;font-family:Arial;font-weight:bold;font-style:normal;font-stretch:normal;font-variant:normal">
        <tspan
           id="tspan16047"
           sodipodi:role="line"
           y="-669.11456"
           x="312.40857 318.76807"
           style="font-size:13.97999953999999967px;font-variant:normal;font-weight:bold;writing-mode:lr-tb;fill:#0000ff;fill-opacity:1;fill-rule:nonzero;stroke:none;font-family:Arial;-inkscape-font-specification:Arial Bold;font-style:normal;font-stretch:normal">am</tspan>
      </text>
    </g>
  </g>
</svg>
