<?xml version="1.0" encoding="UTF-8" standalone="no"?>
<!-- Created with Inkscape (http://www.inkscape.org/) -->

<svg
   xmlns:dc="http://purl.org/dc/elements/1.1/"
   xmlns:cc="http://creativecommons.org/ns#"
   xmlns:rdf="http://www.w3.org/1999/02/22-rdf-syntax-ns#"
   xmlns:svg="http://www.w3.org/2000/svg"
   xmlns="http://www.w3.org/2000/svg"
   xmlns:sodipodi="http://sodipodi.sourceforge.net/DTD/sodipodi-0.dtd"
   xmlns:inkscape="http://www.inkscape.org/namespaces/inkscape"
   width="744.09448819"
   height="1052.3622047"
   id="svg3724"
   version="1.1"
   inkscape:version="0.48.3.1 r9886"
   sodipodi:docname="12.svg">
  <defs
     id="defs3726">
    <clipPath
       clipPathUnits="userSpaceOnUse"
       id="clipPath3547">
      <path
         d="m 37.14,752.54 486,0 0,-3 -486,0 0,3 z"
         clip-rule="evenodd"
         id="path3549" />
    </clipPath>
    <clipPath
       clipPathUnits="userSpaceOnUse"
       id="clipPath7138">
      <path
         d="m 37.14,752.54 486,0 0,-3 -486,0 0,3 z"
         clip-rule="evenodd"
         id="path7140" />
    </clipPath>
    <clipPath
       clipPathUnits="userSpaceOnUse"
       id="clipPath6709">
      <path
         d="m 55.62,622.94 104.4,0 0,-46.86 -104.4,0 0,46.86 z"
         clip-rule="evenodd"
         id="path6711" />
    </clipPath>
    <clipPath
       clipPathUnits="userSpaceOnUse"
       id="clipPath6729">
      <path
         d="m 52.74,670.64 107.88,0 0,-31.98 -107.88,0 0,31.98 z"
         clip-rule="evenodd"
         id="path6731" />
    </clipPath>
    <clipPath
       clipPathUnits="userSpaceOnUse"
       id="clipPath20908">
      <path
         d="m 465.12,273.62 31.98,0 0,-32.04 -31.98,0 0,32.04 z"
         clip-rule="evenodd"
         id="path20910" />
    </clipPath>
    <clipPath
       clipPathUnits="userSpaceOnUse"
       id="clipPath15809">
      <path
         d="m 37.14,752.54 486,0 0,-3 -486,0 0,3 z"
         clip-rule="evenodd"
         id="path15811" />
    </clipPath>
  </defs>
  <sodipodi:namedview
     id="base"
     pagecolor="#ffffff"
     bordercolor="#666666"
     borderopacity="1.0"
     inkscape:pageopacity="0.0"
     inkscape:pageshadow="2"
     inkscape:zoom="0.7"
     inkscape:cx="744.71531"
     inkscape:cy="471.30446"
     inkscape:document-units="px"
     inkscape:current-layer="g23342"
     showgrid="false"
     inkscape:window-width="1855"
     inkscape:window-height="1176"
     inkscape:window-x="65"
     inkscape:window-y="24"
     inkscape:window-maximized="1" />
  <metadata
     id="metadata3729">
    <rdf:RDF>
      <cc:Work
         rdf:about="">
        <dc:format>image/svg+xml</dc:format>
        <dc:type
           rdf:resource="http://purl.org/dc/dcmitype/StillImage" />
        <dc:title />
      </cc:Work>
    </rdf:RDF>
  </metadata>
  <g
     inkscape:label="Layer 1"
     inkscape:groupmode="layer"
     id="layer1">
    <g
       id="layer1-3"
       inkscape:label="Layer 1"
       transform="translate(66.018977,-5.8939031)">
      <g
         id="g3511"
         inkscape:label="3.1 overview"
         transform="matrix(1.25,0,0,-1.25,-74.765407,1013.1846)">
        <g
           id="layer1-36"
           inkscape:label="Layer 1"
           transform="matrix(0.8,0,0,-0.8,1.655648,865.97626)">
          <g
             id="g4624"
             inkscape:label="3.1 overview"
             transform="matrix(1.25,0,0,-1.25,-36.923127,1051.7561)">
            <g
               id="layer1-2"
               inkscape:label="Layer 1"
               transform="matrix(0.8,0,0,-0.8,52.452198,775.83104)">
              <g
                 id="g7102"
                 inkscape:label="3.1 overview"
                 transform="matrix(1.25,0,0,-1.25,-4.9974012,1021.2229)">
                <g
                   id="layer1-8"
                   inkscape:label="Layer 1"
                   transform="matrix(0.8,0,0,-0.8,-21.812603,833.13899)">
                  <g
                     id="g15773"
                     inkscape:label="3.1 overview"
                     transform="matrix(1.25,0,0,-1.25,26.705927,1031.7561)">
                    <g
                       id="g20042"
                       inkscape:label="3.1 overview"
                       transform="translate(-4.5714277,-0.57137128)">
                      <g
                         id="g22049"
                         inkscape:label="3.1 overview"
                         transform="translate(12.367879,-3.1238969)">
                        <g
                           id="g23342"
                           inkscape:label="3.1 overview"
                           transform="translate(-57.517156,14.5462)">
                          <path
                             inkscape:connector-curvature="0"
                             d="m 262.06883,772.56113 72.9,0 0,-31.5 -72.9,0 0,31.5 z"
                             style="fill:#ffffff;fill-opacity:1;fill-rule:nonzero;stroke:none"
                             id="path23388" />
                          <path
                             inkscape:connector-curvature="0"
                             d="m 262.06883,772.80113 73.14,0 0,-0.48 -73.14,0 0,0.48 z"
                             style="fill:#21c9ff;fill-opacity:1;fill-rule:nonzero;stroke:none"
                             id="path23390" />
                          <path
                             inkscape:connector-curvature="0"
                             d="m 334.72883,772.56113 0.48,0 0,-31.74 -0.48,0 0,31.74 z"
                             style="fill:#21c9ff;fill-opacity:1;fill-rule:nonzero;stroke:none"
                             id="path23392" />
                          <path
                             inkscape:connector-curvature="0"
                             d="m 261.82883,741.30113 73.14,0 0,-0.48 -73.14,0 0,0.48 z"
                             style="fill:#21c9ff;fill-opacity:1;fill-rule:nonzero;stroke:none"
                             id="path23394" />
                          <path
                             inkscape:connector-curvature="0"
                             d="m 261.82883,772.80113 0.48,0 0,-31.74 -0.48,0 0,31.74 z"
                             style="fill:#21c9ff;fill-opacity:1;fill-rule:nonzero;stroke:none"
                             id="path23396" />
                          <path
                             inkscape:connector-curvature="0"
                             d="m 262.06883,782.88113 24.36,0 0,-10.32 -24.36,0 0,10.32 z"
                             style="fill:#ffffff;fill-opacity:1;fill-rule:nonzero;stroke:none"
                             id="path23398" />
                          <path
                             inkscape:connector-curvature="0"
                             d="m 262.06883,783.12113 24.6,0 0,-0.48 -24.6,0 0,0.48 z"
                             style="fill:#21c9ff;fill-opacity:1;fill-rule:nonzero;stroke:none"
                             id="path23400" />
                          <path
                             inkscape:connector-curvature="0"
                             d="m 286.18883,782.88113 0.48,0 0,-10.56 -0.48,0 0,10.56 z"
                             style="fill:#21c9ff;fill-opacity:1;fill-rule:nonzero;stroke:none"
                             id="path23402" />
                          <path
                             inkscape:connector-curvature="0"
                             d="m 261.82883,772.80113 24.6,0 0,-0.48 -24.6,0 0,0.48 z"
                             style="fill:#21c9ff;fill-opacity:1;fill-rule:nonzero;stroke:none"
                             id="path23404" />
                          <path
                             inkscape:connector-curvature="0"
                             d="m 261.82883,783.12113 0.48,0 0,-10.56 -0.48,0 0,10.56 z"
                             style="fill:#21c9ff;fill-opacity:1;fill-rule:nonzero;stroke:none"
                             id="path23406" />
                          <text
                             y="-754.6814"
                             x="273.46884"
                             transform="scale(1,-1)"
                             id="text23408"
                             style="-inkscape-font-specification:Arial Bold;font-family:Arial;font-weight:bold;font-style:normal;font-stretch:normal;font-variant:normal">
                            <tspan
                               style="font-size:12px;font-variant:normal;font-weight:bold;writing-mode:lr-tb;fill:#0000ff;fill-opacity:1;fill-rule:nonzero;stroke:none;font-family:Arial;-inkscape-font-specification:Arial Bold;font-style:normal;font-stretch:normal"
                               x="273.46884 278.93604 281.66724 285.49042 288.76163 294.76883 300.23602 302.96722 308.43442 313.90164 319.90881"
                               y="-754.6814"
                               sodipodi:role="line"
                               id="tspan23410">virtual_ehr</tspan>
                          </text>
                          <path
                             inkscape:connector-curvature="0"
                             d="m 356.20883,715.44113 67.2,0 0,-0.48 -67.2,0 0,0.48 z"
                             style="fill:#21c9ff;fill-opacity:1;fill-rule:nonzero;stroke:none"
                             id="path23412" />
                          <path
                             inkscape:connector-curvature="0"
                             d="m 422.92883,715.20113 0.48,0 0,-31.5 -0.48,0 0,31.5 z"
                             style="fill:#21c9ff;fill-opacity:1;fill-rule:nonzero;stroke:none"
                             id="path23414" />
                          <path
                             inkscape:connector-curvature="0"
                             d="m 355.96883,684.18113 67.2,0 0,-0.48 -67.2,0 0,0.48 z"
                             style="fill:#21c9ff;fill-opacity:1;fill-rule:nonzero;stroke:none"
                             id="path23416" />
                          <path
                             inkscape:connector-curvature="0"
                             d="m 355.96883,715.44113 0.48,0 0,-31.5 -0.48,0 0,31.5 z"
                             style="fill:#21c9ff;fill-opacity:1;fill-rule:nonzero;stroke:none"
                             id="path23418" />
                          <path
                             inkscape:connector-curvature="0"
                             d="m 356.20883,725.94113 29.46,0 0,-0.48 -29.46,0 0,0.48 z"
                             style="fill:#21c9ff;fill-opacity:1;fill-rule:nonzero;stroke:none"
                             id="path23420" />
                          <path
                             inkscape:connector-curvature="0"
                             d="m 385.18883,725.70113 0.48,0 0,-10.74 -0.48,0 0,10.74 z"
                             style="fill:#21c9ff;fill-opacity:1;fill-rule:nonzero;stroke:none"
                             id="path23422" />
                          <path
                             inkscape:connector-curvature="0"
                             d="m 355.96883,715.44113 29.46,0 0,-0.48 -29.46,0 0,0.48 z"
                             style="fill:#21c9ff;fill-opacity:1;fill-rule:nonzero;stroke:none"
                             id="path23424" />
                          <path
                             inkscape:connector-curvature="0"
                             d="m 355.96883,725.94113 0.48,0 0,-10.74 -0.48,0 0,10.74 z"
                             style="fill:#21c9ff;fill-opacity:1;fill-rule:nonzero;stroke:none"
                             id="path23426" />
                          <text
                             y="-697.74146"
                             x="358.60883"
                             transform="scale(1,-1)"
                             id="text23428"
                             style="-inkscape-font-specification:Arial Bold;font-family:Arial;font-weight:bold;font-style:normal;font-stretch:normal;font-variant:normal">
                            <tspan
                               style="font-size:12px;font-variant:normal;font-weight:bold;writing-mode:lr-tb;fill:#0000ff;fill-opacity:1;fill-rule:nonzero;stroke:none;font-family:Arial;-inkscape-font-specification:Arial Bold;font-style:normal;font-stretch:normal"
                               x="358.60883 364.61603 370.08322 378.82642 384.83362 390.84082 394.66403 400.13123 406.13843 412.14563 414.87683"
                               y="-697.74146"
                               sodipodi:role="line"
                               id="tspan23430">demographic</tspan>
                          </text>
                          <path
                             inkscape:connector-curvature="0"
                             d="m 159.52883,773.70113 67.2,0 0,-0.48 -67.2,0 0,0.48 z"
                             style="fill:#21c9ff;fill-opacity:1;fill-rule:nonzero;stroke:none"
                             id="path23432" />
                          <path
                             inkscape:connector-curvature="0"
                             d="m 226.24883,773.46113 0.48,0 0,-31.5 -0.48,0 0,31.5 z"
                             style="fill:#21c9ff;fill-opacity:1;fill-rule:nonzero;stroke:none"
                             id="path23434" />
                          <path
                             inkscape:connector-curvature="0"
                             d="m 159.28883,742.44113 67.2,0 0,-0.48 -67.2,0 0,0.48 z"
                             style="fill:#21c9ff;fill-opacity:1;fill-rule:nonzero;stroke:none"
                             id="path23436" />
                          <path
                             inkscape:connector-curvature="0"
                             d="m 159.28883,773.70113 0.48,0 0,-31.5 -0.48,0 0,31.5 z"
                             style="fill:#21c9ff;fill-opacity:1;fill-rule:nonzero;stroke:none"
                             id="path23438" />
                          <path
                             inkscape:connector-curvature="0"
                             d="m 159.52883,784.20113 29.52,0 0,-0.48 -29.52,0 0,0.48 z"
                             style="fill:#21c9ff;fill-opacity:1;fill-rule:nonzero;stroke:none"
                             id="path23440" />
                          <path
                             inkscape:connector-curvature="0"
                             d="m 188.56883,783.96113 0.48,0 0,-10.74 -0.48,0 0,10.74 z"
                             style="fill:#21c9ff;fill-opacity:1;fill-rule:nonzero;stroke:none"
                             id="path23442" />
                          <path
                             inkscape:connector-curvature="0"
                             d="m 159.28883,773.70113 29.52,0 0,-0.48 -29.52,0 0,0.48 z"
                             style="fill:#21c9ff;fill-opacity:1;fill-rule:nonzero;stroke:none"
                             id="path23444" />
                          <path
                             inkscape:connector-curvature="0"
                             d="m 159.28883,784.20113 0.48,0 0,-10.74 -0.48,0 0,10.74 z"
                             style="fill:#21c9ff;fill-opacity:1;fill-rule:nonzero;stroke:none"
                             id="path23446" />
                          <text
                             y="-756.0014"
                             x="169.60883"
                             transform="scale(1,-1)"
                             id="text23448"
                             style="-inkscape-font-specification:Arial Bold;font-family:Arial;font-weight:bold;font-style:normal;font-stretch:normal;font-variant:normal">
                            <tspan
                               style="font-size:12px;font-variant:normal;font-weight:bold;writing-mode:lr-tb;fill:#0000ff;fill-opacity:1;fill-rule:nonzero;stroke:none;font-family:Arial;-inkscape-font-specification:Arial Bold;font-style:normal;font-stretch:normal"
                               x="169.60883 175.07602 178.89923 184.36642 190.37363 195.84082 199.11203 204.57922 210.58643"
                               y="-756.0014"
                               sodipodi:role="line"
                               id="tspan23450">archetype</tspan>
                          </text>
                          <path
                             inkscape:connector-curvature="0"
                             d="m 164.20883,717.42113 67.2,0 0,-0.48 -67.2,0 0,0.48 z"
                             style="fill:#21c9ff;fill-opacity:1;fill-rule:nonzero;stroke:none"
                             id="path23452" />
                          <path
                             inkscape:connector-curvature="0"
                             d="m 230.92883,717.18113 0.48,0 0,-31.5 -0.48,0 0,31.5 z"
                             style="fill:#21c9ff;fill-opacity:1;fill-rule:nonzero;stroke:none"
                             id="path23454" />
                          <path
                             inkscape:connector-curvature="0"
                             d="m 163.96883,686.16113 67.2,0 0,-0.48 -67.2,0 0,0.48 z"
                             style="fill:#21c9ff;fill-opacity:1;fill-rule:nonzero;stroke:none"
                             id="path23456" />
                          <path
                             inkscape:connector-curvature="0"
                             d="m 163.96883,717.42113 0.48,0 0,-31.5 -0.48,0 0,31.5 z"
                             style="fill:#21c9ff;fill-opacity:1;fill-rule:nonzero;stroke:none"
                             id="path23458" />
                          <path
                             inkscape:connector-curvature="0"
                             d="m 164.20883,727.92113 29.46,0 0,-0.48 -29.46,0 0,0.48 z"
                             style="fill:#21c9ff;fill-opacity:1;fill-rule:nonzero;stroke:none"
                             id="path23460" />
                          <path
                             inkscape:connector-curvature="0"
                             d="m 193.18883,727.68113 0.48,0 0,-10.74 -0.48,0 0,10.74 z"
                             style="fill:#21c9ff;fill-opacity:1;fill-rule:nonzero;stroke:none"
                             id="path23462" />
                          <path
                             inkscape:connector-curvature="0"
                             d="m 163.96883,717.42113 29.46,0 0,-0.48 -29.46,0 0,0.48 z"
                             style="fill:#21c9ff;fill-opacity:1;fill-rule:nonzero;stroke:none"
                             id="path23464" />
                          <path
                             inkscape:connector-curvature="0"
                             d="m 163.96883,727.92113 0.48,0 0,-10.74 -0.48,0 0,10.74 z"
                             style="fill:#21c9ff;fill-opacity:1;fill-rule:nonzero;stroke:none"
                             id="path23466" />
                          <text
                             y="-699.72144"
                             x="169.36882"
                             transform="scale(1,-1)"
                             id="text23468"
                             style="-inkscape-font-specification:Arial Bold;font-family:Arial;font-weight:bold;font-style:normal;font-stretch:normal;font-variant:normal">
                            <tspan
                               style="font-size:12px;font-variant:normal;font-weight:bold;writing-mode:lr-tb;fill:#0000ff;fill-opacity:1;fill-rule:nonzero;stroke:none;font-family:Arial;-inkscape-font-specification:Arial Bold;font-style:normal;font-stretch:normal"
                               x="169.36882 172.64003 178.10722 181.93042 190.67363 193.40483 199.41203 205.41922 208.15042 214.15762 220.16483"
                               y="-699.72144"
                               sodipodi:role="line"
                               id="tspan23470">terminology</tspan>
                          </text>
                          <path
                             inkscape:connector-curvature="0"
                             d="m 272.02883,714.96113 50.46,0 0,-31.5 -50.46,0 0,31.5 z"
                             style="fill:#ffffff;fill-opacity:1;fill-rule:nonzero;stroke:none"
                             id="path23472" />
                          <path
                             inkscape:connector-curvature="0"
                             d="m 272.02883,715.20113 50.7,0 0,-0.48 -50.7,0 0,0.48 z"
                             style="fill:#21c9ff;fill-opacity:1;fill-rule:nonzero;stroke:none"
                             id="path23474" />
                          <path
                             inkscape:connector-curvature="0"
                             d="m 322.24883,714.96113 0.48,0 0,-31.74 -0.48,0 0,31.74 z"
                             style="fill:#21c9ff;fill-opacity:1;fill-rule:nonzero;stroke:none"
                             id="path23476" />
                          <path
                             inkscape:connector-curvature="0"
                             d="m 271.78883,683.70113 50.7,0 0,-0.48 -50.7,0 0,0.48 z"
                             style="fill:#21c9ff;fill-opacity:1;fill-rule:nonzero;stroke:none"
                             id="path23478" />
                          <path
                             inkscape:connector-curvature="0"
                             d="m 271.78883,715.20113 0.48,0 0,-31.74 -0.48,0 0,31.74 z"
                             style="fill:#21c9ff;fill-opacity:1;fill-rule:nonzero;stroke:none"
                             id="path23480" />
                          <path
                             inkscape:connector-curvature="0"
                             d="m 272.02883,725.28113 24.42,0 0,-10.32 -24.42,0 0,10.32 z"
                             style="fill:#ffffff;fill-opacity:1;fill-rule:nonzero;stroke:none"
                             id="path23482" />
                          <path
                             inkscape:connector-curvature="0"
                             d="m 272.02883,725.52113 24.66,0 0,-0.48 -24.66,0 0,0.48 z"
                             style="fill:#21c9ff;fill-opacity:1;fill-rule:nonzero;stroke:none"
                             id="path23484" />
                          <path
                             inkscape:connector-curvature="0"
                             d="m 296.20883,725.28113 0.48,0 0,-10.56 -0.48,0 0,10.56 z"
                             style="fill:#21c9ff;fill-opacity:1;fill-rule:nonzero;stroke:none"
                             id="path23486" />
                          <path
                             inkscape:connector-curvature="0"
                             d="m 271.78883,715.20113 24.66,0 0,-0.48 -24.66,0 0,0.48 z"
                             style="fill:#21c9ff;fill-opacity:1;fill-rule:nonzero;stroke:none"
                             id="path23488" />
                          <path
                             inkscape:connector-curvature="0"
                             d="m 271.78883,725.52113 0.48,0 0,-10.56 -0.48,0 0,10.56 z"
                             style="fill:#21c9ff;fill-opacity:1;fill-rule:nonzero;stroke:none"
                             id="path23490" />
                          <text
                             y="-697.14142"
                             x="287.92883"
                             transform="scale(1,-1)"
                             id="text23492"
                             style="-inkscape-font-specification:Arial Bold;font-family:Arial;font-weight:bold;font-style:normal;font-stretch:normal;font-variant:normal">
                            <tspan
                               style="font-size:12px;font-variant:normal;font-weight:bold;writing-mode:lr-tb;fill:#0000ff;fill-opacity:1;fill-rule:nonzero;stroke:none;font-family:Arial;-inkscape-font-specification:Arial Bold;font-style:normal;font-stretch:normal"
                               x="287.92883 293.38763 299.38641"
                               y="-697.14142"
                               sodipodi:role="line"
                               id="tspan23494">ehr</tspan>
                          </text>
                          <path
                             inkscape:connector-curvature="0"
                             d="m 356.20883,773.46113 67.2,0 0,-0.48 -67.2,0 0,0.48 z"
                             style="fill:#21c9ff;fill-opacity:1;fill-rule:nonzero;stroke:none"
                             id="path23496" />
                          <path
                             inkscape:connector-curvature="0"
                             d="m 422.92883,773.22113 0.48,0 0,-31.5 -0.48,0 0,31.5 z"
                             style="fill:#21c9ff;fill-opacity:1;fill-rule:nonzero;stroke:none"
                             id="path23498" />
                          <path
                             inkscape:connector-curvature="0"
                             d="m 355.96883,742.20113 67.2,0 0,-0.48 -67.2,0 0,0.48 z"
                             style="fill:#21c9ff;fill-opacity:1;fill-rule:nonzero;stroke:none"
                             id="path23500" />
                          <path
                             inkscape:connector-curvature="0"
                             d="m 355.96883,773.46113 0.48,0 0,-31.5 -0.48,0 0,31.5 z"
                             style="fill:#21c9ff;fill-opacity:1;fill-rule:nonzero;stroke:none"
                             id="path23502" />
                          <path
                             inkscape:connector-curvature="0"
                             d="m 356.20883,783.96113 29.46,0 0,-0.48 -29.46,0 0,0.48 z"
                             style="fill:#21c9ff;fill-opacity:1;fill-rule:nonzero;stroke:none"
                             id="path23504" />
                          <path
                             inkscape:connector-curvature="0"
                             d="m 385.18883,783.72113 0.48,0 0,-10.74 -0.48,0 0,10.74 z"
                             style="fill:#21c9ff;fill-opacity:1;fill-rule:nonzero;stroke:none"
                             id="path23506" />
                          <path
                             inkscape:connector-curvature="0"
                             d="m 355.96883,773.46113 29.46,0 0,-0.48 -29.46,0 0,0.48 z"
                             style="fill:#21c9ff;fill-opacity:1;fill-rule:nonzero;stroke:none"
                             id="path23508" />
                          <path
                             inkscape:connector-curvature="0"
                             d="m 355.96883,783.96113 0.48,0 0,-10.74 -0.48,0 0,10.74 z"
                             style="fill:#21c9ff;fill-opacity:1;fill-rule:nonzero;stroke:none"
                             id="path23510" />
                          <text
                             y="-755.70142"
                             x="368.20883"
                             transform="scale(1,-1)"
                             id="text23512"
                             style="-inkscape-font-specification:Arial Bold;font-family:Arial;font-weight:bold;font-style:normal;font-stretch:normal;font-variant:normal">
                            <tspan
                               style="font-size:12px;font-variant:normal;font-weight:bold;writing-mode:lr-tb;fill:#0000ff;fill-opacity:1;fill-rule:nonzero;stroke:none;font-family:Arial;-inkscape-font-specification:Arial Bold;font-style:normal;font-stretch:normal"
                               x="368.20883 375.86124 381.86963 385.69403 391.16241 394.43481 397.16724 403.17563"
                               y="-755.70142"
                               sodipodi:role="line"
                               id="tspan23514">workflow</tspan>
                          </text>
                        </g>
                      </g>
                    </g>
                  </g>
                </g>
              </g>
            </g>
          </g>
        </g>
      </g>
    </g>
  </g>
</svg>
