<?xml version="1.0" encoding="UTF-8" standalone="no"?>
<!-- Created with Inkscape (http://www.inkscape.org/) -->

<svg
   xmlns:dc="http://purl.org/dc/elements/1.1/"
   xmlns:cc="http://creativecommons.org/ns#"
   xmlns:rdf="http://www.w3.org/1999/02/22-rdf-syntax-ns#"
   xmlns:svg="http://www.w3.org/2000/svg"
   xmlns="http://www.w3.org/2000/svg"
   xmlns:sodipodi="http://sodipodi.sourceforge.net/DTD/sodipodi-0.dtd"
   xmlns:inkscape="http://www.inkscape.org/namespaces/inkscape"
   width="744.09448819"
   height="1052.3622047"
   id="svg15588"
   version="1.1"
   inkscape:version="0.48.3.1 r9886"
   sodipodi:docname="15.svg">
  <defs
     id="defs15590">
    <clipPath
       id="clipPath15809"
       clipPathUnits="userSpaceOnUse">
      <path
         id="path15811"
         clip-rule="evenodd"
         d="m 37.14,752.54 486,0 0,-3 -486,0 0,3 z" />
    </clipPath>
    <clipPath
       id="clipPath20908"
       clipPathUnits="userSpaceOnUse">
      <path
         id="path20910"
         clip-rule="evenodd"
         d="m 465.12,273.62 31.98,0 0,-32.04 -31.98,0 0,32.04 z" />
    </clipPath>
    <clipPath
       id="clipPath23835"
       clipPathUnits="userSpaceOnUse">
      <path
         id="path23837"
         clip-rule="evenodd"
         d="m 37.14,752.54 486,0 0,-3 -486,0 0,3 z" />
    </clipPath>
    <clipPath
       id="clipPath30347"
       clipPathUnits="userSpaceOnUse">
      <path
         id="path30349"
         clip-rule="evenodd"
         d="m 485.7,373.88 22.14,0 0,-22.08 -22.14,0 0,22.08 z" />
    </clipPath>
    <clipPath
       id="clipPath30273"
       clipPathUnits="userSpaceOnUse">
      <path
         id="path30275"
         clip-rule="evenodd"
         d="m 386.82,368.96 20.64,0 0,-20.64 -20.64,0 0,20.64 z" />
    </clipPath>
    <clipPath
       id="clipPath30259"
       clipPathUnits="userSpaceOnUse">
      <path
         id="path30261"
         clip-rule="evenodd"
         d="m 485.82,396.68 22.14,0 0,-22.08 -22.14,0 0,22.08 z" />
    </clipPath>
    <clipPath
       id="clipPath30245"
       clipPathUnits="userSpaceOnUse">
      <path
         id="path30247"
         clip-rule="evenodd"
         d="m 490.38,484.22 24,0 0,-24 -24,0 0,24 z" />
    </clipPath>
    <clipPath
       id="clipPath30221"
       clipPathUnits="userSpaceOnUse">
      <path
         id="path30223"
         clip-rule="evenodd"
         d="m 37.14,634.52 486,0 0,-448.98 -486,0 0,448.98 z" />
    </clipPath>
    <clipPath
       id="clipPath30205"
       clipPathUnits="userSpaceOnUse">
      <path
         id="path30207"
         clip-rule="evenodd"
         d="m 488.76,541.76 25.02,0 0,-25.02 -25.02,0 0,25.02 z" />
    </clipPath>
    <clipPath
       id="clipPath30179"
       clipPathUnits="userSpaceOnUse">
      <path
         id="path30181"
         clip-rule="evenodd"
         d="m 470.16,458.84 23.22,0 0,-23.22 -23.22,0 0,23.22 z" />
    </clipPath>
  </defs>
  <sodipodi:namedview
     id="base"
     pagecolor="#ffffff"
     bordercolor="#666666"
     borderopacity="1.0"
     inkscape:pageopacity="0.0"
     inkscape:pageshadow="2"
     inkscape:zoom="0.98994949"
     inkscape:cx="325.2203"
     inkscape:cy="833.15451"
     inkscape:document-units="px"
     inkscape:current-layer="g31731"
     showgrid="false"
     inkscape:window-width="1855"
     inkscape:window-height="1176"
     inkscape:window-x="65"
     inkscape:window-y="24"
     inkscape:window-maximized="1" />
  <metadata
     id="metadata15593">
    <rdf:RDF>
      <cc:Work
         rdf:about="">
        <dc:format>image/svg+xml</dc:format>
        <dc:type
           rdf:resource="http://purl.org/dc/dcmitype/StillImage" />
        <dc:title></dc:title>
      </cc:Work>
    </rdf:RDF>
  </metadata>
  <g
     inkscape:label="Layer 1"
     inkscape:groupmode="layer"
     id="layer1">
    <g
       transform="matrix(1.25,0,0,-1.25,26.705927,1031.7561)"
       inkscape:label="3.1 overview"
       id="g15773">
      <g
         transform="translate(-4.5714277,-0.57137128)"
         inkscape:label="3.1 overview"
         id="g20042">
        <g
           transform="translate(12.367879,-3.1238969)"
           inkscape:label="3.1 overview"
           id="g22049">
          <g
             transform="translate(-57.517156,14.5462)"
             inkscape:label="3.1 overview"
             id="g23342">
            <g
               transform="translate(30.873421,-0.8081221)"
               inkscape:label="3.1 overview"
               id="g23799">
              <g
                 transform="translate(-58.237215,-17.778686)"
                 inkscape:label="3.1 overview"
                 id="g26344">
                <g
                   transform="translate(64.702191,8.8893377)"
                   inkscape:label="3.1 overview"
                   id="g29133">
                  <g
                     transform="translate(-55.358703,-6.4649777)"
                     inkscape:label="3.1 overview"
                     id="g31731">
                    <path
                       id="path31863"
                       style="fill:#000000;fill-opacity:1;fill-rule:nonzero;stroke:none"
                       d="m 287.67188,805.8307 50.46,0 0,-0.48 -50.46,0 0,0.48 z"
                       inkscape:connector-curvature="0" />
                    <path
                       id="path31865"
                       style="fill:#000000;fill-opacity:1;fill-rule:nonzero;stroke:none"
                       d="m 337.65188,805.5907 0.48,0 0,-21.48 -0.48,0 0,21.48 z"
                       inkscape:connector-curvature="0" />
                    <path
                       id="path31867"
                       style="fill:#000000;fill-opacity:1;fill-rule:nonzero;stroke:none"
                       d="m 287.43188,784.5907 50.46,0 0,-0.48 -50.46,0 0,0.48 z"
                       inkscape:connector-curvature="0" />
                    <path
                       id="path31869"
                       style="fill:#000000;fill-opacity:1;fill-rule:nonzero;stroke:none"
                       d="m 287.43188,805.8307 0.48,0 0,-21.48 -0.48,0 0,21.48 z"
                       inkscape:connector-curvature="0" />
                    <text
                       id="text31871"
                       transform="scale(1,-1)"
                       x="296.13187"
                       y="-791.19098">
                      <tspan
                         id="tspan31873"
                         sodipodi:role="line"
                         y="-791.19098"
                         x="296.13187 302.67789 309.82028 315.81427 322.65668"
                         style="font-size:12px;font-style:italic;font-variant:normal;writing-mode:lr-tb;fill:#000000;fill-opacity:1;fill-rule:nonzero;stroke:none;font-family:Arial Black;-inkscape-font-specification:ArialNarrow-Italic">ENTRY</tspan>
                    </text>
                    <path
                       id="path31875"
                       style="fill:#000000;fill-opacity:1;fill-rule:nonzero;stroke:none"
                       d="m 198.15188,751.5907 72.36,0 0,-0.48 -72.36,0 0,0.48 z"
                       inkscape:connector-curvature="0" />
                    <path
                       id="path31877"
                       style="fill:#000000;fill-opacity:1;fill-rule:nonzero;stroke:none"
                       d="m 270.03188,751.3507 0.48,0 0,-21.48 -0.48,0 0,21.48 z"
                       inkscape:connector-curvature="0" />
                    <path
                       id="path31879"
                       style="fill:#000000;fill-opacity:1;fill-rule:nonzero;stroke:none"
                       d="m 197.91188,730.3507 72.36,0 0,-0.48 -72.36,0 0,0.48 z"
                       inkscape:connector-curvature="0" />
                    <path
                       id="path31881"
                       style="fill:#000000;fill-opacity:1;fill-rule:nonzero;stroke:none"
                       d="m 197.91188,751.5907 0.48,0 0,-21.48 -0.48,0 0,21.48 z"
                       inkscape:connector-curvature="0" />
                    <text
                       id="text31883"
                       transform="scale(1,-1)"
                       x="202.11188"
                       y="-736.89099">
                      <tspan
                         id="tspan31885"
                         sodipodi:role="line"
                         y="-736.89099"
                         x="202.11188 209.21107 215.77028 222.86948 229.42868 234.89587 241.45508 248.55428 254.56148 261.46387"
                         style="font-size:12px;font-style:italic;font-variant:normal;writing-mode:lr-tb;fill:#000000;fill-opacity:1;fill-rule:nonzero;stroke:none;font-family:Arial Black;-inkscape-font-specification:ArialNarrow-Italic">CARE_ENTRY</tspan>
                    </text>
                    <path
                       id="path31887"
                       style="fill:#000000;fill-opacity:1;fill-rule:nonzero;stroke:none"
                       d="m 355.53188,751.7107 79.86,0 0,-0.48 -79.86,0 0,0.48 z"
                       inkscape:connector-curvature="0" />
                    <path
                       id="path31889"
                       style="fill:#000000;fill-opacity:1;fill-rule:nonzero;stroke:none"
                       d="m 434.91188,751.4707 0.48,0 0,-21.48 -0.48,0 0,21.48 z"
                       inkscape:connector-curvature="0" />
                    <path
                       id="path31891"
                       style="fill:#000000;fill-opacity:1;fill-rule:nonzero;stroke:none"
                       d="m 355.29188,730.4707 79.86,0 0,-0.48 -79.86,0 0,0.48 z"
                       inkscape:connector-curvature="0" />
                    <path
                       id="path31893"
                       style="fill:#000000;fill-opacity:1;fill-rule:nonzero;stroke:none"
                       d="m 355.29188,751.7107 0.48,0 0,-21.48 -0.48,0 0,21.48 z"
                       inkscape:connector-curvature="0" />
                    <text
                       id="text31895"
                       transform="scale(1,-1)"
                       x="359.97186"
                       y="-737.07098">
                      <tspan
                         id="tspan31897"
                         sodipodi:role="line"
                         y="-737.07098"
                         x="359.97186 367.07108 374.17029 382.36148 385.09268 392.19186 397.65909 404.21826 411.31747 417.32468 424.04587"
                         style="font-size:12px;font-variant:normal;font-weight:bold;writing-mode:lr-tb;fill:#000000;fill-opacity:1;fill-rule:nonzero;stroke:none;font-family:Arial Black;-inkscape-font-specification:ArialNarrow-Bold">ADMIN_ENTRY</tspan>
                    </text>
                    <path
                       id="path31899"
                       style="fill:#000000;fill-opacity:1;fill-rule:nonzero;stroke:none"
                       d="m 125.37188,699.3307 79.92,0 0,-0.48 -79.92,0 0,0.48 z"
                       inkscape:connector-curvature="0" />
                    <path
                       id="path31901"
                       style="fill:#000000;fill-opacity:1;fill-rule:nonzero;stroke:none"
                       d="m 204.81188,699.0907 0.48,0 0,-21.54 -0.48,0 0,21.54 z"
                       inkscape:connector-curvature="0" />
                    <path
                       id="path31903"
                       style="fill:#000000;fill-opacity:1;fill-rule:nonzero;stroke:none"
                       d="m 125.13188,678.0307 79.92,0 0,-0.48 -79.92,0 0,0.48 z"
                       inkscape:connector-curvature="0" />
                    <path
                       id="path31905"
                       style="fill:#000000;fill-opacity:1;fill-rule:nonzero;stroke:none"
                       d="m 125.13188,699.3307 0.48,0 0,-21.54 -0.48,0 0,21.54 z"
                       inkscape:connector-curvature="0" />
                    <text
                       id="text31907"
                       transform="scale(1,-1)"
                       x="129.27188"
                       y="-684.63098">
                      <tspan
                         id="tspan31909"
                         sodipodi:role="line"
                         y="-684.63098"
                         x="129.27188 136.91107 144.05348 150.60068 157.14787 164.11028 169.93147 176.35388 182.34908 185.06828 192.70747"
                         style="font-size:12px;font-variant:normal;font-weight:bold;writing-mode:lr-tb;fill:#000000;fill-opacity:1;fill-rule:nonzero;stroke:none;font-family:Arial Black;-inkscape-font-specification:ArialNarrow-Bold">OBSERVATION</tspan>
                    </text>
                    <path
                       id="path31911"
                       style="fill:#000000;fill-opacity:1;fill-rule:nonzero;stroke:none"
                       d="m 224.55188,699.3307 79.86,0 0,-0.48 -79.86,0 0,0.48 z"
                       inkscape:connector-curvature="0" />
                    <path
                       id="path31913"
                       style="fill:#000000;fill-opacity:1;fill-rule:nonzero;stroke:none"
                       d="m 303.93188,699.0907 0.48,0 0,-21.54 -0.48,0 0,21.54 z"
                       inkscape:connector-curvature="0" />
                    <path
                       id="path31915"
                       style="fill:#000000;fill-opacity:1;fill-rule:nonzero;stroke:none"
                       d="m 224.31188,678.0307 79.86,0 0,-0.48 -79.86,0 0,0.48 z"
                       inkscape:connector-curvature="0" />
                    <path
                       id="path31917"
                       style="fill:#000000;fill-opacity:1;fill-rule:nonzero;stroke:none"
                       d="m 224.31188,699.3307 0.48,0 0,-21.54 -0.48,0 0,21.54 z"
                       inkscape:connector-curvature="0" />
                    <text
                       id="text31919"
                       transform="scale(1,-1)"
                       x="232.53188"
                       y="-684.63098">
                      <tspan
                         id="tspan31921"
                         sodipodi:role="line"
                         y="-684.63098"
                         x="232.53188 239.07668 244.95787 252.04268 258.03549 265.12027 271.54266 277.53549 280.25229 287.88907"
                         style="font-size:12px;font-variant:normal;font-weight:bold;writing-mode:lr-tb;fill:#000000;fill-opacity:1;fill-rule:nonzero;stroke:none;font-family:Arial Black;-inkscape-font-specification:ArialNarrow-Bold">EVALUATION</tspan>
                    </text>
                    <path
                       id="path31923"
                       style="fill:#000000;fill-opacity:1;fill-rule:nonzero;stroke:none"
                       d="m 326.61188,699.3307 79.86,0 0,-0.48 -79.86,0 0,0.48 z"
                       inkscape:connector-curvature="0" />
                    <path
                       id="path31925"
                       style="fill:#000000;fill-opacity:1;fill-rule:nonzero;stroke:none"
                       d="m 405.99188,699.0907 0.48,0 0,-21.54 -0.48,0 0,21.54 z"
                       inkscape:connector-curvature="0" />
                    <path
                       id="path31927"
                       style="fill:#000000;fill-opacity:1;fill-rule:nonzero;stroke:none"
                       d="m 326.37188,678.0307 79.86,0 0,-0.48 -79.86,0 0,0.48 z"
                       inkscape:connector-curvature="0" />
                    <path
                       id="path31929"
                       style="fill:#000000;fill-opacity:1;fill-rule:nonzero;stroke:none"
                       d="m 326.37188,699.3307 0.48,0 0,-21.54 -0.48,0 0,21.54 z"
                       inkscape:connector-curvature="0" />
                    <text
                       id="text31931"
                       transform="scale(1,-1)"
                       x="332.97186"
                       y="-684.63098">
                      <tspan
                         id="tspan31933"
                         sodipodi:role="line"
                         y="-684.63098"
                         x="332.97186 335.70187 342.79987 349.35788 355.36389 362.46188 369.55988 376.65787 382.66388 385.39389 393.04388"
                         style="font-size:12px;font-variant:normal;font-weight:bold;writing-mode:lr-tb;fill:#000000;fill-opacity:1;fill-rule:nonzero;stroke:none;font-family:Arial Black;-inkscape-font-specification:ArialNarrow-Bold">INSTRUCTION</tspan>
                    </text>
                    <path
                       id="path31935"
                       style="fill:#000000;fill-opacity:1;fill-rule:nonzero;stroke:none"
                       d="m 427.53188,699.3307 50.52,0 0,-0.48 -50.52,0 0,0.48 z"
                       inkscape:connector-curvature="0" />
                    <path
                       id="path31937"
                       style="fill:#000000;fill-opacity:1;fill-rule:nonzero;stroke:none"
                       d="m 477.57188,699.0907 0.48,0 0,-21.54 -0.48,0 0,21.54 z"
                       inkscape:connector-curvature="0" />
                    <path
                       id="path31939"
                       style="fill:#000000;fill-opacity:1;fill-rule:nonzero;stroke:none"
                       d="m 427.29188,678.0307 50.52,0 0,-0.48 -50.52,0 0,0.48 z"
                       inkscape:connector-curvature="0" />
                    <path
                       id="path31941"
                       style="fill:#000000;fill-opacity:1;fill-rule:nonzero;stroke:none"
                       d="m 427.29188,699.3307 0.48,0 0,-21.54 -0.48,0 0,21.54 z"
                       inkscape:connector-curvature="0" />
                    <text
                       id="text31943"
                       transform="scale(1,-1)"
                       x="433.83188"
                       y="-684.63098">
                      <tspan
                         id="tspan31945"
                         sodipodi:role="line"
                         y="-684.63098"
                         x="433.83188 440.92029 448.00867 454.06866 456.78906 464.42947"
                         style="font-size:12px;font-variant:normal;font-weight:bold;writing-mode:lr-tb;fill:#000000;fill-opacity:1;fill-rule:nonzero;stroke:none;font-family:Arial Black;-inkscape-font-specification:ArialNarrow-Bold">ACTION</tspan>
                    </text>
                    <path
                       id="path31947"
                       style="fill:#000000;fill-opacity:1;fill-rule:nonzero;stroke:none"
                       d="m 342.33188,655.7707 50.46,0 0,-0.48 -50.46,0 0,0.48 z"
                       inkscape:connector-curvature="0" />
                    <path
                       id="path31949"
                       style="fill:#000000;fill-opacity:1;fill-rule:nonzero;stroke:none"
                       d="m 392.31188,655.5307 0.48,0 0,-21.48 -0.48,0 0,21.48 z"
                       inkscape:connector-curvature="0" />
                    <path
                       id="path31951"
                       style="fill:#000000;fill-opacity:1;fill-rule:nonzero;stroke:none"
                       d="m 342.09188,634.5307 50.46,0 0,-0.48 -50.46,0 0,0.48 z"
                       inkscape:connector-curvature="0" />
                    <path
                       id="path31953"
                       style="fill:#000000;fill-opacity:1;fill-rule:nonzero;stroke:none"
                       d="m 342.09188,655.7707 0.48,0 0,-21.48 -0.48,0 0,21.48 z"
                       inkscape:connector-curvature="0" />
                    <text
                       id="text31955"
                       transform="scale(1,-1)"
                       x="345.03189"
                       y="-641.07098">
                      <tspan
                         id="tspan31957"
                         sodipodi:role="line"
                         y="-641.07098"
                         x="345.03189 352.13708 359.24228 365.25549 367.99268 374.55789 377.29507 383.30829"
                         style="font-size:12px;font-variant:normal;font-weight:bold;writing-mode:lr-tb;fill:#000000;fill-opacity:1;fill-rule:nonzero;stroke:none;font-family:Arial Black;-inkscape-font-specification:ArialNarrow-Bold">ACTIVITY</tspan>
                    </text>
                    <path
                       id="path31959"
                       style="fill:#96b5b8;fill-opacity:1;fill-rule:nonzero;stroke:none"
                       d="m 319.47188,775.8907 -13.98,0 0.3,0.36 6.78,8.22 0.18,0.24 0.18,-0.24 0,-0.3 -6.78,-8.22 -0.36,0.3 0.18,0.12 13.5,0"
                       inkscape:connector-curvature="0" />
                    <path
                       id="path31961"
                       style="fill:#96b5b8;fill-opacity:1;fill-rule:nonzero;stroke:none"
                       d="m 312.93188,784.4707 6.72,-8.22 0.3,-0.36 -0.48,0 -0.18,0.06 -6.72,8.22"
                       inkscape:connector-curvature="0" />
                    <path
                       id="path31963"
                       style="fill:#96b5b8;fill-opacity:1;fill-rule:nonzero;stroke:none"
                       d="m 312.51188,776.2507 0.48,0 0,-12.9 -0.48,0 0,12.9 z"
                       inkscape:connector-curvature="0" />
                    <path
                       id="path31965"
                       style="fill:#96b5b8;fill-opacity:1;fill-rule:nonzero;stroke:none"
                       d="m 234.93188,764.5507 0.48,0 0,-13.26 -0.48,0 0,13.26 z"
                       inkscape:connector-curvature="0" />
                    <path
                       id="path31967"
                       style="fill:#96b5b8;fill-opacity:1;fill-rule:nonzero;stroke:none"
                       d="m 235.17188,764.5507 162.48,0 0,-0.48 -162.48,0 0,0.48 z"
                       inkscape:connector-curvature="0" />
                    <path
                       id="path31969"
                       style="fill:#96b5b8;fill-opacity:1;fill-rule:nonzero;stroke:none"
                       d="m 397.17188,764.3107 0.48,0 0,-12.24 -0.48,0 0,12.24 z"
                       inkscape:connector-curvature="0" />
                    <path
                       id="path31971"
                       style="fill:#96b5b8;fill-opacity:1;fill-rule:nonzero;stroke:none"
                       d="m 227.13188,721.9507 13.5,0 0.18,-0.12 -0.36,-0.3 -6.78,8.04 0,0.3 0.18,0.24 0.18,-0.24 6.78,-8.04 0.3,-0.36 -13.98,0"
                       inkscape:connector-curvature="0" />
                    <path
                       id="path31973"
                       style="fill:#96b5b8;fill-opacity:1;fill-rule:nonzero;stroke:none"
                       d="m 234.03188,729.5707 -6.72,-8.04 -0.18,-0.06 -0.48,0 0.3,0.36 6.72,8.04"
                       inkscape:connector-curvature="0" />
                    <path
                       id="path31975"
                       style="fill:#96b5b8;fill-opacity:1;fill-rule:nonzero;stroke:none"
                       d="m 233.55188,720.7507 0.48,0 0,-9.12 -0.48,0 0,9.12 z"
                       inkscape:connector-curvature="0" />
                    <path
                       id="path31977"
                       style="fill:#96b5b8;fill-opacity:1;fill-rule:nonzero;stroke:none"
                       d="m 163.71188,712.0507 0.48,0 0,-13.2 -0.48,0 0,13.2 z"
                       inkscape:connector-curvature="0" />
                    <path
                       id="path31979"
                       style="fill:#96b5b8;fill-opacity:1;fill-rule:nonzero;stroke:none"
                       d="m 163.95188,712.0507 289.92,0 0,-0.48 -289.92,0 0,0.48 z"
                       inkscape:connector-curvature="0" />
                    <path
                       id="path31981"
                       style="fill:#96b5b8;fill-opacity:1;fill-rule:nonzero;stroke:none"
                       d="m 453.39188,711.8107 0.48,0 0,-12.96 -0.48,0 0,12.96 z"
                       inkscape:connector-curvature="0" />
                    <path
                       id="path31983"
                       style="fill:#96b5b8;fill-opacity:1;fill-rule:nonzero;stroke:none"
                       d="m 366.21188,712.1107 0.48,0 0,-13.62 -0.48,0 0,13.62 z"
                       inkscape:connector-curvature="0" />
                    <path
                       id="path31985"
                       style="fill:#96b5b8;fill-opacity:1;fill-rule:nonzero;stroke:none"
                       d="m 264.15188,711.6307 0.48,0 0,-13.26 -0.48,0 0,13.26 z"
                       inkscape:connector-curvature="0" />
                    <path
                       id="path31987"
                       style="fill:#000000;fill-opacity:1;fill-rule:nonzero;stroke:none"
                       d="m 367.05188,661.3507 0.48,0 0,-4.68 -0.48,0 0,4.68 z"
                       inkscape:connector-curvature="0" />
                    <path
                       id="path31989"
                       style="fill:#000000;fill-opacity:1;fill-rule:nonzero;stroke:none"
                       d="m 370.05188,660.9907 -0.42,0.24 -2.58,-4.44 0,-0.24 0.24,-0.42 0.18,0.42"
                       inkscape:connector-curvature="0" />
                    <path
                       id="path31991"
                       style="fill:#000000;fill-opacity:1;fill-rule:nonzero;stroke:none"
                       d="m 367.05188,656.5507 0.42,0.24 -2.58,4.44 -0.42,-0.24"
                       inkscape:connector-curvature="0" />
                    <path
                       id="path31993"
                       style="fill:#000000;fill-opacity:1;fill-rule:nonzero;stroke:none"
                       d="m 367.05188,671.3107 0.48,0 0,-10.2 -0.48,0 0,10.2 z"
                       inkscape:connector-curvature="0" />
                    <path
                       id="path31995"
                       style="fill:#000000;fill-opacity:1;fill-rule:evenodd;stroke:none"
                       d="m 367.35188,664.4707 -3.18,6.6 3.18,6.6 3.12,-6.66"
                       inkscape:connector-curvature="0" />
                    <path
                       id="path31997"
                       style="fill:#000000;fill-opacity:1;fill-rule:nonzero;stroke:none"
                       d="m 367.17188,664.3507 -3.18,6.6 0,0.18 3.18,6.6 0.24,0.42 0.18,-0.42 3.12,-6.66 0,-0.18 -0.42,0 -3.12,6.66 0.42,0.18 0,-0.18 -3.18,-6.6 -0.42,0.18 0.42,0 3.18,-6.6"
                       inkscape:connector-curvature="0" />
                    <path
                       id="path31999"
                       style="fill:#000000;fill-opacity:1;fill-rule:nonzero;stroke:none"
                       d="m 370.71188,670.8907 -3.12,-6.54 -0.24,-0.42 -0.18,0.42 0,0.18 3.12,6.54"
                       inkscape:connector-curvature="0" />
                    <text
                       id="text32001"
                       transform="scale(1,-1)"
                       x="372.81189"
                       y="-660.99103">
                      <tspan
                         id="tspan32003"
                         sodipodi:role="line"
                         y="-660.99103"
                         x="372.81189 376.77817 380.79938 383.27167 385.79349 390.26376 392.78558 395.25787 397.77966 401.74597"
                         style="font-size:9px;font-variant:normal;font-weight:normal;writing-mode:lr-tb;fill:#008000;fill-opacity:1;fill-rule:nonzero;stroke:none;font-family:Times New Roman;-inkscape-font-specification:TimesNewRoman">activities</tspan>
                    </text>
                    <text
                       id="text32005"
                       transform="scale(1,-1)"
                       x="357.75189"
                       y="-658.771">
                      <tspan
                         id="tspan32007"
                         y="-658.771"
                         x="357.75189"
                         style="font-size:9.96000004px;font-variant:normal;font-weight:normal;writing-mode:lr-tb;fill:#000000;fill-opacity:1;fill-rule:nonzero;stroke:none;font-family:Times New Roman;-inkscape-font-specification:TimesNewRoman">*</tspan>
                    </text>
                  </g>
                </g>
              </g>
            </g>
          </g>
        </g>
      </g>
    </g>
  </g>
</svg>
