<?xml version="1.0" encoding="UTF-8" standalone="no"?>
<!-- Created with Inkscape (http://www.inkscape.org/) -->

<svg
   xmlns:dc="http://purl.org/dc/elements/1.1/"
   xmlns:cc="http://creativecommons.org/ns#"
   xmlns:rdf="http://www.w3.org/1999/02/22-rdf-syntax-ns#"
   xmlns:svg="http://www.w3.org/2000/svg"
   xmlns="http://www.w3.org/2000/svg"
   xmlns:sodipodi="http://sodipodi.sourceforge.net/DTD/sodipodi-0.dtd"
   xmlns:inkscape="http://www.inkscape.org/namespaces/inkscape"
   width="744.09448819"
   height="1052.3622047"
   id="svg15588"
   version="1.1"
   inkscape:version="0.48.3.1 r9886"
   sodipodi:docname="17.svg">
  <defs
     id="defs15590">
    <clipPath
       id="clipPath15809"
       clipPathUnits="userSpaceOnUse">
      <path
         id="path15811"
         clip-rule="evenodd"
         d="m 37.14,752.54 486,0 0,-3 -486,0 0,3 z" />
    </clipPath>
    <clipPath
       id="clipPath20908"
       clipPathUnits="userSpaceOnUse">
      <path
         id="path20910"
         clip-rule="evenodd"
         d="m 465.12,273.62 31.98,0 0,-32.04 -31.98,0 0,32.04 z" />
    </clipPath>
    <clipPath
       id="clipPath23835"
       clipPathUnits="userSpaceOnUse">
      <path
         id="path23837"
         clip-rule="evenodd"
         d="m 37.14,752.54 486,0 0,-3 -486,0 0,3 z" />
    </clipPath>
    <clipPath
       id="clipPath30347"
       clipPathUnits="userSpaceOnUse">
      <path
         id="path30349"
         clip-rule="evenodd"
         d="m 485.7,373.88 22.14,0 0,-22.08 -22.14,0 0,22.08 z" />
    </clipPath>
    <clipPath
       id="clipPath30273"
       clipPathUnits="userSpaceOnUse">
      <path
         id="path30275"
         clip-rule="evenodd"
         d="m 386.82,368.96 20.64,0 0,-20.64 -20.64,0 0,20.64 z" />
    </clipPath>
    <clipPath
       id="clipPath30259"
       clipPathUnits="userSpaceOnUse">
      <path
         id="path30261"
         clip-rule="evenodd"
         d="m 485.82,396.68 22.14,0 0,-22.08 -22.14,0 0,22.08 z" />
    </clipPath>
    <clipPath
       id="clipPath30245"
       clipPathUnits="userSpaceOnUse">
      <path
         id="path30247"
         clip-rule="evenodd"
         d="m 490.38,484.22 24,0 0,-24 -24,0 0,24 z" />
    </clipPath>
    <clipPath
       id="clipPath30221"
       clipPathUnits="userSpaceOnUse">
      <path
         id="path30223"
         clip-rule="evenodd"
         d="m 37.14,634.52 486,0 0,-448.98 -486,0 0,448.98 z" />
    </clipPath>
    <clipPath
       id="clipPath30205"
       clipPathUnits="userSpaceOnUse">
      <path
         id="path30207"
         clip-rule="evenodd"
         d="m 488.76,541.76 25.02,0 0,-25.02 -25.02,0 0,25.02 z" />
    </clipPath>
    <clipPath
       id="clipPath30179"
       clipPathUnits="userSpaceOnUse">
      <path
         id="path30181"
         clip-rule="evenodd"
         d="m 470.16,458.84 23.22,0 0,-23.22 -23.22,0 0,23.22 z" />
    </clipPath>
  </defs>
  <sodipodi:namedview
     id="base"
     pagecolor="#ffffff"
     bordercolor="#666666"
     borderopacity="1.0"
     inkscape:pageopacity="0.0"
     inkscape:pageshadow="2"
     inkscape:zoom="0.98994949"
     inkscape:cx="325.2203"
     inkscape:cy="821.53776"
     inkscape:document-units="px"
     inkscape:current-layer="g31731"
     showgrid="false"
     inkscape:window-width="1855"
     inkscape:window-height="1176"
     inkscape:window-x="65"
     inkscape:window-y="24"
     inkscape:window-maximized="1" />
  <metadata
     id="metadata15593">
    <rdf:RDF>
      <cc:Work
         rdf:about="">
        <dc:format>image/svg+xml</dc:format>
        <dc:type
           rdf:resource="http://purl.org/dc/dcmitype/StillImage" />
        <dc:title />
      </cc:Work>
    </rdf:RDF>
  </metadata>
  <g
     inkscape:label="Layer 1"
     inkscape:groupmode="layer"
     id="layer1">
    <g
       transform="matrix(1.25,0,0,-1.25,26.705927,1031.7561)"
       inkscape:label="3.1 overview"
       id="g15773">
      <g
         transform="translate(-4.5714277,-0.57137128)"
         inkscape:label="3.1 overview"
         id="g20042">
        <g
           transform="translate(12.367879,-3.1238969)"
           inkscape:label="3.1 overview"
           id="g22049">
          <g
             transform="translate(-57.517156,14.5462)"
             inkscape:label="3.1 overview"
             id="g23342">
            <g
               transform="translate(30.873421,-0.8081221)"
               inkscape:label="3.1 overview"
               id="g23799">
              <g
                 transform="translate(-58.237215,-17.778686)"
                 inkscape:label="3.1 overview"
                 id="g26344">
                <g
                   transform="translate(64.702191,8.8893377)"
                   inkscape:label="3.1 overview"
                   id="g29133">
                  <g
                     transform="translate(-55.358703,-6.4649777)"
                     inkscape:label="3.1 overview"
                     id="g31731">
                    <path
                       id="path32033"
                       style="fill:#ccdee3;fill-opacity:1;fill-rule:nonzero;stroke:none"
                       d="m 277.8777,765.84481 0.12,-0.96 1.98,0.3 -0.12,0.96"
                       inkscape:connector-curvature="0" />
                    <path
                       id="path32035"
                       style="fill:#ccdee3;fill-opacity:1;fill-rule:nonzero;stroke:none"
                       d="m 277.8777,765.84481 -0.06,0.42 0,-0.12 -0.12,0.42 0.06,0 -0.12,0.36 0,-0.18 -0.36,0.72 0.12,-0.18 -0.72,0.9 0.18,-0.12 -0.6,0.48 0.12,-0.06 -0.3,0.18 -0.06,0 -0.36,0.24 0.12,-0.06 -0.36,0.18 0.18,-0.06 -0.42,0.12 -0.18,0.06 -0.36,0.18 0.18,-0.06 -0.42,0.12 -0.48,0.12 -0.42,0.12 0.12,-0.06 -0.48,0.06 -0.42,0.06 -0.96,0.12 0.06,0 -1.02,0.06 0.06,0 -1.02,0 0.06,0 -2.04,-0.12 0.06,0 -2.04,-0.24 0.06,0.06 -1.02,-0.18 -0.96,-0.18 0.12,0 -1.8,-0.48 -0.84,-0.24 -0.78,-0.24 0.12,0.06 -0.66,-0.3 -0.06,-0.06 -0.6,-0.24 0.06,0.06 -0.54,-0.24 0.18,0.06 -0.42,-0.3 -0.06,0 -0.18,-0.12 0.18,0.12 -0.24,-0.24 0.18,0.24 -0.06,-0.12 -0.18,-0.24 -1.38,1.38 -0.24,-0.24 0.06,0.12 0.6,0.6 0.18,0.12 0.42,0.3 0.18,0.12 0.54,0.24 0.6,0.24 -0.06,0 0.66,0.3 0.12,0.06 0.78,0.24 0.06,0 0.84,0.24 1.8,0.48 0.06,0 0.96,0.18 1.02,0.18 0.06,0 2.04,0.24 0.06,0 2.04,0.12 1.14,0 1.02,-0.06 0.06,0 0.96,-0.12 0.06,0 0.42,-0.06 -0.06,0 0.48,-0.06 0.18,0 0.42,-0.12 -0.06,0 0.48,-0.12 0.06,0 0.42,-0.12 0.18,-0.06 0.36,-0.18 -0.18,0.06 0.42,-0.12 0.18,-0.06 0.36,-0.18 0.06,-0.12 0.36,-0.24 0,0.06 0.3,-0.18 0.12,-0.06 0.6,-0.48 0.12,-0.18 0.72,-0.9 0.12,-0.18 0.42,-0.84 0.12,-0.36 0,-0.06 0.12,-0.42 0.06,-0.12 0.06,-0.42"
                       inkscape:connector-curvature="0" />
                    <path
                       id="path32037"
                       style="fill:#ccdee3;fill-opacity:1;fill-rule:nonzero;stroke:none"
                       d="m 258.3777,766.92481 -0.06,-0.06 0.3,0.72 0,-0.24 -0.3,0.66 0.06,-0.06 0.18,-0.24 0.06,-0.12 -0.42,0.48 0.12,-0.06 -0.06,0 0.54,-0.24 0.06,-0.06 0.54,-0.3 -0.06,0.06 0.54,-0.24 -0.06,0 0.6,-0.24 0.66,-0.24 0.06,0 0.66,-0.3 -0.06,0 0.66,-0.24 -0.06,0 0.72,-0.24 -0.06,0.06 0.72,-0.18 0.06,0 0.78,-0.24 -0.06,0 0.72,-0.18 1.56,-0.36 -0.06,0 2.34,-0.36 -0.06,0 0.78,-0.06 0.78,-0.06 -0.12,0 2.22,0 -0.06,0 0.72,0.06 -0.12,0 1.32,0.24 -0.06,0 0.6,0.18 -0.12,-0.06 1.2,0.48 -0.24,-0.12 0.24,0.18 0.24,0.12 0.3,0.12 -0.24,-0.12 0.72,0.54 -0.18,-0.18 0.18,0.24 0.18,0.18 0.24,0.18 -0.18,-0.18 0.18,0.24 1.56,-1.2 -0.18,-0.24 -0.18,-0.18 -0.24,-0.18 0.18,0.18 -0.18,-0.24 -0.18,-0.18 -0.96,-0.72 -0.3,-0.12 0.24,0.18 -0.48,-0.36 -1.2,-0.48 -0.06,0 -0.6,-0.18 -0.12,0 -1.32,-0.24 -0.06,-0.06 -0.72,-0.06 -2.4,0 -1.56,0.12 -0.06,0 -2.34,0.36 -0.06,0.06 -1.56,0.36 -0.06,0 -0.72,0.18 -0.06,0 -0.78,0.24 0.06,0 -0.72,0.18 -0.06,0 -0.72,0.24 -0.66,0.24 -0.12,0.06 -0.66,0.3 0.12,-0.06 -0.66,0.24 -0.06,0 -0.6,0.24 0,0.06 -0.54,0.24 -0.12,0 -0.54,0.3 0.12,0 -0.54,0.24 -0.06,0 -0.12,0.06 -0.48,0.42 -0.06,0.12 0.24,-0.24 -0.06,0.06 -0.3,0.72 0,0.24 0.3,0.66 0.06,0.06"
                       inkscape:connector-curvature="0" />
                    <path
                       id="path32039"
                       style="fill:#ccdee3;fill-opacity:1;fill-rule:nonzero;stroke:none"
                       d="m 277.5777,766.68481 0.18,0.24 1.56,-1.2 -0.18,-0.24"
                       inkscape:connector-curvature="0" />
                    <path
                       id="path32041"
                       style="fill:#ccdee3;fill-opacity:1;fill-rule:nonzero;stroke:none"
                       d="m 277.9377,767.16481 0.6,0.78 1.56,-1.2 -0.6,-0.78"
                       inkscape:connector-curvature="0" />
                    <path
                       id="path32043"
                       style="fill:#ccdee3;fill-opacity:1;fill-rule:nonzero;stroke:none"
                       d="m 277.7577,766.92481 1.56,-1.2 0.18,0.24 -1.56,1.2"
                       inkscape:connector-curvature="0" />
                    <path
                       id="path32045"
                       style="fill:#ccdee3;fill-opacity:1;fill-rule:nonzero;stroke:none"
                       d="m 292.9377,745.08481 0.66,-0.72 1.44,1.38 -0.66,0.72"
                       inkscape:connector-curvature="0" />
                    <path
                       id="path32047"
                       style="fill:#ccdee3;fill-opacity:1;fill-rule:nonzero;stroke:none"
                       d="m 292.9377,745.08481 -0.96,1.02 0,0.06 -0.84,0.96 -0.9,1.02 -0.06,0 -1.56,1.92 0.06,0 -0.78,0.9 -0.06,0 -0.72,0.9 0,0.06 -0.66,0.9 -0.66,0.84 -0.66,0.9 -1.14,1.62 0,0.06 -1.08,1.62 -0.06,0 -1.02,1.56 -0.9,1.5 0,0.06 -0.78,1.44 -0.78,1.38 -0.06,0 -1.32,2.64 0,0.06 -0.6,1.26 -0.54,1.26 -0.54,1.2 -1.92,4.68 -0.96,2.28 0,-0.06 -0.54,1.08 0,0.06 -0.54,1.14 0.06,-0.06 -1.2,2.28 0,-0.06 -1.44,2.28 0.06,-0.06 -1.26,1.8 0,-0.06 -0.96,1.2 0,0.06 -0.48,0.66 0.06,-0.06 -0.54,0.6 -0.06,0 -0.54,0.66 0.12,-0.06 -0.6,0.6 -0.42,0.54 0.12,-0.12 -0.48,0.48 0,-0.06 -0.48,0.42 0,0.06 1.38,1.38 -0.06,0.06 0.48,-0.42 0.6,-0.6 0.42,-0.54 -0.06,0.06 0.54,-0.54 0.54,-0.66 0,0.06 0.54,-0.6 0.06,-0.12 0.48,-0.66 -0.06,0.06 0.96,-1.2 0.06,-0.06 1.26,-1.8 1.44,-2.28 0.06,-0.12 1.2,-2.28 0.54,-1.14 0.54,-1.08 0,-0.06 0.96,-2.28 0.06,0 1.92,-4.68 -0.06,0.06 0.54,-1.2 0,-0.06 0.54,-1.26 0,0.06 0.6,-1.26 1.32,-2.64 0,0.06 0.78,-1.38 0.78,-1.44 -0.06,0 0.9,-1.5 0,0.06 1.02,-1.56 1.08,-1.62 1.14,-1.62 0,0.06 0.66,-0.9 -0.06,0 0.66,-0.84 0.06,0 0.66,-0.9 -0.06,0 0.72,-0.9 0,0.06 0.78,-0.9 0,-0.06 1.56,-1.92 0,0.06 0.9,-1.02 0.84,-0.96 -0.06,0 0.96,-1.02"
                       inkscape:connector-curvature="0" />
                    <path
                       id="path32049"
                       style="fill:#ccdee3;fill-opacity:1;fill-rule:nonzero;stroke:none"
                       d="m 264.3177,790.50481 -0.54,0.54 -0.42,0.48 0.06,-0.12 -0.96,0.84 0.06,0 -1.02,0.78 -0.96,0.78 -1.02,0.78 0.06,-0.06 -1.02,0.66 0.06,0 -1.08,0.66 -1.02,0.6 0.06,-0.06 -2.16,1.08 0.06,0 -1.08,0.48 0.06,-0.06 -1.14,0.42 -0.06,0 -1.08,0.42 0.06,0 -2.28,0.72 0.06,0 -1.08,0.3 0.06,0 -1.14,0.24 -1.2,0.24 0.06,-0.06 -2.28,0.36 0.06,0 -1.14,0.12 -1.14,0.12 -1.2,0.06 0.06,0 -3.42,0 0.06,0 -1.2,-0.06 0.06,0 -1.14,-0.12 -1.14,-0.12 -1.14,-0.12 0.06,0 -1.14,-0.18 -1.08,-0.18 0.06,0.06 -1.14,-0.24 -1.08,-0.24 -1.14,-0.24 0.06,0 -1.08,-0.3 -1.08,-0.36 -1.08,-0.3 0.06,0 -1.02,-0.36 -0.72,1.86 0.06,0 1.02,0.36 0.06,0.06 1.08,0.3 -0.06,-0.06 1.08,0.36 0.06,0.06 1.08,0.3 0.06,0 1.14,0.24 1.08,0.24 1.14,0.24 0.06,0 1.08,0.18 1.14,0.18 0.06,0 3.42,0.36 1.2,0.06 3.54,0 1.2,-0.06 0.06,0 2.28,-0.24 0.06,0 2.28,-0.36 1.2,-0.24 0.06,0 1.14,-0.24 0.06,0 1.08,-0.3 0,-0.06 2.28,-0.72 0.06,0 1.08,-0.42 1.14,-0.42 0.06,0 1.08,-0.48 0.06,0 2.16,-1.08 0.06,-0.06 1.02,-0.6 1.08,-0.66 1.02,-0.66 0.06,-0.06 1.02,-0.78 0.06,0 0.96,-0.78 -0.06,0 1.02,-0.78 0.06,-0.06 0.96,-0.84 0.12,-0.06 0.42,-0.48 -0.06,0 0.48,-0.48"
                       inkscape:connector-curvature="0" />
                    <path
                       id="path32051"
                       style="fill:#ccdee3;fill-opacity:1;fill-rule:nonzero;stroke:none"
                       d="m 222.5577,798.06481 -1.08,-0.42 -1.02,-0.36 0.06,0 -1.02,-0.42 0.06,0.06 -3.84,-1.92 -0.9,-0.48 0.06,0.06 -1.8,-1.08 0.06,0 -0.84,-0.6 -0.06,0 -0.84,-0.54 0.06,0 -0.84,-0.6 0,0.06 -1.56,-1.2 0.06,0.06 -1.44,-1.32 -0.66,-0.6 0.06,0 -0.66,-0.66 0.06,0.06 -0.6,-0.72 -0.06,0 -1.2,-1.32 0.12,0.12 -0.48,-0.72 0,-0.06 -1.02,-1.38 0,0.06 -1.92,-2.88 0.06,0.06 -0.84,-1.5 0,-0.06 -0.84,-1.44 0,0.06 -0.78,-1.5 0,0.06 -0.72,-1.5 -1.32,-3 0.06,0.06 -0.6,-1.5 -0.54,-1.5 -0.54,-1.56 0,0.06 -0.42,-1.5 -0.42,-1.56 -0.42,-1.5 0,0.12 -0.3,-1.56 -0.3,-1.5 -0.3,-1.56 0.06,0.06 -1.98,0.24 0,0.06 0.3,1.56 0.3,1.5 0.3,1.56 0,0.06 0.42,1.5 0.42,1.56 0.42,1.5 0.06,0.06 0.54,1.56 0.54,1.5 0,0.06 0.6,1.5 1.32,3 0,0.06 0.72,1.5 0.06,0 0.78,1.5 0,0.06 0.84,1.44 0.84,1.5 0.06,0.06 1.92,2.88 0,0.06 1.02,1.38 0,-0.06 0.48,0.72 0.06,0.12 1.2,1.32 0,-0.06 0.6,0.72 0.06,0.06 0.66,0.66 0,0.06 0.66,0.6 1.44,1.32 0.06,0.06 1.56,1.2 0.06,0 0.84,0.6 0,0.06 0.84,0.54 0,-0.06 0.84,0.6 0.06,0.06 1.8,1.08 0.9,0.48 0.06,0.06 3.84,1.92 0.06,0 1.02,0.42 0.06,0 1.02,0.36 -0.06,0 1.08,0.42"
                       inkscape:connector-curvature="0" />
                    <path
                       id="path32053"
                       style="fill:#ccdee3;fill-opacity:1;fill-rule:nonzero;stroke:none"
                       d="m 193.1577,759.00481 -0.36,-3 -0.12,-1.56 -0.12,-1.5 0,0.06 -0.06,-1.5 0,0.06 0,-3 0.06,-1.44 0,0.06 0.12,-1.5 0.24,-2.88 0,0.06 0.24,-1.44 0,0.06 0.48,-2.76 -0.06,0 0.3,-1.38 0,0.06 0.36,-1.38 0.36,-1.32 0,0.06 0.42,-1.32 0.48,-1.32 0.42,-1.26 -0.06,0.06 0.54,-1.26 0,0.06 1.08,-2.4 0.6,-1.2 0,0.06 0.66,-1.14 -0.06,0 0.66,-1.08 0.06,0 0.66,-1.14 -0.06,0.06 1.44,-2.04 -0.06,0.06 0.78,-1.02 0,0.06 0.84,-0.96 0.78,-0.9 -0.06,0 1.74,-1.74 -0.06,0.06 0.48,-0.42 0.48,-0.48 -0.12,0.12 0.48,-0.36 0.06,-0.06 0.48,-0.42 -0.06,0.06 0.96,-0.72 -1.14,-1.62 -0.06,0.06 -0.96,0.72 -0.06,0 -0.48,0.42 0.06,0 -0.48,0.36 -0.48,0.48 0,-0.06 -0.48,0.42 0,0.06 -1.8,1.8 -0.78,0.9 -0.84,0.96 -0.06,0.06 -0.78,1.02 -1.44,2.04 -0.06,0.06 -0.66,1.14 -0.66,1.08 -0.66,1.14 -0.06,0.06 -0.6,1.2 0,0.06 -1.08,2.4 -0.54,1.26 0,0.12 -0.42,1.26 0,-0.06 -0.48,1.32 0,0.06 -0.42,1.32 -0.06,0 -0.36,1.32 0,0.06 -0.36,1.38 -0.3,1.38 0,0.06 -0.48,2.76 -0.24,1.44 0,0.06 -0.24,2.88 -0.12,1.5 0,0.06 -0.06,1.44 0,3.06 0.06,1.5 0,0.06 0.12,1.5 0.12,1.56 0,0.06 0.36,3"
                       inkscape:connector-curvature="0" />
                    <path
                       id="path32055"
                       style="fill:#ccdee3;fill-opacity:1;fill-rule:nonzero;stroke:none"
                       d="m 208.1577,714.12481 0.96,-0.66 -0.06,0.06 1.02,-0.66 1.02,-0.6 -0.06,0 1.08,-0.6 -0.06,0.06 2.16,-0.96 -0.06,0 1.08,-0.42 1.14,-0.42 -0.12,0.06 1.2,-0.3 0.06,-0.06 0.18,-0.06 0.24,-0.12 0.18,-0.12 -0.24,0.12 0.18,-0.06 0.42,-0.24 0.42,-0.42 0.24,-0.36 0.12,-0.24 0.06,-0.18 0,-0.06 0.06,-0.24 0,0.06 0.12,-0.36 0.12,-1.08 0,-0.84 -0.12,-1.32 0,-0.06 -0.24,-1.44 -0.06,0 -0.6,-3.12 0.06,0 -0.24,-1.56 0,0.06 -0.06,-0.72 -0.06,-0.78 -0.06,-0.72 0,0.12 0,-0.72 0,0.06 0.06,-0.66 -0.06,0.12 0.18,-0.9 0,0.18 0.12,-0.3 0,-0.12 0.06,-0.24 -0.06,0.18 0.24,-0.48 -0.12,0.18 0.36,-0.48 -0.06,0.06 0.18,-0.18 -1.38,-1.38 -0.3,0.3 -0.36,0.48 -0.12,0.12 -0.24,0.48 -0.12,0.48 0.06,-0.12 -0.12,0.3 -0.06,0.18 -0.18,0.9 0,0.06 -0.06,0.66 0,0.9 0.06,0.72 0.06,0.78 0.06,0.72 0,0.06 0.24,1.56 0,0.06 0.6,3.12 0,-0.06 0.24,1.44 0,-0.06 0.12,1.32 0,-0.06 0,0.6 0,-0.12 -0.12,1.08 0.06,-0.18 -0.06,0.18 -0.06,0.06 -0.06,0.24 0.06,-0.06 -0.06,0.18 0.12,-0.24 -0.24,0.36 0.12,-0.18 -0.3,0.3 0.36,-0.24 -0.18,0.06 -0.24,0.12 -0.18,0.12 0.24,-0.12 -0.18,0.06 0.06,0 -1.2,0.3 -0.06,0 -1.14,0.42 -0.06,0 -1.08,0.42 0,0.06 -2.16,0.96 -0.12,0 -1.08,0.6 0,0.06 -1.02,0.6 -0.06,0 -1.02,0.66 -0.96,0.66"
                       inkscape:connector-curvature="0" />
                    <path
                       id="path32057"
                       style="fill:#ccdee3;fill-opacity:1;fill-rule:nonzero;stroke:none"
                       d="m 219.1377,692.58481 0.18,-0.18 -0.12,0.12 0.24,-0.18 -0.12,0.12 0.24,-0.12 -0.12,0 0.9,-0.36 -0.18,0.06 0.36,-0.06 0.36,-0.06 -0.12,0 2.52,-0.18 0.06,0 2.94,-0.24 -0.06,0 3.24,-0.24 3.48,-0.24 3.6,-0.12 1.8,-0.12 -0.06,0 1.92,0 1.8,-0.06 -0.06,0 3.6,0 1.8,0.06 1.68,0.06 -0.06,0 1.68,0.12 1.56,0.12 -0.06,0 1.56,0.18 -0.06,0 1.38,0.24 1.38,0.24 0.6,0.12 0.6,0.12 -0.06,0 0.6,0.18 -0.06,-0.06 0.54,0.18 -0.06,0 0.96,0.36 0.42,0.18 -0.12,-0.06 0.42,0.24 -0.06,-0.06 0.72,0.48 -0.06,0 0.3,0.24 -0.18,-0.18 0.24,0.3 0.18,0.24 -0.06,-0.12 0.18,0.3 -0.06,-0.12 0.12,0.3 -0.06,-0.24 0.06,0.36 1.98,-0.3 -0.06,-0.36 -0.06,-0.18 -0.12,-0.3 -0.12,-0.18 -0.18,-0.3 -0.06,-0.06 -0.18,-0.24 0,-0.06 -0.24,-0.3 -0.12,-0.12 -0.3,-0.24 -0.12,-0.06 -0.72,-0.48 -0.06,-0.06 -0.42,-0.24 -0.06,0 -0.42,-0.18 -0.06,-0.06 -0.96,-0.36 -0.06,0 -0.54,-0.18 -0.6,-0.18 -0.12,0 -0.6,-0.12 -0.6,-0.12 0,-0.06 -2.76,-0.48 -0.06,0 -1.56,-0.18 -1.56,-0.12 -0.06,0 -1.68,-0.12 -1.68,-0.06 -1.8,-0.06 -3.66,0 -1.8,0.06 -1.92,0 -1.8,0.12 0.06,0 -3.6,0.12 -0.06,0 -3.48,0.24 -3.24,0.24 -2.94,0.24 -2.52,0.18 -0.06,0 -0.36,0.06 -0.36,0.06 -0.24,0.06 -0.3,0.12 -0.3,0.12 -0.3,0.12 -0.06,0.06 -0.24,0.12 -0.18,0.12 -0.24,0.18 -0.24,0.24"
                       inkscape:connector-curvature="0" />
                    <path
                       id="path32059"
                       style="fill:#ccdee3;fill-opacity:1;fill-rule:nonzero;stroke:none"
                       d="m 261.5577,694.50481 0.06,0.36 0,-0.12 0,0.3 0,-0.18 -0.06,0.42 0.06,-0.12 -0.12,0.36 0,-0.06 -0.18,0.48 -0.06,0.12 -0.12,0.54 0,-0.06 -0.18,0.6 0,0.18 -0.06,0.66 0,-0.06 -0.12,0.66 0,0.06 -0.06,0.72 -0.12,1.56 0,1.02 0.06,0.84 0,-0.06 0,0.9 0.06,0.84 0,0.06 0.12,0.9 0.24,1.68 0,0.06 0.18,0.84 0,0.06 0.24,0.84 0,0.06 0.24,0.78 0.06,0.06 0.6,1.56 0.06,0.12 0.36,0.66 -0.06,-0.06 0.36,0.72 0.06,0.06 0.18,0.3 0.06,0.12 0.48,0.6 0.12,0.06 0.24,0.24 -0.12,-0.06 0.24,0.3 0.12,0.06 0.24,0.24 0.06,0.12 0.3,0.24 0.24,0.18 0.12,0.06 0.9,0.54 0.18,0.06 0.36,0.12 -0.18,-0.06 0.3,0.18 0.36,0.12 0.36,0.06 -0.18,-0.06 0.6,-1.86 -0.12,-0.06 -0.36,-0.06 0.36,0.18 -0.3,-0.18 -0.24,-0.12 -0.36,-0.12 0.24,0.12 -0.9,-0.54 0.06,0.06 -0.24,-0.18 0.06,0 -0.3,-0.24 0.06,0.06 -0.24,-0.24 0.06,0.06 -0.24,-0.3 -0.3,-0.3 0.06,0.06 -0.48,-0.6 0.06,0.12 -0.18,-0.3 0.06,0.06 -0.36,-0.72 -0.36,-0.66 0.06,0.12 -0.6,-1.56 0,0.06 -0.24,-0.78 -0.24,-0.84 0,0.06 -0.18,-0.84 0.06,0.06 -0.24,-1.68 0,0.06 -0.12,-0.9 0,0.06 -0.06,-0.84 0,0.06 0,-0.9 -0.06,-0.84 0,0.06 0,-0.84 0,0.06 0.12,-1.56 0.06,-0.72 -0.06,0.12 0.12,-0.66 0.06,-0.12 0.06,-0.66 -0.06,0.18 0.18,-0.6 0,-0.06 0.12,-0.54 0,0.18 0.18,-0.48 0,-0.06 0.18,-0.54 0.06,-0.42 0,-0.6 -0.06,-0.36"
                       inkscape:connector-curvature="0" />
                    <path
                       id="path32061"
                       style="fill:#ccdee3;fill-opacity:1;fill-rule:nonzero;stroke:none"
                       d="m 267.5577,716.28481 0.54,0.18 0.36,0.06 1.8,0 1.74,-0.18 -0.06,0 1.62,-0.12 1.5,-0.06 -0.06,0 2.7,0 -0.06,0 1.2,0.06 -0.06,0 1.08,0.12 1.02,0.12 -0.06,0 0.96,0.18 -0.06,0 0.42,0.12 0.42,0.12 -0.06,-0.06 0.36,0.12 -0.12,0 0.36,0.18 0.12,0 0.36,0.12 -0.12,0 0.36,0.18 -0.06,-0.06 0.6,0.36 -0.12,-0.06 0.48,0.36 -0.06,-0.12 0.24,0.24 0.06,0.12 0.24,0.18 -0.06,-0.12 0.24,0.24 -0.12,-0.06 0.36,0.48 -0.12,-0.24 0.12,0.3 0.12,0.24 0.18,0.24 -0.12,-0.24 0.12,0.3 0,0.06 0.12,0.24 -0.06,-0.24 0.06,0.3 0.06,0.18 0.12,0.3 -0.06,-0.18 0.06,0.3 0.12,0.66 0,-0.12 0.06,0.66 0,-0.06 0,1.5 0,-0.12 1.98,0.18 0,-1.68 -0.06,-0.66 -0.06,-0.06 -0.12,-0.66 -0.06,-0.3 0,-0.18 -0.12,-0.3 0,0.18 -0.12,-0.6 -0.12,-0.24 0.06,0.12 -0.12,-0.3 -0.36,-0.48 0.18,0.24 -0.12,-0.3 -0.54,-0.72 -0.06,-0.12 -0.24,-0.24 -0.12,-0.06 -0.24,-0.18 0.12,0.06 -0.24,-0.24 -0.12,-0.06 -0.48,-0.36 -0.06,-0.06 -0.6,-0.36 -0.06,-0.06 -0.36,-0.18 -0.18,-0.06 -0.36,-0.12 0.18,0.06 -0.36,-0.18 -0.54,-0.18 -0.84,-0.24 -0.12,0 -0.96,-0.18 -0.06,-0.06 -1.02,-0.12 -1.08,-0.12 -0.06,0 -1.2,-0.06 -2.76,0 -1.5,0.06 -0.06,0 -1.62,0.12 -1.74,0.18 0.06,0 -1.56,0 0.18,0 -0.36,-0.06 0.12,0.06 -0.36,-0.12"
                       inkscape:connector-curvature="0" />
                    <path
                       id="path32063"
                       style="fill:#ccdee3;fill-opacity:1;fill-rule:nonzero;stroke:none"
                       d="m 286.3977,723.06481 -0.12,1.56 0,-0.06 -0.12,0.84 0,-0.06 -0.18,0.84 0,0.06 -0.18,0.9 -0.18,0.96 0,-0.06 -0.42,1.92 -0.12,0.48 0,0.06 -0.12,0.6 0,0.06 -0.18,1.62 -0.18,1.92 -0.18,2.04 -0.48,6.24 0,0.3 0.3,0.66 0.12,0.12 0.66,0.3 0.06,0 -0.3,-0.06 0.18,0.06 0.3,0.06 0.6,0 0.6,-0.12 0.06,0 1.5,-0.36 -0.06,0 0.84,-0.12 0.42,-0.06 -0.06,0 0.48,-0.06 0.06,0 0.42,-0.06 -0.18,0 0.42,0 -0.12,0 0.42,0.06 0.54,0 -0.3,-0.06 0.36,0.12 0.36,0.12 -0.12,0 0.36,0.18 -0.12,-0.12 0.18,0.12 -0.12,-0.12 0.24,0.24 0.18,0.12 -0.12,-0.12 0.12,0.12 -0.12,-0.12 0.36,0.54 -0.12,-0.24 0.06,0.18 0,0.12 1.8,-0.9 0.06,0.18 -0.06,-0.18 -0.12,-0.24 -0.48,-0.72 -0.12,-0.12 -0.36,-0.24 0.18,0.12 -0.12,-0.12 -0.18,-0.12 -0.18,-0.12 -0.06,-0.06 -0.36,-0.18 -0.18,-0.06 -0.72,-0.24 -0.3,-0.06 -0.42,0 0.18,0 -0.42,-0.06 -0.72,0 -0.42,0.06 -0.48,0.06 -1.26,0.18 -0.12,0.06 -1.5,0.36 0.06,0 -0.6,0.12 0.18,-0.06 -0.42,0 0.3,0.06 -0.18,-0.06 -0.3,-0.06 -0.06,0 0.72,0.3 -0.12,-0.12 0.3,0.72 0,-0.18 0,0.06 0.48,-6.24 0.18,-2.04 0.18,-1.92 0,0.06 0.18,-1.62 -0.06,0.06 0.12,-0.6 0,0.06 0.12,-0.48 0,-0.06 0.42,-1.92 0.18,-0.96 0.18,-0.9 0.18,-0.84 0.06,-0.06 0.12,-0.84 0,-0.06 0.12,-1.56"
                       inkscape:connector-curvature="0" />
                    <path
                       id="path32065"
                       style="fill:#ccdee3;fill-opacity:1;fill-rule:nonzero;stroke:none"
                       d="m 292.3977,744.78481 0.12,0.24 -0.06,-0.18 0.12,0.48 0,-0.06 0.12,0.6 0,-0.18 0,0.96 1.98,0 0,-0.96 -0.06,-0.18 -0.12,-0.6 0,-0.06 -0.18,-0.72 -0.12,-0.24"
                       inkscape:connector-curvature="0" />
                    <path
                       id="path32067"
                       style="fill:#ccdee3;fill-opacity:1;fill-rule:nonzero;stroke:none"
                       d="m 292.6977,748.38481 1.98,0 0,-1.74 -1.98,0 0,1.74 z"
                       inkscape:connector-curvature="0" />
                    <path
                       id="path32069"
                       style="fill:#33f50d;fill-opacity:1;fill-rule:evenodd;stroke:none"
                       d="m 255.3777,726.60481 -0.24,0 -0.54,-0.18 -0.12,-0.18 -0.12,-0.12 -0.12,-0.36 0,-0.42 0.06,-0.18 0.12,-0.18 0.12,-0.12 0.36,-0.24 0.18,0 0.18,-0.06 0.24,0.06 0.18,0.06 0.12,0.12 0.18,0.12 0.12,0.12 0.06,0.18 0.06,0.24 0,0.36 -0.12,0.18 -0.06,0.18 -0.12,0.12 -0.36,0.24 -0.18,0.06"
                       inkscape:connector-curvature="0" />
                    <path
                       id="path32071"
                       style="fill:#33f50d;fill-opacity:1;fill-rule:nonzero;stroke:none"
                       d="m 255.2577,725.58481 -3.6,0.54 -0.84,0.12 0.54,0.66 4.5,5.7 0.54,0.72 0.36,-0.78 2.7,-6.72 0.3,-0.84 -0.9,0.12 -0.42,0.3 -2.7,6.72 1.02,0.42 -0.12,-0.54 -4.5,-5.7 -0.78,0.6 0.42,0.24 3.6,-0.54"
                       inkscape:connector-curvature="0" />
                    <path
                       id="path32073"
                       style="fill:#33f50d;fill-opacity:1;fill-rule:nonzero;stroke:none"
                       d="m 258.8577,725.10481 -3.6,0.48 0.12,1.02 3.6,-0.48"
                       inkscape:connector-curvature="0" />
                    <path
                       id="path32075"
                       style="fill:#33f50d;fill-opacity:1;fill-rule:evenodd;stroke:none"
                       d="m 255.3177,726.06481 -3.6,0.54 4.5,5.7 2.7,-6.72"
                       inkscape:connector-curvature="0" />
                    <path
                       id="path32077"
                       style="fill:#33f50d;fill-opacity:1;fill-rule:nonzero;stroke:none"
                       d="m 252.4377,759.24481 0.36,-0.9 1.8,0.78 -0.36,0.9"
                       inkscape:connector-curvature="0" />
                    <path
                       id="path32079"
                       style="fill:#33f50d;fill-opacity:1;fill-rule:nonzero;stroke:none"
                       d="m 252.4377,759.24481 -0.36,0.84 0.06,-0.06 -0.48,0.84 0,-0.06 -0.96,1.56 0.06,0 -0.48,0.72 0,-0.06 -0.54,0.72 0.06,-0.06 -0.6,0.72 -0.6,0.66 0.06,-0.06 -1.2,1.2 -0.66,0.6 0.06,-0.06 -0.66,0.54 -0.72,0.54 0.06,-0.06 -0.66,0.48 -0.72,0.48 0.06,-0.06 -0.78,0.42 -0.72,0.42 -0.78,0.42 0.06,0 -1.56,0.72 0.06,-0.06 -0.78,0.3 0.06,0 -1.68,0.6 0.06,0 -0.84,0.24 0.06,0 -0.84,0.18 -0.06,0 -0.84,0.24 0.06,0 -0.84,0.18 0.06,-0.06 -0.84,0.12 -0.9,0.12 -0.84,0.12 0.06,0 -1.8,0.12 0.06,0 -2.64,0 0.06,0 -0.84,-0.06 -1.8,-0.12 0.12,0 -0.84,-0.12 -0.06,0 -0.9,-0.12 0.12,0.06 -0.84,-0.18 -0.42,1.92 0.84,0.18 0.06,0 0.9,0.12 0.84,0.12 0.06,0 1.8,0.12 0.84,0.06 2.76,0 1.8,-0.12 0.12,0 0.84,-0.12 -0.06,0 0.9,-0.12 0.06,0 0.84,-0.12 0.06,0 0.84,-0.18 0.06,0 0.84,-0.24 -0.06,0 0.84,-0.18 0.06,0 0.84,-0.24 0.06,-0.06 1.68,-0.6 0.78,-0.3 0.06,0 1.56,-0.72 0.06,-0.06 0.78,-0.42 0.06,0 0.72,-0.42 -0.06,0 0.78,-0.42 0.06,-0.06 0.72,-0.48 0.06,0 0.66,-0.48 0.72,-0.54 0.06,0 0.66,-0.54 0,-0.06 0.66,-0.6 0.06,-0.06 1.2,-1.2 0.6,-0.66 0.06,-0.06 0.6,-0.72 0.54,-0.72 0.06,-0.06 0.48,-0.72 0,-0.06 0.96,-1.56 0.06,0 0.48,-0.84 0,-0.12 0.36,-0.84"
                       inkscape:connector-curvature="0" />
                    <path
                       id="path32081"
                       style="fill:#33f50d;fill-opacity:1;fill-rule:nonzero;stroke:none"
                       d="m 223.0377,772.20481 -0.84,-0.18 -0.06,0 -0.9,-0.18 0.12,0 -2.52,-0.72 0.06,0 -0.78,-0.3 -0.84,-0.3 0.06,0.06 -2.34,-1.08 0.06,0 -0.78,-0.42 0.06,0 -2.16,-1.26 0.06,0.06 -0.66,-0.48 0,0.06 -0.72,-0.54 0,-0.06 -0.66,-0.48 0.06,0.06 -0.6,-0.54 0,0.06 -0.66,-0.6 0,-0.06 -0.6,-0.54 0.12,0.12 -1.08,-1.2 -0.54,-0.66 0,0.06 -0.66,-0.84 0.06,0.06 -0.54,-0.84 0,-0.06 -0.6,-0.84 0.06,0.12 -0.48,-0.84 -0.06,-0.06 -0.54,-0.84 0.06,0.12 -0.42,-0.9 0,-0.06 -0.42,-0.84 0,0.06 -0.42,-0.9 0.06,0.06 -0.36,-0.9 0,0.06 -0.6,-1.8 -0.48,-1.8 0,0.06 -0.24,-0.96 0,0.06 -0.18,-0.9 0.06,0.06 -0.12,-0.96 -0.12,-0.9 -0.12,-0.96 0,0.06 -1.98,0.12 0,0.06 0.12,0.96 0.12,0.9 0.12,0.96 0,0.06 0.18,0.9 0,0.06 0.24,0.96 0.48,1.8 0.06,0.06 0.6,1.8 0,0.06 0.36,0.9 0,0.06 0.42,0.9 0.42,0.84 0.42,0.9 0.06,0.12 0.54,0.84 0,-0.06 0.48,0.84 0.06,0.06 0.6,0.84 -0.06,0 0.54,0.84 0.06,0.06 0.66,0.84 0.54,0.66 0.06,0.06 1.08,1.2 0.06,0.06 0.6,0.54 0.66,0.6 0.6,0.54 0.12,0.06 0.66,0.48 -0.06,0 0.72,0.54 0.06,0 0.66,0.48 0.06,0.06 2.16,1.26 0.78,0.42 0.06,0.06 2.34,1.08 0.12,0 0.84,0.3 -0.06,0 0.78,0.3 0.12,0.06 2.52,0.72 0.06,0 0.9,0.18 0.84,0.18"
                       inkscape:connector-curvature="0" />
                    <path
                       id="path32083"
                       style="fill:#33f50d;fill-opacity:1;fill-rule:nonzero;stroke:none"
                       d="m 200.8377,747.60481 -0.06,-0.9 0,0.06 0,-1.02 -0.06,-0.9 0,0.12 0.06,-0.96 0,-0.96 0,0.06 0.06,-0.96 0,0.06 0.24,-1.8 0.12,-0.96 -0.06,0.06 0.18,-0.9 0.06,-0.06 0.12,-0.9 -0.06,0.12 0.24,-0.9 0,-0.06 0.18,-0.9 0,0.06 0.24,-0.9 0,0.06 0.3,-0.84 0,-0.06 0.24,-0.9 0,0.06 0.3,-0.84 -0.06,0.06 0.36,-0.84 0.06,-0.06 0.3,-0.84 -0.06,0.06 0.72,-1.68 0,0.12 0.42,-0.78 0,-0.06 0.42,-0.84 0.36,-0.78 -0.06,0.12 0.48,-0.72 0.06,-0.06 0.42,-0.78 -0.06,0.06 1.44,-2.16 0.48,-0.66 -0.06,0.06 0.54,-0.66 0.06,-0.06 0.48,-0.66 -0.06,0.12 1.62,-1.8 -0.06,0 1.14,-1.14 -0.06,0.12 0.6,-0.48 0,-0.06 0.6,-0.54 -0.06,0.06 0.6,-0.42 0.06,0 0.6,-0.48 -0.06,0 -1.14,-1.62 -0.06,0.06 -0.6,0.48 0.06,-0.06 -0.6,0.42 -0.12,0.06 -0.6,0.54 0.06,0 -0.6,0.48 -1.2,1.2 -0.06,0.06 -1.62,1.8 -0.06,0.06 -0.48,0.66 0,-0.06 -0.54,0.66 0,0.06 -0.48,0.66 0,0.06 -1.44,2.16 -0.06,0.06 -0.42,0.78 0.06,-0.06 -0.48,0.72 -0.12,0.12 -0.36,0.78 0,-0.06 -0.42,0.84 0.06,0 -0.42,0.78 -0.06,0.06 -0.72,1.68 0,0.06 -0.3,0.84 0,-0.06 -0.36,0.84 0,0.06 -0.3,0.84 -0.06,0.06 -0.24,0.9 0.06,-0.06 -0.3,0.84 -0.06,0.06 -0.24,0.9 0,0.12 -0.18,0.9 0,-0.12 -0.24,0.9 0,0.18 -0.12,0.9 0,-0.06 -0.18,0.9 0,0.06 -0.12,0.96 -0.24,1.8 0,0.06 -0.06,0.96 0,0.96 0,-0.06 -0.06,0.96 0,0.12 0.06,0.9 0,-0.06 0,1.02 0.06,0.9"
                       inkscape:connector-curvature="0" />
                    <path
                       id="path32085"
                       style="fill:#33f50d;fill-opacity:1;fill-rule:nonzero;stroke:none"
                       d="m 214.1577,716.76481 1.2,-0.84 -0.06,0.06 1.2,-0.72 -0.12,0.06 0.66,-0.3 0.42,-0.18 -0.06,0 0.96,-0.36 -0.06,0 0.54,-0.18 -0.06,0.06 0.54,-0.12 0.06,-0.06 0.54,-0.18 -0.12,0.06 0.6,-0.12 0.6,-0.12 1.26,-0.18 -0.06,0 1.32,-0.12 1.38,-0.12 -0.06,0 1.5,-0.06 -0.06,0 1.44,0 1.56,0.06 -0.06,0 3.12,0.24 -0.06,0 1.56,0.18 1.56,0.24 -0.06,0 1.62,0.3 1.56,0.36 -0.06,0 1.5,0.36 1.56,0.42 -0.06,-0.06 1.44,0.48 -0.06,0 0.72,0.3 0.06,0 0.72,0.24 -0.06,0 0.72,0.3 -0.06,0 1.98,0.9 0.6,0.3 -0.06,-0.06 0.66,0.36 -0.06,-0.06 0.54,0.36 0.06,0.06 0.6,0.36 -0.06,-0.06 0.54,0.36 -0.06,0 0.54,0.42 1.2,-1.56 -0.54,-0.42 -0.06,-0.06 -0.54,-0.36 -0.6,-0.36 -0.54,-0.36 -0.06,-0.06 -0.66,-0.36 -0.6,-0.3 -0.06,0 -1.98,-0.9 -0.72,-0.3 -0.12,-0.06 -0.72,-0.24 0.12,0.06 -0.72,-0.3 -0.12,-0.06 -1.44,-0.48 -1.56,-0.42 -0.06,0 -1.5,-0.36 -1.56,-0.36 -0.06,0 -1.62,-0.3 0,-0.06 -1.56,-0.24 -0.06,0 -1.56,-0.18 -3.12,-0.24 -0.06,0 -1.56,-0.06 -1.5,0 -1.5,0.06 -0.06,0 -1.38,0.12 -1.32,0.12 -0.06,0 -1.26,0.18 -0.06,0.06 -1.2,0.24 -0.12,0 -0.54,0.18 0.12,0 -0.54,0.12 -0.12,0 -0.54,0.18 -0.06,0 -0.96,0.36 0,0.06 -0.42,0.18 -0.06,0 -0.66,0.3 -0.06,0.06 -1.2,0.72 -0.06,0 -1.2,0.84"
                       inkscape:connector-curvature="0" />
                    <path
                       id="path32087"
                       style="fill:#33f50d;fill-opacity:1;fill-rule:nonzero;stroke:none"
                       d="m 250.2177,719.70481 0.48,0.36 -0.06,-0.06 0.96,0.84 -0.06,-0.06 0.42,0.48 0,-0.06 0.36,0.42 0,0.06 0.42,0.48 -0.12,-0.18 0.9,1.44 -0.06,-0.06 0.24,0.48 0,-0.06 0.24,0.54 -0.06,-0.18 0.12,0.54 0.06,0.12 0.18,0.54 -0.06,-0.18 1.98,-0.24 -0.24,-0.72 0,0.06 -0.12,-0.54 -0.06,-0.18 -0.24,-0.54 0,-0.06 -0.24,-0.48 -0.06,-0.06 -0.9,-1.44 -0.06,-0.12 -0.42,-0.48 -0.36,-0.42 -0.42,-0.48 -0.12,-0.12 -0.96,-0.84 -0.06,0 -0.48,-0.36"
                       inkscape:connector-curvature="0" />
                    <path
                       id="path32089"
                       style="fill:#33f50d;fill-opacity:1;fill-rule:nonzero;stroke:none"
                       d="m 254.2377,725.70481 0.12,0.96 1.98,-0.24 -0.12,-0.96"
                       inkscape:connector-curvature="0" />
                    <path
                       id="path32091"
                       style="fill:#33f50d;fill-opacity:1;fill-rule:nonzero;stroke:none"
                       d="m 254.1777,725.16481 1.98,-0.24 0.06,0.54 -1.98,0.24"
                       inkscape:connector-curvature="0" />
                    <text
                       style="font-size:12px;-inkscape-font-specification:Arial Bold;font-family:Arial;font-weight:bold;font-style:normal;font-stretch:normal;font-variant:normal"
                       y="-754.02515"
                       x="204.97772"
                       id="text32093"
                       transform="scale(1,-1)">
                      <tspan
                         id="tspan32095"
                         sodipodi:role="line"
                         y="-754.02515"
                         x="204.97772 212.75476 220.53186 223.63959 231.41669 234.52441 242.30151 250.07855"
                         style="font-size:13.97999858999999923px;font-variant:normal;font-weight:bold;writing-mode:lr-tb;fill:#33f50d;fill-opacity:1;fill-rule:nonzero;stroke:none;font-family:Arial;-inkscape-font-specification:Arial Bold;font-style:normal;font-stretch:normal">opinions</tspan>
                    </text>
                    <path
                       id="path32097"
                       style="fill:#0000ff;fill-opacity:1;fill-rule:evenodd;stroke:none"
                       d="m 287.6577,772.32481 0.12,-0.18 0.18,-0.12 0.12,-0.12 0.24,-0.06 0.36,0 0.18,0.06 0.36,0.24 0.12,0.12 0.12,0.36 0.06,0.24 -0.18,0.54 -0.12,0.18 -0.18,0.12 -0.36,0.12 -0.36,0 -0.36,-0.12 -0.3,-0.3 -0.12,-0.18 0,-0.18 -0.06,-0.18 0,-0.18 0.06,-0.24 0.12,-0.12"
                       inkscape:connector-curvature="0" />
                    <path
                       id="path32099"
                       style="fill:#0000ff;fill-opacity:1;fill-rule:nonzero;stroke:none"
                       d="m 288.4977,772.80481 1.98,-3 0.42,-0.66 -0.78,-0.06 -7.26,-0.48 -0.96,-0.06 0.36,0.78 3.24,6.54 0.42,0.84 0.54,-0.84 0,-0.48 -3.24,-6.54 -0.96,0.48 0.48,0.3 7.26,0.48 0.12,-1.02 -0.54,0.18 -1.98,3"
                       inkscape:connector-curvature="0" />
                    <path
                       id="path32101"
                       style="fill:#0000ff;fill-opacity:1;fill-rule:nonzero;stroke:none"
                       d="m 286.4577,775.86481 2.04,-3.06 -0.9,-0.54 -1.98,3.06"
                       inkscape:connector-curvature="0" />
                    <path
                       id="path32103"
                       style="fill:#0000ff;fill-opacity:1;fill-rule:evenodd;stroke:none"
                       d="m 288.0777,772.56481 1.98,-3 -7.26,-0.48 3.24,6.54"
                       inkscape:connector-curvature="0" />
                    <path
                       id="path32105"
                       style="fill:#0000ff;fill-opacity:1;fill-rule:nonzero;stroke:none"
                       d="m 322.0977,793.86481 0.84,0.54 -1.08,1.68 -0.84,-0.54"
                       inkscape:connector-curvature="0" />
                    <path
                       id="path32107"
                       style="fill:#0000ff;fill-opacity:1;fill-rule:nonzero;stroke:none"
                       d="m 289.0377,772.02481 -0.84,-0.54 -1.08,1.68 0.84,0.54"
                       inkscape:connector-curvature="0" />
                    <path
                       id="path32109"
                       style="fill:#0000ff;fill-opacity:1;fill-rule:nonzero;stroke:none"
                       d="m 322.0977,793.86481 -1.08,1.68 -33.06,-21.84 1.08,-1.68"
                       inkscape:connector-curvature="0" />
                    <text
                       style="font-size:12px;-inkscape-font-specification:Arial Bold;font-family:Arial;font-weight:bold;font-style:normal;font-stretch:normal;font-variant:normal"
                       y="-796.50513"
                       x="330.43768"
                       id="text32111"
                       transform="scale(1,-1)">
                      <tspan
                         id="tspan32113"
                         sodipodi:role="line"
                         y="-796.50513"
                         x="330.43768 338.22455 346.01141 353.01538 360.80225 365.47156 372.47552 380.26239 384.16284 387.22028 395.00714 402.79401"
                         style="font-size:13.97999858999999923px;font-variant:normal;font-weight:bold;writing-mode:lr-tb;fill:#0000ff;fill-opacity:1;fill-rule:nonzero;stroke:none;font-family:Arial;-inkscape-font-specification:Arial Bold;font-style:normal;font-stretch:normal">observations</tspan>
                    </text>
                    <path
                       id="path32115"
                       style="fill:#ff0000;fill-opacity:1;fill-rule:evenodd;stroke:none"
                       d="m 325.0977,705.06481 0.06,0.18 0.06,0.24 0,0.36 -0.06,0.18 -0.12,0.18 -0.12,0.12 -0.12,0.18 -0.18,0.06 -0.18,0.06 -0.42,0 -0.18,-0.06 -0.18,-0.12 -0.24,-0.24 -0.12,-0.18 -0.06,-0.18 0,-0.42 0.06,-0.18 0.12,-0.18 0.12,-0.12 0.18,-0.12 0.12,-0.12 0.24,-0.06 0.36,0 0.18,0.06 0.18,0.12 0.12,0.12 0.18,0.12"
                       inkscape:connector-curvature="0" />
                    <path
                       id="path32117"
                       style="fill:#ff0000;fill-opacity:1;fill-rule:nonzero;stroke:none"
                       d="m 324.2577,705.60481 1.98,3.06 0.48,0.78 3.66,-7.32 0.48,-0.78 -0.96,0.06 -7.26,0.36 -0.9,0 0.48,0.78 0.42,0.24 7.26,-0.36 0,-1.02 -0.48,0.3 -3.24,6.42 0.96,0.48 0,-0.48 -1.98,-3.06"
                       inkscape:connector-curvature="0" />
                    <path
                       id="path32119"
                       style="fill:#ff0000;fill-opacity:1;fill-rule:nonzero;stroke:none"
                       d="m 322.2177,702.54481 2.04,3.06 0.9,-0.54 -2.04,-3.06"
                       inkscape:connector-curvature="0" />
                    <path
                       id="path32121"
                       style="fill:#ff0000;fill-opacity:1;fill-rule:evenodd;stroke:none"
                       d="m 324.6777,705.36481 1.98,3.06 3.24,-6.48 -7.26,0.36"
                       inkscape:connector-curvature="0" />
                    <path
                       id="path32123"
                       style="fill:#ff0000;fill-opacity:1;fill-rule:nonzero;stroke:none"
                       d="m 288.4377,730.26481 -0.84,0.54 -1.08,-1.68 0.84,-0.54"
                       inkscape:connector-curvature="0" />
                    <path
                       id="path32125"
                       style="fill:#ff0000;fill-opacity:1;fill-rule:nonzero;stroke:none"
                       d="m 324.7977,706.50481 0.84,-0.54 -1.08,-1.68 -0.84,0.54"
                       inkscape:connector-curvature="0" />
                    <path
                       id="path32127"
                       style="fill:#ff0000;fill-opacity:1;fill-rule:nonzero;stroke:none"
                       d="m 288.4377,730.26481 -1.08,-1.68 36.36,-23.76 1.08,1.68"
                       inkscape:connector-curvature="0" />
                    <text
                       style="font-size:12px;-inkscape-font-specification:Arial Bold;font-family:Arial;font-weight:bold;font-style:normal;font-stretch:normal;font-variant:normal"
                       y="-697.20514"
                       x="333.49768"
                       id="text32129"
                       transform="scale(1,-1)">
                      <tspan
                         id="tspan32131"
                         sodipodi:role="line"
                         y="-697.20514"
                         x="333.49768 336.61523 344.4021 351.40607 355.30646 359.97583 367.76263 374.76666 378.60834 381.72589 389.51276 397.29962"
                         style="font-size:13.97999858999999923px;font-variant:normal;font-weight:bold;writing-mode:lr-tb;fill:#ff0000;fill-opacity:1;fill-rule:nonzero;stroke:none;font-family:Arial;-inkscape-font-specification:Arial Bold;font-style:normal;font-stretch:normal">instructions</tspan>
                    </text>
                    <path
                       id="path32133"
                       style="fill:#ccdee3;fill-opacity:1;fill-rule:evenodd;stroke:none"
                       d="m 451.0377,720.84481 -0.12,0.96 -0.3,0.9 -0.48,0.78 -0.6,0.66 -0.72,0.6 -0.84,0.42 -0.96,0.3 -1.02,0.06 -0.96,-0.06 -0.96,-0.3 -0.84,-0.42 -0.78,-0.6 -0.6,-0.66 -0.42,-0.78 -0.3,-0.9 -0.12,-0.96 0.12,-0.96 0.3,-0.84 0.42,-0.84 0.6,-0.66 0.78,-0.6 0.84,-0.42 0.96,-0.24 0.96,-0.12 1.02,0.12 0.96,0.24 0.84,0.42 0.72,0.6 0.6,0.66 0.48,0.84 0.3,0.84 0.12,0.96"
                       inkscape:connector-curvature="0" />
                    <path
                       id="path32135"
                       style="fill:#ccdee3;fill-opacity:1;fill-rule:nonzero;stroke:none"
                       d="m 450.7977,720.78481 -0.12,0.96 0,-0.06 -0.3,0.9 0.06,0 -0.48,0.78 0,-0.06 -0.6,0.66 0.06,0 -0.72,0.6 0,-0.06 -0.84,0.42 0.06,0 -0.96,0.3 0.06,0 -1.02,0.06 -0.96,-0.06 0.06,0 -0.96,-0.3 0.06,0 -0.84,-0.42 0.06,0.06 -0.78,-0.6 -0.6,-0.66 0.06,0.06 -0.42,-0.78 -0.3,-0.9 0,0.06 -0.12,-0.96 0,0.06 0.12,-0.96 0,0.06 0.3,-0.84 0,0.06 0.42,-0.84 -0.06,0 0.6,-0.66 0,0.06 0.78,-0.6 -0.06,0 0.84,-0.42 -0.06,0.06 0.96,-0.24 0.96,-0.12 -0.06,0 1.02,0.12 -0.06,0 0.96,0.24 -0.06,-0.06 0.84,0.42 0.72,0.6 -0.06,-0.06 0.6,0.66 0.48,0.84 -0.06,-0.06 0.3,0.84 0,-0.06 0.12,0.96 0.48,-0.06 -0.12,-0.96 0,-0.06 -0.3,-0.84 -0.48,-0.84 -0.06,-0.06 -0.6,-0.66 -0.72,-0.6 -0.06,-0.06 -0.84,-0.42 -0.06,0 -0.96,-0.24 -1.02,-0.12 -0.06,0 -0.96,0.12 -0.06,0 -0.96,0.24 -0.06,0 -0.84,0.42 0,0.06 -0.78,0.6 -0.06,0 -0.6,0.66 0,0.06 -0.42,0.84 -0.06,0 -0.3,0.84 0,0.06 -0.12,0.96 0,0.06 0.12,0.96 0,0.06 0.3,0.9 0.06,0.06 0.42,0.78 0.6,0.66 0.06,0.06 0.78,0.6 0.84,0.42 0.06,0.06 0.96,0.3 0.06,0 0.96,0.06 1.02,-0.06 0.06,0 0.96,-0.3 0.06,-0.06 0.84,-0.42 0.06,0 0.72,-0.6 0,-0.06 0.6,-0.66 0.06,0 0.48,-0.78 0,-0.06 0.3,-0.9 0,-0.06 0.12,-0.96"
                       inkscape:connector-curvature="0" />
                    <path
                       id="path32137"
                       style="fill:#ccdee3;fill-opacity:1;fill-rule:nonzero;stroke:none"
                       d="m 450.7977,720.84481 0,-0.06 0.48,0.06 0,-0.06"
                       inkscape:connector-curvature="0" />
                    <path
                       id="path32139"
                       style="fill:#ccdee3;fill-opacity:1;fill-rule:nonzero;stroke:none"
                       d="m 437.2977,710.64481 -0.72,-0.6 1.26,-1.5 0.72,0.6"
                       inkscape:connector-curvature="0" />
                    <path
                       id="path32141"
                       style="fill:#ccdee3;fill-opacity:1;fill-rule:nonzero;stroke:none"
                       d="m 437.2977,710.64481 1.26,-1.5 8.1,6.84 0,1.56 -0.6,0.48 -0.66,-0.54"
                       inkscape:connector-curvature="0" />
                    <path
                       id="path32143"
                       style="fill:#ccdee3;fill-opacity:1;fill-rule:nonzero;stroke:none"
                       d="m 456.0777,710.04481 0.78,-0.6 -1.26,-1.56 -0.78,0.6"
                       inkscape:connector-curvature="0" />
                    <path
                       id="path32145"
                       style="fill:#ccdee3;fill-opacity:1;fill-rule:nonzero;stroke:none"
                       d="m 446.6577,717.54481 -1.26,-1.56 9.42,-7.5 1.26,1.56"
                       inkscape:connector-curvature="0" />
                    <path
                       id="path32147"
                       style="fill:#ccdee3;fill-opacity:1;fill-rule:nonzero;stroke:none"
                       d="m 439.9377,696.30481 -0.24,-0.96 1.92,-0.54 0.24,0.96"
                       inkscape:connector-curvature="0" />
                    <path
                       id="path32149"
                       style="fill:#ccdee3;fill-opacity:1;fill-rule:nonzero;stroke:none"
                       d="m 439.9377,696.30481 1.92,-0.54 5.52,19.74 0,0.54 -0.96,3.54 -0.96,-3.54"
                       inkscape:connector-curvature="0" />
                    <path
                       id="path32151"
                       style="fill:#ccdee3;fill-opacity:1;fill-rule:nonzero;stroke:none"
                       d="m 452.5977,696.42481 0.24,-0.96 -1.92,-0.48 -0.24,0.96"
                       inkscape:connector-curvature="0" />
                    <path
                       id="path32153"
                       style="fill:#ccdee3;fill-opacity:1;fill-rule:nonzero;stroke:none"
                       d="m 447.3777,716.04481 -1.92,-0.48 5.22,-19.62 1.92,0.48"
                       inkscape:connector-curvature="0" />
                    <path
                       id="path32155"
                       style="fill:#ccdee3;fill-opacity:1;fill-rule:evenodd;stroke:none"
                       d="m 469.3377,730.20481 -0.12,0.96 -0.3,0.84 -0.42,0.84 -0.66,0.66 -0.72,0.6 -0.84,0.42 -0.96,0.24 -0.96,0.12 -1.02,-0.12 -0.96,-0.24 -0.84,-0.42 -0.72,-0.6 -0.66,-0.66 -0.42,-0.84 -0.3,-0.84 -0.12,-0.96 0.12,-0.96 0.3,-0.84 0.42,-0.84 0.66,-0.66 0.72,-0.6 0.84,-0.42 0.96,-0.3 1.02,-0.06 0.96,0.06 0.96,0.3 0.84,0.42 0.72,0.6 0.66,0.66 0.42,0.84 0.3,0.84 0.12,0.96"
                       inkscape:connector-curvature="0" />
                    <path
                       id="path32157"
                       style="fill:#ccdee3;fill-opacity:1;fill-rule:nonzero;stroke:none"
                       d="m 469.0977,730.14481 -0.12,0.96 0,-0.06 -0.3,0.84 0.06,0 -0.42,0.84 0,-0.06 -0.66,0.66 0.06,0 -0.72,0.6 0,-0.06 -0.84,0.42 0.06,0 -0.96,0.24 0.06,0 -0.96,0.12 0.06,0 -1.02,-0.12 -0.96,-0.24 0.06,0 -0.84,-0.42 0.06,0.06 -0.72,-0.6 -0.66,-0.66 0.06,0.06 -0.42,-0.84 -0.3,-0.84 0,0.06 -0.12,-0.96 0,0.06 0.12,-0.96 0,0.06 0.3,-0.84 0,0.06 0.42,-0.84 -0.06,0.06 0.66,-0.66 0.72,-0.6 -0.06,0 0.84,-0.42 -0.06,0.06 0.96,-0.3 -0.06,0 1.02,-0.06 0.96,0.06 -0.06,0 0.96,0.3 -0.06,-0.06 0.84,0.42 0.72,0.6 -0.06,0 0.66,0.66 0,-0.06 0.42,0.84 -0.06,-0.06 0.3,0.84 0,-0.06 0.12,0.96 0.48,-0.06 -0.12,-0.96 0,-0.06 -0.3,-0.84 -0.42,-0.84 -0.72,-0.72 -0.72,-0.6 -0.06,-0.06 -0.84,-0.42 -0.06,0 -0.96,-0.3 -0.06,0 -0.96,-0.06 -1.02,0.06 -0.06,0 -0.96,0.3 -0.06,0 -0.84,0.42 0,0.06 -0.72,0.6 -0.06,0 -0.66,0.66 0,0.06 -0.42,0.84 -0.06,0 -0.3,0.84 0,0.06 -0.12,0.96 0,0.06 0.12,0.96 0,0.06 0.3,0.84 0.06,0.06 0.42,0.84 0,0.06 0.66,0.66 0.06,0 0.72,0.6 0.84,0.42 0.06,0.06 0.96,0.24 0.06,0 1.02,0.12 0.06,0 0.96,-0.12 0.96,-0.24 0.06,-0.06 0.84,-0.42 0.06,0 0.72,-0.6 0.72,-0.72 0.42,-0.84 0,-0.06 0.3,-0.84 0,-0.06 0.12,-0.96"
                       inkscape:connector-curvature="0" />
                    <path
                       id="path32159"
                       style="fill:#ccdee3;fill-opacity:1;fill-rule:nonzero;stroke:none"
                       d="m 469.0977,730.20481 0,-0.06 0.48,0.06 0,-0.06"
                       inkscape:connector-curvature="0" />
                    <path
                       id="path32161"
                       style="fill:#ccdee3;fill-opacity:1;fill-rule:nonzero;stroke:none"
                       d="m 455.5977,720.00481 -0.72,-0.6 1.26,-1.5 0.72,0.6"
                       inkscape:connector-curvature="0" />
                    <path
                       id="path32163"
                       style="fill:#ccdee3;fill-opacity:1;fill-rule:nonzero;stroke:none"
                       d="m 455.5977,720.00481 1.26,-1.5 8.16,6.84 0,1.56 -0.6,0.48 -0.66,-0.54"
                       inkscape:connector-curvature="0" />
                    <path
                       id="path32165"
                       style="fill:#ccdee3;fill-opacity:1;fill-rule:nonzero;stroke:none"
                       d="m 474.3777,719.40481 0.78,-0.6 -1.26,-1.56 -0.78,0.6"
                       inkscape:connector-curvature="0" />
                    <path
                       id="path32167"
                       style="fill:#ccdee3;fill-opacity:1;fill-rule:nonzero;stroke:none"
                       d="m 465.0177,726.90481 -1.26,-1.56 9.36,-7.5 1.26,1.56"
                       inkscape:connector-curvature="0" />
                    <path
                       id="path32169"
                       style="fill:#ccdee3;fill-opacity:1;fill-rule:nonzero;stroke:none"
                       d="m 458.2377,705.66481 -0.24,-0.96 1.92,-0.54 0.24,0.96"
                       inkscape:connector-curvature="0" />
                    <path
                       id="path32171"
                       style="fill:#ccdee3;fill-opacity:1;fill-rule:nonzero;stroke:none"
                       d="m 458.2377,705.66481 1.92,-0.54 5.52,19.74 0,0.54 -0.96,3.54 -0.96,-3.54"
                       inkscape:connector-curvature="0" />
                    <path
                       id="path32173"
                       style="fill:#ccdee3;fill-opacity:1;fill-rule:nonzero;stroke:none"
                       d="m 470.8977,705.72481 0.24,-0.96 -1.92,-0.48 -0.24,0.96"
                       inkscape:connector-curvature="0" />
                    <path
                       id="path32175"
                       style="fill:#ccdee3;fill-opacity:1;fill-rule:nonzero;stroke:none"
                       d="m 465.6777,725.40481 -1.92,-0.48 5.22,-19.68 1.92,0.48"
                       inkscape:connector-curvature="0" />
                    <path
                       id="path32177"
                       style="fill:#fdfefe;fill-opacity:1;fill-rule:evenodd;stroke:none"
                       d="m 455.8377,707.88481 17.58,-1.68 0,-34.62 -17.58,3.42"
                       inkscape:connector-curvature="0" />
                    <path
                       id="path32179"
                       style="fill:none;stroke:#ccdee3;stroke-width:0.06000000000000000;stroke-linecap:butt;stroke-linejoin:miter;stroke-miterlimit:10;stroke-opacity:1;stroke-dasharray:none"
                       d="m 455.8377,707.88481 17.58,-1.68 m 0,0 0,-34.62 m 0,0 -17.58,3.42 m 0,0 0,32.88"
                       inkscape:connector-curvature="0" />
                    <path
                       id="path32181"
                       style="fill:#fdfefe;fill-opacity:1;fill-rule:evenodd;stroke:none"
                       d="m 473.4177,706.20481 0,-34.62 12.78,9.3 0,30.36"
                       inkscape:connector-curvature="0" />
                    <path
                       id="path32183"
                       style="fill:none;stroke:#ccdee3;stroke-width:0.06000000000000000;stroke-linecap:butt;stroke-linejoin:miter;stroke-miterlimit:10;stroke-opacity:1;stroke-dasharray:none"
                       d="m 473.4177,706.20481 0,-34.62 m 0,0 12.78,9.3 m 0,0 0,30.36 m 0,0 -12.78,-5.04"
                       inkscape:connector-curvature="0" />
                    <path
                       id="path32185"
                       style="fill:#fdfefe;fill-opacity:1;fill-rule:evenodd;stroke:none"
                       d="m 473.4177,706.20481 12.78,5.04 -13.5,0.84 -16.86,-4.2"
                       inkscape:connector-curvature="0" />
                    <path
                       id="path32187"
                       style="fill:none;stroke:#ccdee3;stroke-width:0.06000000000000000;stroke-linecap:butt;stroke-linejoin:miter;stroke-miterlimit:10;stroke-opacity:1;stroke-dasharray:none"
                       d="m 473.4177,706.20481 12.78,5.04 m 0,0 -13.5,0.84 m 0,0 -16.86,-4.2 m 0,0 17.58,-1.68 m 0.24,5.82 -16.5,-4.26 m 0,0 0,-33.06"
                       inkscape:connector-curvature="0" />
                    <path
                       id="path32189"
                       style="fill:#ccdee3;fill-opacity:1;fill-rule:evenodd;stroke:none"
                       d="m 463.8177,705.06481 0,-11.34 0.72,-0.06 0,11.28"
                       inkscape:connector-curvature="0" />
                    <path
                       id="path32191"
                       style="fill:none;stroke:#ccdee3;stroke-width:0.06000000000000000;stroke-linecap:butt;stroke-linejoin:miter;stroke-miterlimit:10;stroke-opacity:1;stroke-dasharray:none"
                       d="m 461.5977,706.32481 -3.06,0.3 m 3.06,-1.44 -3.06,0.3 m 3.06,-1.5 -3.06,0.3 m 3.06,-1.44 -3.06,0.3 m 3.06,-1.5 -3.06,0.36 m 3.06,-1.5 -3.06,0.36 m 3.06,-1.56 -3.06,0.42 m 3.06,-1.56 -3.06,0.36 m 3.06,-1.5 -3.06,0.36 m 3.06,-1.56 -3.06,0.42 m 3.06,-1.56 -3.06,0.42 m 3.06,-1.62 -3.06,0.42 m 3.06,-1.56 -3.06,0.42 m 3.06,-1.56 -3.06,0.48 m 3.06,-1.68 -3.06,0.48 m 3.06,-1.62 -3.06,0.42 m 3.06,-1.62 -3.06,0.48 m 3.06,-1.62 -3.06,0.48 m 3.06,-1.62 -3.06,0.48 m 3.06,-1.68 -3.06,0.54 m 3.06,-1.68 -3.06,0.48 m 3.06,-1.68 -3.06,0.54 m 3.06,-1.68 -3.06,0.54 m 3.06,-1.68 -3.06,0.54 m 3.06,-1.74 -3.06,0.54 m 3.06,-1.68 -3.06,0.54 m 3.06,-1.74 -3.06,0.6 m 3.06,-1.74 -3.06,0.6"
                       inkscape:connector-curvature="0" />
                    <path
                       id="path32193"
                       style="fill:#ccdee3;fill-opacity:1;fill-rule:evenodd;stroke:none"
                       d="m 464.4777,705.78481 -0.06,0.18 -0.18,0.06 -0.18,-0.06 -0.06,-0.18 0.06,-0.18 0.18,-0.06 0.18,0.06 0.06,0.18"
                       inkscape:connector-curvature="0" />
                    <path
                       id="path32195"
                       style="fill:#f0f5f7;fill-opacity:1;fill-rule:evenodd;stroke:none"
                       d="m 470.9577,705.00481 1.2,-0.12 0,-0.3 -1.2,0.12"
                       inkscape:connector-curvature="0" />
                    <path
                       id="path32197"
                       style="fill:none;stroke:#ccdee3;stroke-width:0.06000000000000000;stroke-linecap:butt;stroke-linejoin:miter;stroke-miterlimit:10;stroke-opacity:1;stroke-dasharray:none"
                       d="m 470.9577,705.00481 1.2,-0.12 m 0,0 0,-0.3 m 0,0 -1.2,0.12 m 0,0 0,0.3 m -7.14,-11.28 0,11.34 m 0,0 -0.36,0 m 0,0 0,-11.46 m 0,0 0.36,0.12 m -0.36,-0.12 0.36,0.12 m 0,0 0.72,-0.06 m 0,0 0,-0.18 m 0,0 -1.08,0.12 m 8.04,2.52 -0.06,0.12 m 0,0 -0.24,0 m 0,0 -0.12,-0.06 m 0,0 -0.3,0 m 0,0 -0.18,-0.06 m 0,0 -0.06,-0.12 m 0,0 0,-0.24 m 0,0 0.18,-0.36 m 0,0 0.18,-0.12 m 0,0 0.48,0 m 0,0 0.24,0.36 m -0.12,0.42 -0.12,-0.3 m 0,0 0.12,-0.12 m 0,0 0.12,-0.06 m -0.48,0.6 0,0 m 0,0 0.06,0.18 m 0,0 0.12,0.12 m 0,0 0,-0.18 m 0,0 -0.18,-0.12 m 0,0 0,0 m 0.48,-17.82 -0.18,0.6 m 0,0 -0.24,0.18 m 0,0 -0.24,0.06 m 0,0 -0.3,-0.06 m 0,0 -0.18,-0.18 m 0,0 -0.24,-0.6 m 0,0 0.24,-0.54 m 0,0 0.18,-0.18 m 0,0 0.3,-0.06 m 0,0 0.24,0.06 m 0,0 0.24,0.18 m 0,0 0.18,0.54 m 0,0 0,0 m -0.18,0 -0.12,0.42 m 0,0 -0.36,0.18 m 0,0 -0.36,-0.18 m 0,0 -0.18,-0.42 m 0,0 0.18,-0.42 m 0,0 0.36,-0.18 m 0,0 0.36,0.18 m 0,0 0.12,0.42 m 0,0 0,0 m -0.24,0 -0.06,0.24 m 0,0 -0.18,0.06 m 0,0 -0.18,-0.06 m 0,0 -0.06,-0.24 m 0,0 0.06,-0.18 m 0,0 0.18,-0.12 m 0,0 0.18,0.12 m 0,0 0.06,0.18 m 0,0 0,0 m 0.42,-2.7 -0.18,0.6"
                       inkscape:connector-curvature="0" />
                    <path
                       id="path32199"
                       style="fill:none;stroke:#ccdee3;stroke-width:0.06000000000000000;stroke-linecap:butt;stroke-linejoin:miter;stroke-miterlimit:10;stroke-opacity:1;stroke-dasharray:none"
                       d="m 471.4377,676.26481 -0.24,0.18 m 0,0 -0.24,0.06 m 0,0 -0.3,-0.06 m 0,0 -0.18,-0.18 m 0,0 -0.24,-0.6 m 0,0 0.24,-0.54 m 0,0 0.18,-0.18 m 0,0 0.3,-0.06 m 0,0 0.24,0.06 m 0,0 0.24,0.18 m 0,0 0.18,0.54 m 0,0 0,0 m -0.18,0 -0.12,0.42 m 0,0 -0.36,0.18 m 0,0 -0.36,-0.18 m 0,0 -0.18,-0.42 m 0,0 0.18,-0.42 m 0,0 0.36,-0.18 m 0,0 0.36,0.18 m 0,0 0.12,0.42 m 0,0 0,0 m -0.78,-0.18 0.3,0.54 m 0,0 0.3,-0.54 m 0,0 -0.6,0 m 14.88,33.78 -11.46,-4.56 m 11.46,3.54 -11.46,-4.68 m 11.46,3.66 -11.46,-4.8 m 11.46,3.84 -11.46,-4.98 m 11.46,3.96 -11.46,-5.16 m 11.46,4.14 -11.46,-5.28 m 11.46,4.26 -11.46,-5.4 m 11.46,4.38 -11.46,-5.52 m 11.46,4.5 -11.46,-5.64 m 11.46,4.62 -11.46,-5.82 m 11.46,4.8 -11.46,-5.94 m 11.46,4.98 -11.46,-6.12 m 11.46,5.1 -11.46,-6.24 m 11.46,5.22 -11.46,-6.42 m 11.46,5.4 -11.46,-6.54 m 11.46,5.52 -11.46,-6.66 m 11.46,5.64 -11.46,-6.78 m 11.46,5.76 -11.46,-6.9 m 11.46,5.88 -11.46,-7.08 m 11.46,6.12 -11.46,-7.26 m 11.46,6.24 -11.46,-7.38 m 11.46,6.36 -11.46,-7.5 m 11.46,6.48 -11.46,-7.62 m 11.46,6.6 -11.46,-7.8 m 11.46,6.78 -11.46,-7.92 m 11.46,6.9 -11.46,-8.04 m 11.46,7.08 -11.46,-8.22 m 11.46,7.2 -11.46,-8.34"
                       inkscape:connector-curvature="0" />
                    <path
                       id="path32201"
                       style="fill:#fdfefe;fill-opacity:1;fill-rule:evenodd;stroke:none"
                       d="m 474.9777,672.42481 0.6,0.6 0.54,0.48 0.12,0.06 0.18,-0.36 0,-0.36 -0.18,-0.24 -0.18,-0.18 -0.6,-0.12 -0.48,0.12"
                       inkscape:connector-curvature="0" />
                    <path
                       id="path32203"
                       style="fill:none;stroke:#ccdee3;stroke-width:0.06000000000000000;stroke-linecap:butt;stroke-linejoin:miter;stroke-miterlimit:10;stroke-opacity:1;stroke-dasharray:none"
                       d="m 474.9777,672.42481 0.6,0.6 m 0,0 0.54,0.48 m 0,0 0.12,0.06 m 0,0 0.18,-0.36 m 0,0 0,-0.36 m 0,0 -0.18,-0.24 m 0,0 -0.18,-0.18 m 0,0 -0.6,-0.12 m 0,0 -0.48,0.12 m 0,0 0,0"
                       inkscape:connector-curvature="0" />
                    <path
                       id="path32205"
                       style="fill:#fdfefe;fill-opacity:1;fill-rule:evenodd;stroke:none"
                       d="m 474.9777,672.42481 0,2.46 1.44,0.36 0,-2.22"
                       inkscape:connector-curvature="0" />
                    <path
                       id="path32207"
                       style="fill:none;stroke:#ccdee3;stroke-width:0.06000000000000000;stroke-linecap:butt;stroke-linejoin:miter;stroke-miterlimit:10;stroke-opacity:1;stroke-dasharray:none"
                       d="m 474.9777,672.42481 0,2.46 m 0,0 1.44,0.36 m 0,0 0,-2.22"
                       inkscape:connector-curvature="0" />
                    <path
                       id="path32209"
                       style="fill:#fdfefe;fill-opacity:1;fill-rule:evenodd;stroke:none"
                       d="m 474.9777,674.88481 0.06,0.06 0.54,0.36 0.54,0.42 0.12,0.06 0.18,-0.3 0,-0.3 -0.18,-0.18 -0.18,-0.12 -0.6,-0.12 -0.48,0.12"
                       inkscape:connector-curvature="0" />
                    <path
                       id="path32211"
                       style="fill:none;stroke:#ccdee3;stroke-width:0.06000000000000000;stroke-linecap:butt;stroke-linejoin:miter;stroke-miterlimit:10;stroke-opacity:1;stroke-dasharray:none"
                       d="m 474.9777,674.88481 0.06,0.06 m 0,0 0.54,0.36 m 0,0 0.54,0.42 m 0,0 0.12,0.06 m 0,0 0.18,-0.3 m 0,0 0,-0.3 m 0,0 -0.18,-0.18 m 0,0 -0.18,-0.12 m 0,0 -0.6,-0.12 m 0,0 -0.48,0.12 m 0,0 0,0"
                       inkscape:connector-curvature="0" />
                    <path
                       id="path32213"
                       style="fill:#fdfefe;fill-opacity:1;fill-rule:evenodd;stroke:none"
                       d="m 484.2777,679.26481 0.12,0.06 0.48,0.48 0.54,0.48 0.06,0.06 0.18,-0.36 0,-0.3 -0.12,-0.24 -0.24,-0.18 -0.54,-0.12 -0.48,0.12"
                       inkscape:connector-curvature="0" />
                    <path
                       id="path32215"
                       style="fill:none;stroke:#ccdee3;stroke-width:0.06000000000000000;stroke-linecap:butt;stroke-linejoin:miter;stroke-miterlimit:10;stroke-opacity:1;stroke-dasharray:none"
                       d="m 484.2777,679.26481 0.12,0.06 m 0,0 0.48,0.48 m 0,0 0.54,0.48 m 0,0 0.06,0.06 m 0,0 0.18,-0.36 m 0,0 0,-0.3 m 0,0 -0.12,-0.24 m 0,0 -0.24,-0.18 m 0,0 -0.54,-0.12 m 0,0 -0.48,0.12 m 0,0 0,0"
                       inkscape:connector-curvature="0" />
                    <path
                       id="path32217"
                       style="fill:#fdfefe;fill-opacity:1;fill-rule:evenodd;stroke:none"
                       d="m 484.2777,679.26481 0,2.28 1.38,0.36 0,-2.1"
                       inkscape:connector-curvature="0" />
                    <path
                       id="path32219"
                       style="fill:none;stroke:#ccdee3;stroke-width:0.06000000000000000;stroke-linecap:butt;stroke-linejoin:miter;stroke-miterlimit:10;stroke-opacity:1;stroke-dasharray:none"
                       d="m 484.2777,679.26481 0,2.28 m 0,0 1.38,0.36 m 0,0 0,-2.1"
                       inkscape:connector-curvature="0" />
                    <path
                       id="path32221"
                       style="fill:#fdfefe;fill-opacity:1;fill-rule:evenodd;stroke:none"
                       d="m 484.2777,681.54481 0.12,0.06 0.48,0.36 0.54,0.42 0.06,0.06 0.18,-0.3 0,-0.3 -0.12,-0.18 -0.24,-0.12 -0.54,-0.12 -0.48,0.12"
                       inkscape:connector-curvature="0" />
                    <path
                       id="path32223"
                       style="fill:none;stroke:#ccdee3;stroke-width:0.06000000000000000;stroke-linecap:butt;stroke-linejoin:miter;stroke-miterlimit:10;stroke-opacity:1;stroke-dasharray:none"
                       d="m 484.2777,681.54481 0.12,0.06 m 0,0 0.48,0.36 m 0,0 0.54,0.42 m 0,0 0.06,0.06 m 0,0 0.18,-0.3 m 0,0 0,-0.3 m 0,0 -0.12,-0.18 m 0,0 -0.24,-0.12 m 0,0 -0.54,-0.12 m 0,0 -0.48,0.12 m 0,0 0,0 m -26.88,-6.84 0,33 m 0,0 16.56,4.32"
                       inkscape:connector-curvature="0" />
                    <path
                       id="path32225"
                       style="fill:#ccdee3;fill-opacity:1;fill-rule:evenodd;stroke:none"
                       d="m 461.8377,783.72481 -0.12,0.9 -0.3,0.9 -0.42,0.78 -0.66,0.72 -0.72,0.54 -0.84,0.48 -0.96,0.24 -0.96,0.12 -1.02,-0.12 -0.96,-0.24 -0.84,-0.48 -0.72,-0.54 -0.66,-0.72 -0.42,-0.78 -0.3,-0.9 -0.12,-0.9 0.12,-0.96 0.3,-0.9 0.42,-0.78 0.66,-0.72 0.72,-0.54 0.84,-0.42 0.96,-0.3 1.02,-0.12 0.96,0.12 0.96,0.3 0.84,0.42 0.72,0.54 0.66,0.72 0.42,0.78 0.3,0.9 0.12,0.96"
                       inkscape:connector-curvature="0" />
                    <path
                       id="path32227"
                       style="fill:#ccdee3;fill-opacity:1;fill-rule:nonzero;stroke:none"
                       d="m 461.5977,783.66481 -0.12,0.9 0,-0.06 -0.3,0.9 0.06,0 -0.42,0.78 0,-0.06 -0.66,0.72 0.06,0 -0.72,0.54 0,-0.06 -0.84,0.48 0.06,0 -0.96,0.24 0.06,0 -0.96,0.12 0.06,0 -1.02,-0.12 -0.96,-0.24 0.06,0 -0.84,-0.48 0.06,0.06 -0.72,-0.54 -0.66,-0.72 0.06,0.06 -0.42,-0.78 -0.3,-0.9 0,0.06 -0.12,-0.9 0,0.06 0.12,-0.96 0,0.06 0.3,-0.9 0,0.06 0.42,-0.78 -0.06,0 0.66,-0.72 0,0.06 0.72,-0.54 -0.06,0 0.84,-0.42 -0.06,0.06 0.96,-0.3 1.02,-0.12 -0.06,0 0.96,0.12 -0.06,0 0.96,0.3 -0.06,-0.06 0.84,0.42 0.72,0.54 -0.06,-0.06 0.66,0.72 0.42,0.78 -0.06,-0.06 0.3,0.9 0,-0.06 0.12,0.96 0.48,-0.06 -0.12,-0.96 0,-0.06 -0.3,-0.9 -0.42,-0.78 -0.06,-0.06 -0.66,-0.72 -0.72,-0.54 -0.06,-0.06 -0.84,-0.42 -0.06,0 -0.96,-0.3 -0.96,-0.12 -0.06,0 -1.02,0.12 -0.06,0 -0.96,0.3 -0.06,0 -0.84,0.42 0,0.06 -0.72,0.54 -0.06,0 -0.66,0.72 0,0.06 -0.42,0.78 -0.06,0 -0.3,0.9 0,0.06 -0.12,0.96 0,0.06 0.12,0.9 0,0.06 0.3,0.9 0.06,0.06 0.42,0.78 0.66,0.72 0.06,0.06 0.72,0.54 0.84,0.48 0.06,0.06 0.96,0.24 0.06,0 1.02,0.12 0.06,0 0.96,-0.12 0.96,-0.24 0.06,-0.06 0.84,-0.48 0.06,0 0.72,-0.54 0,-0.06 0.66,-0.72 0.06,0 0.42,-0.78 0,-0.06 0.3,-0.9 0,-0.06 0.12,-0.9"
                       inkscape:connector-curvature="0" />
                    <path
                       id="path32229"
                       style="fill:#ccdee3;fill-opacity:1;fill-rule:nonzero;stroke:none"
                       d="m 461.5977,783.72481 0,-0.06 0.48,0.06 0,-0.06"
                       inkscape:connector-curvature="0" />
                    <path
                       id="path32231"
                       style="fill:#ccdee3;fill-opacity:1;fill-rule:nonzero;stroke:none"
                       d="m 448.0977,773.46481 -0.72,-0.6 1.26,-1.5 0.72,0.6"
                       inkscape:connector-curvature="0" />
                    <path
                       id="path32233"
                       style="fill:#ccdee3;fill-opacity:1;fill-rule:nonzero;stroke:none"
                       d="m 448.0977,773.46481 1.26,-1.5 8.16,6.9 0,1.56 -0.6,0.48 -0.66,-0.54"
                       inkscape:connector-curvature="0" />
                    <path
                       id="path32235"
                       style="fill:#ccdee3;fill-opacity:1;fill-rule:nonzero;stroke:none"
                       d="m 466.8777,772.92481 0.78,-0.6 -1.26,-1.56 -0.78,0.6"
                       inkscape:connector-curvature="0" />
                    <path
                       id="path32237"
                       style="fill:#ccdee3;fill-opacity:1;fill-rule:nonzero;stroke:none"
                       d="m 457.5177,780.42481 -1.26,-1.56 9.36,-7.5 1.26,1.56"
                       inkscape:connector-curvature="0" />
                    <path
                       id="path32239"
                       style="fill:#ccdee3;fill-opacity:1;fill-rule:nonzero;stroke:none"
                       d="m 450.7377,759.12481 -0.24,-0.96 1.92,-0.54 0.24,0.96"
                       inkscape:connector-curvature="0" />
                    <path
                       id="path32241"
                       style="fill:#ccdee3;fill-opacity:1;fill-rule:nonzero;stroke:none"
                       d="m 450.7377,759.12481 1.92,-0.54 5.52,19.8 0,0.54 -0.96,3.54 -0.96,-3.54"
                       inkscape:connector-curvature="0" />
                    <path
                       id="path32243"
                       style="fill:#ccdee3;fill-opacity:1;fill-rule:nonzero;stroke:none"
                       d="m 463.3977,759.24481 0.24,-0.96 -1.92,-0.48 -0.24,0.96"
                       inkscape:connector-curvature="0" />
                    <path
                       id="path32245"
                       style="fill:#ccdee3;fill-opacity:1;fill-rule:nonzero;stroke:none"
                       d="m 458.1777,778.92481 -1.92,-0.48 5.22,-19.68 1.92,0.48"
                       inkscape:connector-curvature="0" />
                    <path
                       id="path32247"
                       style="fill:#9405ff;fill-opacity:1;fill-rule:evenodd;stroke:none"
                       d="m 455.7777,751.14481 -0.18,0 -0.18,-0.06 -0.36,-0.24 -0.12,-0.12 -0.18,-0.54 0.06,-0.24 0.12,-0.36 0.12,-0.12 0.18,-0.12 0.18,-0.12 0.18,-0.06 0.42,0 0.18,0.06 0.12,0.12 0.18,0.12 0.12,0.12 0.12,0.18 0,0.18 0.06,0.24 -0.06,0.18 0,0.18 -0.12,0.18 -0.12,0.12 -0.18,0.12 -0.12,0.12 -0.18,0.06 -0.24,0"
                       inkscape:connector-curvature="0" />
                    <path
                       id="path32249"
                       style="fill:#9405ff;fill-opacity:1;fill-rule:nonzero;stroke:none"
                       d="m 455.7777,750.18481 -4.44,0 0.42,0.72 3.6,6.3 0.48,0.78 0.42,-0.72 3.66,-6.3 0.48,-0.78 -0.96,0 -0.42,0.24 -3.66,6.3 0.9,0.54 0,-0.54 -3.6,-6.3 -0.9,0.48 0.42,0.3 3.6,0"
                       inkscape:connector-curvature="0" />
                    <path
                       id="path32251"
                       style="fill:#9405ff;fill-opacity:1;fill-rule:nonzero;stroke:none"
                       d="m 455.7777,751.20481 3.66,0 0,-1.02 -3.66,0 0,1.02 z"
                       inkscape:connector-curvature="0" />
                    <path
                       id="path32253"
                       style="fill:#9405ff;fill-opacity:1;fill-rule:evenodd;stroke:none"
                       d="m 455.7777,750.66481 -3.6,0 3.6,6.3 3.66,-6.3"
                       inkscape:connector-curvature="0" />
                    <path
                       id="path32255"
                       style="fill:#9405ff;fill-opacity:1;fill-rule:nonzero;stroke:none"
                       d="m 454.8177,730.62481 1.98,0 0,-0.96 -1.98,0 0,0.96 z"
                       inkscape:connector-curvature="0" />
                    <path
                       id="path32257"
                       style="fill:#9405ff;fill-opacity:1;fill-rule:nonzero;stroke:none"
                       d="m 454.8177,751.14481 1.98,0 0,-20.52 -1.98,0 0,20.52 z"
                       inkscape:connector-curvature="0" />
                    <path
                       id="path32259"
                       style="fill:#0000ff;fill-opacity:1;fill-rule:evenodd;stroke:none"
                       d="m 417.0177,792.06481 -0.06,-0.24 0,-0.36 0.06,-0.18 0.12,-0.18 0.12,-0.12 0.12,-0.18 0.18,-0.06 0.18,-0.06 0.24,-0.06 0.18,0.06 0.36,0.12 0.12,0.12 0.24,0.36 0.06,0.18 0,0.36 -0.12,0.36 -0.12,0.18 -0.18,0.12 -0.36,0.12 -0.18,0.06 -0.24,-0.06 -0.18,0 -0.12,-0.12 -0.18,-0.12 -0.12,-0.12 -0.12,-0.18"
                       inkscape:connector-curvature="0" />
                    <path
                       id="path32261"
                       style="fill:#0000ff;fill-opacity:1;fill-rule:nonzero;stroke:none"
                       d="m 417.9177,791.64481 -1.44,-3.3 -0.3,-0.78 -0.48,0.66 -4.38,5.76 -0.54,0.78 0.84,0.06 7.26,0.9 0.9,0.18 -0.42,-0.9 -0.36,-0.3 -7.26,-0.9 -0.12,1.02 0.48,-0.18 4.38,-5.76 -0.78,-0.66 -0.12,0.54 1.44,3.3"
                       inkscape:connector-curvature="0" />
                    <path
                       id="path32263"
                       style="fill:#0000ff;fill-opacity:1;fill-rule:nonzero;stroke:none"
                       d="m 419.3577,795.00481 -1.44,-3.36 -0.9,0.42 1.44,3.36"
                       inkscape:connector-curvature="0" />
                    <path
                       id="path32265"
                       style="fill:#0000ff;fill-opacity:1;fill-rule:evenodd;stroke:none"
                       d="m 417.4977,791.82481 -1.44,-3.3 -4.38,5.76 7.26,0.9"
                       inkscape:connector-curvature="0" />
                    <path
                       id="path32267"
                       style="fill:#0000ff;fill-opacity:1;fill-rule:nonzero;stroke:none"
                       d="m 445.6977,778.80481 0.9,-0.36 0.78,1.8 -0.9,0.36"
                       inkscape:connector-curvature="0" />
                    <path
                       id="path32269"
                       style="fill:#0000ff;fill-opacity:1;fill-rule:nonzero;stroke:none"
                       d="m 417.6177,790.74481 -0.9,0.36 0.78,1.8 0.9,-0.36"
                       inkscape:connector-curvature="0" />
                    <path
                       id="path32271"
                       style="fill:#0000ff;fill-opacity:1;fill-rule:nonzero;stroke:none"
                       d="m 445.6977,778.80481 0.78,1.8 -28.08,11.94 -0.78,-1.8"
                       inkscape:connector-curvature="0" />
                    <text
                       style="font-size:12px;-inkscape-font-specification:Arial Bold;font-family:Arial;font-weight:bold;font-style:normal;font-stretch:normal;font-variant:normal"
                       y="-740.52515"
                       x="462.67767"
                       id="text32273"
                       transform="scale(1,-1)">
                      <tspan
                         id="tspan32275"
                         sodipodi:role="line"
                         y="-740.52515"
                         x="462.67767 470.47296 477.48529 481.3941 484.45154 492.24677 500.04205"
                         style="font-size:13.97999858999999923px;font-variant:normal;font-weight:bold;writing-mode:lr-tb;fill:#9405ff;fill-opacity:1;fill-rule:nonzero;stroke:none;font-family:Arial;-inkscape-font-specification:Arial Bold;font-style:normal;font-stretch:normal">actions</tspan>
                    </text>
                    <text
                       style="font-size:12px;-inkscape-font-specification:Arial Bold;font-family:Arial;font-weight:bold;font-style:normal;font-stretch:normal;font-variant:normal"
                       y="-770.64502"
                       x="470.47711"
                       id="text32277"
                       transform="scale(1,-1)">
                      <tspan
                         id="tspan32279"
                         sodipodi:role="line"
                         y="-770.64502"
                         x="470.47711 478.03473 485.83276 489.73456 492.85211 500.59003 508.38812"
                         style="font-size:13.97999858999999923px;font-style:normal;font-variant:normal;writing-mode:lr-tb;fill:#ccdee3;fill-opacity:1;fill-rule:nonzero;stroke:none;font-family:Arial;-inkscape-font-specification:Arial Bold;font-weight:bold;font-stretch:normal">patient</tspan>
                      <tspan
                         id="tspan32281"
                         sodipodi:role="line"
                         y="-702.72461"
                         x="490.21686 493.33301 501.11847 508.12109 515.90656 522.90912 526.80817 529.8656 537.651 545.43646 549.33545 557.12097"
                         style="font-size:13.97999858999999923px;font-style:normal;font-variant:normal;writing-mode:lr-tb;fill:#96b5b8;fill-opacity:1;fill-rule:nonzero;stroke:none;font-family:Arial;-inkscape-font-specification:Arial Bold;font-weight:bold;font-stretch:normal">investigator</tspan>
                      <tspan
                         id="tspan32283"
                         sodipodi:role="line"
                         y="-687.8443"
                         x="491.9574 499.74286 507.52832 515.31378 523.09924 526.76202"
                         style="font-size:13.97999858999999923px;font-style:normal;font-variant:normal;writing-mode:lr-tb;fill:#96b5b8;fill-opacity:1;fill-rule:nonzero;stroke:none;font-family:Arial;-inkscape-font-specification:Arial Bold;font-weight:bold;font-stretch:normal">agents</tspan>
                      <tspan
                         id="tspan32285"
                         sodipodi:role="line"
                         y="-678.12396"
                         x="198.97711 202.08771 209.86755 216.86456 224.64441 231.64142 235.53485 238.64539 246.42529 254.20514 258.09857 265.87842"
                         style="font-size:13.97999858999999923px;font-style:normal;font-variant:normal;writing-mode:lr-tb;fill:#ccdee3;fill-opacity:1;fill-rule:nonzero;stroke:none;font-family:Arial;-inkscape-font-specification:Arial Bold;font-weight:bold;font-stretch:normal">investigator</tspan>
                    </text>
                    <path
                       id="path32287"
                       style="fill:#ff0000;fill-opacity:1;fill-rule:evenodd;stroke:none"
                       d="m 429.1377,705.24481 -0.06,0.18 -0.12,0.18 -0.12,0.12 -0.18,0.12 -0.12,0.12 -0.24,0.06 -0.36,0 -0.18,-0.06 -0.36,-0.24 -0.12,-0.18 -0.06,-0.12 -0.06,-0.18 0,-0.42 0.06,-0.18 0.24,-0.36 0.12,-0.12 0.36,-0.12 0.42,0 0.18,0.06 0.18,0.12 0.24,0.24 0.12,0.18 0.06,0.18 0,0.42"
                       inkscape:connector-curvature="0" />
                    <path
                       id="path32289"
                       style="fill:#ff0000;fill-opacity:1;fill-rule:nonzero;stroke:none"
                       d="m 428.1177,705.00481 -0.72,3.54 -0.18,0.84 0.78,-0.24 6.9,-2.22 0.9,-0.3 -0.6,-0.6 -5.4,-4.86 -0.72,-0.54 -0.18,0.84 0.18,0.48 5.4,4.86 0.72,-0.78 -0.54,-0.12 -6.9,2.22 0.24,1.02 0.42,-0.36 0.72,-3.54"
                       inkscape:connector-curvature="0" />
                    <path
                       id="path32291"
                       style="fill:#ff0000;fill-opacity:1;fill-rule:nonzero;stroke:none"
                       d="m 428.8977,701.46481 -0.78,3.54 1.02,0.24 0.78,-3.54"
                       inkscape:connector-curvature="0" />
                    <path
                       id="path32293"
                       style="fill:#ff0000;fill-opacity:1;fill-rule:evenodd;stroke:none"
                       d="m 428.5977,705.12481 -0.72,3.54 6.9,-2.22 -5.4,-4.86"
                       inkscape:connector-curvature="0" />
                    <path
                       id="path32295"
                       style="fill:#ff0000;fill-opacity:1;fill-rule:nonzero;stroke:none"
                       d="m 405.9777,701.40481 -0.96,-0.18 0.42,-1.92 0.96,0.18"
                       inkscape:connector-curvature="0" />
                    <path
                       id="path32297"
                       style="fill:#ff0000;fill-opacity:1;fill-rule:nonzero;stroke:none"
                       d="m 427.9377,705.96481 0.96,0.18 0.42,-1.92 -0.96,-0.18"
                       inkscape:connector-curvature="0" />
                    <path
                       id="path32299"
                       style="fill:#ff0000;fill-opacity:1;fill-rule:nonzero;stroke:none"
                       d="m 405.9777,701.40481 0.42,-1.92 21.96,4.56 -0.42,1.92"
                       inkscape:connector-curvature="0" />
                    <text
                       style="font-size:12px;-inkscape-font-specification:Arial Bold;font-family:Arial;font-weight:bold;font-style:normal;font-stretch:normal;font-variant:normal"
                       y="-742.68512"
                       x="209.83771"
                       id="text32301"
                       transform="scale(1,-1)">
                      <tspan
                         id="tspan32303"
                         sodipodi:role="line"
                         y="-742.68512"
                         x="209.83771 213.8349 217.19733 223.87048 229.8717 235.87292 242.54608 248.5473 254.54852 264.54572 271.21887 277.89209"
                         style="font-size:12px;font-variant:normal;font-weight:bold;writing-mode:lr-tb;fill:#33f50d;fill-opacity:1;fill-rule:nonzero;stroke:none;font-family:Arial;-inkscape-font-specification:Arial Bold;font-style:normal;font-stretch:normal">- assessment</tspan>
                      <tspan
                         id="tspan32305"
                         sodipodi:role="line"
                         y="-732.00513"
                         x="209.83771 213.83008 217.1925 223.8609 230.5293 237.19769 239.85809"
                         style="font-size:12px;font-variant:normal;font-weight:bold;writing-mode:lr-tb;fill:#33f50d;fill-opacity:1;fill-rule:nonzero;stroke:none;font-family:Arial;-inkscape-font-specification:Arial Bold;font-style:normal;font-stretch:normal">- goals</tspan>
                      <tspan
                         id="tspan32307"
                         sodipodi:role="line"
                         y="-720.42511"
                         x="209.83771 213.83008 217.1925 223.8609 226.5213 233.1897"
                         style="font-size:12px;font-variant:normal;font-weight:bold;writing-mode:lr-tb;fill:#33f50d;fill-opacity:1;fill-rule:nonzero;stroke:none;font-family:Arial;-inkscape-font-specification:Arial Bold;font-style:normal;font-stretch:normal">- plan</tspan>
                    </text>
                    <text
                       style="font-size:12px;-inkscape-font-specification:Arial Bold;font-family:Arial;font-weight:bold;font-style:normal;font-stretch:normal;font-variant:normal"
                       y="-808.74512"
                       x="362.71771"
                       id="text32309"
                       transform="scale(1,-1)">
                      <tspan
                         id="tspan32311"
                         y="-808.74512"
                         x="362.71771"
                         style="font-size:13.97999858999999923px;font-variant:normal;font-weight:bold;writing-mode:lr-tb;fill:#0000ff;fill-opacity:1;fill-rule:nonzero;stroke:none;font-family:Arial;-inkscape-font-specification:Arial Bold;font-style:normal;font-stretch:normal">1</tspan>
                      <tspan
                         id="tspan32313"
                         y="-776.64563"
                         x="226.81812"
                         style="font-size:13.97999858999999923px;font-variant:normal;font-weight:bold;writing-mode:lr-tb;fill:#33f50d;fill-opacity:1;fill-rule:nonzero;stroke:none;font-family:Arial;-inkscape-font-specification:Arial Bold;font-style:normal;font-stretch:normal">2</tspan>
                      <tspan
                         id="tspan32315"
                         y="-680.82532"
                         x="364.93768"
                         style="font-size:13.97999858999999923px;font-variant:normal;font-weight:bold;writing-mode:lr-tb;fill:#ff0000;fill-opacity:1;fill-rule:nonzero;stroke:none;font-family:Arial;-inkscape-font-specification:Arial Bold;font-style:normal;font-stretch:normal">3</tspan>
                      <tspan
                         id="tspan32317"
                         y="-740.88483"
                         x="517.27777"
                         style="font-size:13.97999858999999923px;font-variant:normal;font-weight:bold;writing-mode:lr-tb;fill:#9405ff;fill-opacity:1;fill-rule:nonzero;stroke:none;font-family:Arial;-inkscape-font-specification:Arial Bold;font-style:normal;font-stretch:normal">4</tspan>
                    </text>
                    <text
                       style="font-size:12px;-inkscape-font-specification:Arial Bold;font-family:Arial;font-weight:bold;font-style:normal;font-stretch:normal;font-variant:normal"
                       y="-804.12512"
                       x="103.93768"
                       id="text32319"
                       transform="scale(1,-1)">
                      <tspan
                         id="tspan32321"
                         sodipodi:role="line"
                         y="-804.12512"
                         x="103.93768 110.60132 117.26489 123.92853 126.58411 129.23969 135.23132 141.8949 148.55847"
                         style="font-size:12px;font-variant:normal;font-weight:bold;writing-mode:lr-tb;fill:#002194;fill-opacity:1;fill-rule:nonzero;stroke:none;font-family:Arial;-inkscape-font-specification:Arial Bold;font-style:normal;font-stretch:normal">published</tspan>
                      <tspan
                         id="tspan32323"
                         sodipodi:role="line"
                         y="-790.14514"
                         x="105.61768 112.28607 118.28247 120.94287 127.61133 134.27972 140.94812 146.94452"
                         style="font-size:12px;font-variant:normal;font-weight:bold;writing-mode:lr-tb;fill:#002194;fill-opacity:1;fill-rule:nonzero;stroke:none;font-family:Arial;-inkscape-font-specification:Arial Bold;font-style:normal;font-stretch:normal">evidence</tspan>
                      <tspan
                         id="tspan32325"
                         sodipodi:role="line"
                         y="-776.1651"
                         x="116.59772 123.26007 129.92249 135.9129"
                         style="font-size:12px;font-variant:normal;font-weight:bold;writing-mode:lr-tb;fill:#002194;fill-opacity:1;fill-rule:nonzero;stroke:none;font-family:Arial;-inkscape-font-specification:Arial Bold;font-style:normal;font-stretch:normal">base</tspan>
                      <tspan
                         id="tspan32327"
                         sodipodi:role="line"
                         y="-732.36511"
                         x="106.33771 113.00128 119.66492 123.65253 129.6441 136.30768 142.97131 149.63489"
                         style="font-size:12px;font-variant:normal;font-weight:bold;writing-mode:lr-tb;fill:#002194;fill-opacity:1;fill-rule:nonzero;stroke:none;font-family:Arial;-inkscape-font-specification:Arial Bold;font-style:normal;font-stretch:normal">personal</tspan>
                      <tspan
                         id="tspan32329"
                         sodipodi:role="line"
                         y="-718.38513"
                         x="100.69769 106.68927 113.35291 120.01648 128.67212 131.3277 137.99127 144.65491 151.31848"
                         style="font-size:12px;font-variant:normal;font-weight:bold;writing-mode:lr-tb;fill:#002194;fill-opacity:1;fill-rule:nonzero;stroke:none;font-family:Arial;-inkscape-font-specification:Arial Bold;font-style:normal;font-stretch:normal">knowledge</tspan>
                      <tspan
                         id="tspan32331"
                         sodipodi:role="line"
                         y="-704.40509"
                         x="116.35773 123.02008 129.6825 135.67291"
                         style="font-size:12px;font-variant:normal;font-weight:bold;writing-mode:lr-tb;fill:#002194;fill-opacity:1;fill-rule:nonzero;stroke:none;font-family:Arial;-inkscape-font-specification:Arial Bold;font-style:normal;font-stretch:normal">base</tspan>
                    </text>
                    <path
                       id="path32333"
                       style="fill:#002194;fill-opacity:1;fill-rule:evenodd;stroke:none"
                       d="m 187.6377,772.56481 0.06,0.18 0,0.36 -0.06,0.18 -0.24,0.36 -0.12,0.12 -0.18,0.06 -0.24,0.06 -0.36,0 -0.18,-0.06 -0.18,-0.12 -0.24,-0.24 -0.12,-0.18 -0.06,-0.24 0,-0.36 0.06,-0.18 0.12,-0.18 0.12,-0.12 0.36,-0.24 0.18,-0.06 0.36,0 0.18,0.06 0.18,0.12 0.18,0.12 0.12,0.18 0.06,0.18"
                       inkscape:connector-curvature="0" />
                    <path
                       id="path32335"
                       style="fill:#002194;fill-opacity:1;fill-rule:nonzero;stroke:none"
                       d="m 186.7377,772.92481 1.32,3.36 0.3,0.78 0.54,-0.66 4.56,-5.64 0.6,-0.66 -0.96,-0.18 -7.14,-1.14 -0.84,-0.12 0.36,0.84 0.36,0.3 7.14,1.14 0.12,-1.02 -0.48,0.18 -4.56,5.64 0.84,0.66 0.06,-0.48 -1.32,-3.36"
                       inkscape:connector-curvature="0" />
                    <path
                       id="path32337"
                       style="fill:#002194;fill-opacity:1;fill-rule:nonzero;stroke:none"
                       d="m 185.4777,769.50481 1.26,3.42 0.9,-0.36 -1.26,-3.42"
                       inkscape:connector-curvature="0" />
                    <path
                       id="path32339"
                       style="fill:#002194;fill-opacity:1;fill-rule:evenodd;stroke:none"
                       d="m 187.1577,772.74481 1.32,3.36 4.56,-5.64 -7.14,-1.14"
                       inkscape:connector-curvature="0" />
                    <path
                       id="path32341"
                       style="fill:#002194;fill-opacity:1;fill-rule:nonzero;stroke:none"
                       d="m 152.89769,786.84481 -0.9,0.36 -0.72,-1.86 0.9,-0.36"
                       inkscape:connector-curvature="0" />
                    <path
                       id="path32343"
                       style="fill:#002194;fill-opacity:1;fill-rule:nonzero;stroke:none"
                       d="m 187.0977,773.82481 0.9,-0.36 -0.72,-1.86 -0.9,0.36"
                       inkscape:connector-curvature="0" />
                    <path
                       id="path32345"
                       style="fill:#002194;fill-opacity:1;fill-rule:nonzero;stroke:none"
                       d="m 152.89769,786.84481 -0.72,-1.86 34.20001,-13.02 0.72,1.86"
                       inkscape:connector-curvature="0" />
                    <path
                       id="path32347"
                       style="fill:#002194;fill-opacity:1;fill-rule:evenodd;stroke:none"
                       d="m 187.9377,727.38481 0,0.18 -0.06,0.18 -0.24,0.36 -0.12,0.12 -0.36,0.12 -0.42,0 -0.36,-0.12 -0.12,-0.12 -0.24,-0.36 -0.06,-0.18 0,-0.42 0.06,-0.18 0.12,-0.12 0.12,-0.18 0.12,-0.12 0.18,-0.12 0.18,-0.06 0.42,0 0.18,0.06 0.18,0.12 0.12,0.12 0.12,0.18 0.12,0.12 0.06,0.18 0,0.24"
                       inkscape:connector-curvature="0" />
                    <path
                       id="path32349"
                       style="fill:#002194;fill-opacity:1;fill-rule:nonzero;stroke:none"
                       d="m 186.9777,727.38481 0,4.44 0.72,-0.42 6.3,-3.6 0.78,-0.48 -0.72,-0.42 -6.3,-3.66 -0.78,-0.48 0,0.96 0.24,0.42 6.3,3.66 0.54,-0.9 -0.54,0 -6.3,3.6 0.48,0.9 0.3,-0.42 0,-3.6"
                       inkscape:connector-curvature="0" />
                    <path
                       id="path32351"
                       style="fill:#002194;fill-opacity:1;fill-rule:nonzero;stroke:none"
                       d="m 186.9777,727.38481 1.02,0 0,-3.66 -1.02,0 0,3.66 z"
                       inkscape:connector-curvature="0" />
                    <path
                       id="path32353"
                       style="fill:#002194;fill-opacity:1;fill-rule:evenodd;stroke:none"
                       d="m 187.4577,727.38481 0,3.6 6.3,-3.6 -6.3,-3.66"
                       inkscape:connector-curvature="0" />
                    <path
                       id="path32355"
                       style="fill:#002194;fill-opacity:1;fill-rule:nonzero;stroke:none"
                       d="m 163.8177,728.34481 0.96,0 0,-1.98 -0.96,0 0,1.98 z"
                       inkscape:connector-curvature="0" />
                    <path
                       id="path32357"
                       style="fill:#002194;fill-opacity:1;fill-rule:nonzero;stroke:none"
                       d="m 164.7777,728.34481 23.16,0 0,-1.98 -23.16,0 0,1.98 z"
                       inkscape:connector-curvature="0" />
                  </g>
                </g>
              </g>
            </g>
          </g>
        </g>
      </g>
    </g>
  </g>
</svg>
